G04*
G04 #@! TF.GenerationSoftware,Altium Limited,Altium Designer,18.1.7 (191)*
G04*
G04 Layer_Physical_Order=1*
G04 Layer_Color=255*
%FSLAX25Y25*%
%MOIN*%
G70*
G01*
G75*
%ADD12C,0.01000*%
%ADD14C,0.00600*%
%ADD15R,0.07087X0.14961*%
%ADD16R,0.03150X0.11417*%
%ADD17R,0.02559X0.02559*%
%ADD18R,0.06693X0.03150*%
%ADD19R,0.05906X0.03937*%
%ADD20R,0.01181X0.02756*%
%ADD21R,0.03937X0.02000*%
%ADD22R,0.01181X0.02000*%
%ADD23R,0.02559X0.02559*%
%ADD24R,0.04921X0.10630*%
%ADD25R,0.03937X0.07874*%
%ADD26R,0.02756X0.02913*%
%ADD27O,0.02913X0.00787*%
%ADD28O,0.00787X0.02913*%
%ADD29R,0.20669X0.20669*%
%ADD30R,0.05906X0.03150*%
%ADD55C,0.02000*%
%ADD56C,0.02500*%
%ADD57C,0.00800*%
%ADD58C,0.03000*%
%ADD59C,0.01500*%
%ADD60C,0.03937*%
%ADD61O,0.04331X0.10236*%
%ADD62O,0.04331X0.08268*%
%ADD63C,0.13780*%
%ADD64C,0.02700*%
%ADD65C,0.02000*%
%ADD66C,0.03000*%
G36*
X1567391Y459800D02*
X1559135Y459800D01*
X1558802Y460300D01*
Y462631D01*
X1554850D01*
X1550897D01*
Y460300D01*
X1550897Y460162D01*
X1550564Y459800D01*
X1526500Y459800D01*
X1526500Y477500D01*
X1536506Y477500D01*
X1536610Y476976D01*
X1536964Y476446D01*
X1537493Y476093D01*
X1538117Y475969D01*
X1538742Y476093D01*
X1539271Y476446D01*
X1539625Y476976D01*
X1539662Y477162D01*
X1540061Y477262D01*
X1540419Y476885D01*
X1540402Y476800D01*
X1540526Y476176D01*
X1540880Y475646D01*
X1541409Y475293D01*
X1542033Y475169D01*
X1542584Y475278D01*
X1543043Y475086D01*
X1543084Y475065D01*
Y474147D01*
X1542070D01*
Y470513D01*
X1542070Y470387D01*
Y470013D01*
X1542070Y469887D01*
Y468167D01*
X1542063Y468133D01*
Y464913D01*
X1541961Y464400D01*
X1542113Y463639D01*
X1542544Y462994D01*
X1543189Y462563D01*
X1543950Y462412D01*
X1544710Y462563D01*
X1545355Y462994D01*
X1545786Y463639D01*
X1545938Y464400D01*
X1545836Y464913D01*
Y468133D01*
X1545829Y468167D01*
Y469887D01*
X1545829Y470013D01*
Y470387D01*
X1545829Y470513D01*
Y474147D01*
X1544919D01*
Y477500D01*
X1567391Y477500D01*
Y459800D01*
D02*
G37*
G36*
Y430600D02*
X1564677D01*
X1564606Y430706D01*
X1563961Y431137D01*
X1563200Y431288D01*
X1562439Y431137D01*
X1562132Y430931D01*
X1528568D01*
X1528261Y431137D01*
X1527500Y431288D01*
X1527000Y431189D01*
X1526500Y431533D01*
Y432757D01*
X1531043D01*
Y448917D01*
X1526500D01*
Y457886D01*
X1550772Y457886D01*
X1550897Y457386D01*
Y454969D01*
X1554850D01*
X1558802D01*
Y457386D01*
X1558802Y457438D01*
X1558927Y457886D01*
X1567391Y457886D01*
Y430600D01*
D02*
G37*
G36*
X1443260Y490278D02*
X1441316Y488334D01*
X1440907Y487722D01*
X1440763Y487000D01*
Y470313D01*
X1440661Y469800D01*
X1440813Y469039D01*
X1441244Y468394D01*
X1441889Y467963D01*
X1442650Y467812D01*
X1443410Y467963D01*
X1444055Y468394D01*
X1444486Y469039D01*
X1444638Y469800D01*
X1444536Y470313D01*
Y486219D01*
X1447412Y489095D01*
X1474770D01*
Y488086D01*
X1479329D01*
Y489834D01*
X1481699D01*
X1485081Y486451D01*
Y474393D01*
X1484081Y474113D01*
X1483834Y474483D01*
X1478896Y479421D01*
Y480487D01*
X1479296D01*
Y482267D01*
X1477016D01*
X1474458D01*
X1473737Y481884D01*
X1473435Y482087D01*
X1473537Y482600D01*
X1473386Y483361D01*
X1472955Y484006D01*
X1472310Y484437D01*
X1471549Y484588D01*
X1470788Y484437D01*
X1470143Y484006D01*
X1469712Y483361D01*
X1469561Y482600D01*
X1469663Y482087D01*
Y481869D01*
X1468663Y481455D01*
X1467687Y482430D01*
Y485041D01*
X1467886Y485339D01*
X1468038Y486100D01*
X1467886Y486861D01*
X1467455Y487506D01*
X1466810Y487937D01*
X1466050Y488088D01*
X1465289Y487937D01*
X1464644Y487506D01*
X1464213Y486861D01*
X1464197Y486781D01*
X1464058Y486573D01*
X1463914Y485851D01*
Y481649D01*
X1464058Y480927D01*
X1464467Y480315D01*
X1477514Y467268D01*
Y452116D01*
X1477657Y451394D01*
X1478066Y450782D01*
X1479007Y449841D01*
X1478625Y448917D01*
X1472757D01*
Y432757D01*
X1481043D01*
Y446498D01*
X1481967Y446881D01*
X1483982Y444866D01*
X1484594Y444457D01*
X1485081Y444360D01*
Y422520D01*
X1470875D01*
Y423900D01*
X1468596D01*
Y424900D01*
X1470875D01*
Y426680D01*
X1470875D01*
Y426861D01*
X1470875D01*
Y428640D01*
X1468596D01*
Y429640D01*
X1470875D01*
Y431420D01*
X1470875D01*
Y431601D01*
X1470875D01*
Y433380D01*
X1468596D01*
Y434380D01*
X1470875D01*
Y436160D01*
X1470875D01*
Y436341D01*
X1470875D01*
Y438120D01*
X1468596D01*
Y439120D01*
X1470875D01*
Y440900D01*
X1470875D01*
Y441081D01*
X1470875D01*
Y442860D01*
X1468596D01*
Y443860D01*
X1470875D01*
Y445640D01*
X1470875D01*
Y445821D01*
X1470875D01*
Y447600D01*
X1468596D01*
Y448100D01*
X1468096D01*
Y450380D01*
X1466316D01*
Y449979D01*
X1462582D01*
Y447629D01*
X1461973Y447020D01*
X1434472D01*
X1433747Y447744D01*
X1433838Y448200D01*
X1433686Y448961D01*
X1433255Y449606D01*
X1432610Y450037D01*
X1431849Y450188D01*
X1431089Y450037D01*
X1430444Y449606D01*
X1430013Y448961D01*
X1429861Y448200D01*
X1430013Y447439D01*
X1429220Y446826D01*
X1406681Y469365D01*
X1406681Y491202D01*
X1413613D01*
Y476749D01*
X1413511Y476237D01*
X1413663Y475476D01*
X1414094Y474831D01*
X1414739Y474400D01*
X1415499Y474248D01*
X1416260Y474400D01*
X1416905Y474831D01*
X1417336Y475476D01*
X1417488Y476237D01*
X1417386Y476749D01*
Y491202D01*
X1418863D01*
Y472400D01*
X1419007Y471678D01*
X1419416Y471066D01*
X1423875Y466607D01*
X1424487Y466198D01*
X1425209Y466054D01*
X1426493D01*
X1426630Y465963D01*
X1427450Y465800D01*
X1428213Y465951D01*
X1428284Y465953D01*
X1429213Y465391D01*
Y464990D01*
X1429357Y464268D01*
X1429766Y463657D01*
X1441549Y451873D01*
X1442161Y451464D01*
X1442883Y451321D01*
X1447803D01*
Y451032D01*
X1455696D01*
Y451321D01*
X1459045D01*
X1459767Y451464D01*
X1460379Y451873D01*
X1462862Y454356D01*
X1463296Y454647D01*
X1463727Y455292D01*
X1463879Y456053D01*
X1463727Y456814D01*
X1463296Y457459D01*
X1462651Y457890D01*
X1461891Y458041D01*
X1461130Y457890D01*
X1460485Y457459D01*
X1460194Y457024D01*
X1458263Y455093D01*
X1455696D01*
Y455382D01*
X1447803D01*
Y455093D01*
X1443664D01*
X1435407Y463350D01*
X1435664Y464403D01*
X1435717Y464454D01*
X1436364Y464886D01*
X1436828Y465581D01*
X1436991Y466400D01*
X1436978Y466464D01*
X1438823Y468308D01*
X1439121Y468755D01*
X1439226Y469282D01*
Y491202D01*
X1442877D01*
X1443260Y490278D01*
D02*
G37*
G36*
X1334134Y416200D02*
X1334489Y415963D01*
X1335250Y415812D01*
X1336010Y415963D01*
X1336365Y416200D01*
X1343534Y416200D01*
Y406426D01*
X1330408Y393300D01*
X1327400D01*
X1327400Y416200D01*
X1334134Y416200D01*
D02*
G37*
G36*
X1360563Y404806D02*
X1362067D01*
X1362441Y404806D01*
X1362583Y404576D01*
X1362771Y404294D01*
X1363052Y404106D01*
X1363383Y404040D01*
X1369149Y404033D01*
X1369160Y404036D01*
X1369660Y403989D01*
X1369660Y403989D01*
X1369660Y403989D01*
X1371977D01*
X1386934Y389032D01*
X1387264Y388811D01*
X1387654Y388734D01*
X1543043D01*
Y383800D01*
X1348300D01*
Y388927D01*
X1348800Y389345D01*
X1359544Y389278D01*
X1359547Y389278D01*
X1359550Y389278D01*
X1359713Y389310D01*
X1359877Y389341D01*
X1359879Y389343D01*
X1359881Y389344D01*
X1360020Y389436D01*
X1360159Y389528D01*
X1360160Y389530D01*
X1360163Y389531D01*
X1363962Y393331D01*
X1364150Y393612D01*
X1364216Y393944D01*
Y397266D01*
X1364150Y397598D01*
X1363962Y397879D01*
X1363162Y398680D01*
X1362881Y398868D01*
X1362549Y398934D01*
X1360341D01*
X1359316Y399959D01*
Y404300D01*
X1359315Y404306D01*
X1359563Y404638D01*
Y407263D01*
X1360563D01*
Y404806D01*
D02*
G37*
%LPC*%
G36*
X1558802Y466099D02*
X1555350D01*
Y463631D01*
X1558802D01*
Y466099D01*
D02*
G37*
G36*
X1554350D02*
X1550897D01*
Y463631D01*
X1554350D01*
Y466099D01*
D02*
G37*
G36*
X1558802Y453969D02*
X1555350D01*
Y451501D01*
X1558802D01*
Y453969D01*
D02*
G37*
G36*
X1554350D02*
X1550897D01*
Y451501D01*
X1554350D01*
Y453969D01*
D02*
G37*
G36*
X1456065Y487586D02*
X1452219D01*
Y485511D01*
X1456065D01*
Y487586D01*
D02*
G37*
G36*
X1451219D02*
X1447372D01*
Y485511D01*
X1451219D01*
Y487586D01*
D02*
G37*
G36*
X1479329Y487086D02*
X1474770D01*
Y485307D01*
X1474770D01*
X1474737Y485046D01*
X1474737D01*
X1474737Y484320D01*
Y483267D01*
X1477016D01*
X1479296D01*
Y485046D01*
X1479296D01*
X1479329Y485307D01*
X1479329D01*
X1479329Y486033D01*
Y487086D01*
D02*
G37*
G36*
X1456065Y484512D02*
X1451719D01*
X1447372D01*
Y482437D01*
X1451078D01*
X1451550Y481437D01*
X1451507Y481371D01*
X1450385Y480250D01*
X1449976Y479638D01*
X1449833Y478916D01*
Y473801D01*
X1447772D01*
Y469755D01*
X1447772Y469451D01*
X1447803Y468464D01*
Y464418D01*
X1455696D01*
Y465025D01*
X1457698D01*
X1458210Y464923D01*
X1458723Y465025D01*
X1461474D01*
X1462196Y465168D01*
X1462778Y465557D01*
X1463879D01*
Y467403D01*
X1463886Y467437D01*
X1463879Y467471D01*
X1463879Y469316D01*
X1463879Y470317D01*
Y471537D01*
X1463886Y471571D01*
X1463879Y471605D01*
Y473450D01*
X1462034D01*
X1462000Y473457D01*
X1455665D01*
Y473801D01*
X1453605D01*
Y478135D01*
X1454174Y478704D01*
X1454609Y478994D01*
X1455040Y479639D01*
X1455191Y480400D01*
X1455040Y481161D01*
X1454855Y481437D01*
X1455328Y482437D01*
X1456065D01*
Y484512D01*
D02*
G37*
G36*
X1470875Y450380D02*
X1469096D01*
Y448600D01*
X1470875D01*
Y450380D01*
D02*
G37*
%LPD*%
D12*
X1551875Y485706D02*
X1552269Y486100D01*
X1527860D02*
X1528253Y485706D01*
X1551875Y480100D02*
Y485706D01*
X1528253Y480100D02*
Y485706D01*
D14*
X1539080Y486100D02*
X1539269Y485911D01*
X1538117Y477600D02*
Y480079D01*
X1542033Y476800D02*
Y480100D01*
X1544001Y472319D02*
Y480100D01*
X1543950Y472267D02*
X1544001Y472319D01*
X1541049Y484168D02*
Y485722D01*
Y484168D02*
X1542117Y483100D01*
X1539317Y482816D02*
Y485485D01*
Y482816D02*
X1542033Y480100D01*
X1539080Y485722D02*
X1539317Y485485D01*
X1541049Y485722D02*
Y486100D01*
X1538096Y480100D02*
X1538117Y480079D01*
X1537112Y485722D02*
Y486100D01*
Y483590D02*
Y485722D01*
Y483590D02*
X1537417Y483284D01*
D15*
X1476900Y440837D02*
D03*
X1526900D02*
D03*
D16*
X1487136Y459341D02*
D03*
X1493042D02*
D03*
X1498947D02*
D03*
X1504853D02*
D03*
X1510758D02*
D03*
X1516664D02*
D03*
D17*
X1477017Y478633D02*
D03*
Y482767D02*
D03*
X1477050Y491720D02*
D03*
Y487586D02*
D03*
X1514517Y486067D02*
D03*
Y481933D02*
D03*
X1543950Y472267D02*
D03*
Y468133D02*
D03*
X1462000Y467437D02*
D03*
Y471571D02*
D03*
X1389939Y405868D02*
D03*
Y410002D02*
D03*
X1385339Y405868D02*
D03*
Y410002D02*
D03*
X1380739Y405868D02*
D03*
Y410002D02*
D03*
X1376139Y405868D02*
D03*
Y410002D02*
D03*
X1371539Y405868D02*
D03*
Y410002D02*
D03*
X1387350Y485467D02*
D03*
Y481333D02*
D03*
X1382611Y485467D02*
D03*
Y481333D02*
D03*
X1377973Y485467D02*
D03*
Y481333D02*
D03*
X1373334Y485467D02*
D03*
Y481333D02*
D03*
X1368696Y485467D02*
D03*
Y481333D02*
D03*
X1364057Y485467D02*
D03*
Y481333D02*
D03*
X1359419Y485467D02*
D03*
Y481333D02*
D03*
X1354780Y485467D02*
D03*
Y481333D02*
D03*
X1350142Y485467D02*
D03*
Y481333D02*
D03*
X1345503Y485467D02*
D03*
Y481333D02*
D03*
X1340865Y485467D02*
D03*
Y481333D02*
D03*
X1336226Y485467D02*
D03*
Y481333D02*
D03*
X1331588Y485467D02*
D03*
Y481333D02*
D03*
X1326950Y485467D02*
D03*
Y481333D02*
D03*
D18*
X1451750Y453207D02*
D03*
Y466593D02*
D03*
X1451719Y485011D02*
D03*
Y471626D02*
D03*
D19*
X1554850Y454469D02*
D03*
Y463131D02*
D03*
D20*
X1551875Y480100D02*
D03*
X1549907D02*
D03*
X1547939D02*
D03*
X1545970D02*
D03*
X1544001D02*
D03*
X1542033D02*
D03*
X1538096D02*
D03*
X1536127D02*
D03*
X1534159D02*
D03*
X1532191D02*
D03*
X1530222D02*
D03*
X1528253D02*
D03*
D21*
X1527860Y485722D02*
D03*
X1552269D02*
D03*
D22*
X1531206D02*
D03*
X1533175D02*
D03*
X1535143D02*
D03*
X1537112D02*
D03*
X1539080D02*
D03*
X1541049D02*
D03*
X1543017D02*
D03*
X1544986D02*
D03*
X1546954D02*
D03*
X1548923D02*
D03*
D23*
X1464462Y448100D02*
D03*
X1468596D02*
D03*
X1464462Y443360D02*
D03*
X1468596D02*
D03*
X1464462Y438620D02*
D03*
X1468596D02*
D03*
X1464462Y433880D02*
D03*
X1468596D02*
D03*
X1464462Y429140D02*
D03*
X1468596D02*
D03*
X1464462Y424400D02*
D03*
X1468596D02*
D03*
X1314757Y427000D02*
D03*
X1318891D02*
D03*
X1319206Y437573D02*
D03*
X1315072D02*
D03*
X1397078Y414685D02*
D03*
X1401211D02*
D03*
X1397078Y419577D02*
D03*
X1401211D02*
D03*
X1397078Y424469D02*
D03*
X1401211D02*
D03*
X1397078Y429362D02*
D03*
X1401211D02*
D03*
X1397078Y434254D02*
D03*
X1401211D02*
D03*
X1397078Y439146D02*
D03*
X1401211D02*
D03*
X1397078Y444038D02*
D03*
X1401211D02*
D03*
X1397078Y448931D02*
D03*
X1401211D02*
D03*
X1397078Y453823D02*
D03*
X1401211D02*
D03*
X1315072Y447627D02*
D03*
X1319206D02*
D03*
X1397078Y458715D02*
D03*
X1401211D02*
D03*
X1315072Y452655D02*
D03*
X1319206D02*
D03*
X1397078Y463608D02*
D03*
X1401211D02*
D03*
X1315072Y457682D02*
D03*
X1319206D02*
D03*
X1397078Y468500D02*
D03*
X1401211D02*
D03*
X1315072Y462709D02*
D03*
X1319206D02*
D03*
X1397078Y473392D02*
D03*
X1401211D02*
D03*
X1315072Y467736D02*
D03*
X1319206D02*
D03*
X1397078Y478285D02*
D03*
X1401211D02*
D03*
X1315072Y472764D02*
D03*
X1319206D02*
D03*
D24*
X1584054Y408746D02*
D03*
X1612598D02*
D03*
D25*
X1590452Y405400D02*
D03*
X1598326D02*
D03*
X1606200D02*
D03*
D26*
X1360063Y407263D02*
D03*
X1364236D02*
D03*
X1360063Y412600D02*
D03*
X1364236D02*
D03*
X1342029Y426990D02*
D03*
X1337856D02*
D03*
X1342029Y421964D02*
D03*
X1337856D02*
D03*
X1328943Y421959D02*
D03*
X1333117D02*
D03*
X1328943Y426985D02*
D03*
X1333117D02*
D03*
X1319029Y432349D02*
D03*
X1314856D02*
D03*
D27*
X1342212Y457724D02*
D03*
Y456149D02*
D03*
Y454574D02*
D03*
Y452999D02*
D03*
Y451424D02*
D03*
Y449850D02*
D03*
Y448275D02*
D03*
Y446700D02*
D03*
Y445125D02*
D03*
Y443550D02*
D03*
Y441976D02*
D03*
Y440401D02*
D03*
Y438826D02*
D03*
Y437251D02*
D03*
Y435676D02*
D03*
X1368944D02*
D03*
Y437251D02*
D03*
Y438826D02*
D03*
Y440401D02*
D03*
Y441976D02*
D03*
Y443550D02*
D03*
Y445125D02*
D03*
Y446700D02*
D03*
Y448275D02*
D03*
Y449850D02*
D03*
Y451424D02*
D03*
Y452999D02*
D03*
Y454574D02*
D03*
Y456149D02*
D03*
Y457724D02*
D03*
D28*
X1344554Y433334D02*
D03*
X1346129D02*
D03*
X1347704D02*
D03*
X1349278D02*
D03*
X1350853D02*
D03*
X1352428D02*
D03*
X1354003D02*
D03*
X1355578D02*
D03*
X1357152D02*
D03*
X1358727D02*
D03*
X1360302D02*
D03*
X1361877D02*
D03*
X1363452D02*
D03*
X1365026D02*
D03*
X1366601D02*
D03*
Y460066D02*
D03*
X1365026D02*
D03*
X1363452D02*
D03*
X1361877D02*
D03*
X1360302D02*
D03*
X1358727D02*
D03*
X1357152D02*
D03*
X1355578D02*
D03*
X1354003D02*
D03*
X1352428D02*
D03*
X1350853D02*
D03*
X1349278D02*
D03*
X1347704D02*
D03*
X1346129D02*
D03*
X1344554D02*
D03*
D29*
X1355578Y446700D02*
D03*
D30*
X1060724Y334310D02*
D03*
X1051276D02*
D03*
X1060724Y339035D02*
D03*
X1051276D02*
D03*
X1351276Y39035D02*
D03*
X1360724D02*
D03*
X1351276Y34310D02*
D03*
X1360724D02*
D03*
X1023425Y114035D02*
D03*
X1032874D02*
D03*
X1023425Y109310D02*
D03*
X1032874D02*
D03*
X357576Y39011D02*
D03*
X367024D02*
D03*
X357576Y34287D02*
D03*
X367024D02*
D03*
X442024D02*
D03*
X432576D02*
D03*
X442024Y39011D02*
D03*
X432576D02*
D03*
X582576D02*
D03*
X592024D02*
D03*
X582576Y34287D02*
D03*
X592024D02*
D03*
X667024D02*
D03*
X657576D02*
D03*
X667024Y39011D02*
D03*
X657576D02*
D03*
X516901Y39035D02*
D03*
X526349D02*
D03*
X516901Y34310D02*
D03*
X526349D02*
D03*
X1538776Y226535D02*
D03*
X1548224D02*
D03*
X1538776Y221810D02*
D03*
X1548224D02*
D03*
X1538776Y76535D02*
D03*
X1548224D02*
D03*
X1538776Y71810D02*
D03*
X1548224D02*
D03*
X1051349Y184310D02*
D03*
X1041901D02*
D03*
X1051349Y189035D02*
D03*
X1041901D02*
D03*
X95138Y109310D02*
D03*
X85689D02*
D03*
X95138Y114035D02*
D03*
X85689D02*
D03*
X76349Y184310D02*
D03*
X66900D02*
D03*
X76349Y189035D02*
D03*
X66900D02*
D03*
X66974Y259310D02*
D03*
X57525D02*
D03*
X66974Y264035D02*
D03*
X57525D02*
D03*
X1079474Y259310D02*
D03*
X1070026D02*
D03*
X1079474Y264035D02*
D03*
X1070026D02*
D03*
X57637Y34310D02*
D03*
X48188D02*
D03*
X57637Y39035D02*
D03*
X48188D02*
D03*
X141938D02*
D03*
X151387D02*
D03*
X141938Y34310D02*
D03*
X151387D02*
D03*
X245137D02*
D03*
X235688D02*
D03*
X245137Y39035D02*
D03*
X235688D02*
D03*
X48224Y409310D02*
D03*
X38776D02*
D03*
X48224Y414035D02*
D03*
X38776D02*
D03*
X123224Y409310D02*
D03*
X113776D02*
D03*
X123224Y414035D02*
D03*
X113776D02*
D03*
X198224Y409310D02*
D03*
X188776D02*
D03*
X198224Y414035D02*
D03*
X188776D02*
D03*
X273224Y409310D02*
D03*
X263776D02*
D03*
X273224Y414035D02*
D03*
X263776D02*
D03*
X348224Y409310D02*
D03*
X338776D02*
D03*
X348224Y414035D02*
D03*
X338776D02*
D03*
X423224Y409310D02*
D03*
X413776D02*
D03*
X423224Y414035D02*
D03*
X413776D02*
D03*
X498224Y409310D02*
D03*
X488776D02*
D03*
X498224Y414035D02*
D03*
X488776D02*
D03*
X573224Y409310D02*
D03*
X563776D02*
D03*
X573224Y414035D02*
D03*
X563776D02*
D03*
X648224Y409310D02*
D03*
X638776D02*
D03*
X648224Y414035D02*
D03*
X638776D02*
D03*
X723224Y409310D02*
D03*
X713776D02*
D03*
X723224Y414035D02*
D03*
X713776D02*
D03*
X798224Y409310D02*
D03*
X788776D02*
D03*
X798224Y414035D02*
D03*
X788776D02*
D03*
X873224Y409310D02*
D03*
X863776D02*
D03*
X873224Y414035D02*
D03*
X863776D02*
D03*
X948224Y409310D02*
D03*
X938776D02*
D03*
X948224Y414035D02*
D03*
X938776D02*
D03*
X1023224Y409310D02*
D03*
X1013776D02*
D03*
X1023224Y414035D02*
D03*
X1013776D02*
D03*
X1098224Y409310D02*
D03*
X1088776D02*
D03*
X1098224Y414035D02*
D03*
X1088776D02*
D03*
X1173224Y409310D02*
D03*
X1163776D02*
D03*
X1173224Y414035D02*
D03*
X1163776D02*
D03*
X1248224Y409310D02*
D03*
X1238776D02*
D03*
X1248224Y414035D02*
D03*
X1238776D02*
D03*
X48224Y334310D02*
D03*
X38776D02*
D03*
X48224Y339035D02*
D03*
X38776D02*
D03*
X123224Y334310D02*
D03*
X113776D02*
D03*
X123224Y339035D02*
D03*
X113776D02*
D03*
X198224Y334310D02*
D03*
X188776D02*
D03*
X198224Y339035D02*
D03*
X188776D02*
D03*
X273224Y334310D02*
D03*
X263776D02*
D03*
X273224Y339035D02*
D03*
X263776D02*
D03*
X348224Y334310D02*
D03*
X338776D02*
D03*
X348224Y339035D02*
D03*
X338776D02*
D03*
X423224Y334310D02*
D03*
X413776D02*
D03*
X423224Y339035D02*
D03*
X413776D02*
D03*
X498224Y334310D02*
D03*
X488776D02*
D03*
X498224Y339035D02*
D03*
X488776D02*
D03*
X573224Y334310D02*
D03*
X563776D02*
D03*
X573224Y339035D02*
D03*
X563776D02*
D03*
X648224Y334310D02*
D03*
X638776D02*
D03*
X648224Y339035D02*
D03*
X638776D02*
D03*
X723224Y334310D02*
D03*
X713776D02*
D03*
X723224Y339035D02*
D03*
X713776D02*
D03*
X798224Y334310D02*
D03*
X788776D02*
D03*
X798224Y339035D02*
D03*
X788776D02*
D03*
X873224Y334310D02*
D03*
X863776D02*
D03*
X873224Y339035D02*
D03*
X863776D02*
D03*
X948224Y334310D02*
D03*
X938776D02*
D03*
X948224Y339035D02*
D03*
X938776D02*
D03*
X1173224Y334310D02*
D03*
X1163776D02*
D03*
X1173224Y339035D02*
D03*
X1163776D02*
D03*
X1248224Y334310D02*
D03*
X1238776D02*
D03*
X1248224Y339035D02*
D03*
X1238776D02*
D03*
X1323224Y334310D02*
D03*
X1313776D02*
D03*
X1323224Y339035D02*
D03*
X1313776D02*
D03*
X1398224Y334310D02*
D03*
X1388776D02*
D03*
X1398224Y339035D02*
D03*
X1388776D02*
D03*
X1473224Y334310D02*
D03*
X1463776D02*
D03*
X1473224Y339035D02*
D03*
X1463776D02*
D03*
X1548224Y334310D02*
D03*
X1538776D02*
D03*
X1548224Y339035D02*
D03*
X1538776D02*
D03*
X160724Y259310D02*
D03*
X151276D02*
D03*
X160724Y264035D02*
D03*
X151276D02*
D03*
X235724Y259310D02*
D03*
X226276D02*
D03*
X235724Y264035D02*
D03*
X226276D02*
D03*
X310724Y259310D02*
D03*
X301276D02*
D03*
X310724Y264035D02*
D03*
X301276D02*
D03*
X385724Y259310D02*
D03*
X376276D02*
D03*
X385724Y264035D02*
D03*
X376276D02*
D03*
X460724Y259310D02*
D03*
X451276D02*
D03*
X460724Y264035D02*
D03*
X451276D02*
D03*
X535724Y259310D02*
D03*
X526276D02*
D03*
X535724Y264035D02*
D03*
X526276D02*
D03*
X610724Y259310D02*
D03*
X601276D02*
D03*
X610724Y264035D02*
D03*
X601276D02*
D03*
X685724Y259310D02*
D03*
X676276D02*
D03*
X685724Y264035D02*
D03*
X676276D02*
D03*
X760724Y259310D02*
D03*
X751276D02*
D03*
X760724Y264035D02*
D03*
X751276D02*
D03*
X835724Y259310D02*
D03*
X826276D02*
D03*
X835724Y264035D02*
D03*
X826276D02*
D03*
X910724Y259310D02*
D03*
X901276D02*
D03*
X910724Y264035D02*
D03*
X901276D02*
D03*
X985724Y259310D02*
D03*
X976276D02*
D03*
X985724Y264035D02*
D03*
X976276D02*
D03*
X1173224Y259310D02*
D03*
X1163776D02*
D03*
X1173224Y264035D02*
D03*
X1163776D02*
D03*
X1248224Y259310D02*
D03*
X1238776D02*
D03*
X1248224Y264035D02*
D03*
X1238776D02*
D03*
X1323224Y259310D02*
D03*
X1313776D02*
D03*
X1323224Y264035D02*
D03*
X1313776D02*
D03*
X1398224Y259310D02*
D03*
X1388776D02*
D03*
X1398224Y264035D02*
D03*
X1388776D02*
D03*
X1473224Y259310D02*
D03*
X1463776D02*
D03*
X1473224Y264035D02*
D03*
X1463776D02*
D03*
X179474Y184310D02*
D03*
X170026D02*
D03*
X179474Y189035D02*
D03*
X170026D02*
D03*
X254474Y184310D02*
D03*
X245026D02*
D03*
X254474Y189035D02*
D03*
X245026D02*
D03*
X479474Y184310D02*
D03*
X470026D02*
D03*
X479474Y189035D02*
D03*
X470026D02*
D03*
X554474Y184310D02*
D03*
X545026D02*
D03*
X554474Y189035D02*
D03*
X545026D02*
D03*
X629474Y184310D02*
D03*
X620026D02*
D03*
X629474Y189035D02*
D03*
X620026D02*
D03*
X704474Y184310D02*
D03*
X695026D02*
D03*
X704474Y189035D02*
D03*
X695026D02*
D03*
X779474Y184310D02*
D03*
X770026D02*
D03*
X779474Y189035D02*
D03*
X770026D02*
D03*
X854474Y184310D02*
D03*
X845026D02*
D03*
X854474Y189035D02*
D03*
X845026D02*
D03*
X929474Y184310D02*
D03*
X920026D02*
D03*
X929474Y189035D02*
D03*
X920026D02*
D03*
X1173224Y184310D02*
D03*
X1163776D02*
D03*
X1173224Y189035D02*
D03*
X1163776D02*
D03*
X1248224Y184310D02*
D03*
X1238776D02*
D03*
X1248224Y189035D02*
D03*
X1238776D02*
D03*
X1323224Y184310D02*
D03*
X1313776D02*
D03*
X1323224Y189035D02*
D03*
X1313776D02*
D03*
X1398224Y184310D02*
D03*
X1388776D02*
D03*
X1398224Y189035D02*
D03*
X1388776D02*
D03*
X1473224Y184310D02*
D03*
X1463776D02*
D03*
X1473224Y189035D02*
D03*
X1463776D02*
D03*
X329474Y184310D02*
D03*
X320026D02*
D03*
X329474Y189035D02*
D03*
X320026D02*
D03*
X404474Y184310D02*
D03*
X395026D02*
D03*
X404474Y189035D02*
D03*
X395026D02*
D03*
X217024Y109310D02*
D03*
X207576D02*
D03*
X217024Y114035D02*
D03*
X207576D02*
D03*
X292024Y109310D02*
D03*
X282576D02*
D03*
X292024Y114035D02*
D03*
X282576D02*
D03*
X367024Y109310D02*
D03*
X357576D02*
D03*
X367024Y114035D02*
D03*
X357576D02*
D03*
X442024Y109310D02*
D03*
X432576D02*
D03*
X442024Y114035D02*
D03*
X432576D02*
D03*
X517024Y109310D02*
D03*
X507576D02*
D03*
X517024Y114035D02*
D03*
X507576D02*
D03*
X592024Y109310D02*
D03*
X582576D02*
D03*
X592024Y114035D02*
D03*
X582576D02*
D03*
X667024Y109310D02*
D03*
X657576D02*
D03*
X667024Y114035D02*
D03*
X657576D02*
D03*
X742024Y109310D02*
D03*
X732576D02*
D03*
X742024Y114035D02*
D03*
X732576D02*
D03*
X817024Y109310D02*
D03*
X807576D02*
D03*
X817024Y114035D02*
D03*
X807576D02*
D03*
X892024Y109310D02*
D03*
X882576D02*
D03*
X892024Y114035D02*
D03*
X882576D02*
D03*
X1173224Y109310D02*
D03*
X1163776D02*
D03*
X1173224Y114035D02*
D03*
X1163776D02*
D03*
X1248224Y109310D02*
D03*
X1238776D02*
D03*
X1248224Y114035D02*
D03*
X1238776D02*
D03*
X1323224Y109310D02*
D03*
X1313776D02*
D03*
X1323224Y114035D02*
D03*
X1313776D02*
D03*
X1398224Y109310D02*
D03*
X1388776D02*
D03*
X1398224Y114035D02*
D03*
X1388776D02*
D03*
X1473224Y109310D02*
D03*
X1463776D02*
D03*
X1473224Y114035D02*
D03*
X1463776D02*
D03*
X798224Y34310D02*
D03*
X788776D02*
D03*
X798224Y39035D02*
D03*
X788776D02*
D03*
X948224Y34310D02*
D03*
X938776D02*
D03*
X948224Y39035D02*
D03*
X938776D02*
D03*
X1023224Y34310D02*
D03*
X1013776D02*
D03*
X1023224Y39035D02*
D03*
X1013776D02*
D03*
X1098224Y34310D02*
D03*
X1088776D02*
D03*
X1098224Y39035D02*
D03*
X1088776D02*
D03*
X1173224Y34310D02*
D03*
X1163776D02*
D03*
X1173224Y39035D02*
D03*
X1163776D02*
D03*
X1248224Y34310D02*
D03*
X1238776D02*
D03*
X1248224Y39035D02*
D03*
X1238776D02*
D03*
X1473224Y34310D02*
D03*
X1463776D02*
D03*
X1473224Y39035D02*
D03*
X1463776D02*
D03*
X873224Y34310D02*
D03*
X863776D02*
D03*
X873224Y39035D02*
D03*
X863776D02*
D03*
D55*
X1527500Y429300D02*
X1563200D01*
X1513550Y424300D02*
X1563123D01*
X1511850Y426000D02*
X1513550Y424300D01*
X1606200Y396300D02*
Y405400D01*
Y396300D02*
X1606300Y396200D01*
X1590452Y396971D02*
Y405400D01*
X1563123Y424300D02*
X1579323Y408100D01*
X1314757Y427000D02*
X1314856Y427098D01*
Y432349D01*
X1514517Y479600D02*
X1517917Y476200D01*
X1514517Y479600D02*
Y481933D01*
X1314856Y432349D02*
X1315072Y432565D01*
Y437573D01*
X1357100Y355800D02*
X1367700Y345200D01*
D56*
X1518300Y428663D02*
X1519500Y427463D01*
X1518300Y428663D02*
Y437225D01*
X1538751Y433151D02*
Y434400D01*
X1504853Y451547D02*
X1506700Y449700D01*
X1504853Y451547D02*
Y459341D01*
X1473567Y478633D02*
X1477017D01*
X1471549Y480651D02*
X1473567Y478633D01*
X1471549Y480651D02*
Y482600D01*
X1498947Y448647D02*
Y459341D01*
X1496500Y446200D02*
X1498947Y448647D01*
X1485316Y446200D02*
X1496500D01*
X1479400Y452116D02*
X1485316Y446200D01*
X1479400Y452116D02*
Y468049D01*
X1465801Y481649D02*
X1479400Y468049D01*
X1493042Y451442D02*
Y459341D01*
X1490900Y449300D02*
X1493042Y451442D01*
X1486600Y449300D02*
X1490900D01*
X1482500Y453400D02*
X1486600Y449300D01*
X1482500Y453400D02*
Y473149D01*
X1477017Y478633D02*
X1482500Y473149D01*
X1487136Y459341D02*
Y487064D01*
X1482480Y491720D02*
X1487136Y487064D01*
X1477050Y491720D02*
X1482480D01*
X1510758Y452242D02*
Y459341D01*
Y452242D02*
X1518300Y444700D01*
Y437225D02*
Y444700D01*
X1505375Y424300D02*
X1518300Y437225D01*
X1468596Y424400D02*
X1468696Y424300D01*
X1505375D01*
X1458210Y466911D02*
X1461474D01*
X1462000Y467437D01*
X1451719Y471626D02*
X1451774Y471571D01*
X1462000D01*
X1598600Y396495D02*
Y405274D01*
X1598400Y405474D02*
X1598600Y405274D01*
X1598326Y405400D02*
X1598400Y405474D01*
X1539100Y386500D02*
X1539146D01*
X1538300Y432700D02*
X1538751Y433151D01*
X1410750Y497300D02*
X1422550Y509100D01*
X1410750Y494800D02*
Y497300D01*
X1422550Y509100D02*
X1505050D01*
X1431100Y464990D02*
Y494450D01*
X1430750Y494800D02*
X1431100Y494450D01*
X1425749Y472300D02*
Y494800D01*
X1420749Y472400D02*
Y494800D01*
X1415499Y476237D02*
Y494550D01*
X1415749Y494800D01*
X1420749Y472400D02*
X1425209Y467941D01*
X1427450D01*
X1364897Y407300D02*
X1367650D01*
X1360063Y407263D02*
Y412600D01*
X1364236Y407263D02*
Y412600D01*
X1328943Y396600D02*
Y421959D01*
X1335361D02*
X1337851D01*
X1333117D02*
X1335361D01*
X1333117D02*
Y426985D01*
X1335250Y417800D02*
Y421848D01*
X1335361Y421959D01*
X1337851D02*
X1337856Y421964D01*
X1342029Y414279D02*
Y421964D01*
Y426990D01*
X1328943Y421959D02*
Y426985D01*
X1337856Y421964D02*
Y426990D01*
X1476311Y490981D02*
X1477050Y491720D01*
X1446631Y490981D02*
X1476311D01*
X1442650Y487000D02*
X1446631Y490981D01*
X1442650Y469800D02*
Y487000D01*
X1451750Y466593D02*
X1452068Y466911D01*
X1458210D01*
X1465801Y485851D02*
X1466050Y486100D01*
X1465801Y481649D02*
Y485851D01*
X1451750Y453207D02*
X1459045D01*
X1442883D02*
X1451750D01*
X1459045D02*
X1461891Y456053D01*
X1431100Y464990D02*
X1442883Y453207D01*
X1451719Y471626D02*
Y478916D01*
X1453203Y480400D01*
X1477017Y487553D02*
X1477050Y487586D01*
X1477017Y482767D02*
Y487553D01*
X1451850Y494400D02*
Y494800D01*
X1543950Y464400D02*
Y468133D01*
X1319180Y432500D02*
X1319206Y432526D01*
Y437573D01*
X1389550Y477700D02*
X1391850D01*
X1373450Y461600D02*
X1389550Y477700D01*
X1519574Y486067D02*
X1523049Y482592D01*
X1514517Y486067D02*
X1519574D01*
D57*
X1561842Y421500D02*
X1591100Y392242D01*
X1453104Y421500D02*
X1561842D01*
X1561262Y420100D02*
X1589700Y391662D01*
X1449611Y420100D02*
X1561262D01*
X1560682Y418700D02*
X1588300Y391083D01*
X1446119Y418700D02*
X1560682D01*
X1560103Y417300D02*
X1586900Y390503D01*
X1442627Y417300D02*
X1560103D01*
X1559523Y415900D02*
X1585500Y389923D01*
X1439135Y415900D02*
X1559523D01*
X1558943Y414500D02*
X1584100Y389343D01*
X1435642Y414500D02*
X1558943D01*
X1558363Y413100D02*
X1582700Y388763D01*
X1432150Y413100D02*
X1558363D01*
X1557783Y411700D02*
X1581300Y388183D01*
X1428658Y411700D02*
X1557783D01*
X1557203Y410300D02*
X1579900Y387603D01*
X1425165Y410300D02*
X1557203D01*
X1556623Y408900D02*
X1578500Y387023D01*
X1421673Y408900D02*
X1556623D01*
X1446955Y444100D02*
X1463722D01*
X1464462Y443360D01*
X1447850Y442500D02*
X1460582D01*
X1464462Y438620D01*
X1448716Y439933D02*
X1449100Y440317D01*
X1458025D01*
X1464462Y433880D01*
X1451583Y437967D02*
X1451966Y438350D01*
X1455423D01*
X1464462Y429311D01*
Y429140D02*
Y429311D01*
X1454449Y434413D02*
X1464462Y424400D01*
X1454449Y434413D02*
Y436000D01*
X1434050Y446000D02*
X1462395D01*
X1464462Y448067D01*
Y448100D01*
X1419159Y406521D02*
X1545621D01*
X1401211Y424469D02*
X1419159Y406521D01*
X1416689Y404100D02*
X1548600D01*
X1414166Y401730D02*
X1553286D01*
X1396608Y399200D02*
X1555850D01*
X1394408Y396800D02*
X1559600D01*
X1392064Y394544D02*
X1564782D01*
X1389859Y392148D02*
X1568615D01*
X1387654Y389753D02*
X1572447D01*
X1371539Y405868D02*
X1387654Y389753D01*
X1401211Y429362D02*
X1421673Y408900D01*
X1401211Y434254D02*
X1425165Y410300D01*
X1401211Y439146D02*
X1428658Y411700D01*
X1401211Y444038D02*
X1432150Y413100D01*
X1401211Y448931D02*
X1435642Y414500D01*
X1401211Y453823D02*
X1439135Y415900D01*
X1401211Y458715D02*
X1442627Y417300D01*
X1401211Y463608D02*
X1446119Y418700D01*
X1401211Y468500D02*
X1449611Y420100D01*
X1401211Y473392D02*
X1453104Y421500D01*
X1385339Y405868D02*
X1394408Y396800D01*
X1559600D02*
X1559800Y397000D01*
X1376139Y405868D02*
X1389859Y392148D01*
X1401211Y414685D02*
X1414166Y401730D01*
X1401211Y419577D02*
X1416689Y404100D01*
X1173224Y264600D02*
X1174306D01*
X1170308Y404500D02*
X1174405Y408598D01*
X72980Y179048D02*
X77530Y183598D01*
X91769Y104048D02*
X96319Y108598D01*
X44855Y404048D02*
X49406Y408598D01*
X44855Y329048D02*
X49406Y333598D01*
X63605Y254048D02*
X68155Y258598D01*
X54268Y29048D02*
X58818Y33598D01*
X97100Y324498D02*
X124298D01*
X1244855Y404048D02*
X1249405Y408598D01*
X157308Y254000D02*
X161906Y258598D01*
X119855Y329048D02*
X124406Y333598D01*
X176105Y179048D02*
X180656Y183598D01*
X119855Y404048D02*
X124406Y408598D01*
X97100Y329048D02*
X119855D01*
X213655Y104048D02*
X218205Y108598D01*
X148018Y29048D02*
X152568Y33598D01*
X97100Y333598D02*
X112594D01*
X1322501Y108598D02*
X1324405D01*
X288655Y104048D02*
X293205Y108598D01*
X232355Y254048D02*
X236906Y258598D01*
X194855Y329048D02*
X199406Y333598D01*
X194855Y404048D02*
X199406Y408598D01*
X251105Y179048D02*
X255656Y183598D01*
X241768Y29048D02*
X246318Y33598D01*
X363655Y104048D02*
X368205Y108598D01*
X363558Y28950D02*
X368205Y33598D01*
X269855Y404048D02*
X274406Y408598D01*
X269855Y329048D02*
X274406Y333598D01*
X307355Y254048D02*
X311906Y258598D01*
X326105Y179048D02*
X330656Y183598D01*
X1527648Y22148D02*
X1528200Y22700D01*
X1180200Y414700D02*
X1182600Y412300D01*
X1174405Y414700D02*
X1180200D01*
X1179400Y401700D02*
X1182600Y404900D01*
Y412300D01*
X1147100Y401700D02*
X1179400D01*
X1113000Y408598D02*
X1135289D01*
X1097902Y393500D02*
X1113000Y408598D01*
X1082347Y393500D02*
X1097902D01*
X1079347Y396500D02*
X1082347Y393500D01*
X1591100Y78481D02*
Y392242D01*
X1173224Y264035D02*
X1178500D01*
X1561000Y48381D02*
X1591100Y78481D01*
X1537219Y1900D02*
X1561000Y25681D01*
Y48381D01*
X1174605Y114300D02*
X1178700D01*
X91885Y1900D02*
X1537219D01*
X1174306Y264600D02*
X1174405Y264700D01*
X85300Y178800D02*
Y186800D01*
X1174306Y114600D02*
X1174605Y114300D01*
X103000Y104700D02*
Y111600D01*
X99900Y114700D02*
X103000Y111600D01*
X96319Y114700D02*
X99900D01*
X97798Y99498D02*
X103000Y104700D01*
X57700Y405200D02*
Y412100D01*
X54800Y415000D02*
X57700Y412100D01*
X54800Y340000D02*
X57700Y337100D01*
X51998Y399498D02*
X57700Y405200D01*
X49705Y415000D02*
X54800D01*
X22100Y399498D02*
X51998D01*
X25098Y396500D02*
X1079347D01*
X49705Y340000D02*
X54800D01*
X72000Y264700D02*
X75200Y261500D01*
X68155Y264700D02*
X72000D01*
X70000Y249800D02*
X75200Y255000D01*
Y261500D01*
X51998Y324498D02*
X57700Y330200D01*
Y337100D01*
X40850Y249800D02*
X70000D01*
X22100Y399498D02*
X25098Y396500D01*
X49406Y339700D02*
X49705Y340000D01*
X22100Y324498D02*
X51998D01*
X77530Y189700D02*
X82400D01*
X80998Y174498D02*
X85300Y178800D01*
X82400Y189700D02*
X85300Y186800D01*
X50225Y174498D02*
X80998D01*
X69014Y99498D02*
X97798D01*
X65500Y28400D02*
Y38300D01*
X69288Y24498D02*
X91885Y1900D01*
X64100Y39700D02*
X65500Y38300D01*
X58818Y39700D02*
X64100D01*
X61598Y24498D02*
X65500Y28400D01*
X31513Y24498D02*
X61598D01*
X1174708Y258900D02*
X1179700D01*
X1113700Y404500D02*
X1170308D01*
X1113000Y405200D02*
X1113700Y404500D01*
X1099900Y392100D02*
X1113000Y405200D01*
X1081767Y392100D02*
X1099900D01*
X1078767Y395100D02*
X1081767Y392100D01*
X1589700Y79061D02*
Y391662D01*
X1559600Y48961D02*
X1589700Y79061D01*
X1559600Y26261D02*
Y48961D01*
X1536639Y3300D02*
X1559600Y26261D01*
X95035Y3300D02*
X1536639D01*
X1174405Y258598D02*
X1174708Y258900D01*
Y108900D02*
X1179700D01*
X21180Y395100D02*
X1078767D01*
X22100Y404048D02*
X44855D01*
X22100Y329048D02*
X44855D01*
X40850Y254048D02*
X63605D01*
X18640Y400588D02*
X22100Y404048D01*
X18640Y397640D02*
X21180Y395100D01*
X18640Y397640D02*
Y400588D01*
X69014Y104048D02*
X91769D01*
X50225Y179048D02*
X72980D01*
X69288Y29048D02*
X95035Y3300D01*
X31513Y29048D02*
X54268D01*
X1147100Y408598D02*
X1162595D01*
X1113000Y401700D02*
X1135289D01*
X1102000Y390700D02*
X1113000Y401700D01*
X1081187Y390700D02*
X1102000D01*
X1588300Y79641D02*
Y391083D01*
X1558200Y49541D02*
X1588300Y79641D01*
X1558200Y26841D02*
Y49541D01*
X1536059Y4700D02*
X1558200Y26841D01*
X1162197Y258200D02*
X1162595Y258598D01*
X1162197Y258200D02*
X1162400Y257997D01*
Y253800D02*
Y257997D01*
Y103800D02*
Y107997D01*
X22100Y408598D02*
X37595D01*
X1078187Y393700D02*
X1081187Y390700D01*
X20600Y393700D02*
X1078187D01*
X22100Y333598D02*
X37595D01*
X40850Y258598D02*
X56344D01*
X19298Y408598D02*
X22100D01*
X14900Y404200D02*
X19298Y408598D01*
X14900Y399400D02*
Y404200D01*
Y399400D02*
X20600Y393700D01*
X69014Y108598D02*
X84508D01*
X69288Y33598D02*
X98185Y4700D01*
X1536059D01*
X50225Y183598D02*
X65719D01*
X31513Y33598D02*
X47007D01*
X1249405Y414700D02*
X1255200D01*
X1257600Y404300D02*
Y412300D01*
X1255200Y414700D02*
X1257600Y412300D01*
X1252798Y399498D02*
X1257600Y404300D01*
X1252835Y264035D02*
X1253400Y264600D01*
X1222100Y399498D02*
X1252798D01*
X1248224Y264035D02*
X1252835D01*
X1248259Y114000D02*
X1254100D01*
X1248224Y114035D02*
X1248259Y114000D01*
X1586900Y80221D02*
Y390503D01*
X1244635Y114035D02*
X1248224D01*
X1243500Y112900D02*
X1244635Y114035D01*
X1556800Y50121D02*
X1586900Y80221D01*
X1243500Y103000D02*
Y112900D01*
X1535479Y6100D02*
X1556800Y27421D01*
Y50121D01*
X1238900Y98400D02*
X1243500Y103000D01*
X1096700Y98400D02*
X1238900D01*
X1083101Y84800D02*
X1096700Y98400D01*
X1063500Y84800D02*
X1083101D01*
X961199Y97000D02*
X973299Y84900D01*
X745820Y97000D02*
X961199D01*
X724820Y76000D02*
X745820Y97000D01*
X651180D02*
X672180Y76000D01*
X226300Y104600D02*
Y112300D01*
X223900Y114700D02*
X226300Y112300D01*
X390260Y97000D02*
X651180D01*
X291799D02*
X313099Y75700D01*
X1012500Y95700D02*
X1052600D01*
X973299Y84900D02*
X1001700D01*
X1052600Y95700D02*
X1063500Y84800D01*
X1001700Y84900D02*
X1012500Y95700D01*
X672180Y76000D02*
X724820D01*
X223695Y97000D02*
X291799D01*
X368960Y75700D02*
X390260Y97000D01*
X313099Y75700D02*
X368960D01*
X161906Y264700D02*
X165500D01*
X132700Y405200D02*
Y412100D01*
X168700Y253300D02*
Y261500D01*
X165500Y264700D02*
X168700Y261500D01*
X126998Y399498D02*
X132700Y405200D01*
X129800Y415000D02*
X132700Y412100D01*
X124298Y324498D02*
X131000Y331200D01*
Y336700D01*
X180755Y189600D02*
X184900D01*
X180656Y189700D02*
X180755Y189600D01*
X184900D02*
X188200Y186300D01*
X164500Y249100D02*
X168700Y253300D01*
X122871Y249100D02*
X164500D01*
X124706Y415000D02*
X129800D01*
X97100Y399498D02*
X126998D01*
X124406Y339700D02*
X128000D01*
X131000Y336700D01*
X183198Y174498D02*
X188200Y179500D01*
X218205Y114700D02*
X223900D01*
X188200Y179500D02*
Y186300D01*
X221198Y99498D02*
X226300Y104600D01*
X141621Y174498D02*
X183198D01*
X221198Y99498D02*
X223695Y97000D01*
X179171Y99498D02*
X221198D01*
X181435Y6100D02*
X1535479D01*
X163038Y24498D02*
X181435Y6100D01*
X152768Y39900D02*
X156700D01*
X158900Y37700D01*
Y27600D02*
Y37700D01*
X152568Y39700D02*
X152768Y39900D01*
X155798Y24498D02*
X158900Y27600D01*
X113534Y24498D02*
X155798D01*
X1249708Y258900D02*
X1254700D01*
X1222100Y404048D02*
X1244855D01*
X1585500Y80800D02*
Y389923D01*
X1555400Y50700D02*
X1585500Y80800D01*
X1254700Y101400D02*
Y108900D01*
X1534900Y7500D02*
X1555400Y28001D01*
Y50700D01*
X1250300Y97000D02*
X1254700Y101400D01*
X1249708Y108900D02*
X1254700D01*
X1097280Y97000D02*
X1250300D01*
X960620Y95600D02*
X972719Y83500D01*
X746400Y95600D02*
X960620D01*
X1083680Y83400D02*
X1097280Y97000D01*
X725400Y74600D02*
X746400Y95600D01*
X650600D02*
X671600Y74600D01*
X390840Y95600D02*
X650600D01*
X369540Y74300D02*
X390840Y95600D01*
X1013080Y94300D02*
X1052020D01*
X1002280Y83500D02*
X1013080Y94300D01*
X1062920Y83400D02*
X1083680D01*
X1052020Y94300D02*
X1062920Y83400D01*
X972719Y83500D02*
X1002280D01*
X671600Y74600D02*
X725400D01*
X312520Y74300D02*
X369540D01*
X122871Y254000D02*
X157308D01*
X141621Y179048D02*
X176105D01*
X97100Y404048D02*
X119855D01*
X179171Y104048D02*
X213655D01*
X176048D02*
X179171D01*
X178585Y95600D02*
X291219D01*
X184585Y7500D02*
X1534900D01*
X291219Y95600D02*
X312520Y74300D01*
X173900Y100285D02*
X178585Y95600D01*
X163038Y29048D02*
X184585Y7500D01*
X173900Y101900D02*
X176048Y104048D01*
X173900Y100285D02*
Y101900D01*
X113534Y29048D02*
X148018D01*
X1222100Y408598D02*
X1237595D01*
X1237400Y253800D02*
Y257997D01*
X1584100Y81380D02*
Y389343D01*
X1554000Y51280D02*
X1584100Y81380D01*
X1258200Y102920D02*
Y107500D01*
X1534320Y8900D02*
X1554000Y28580D01*
Y51280D01*
X1250880Y95600D02*
X1258200Y102920D01*
X1097860Y95600D02*
X1250880D01*
X1237400Y103800D02*
Y107997D01*
X1084260Y82000D02*
X1097860Y95600D01*
X960040Y94200D02*
X972140Y82100D01*
X746980Y94200D02*
X960040D01*
X725980Y73200D02*
X746980Y94200D01*
X650020D02*
X671020Y73200D01*
X1051440Y92900D02*
X1062340Y82000D01*
X1013660Y92900D02*
X1051440D01*
X1062340Y82000D02*
X1084260D01*
X1002860Y82100D02*
X1013660Y92900D01*
X972140Y82100D02*
X1002860D01*
X671020Y73200D02*
X725980D01*
X149992Y258700D02*
X150094Y258598D01*
X122871Y258700D02*
X149992D01*
X141621Y183598D02*
X168844D01*
X179171Y108598D02*
X206395D01*
X97100Y408598D02*
X112594D01*
X391420Y94200D02*
X650020D01*
X290640D02*
X311940Y72900D01*
X175198Y108598D02*
X179171D01*
X370120Y72900D02*
X391420Y94200D01*
X311940Y72900D02*
X370120D01*
X187735Y8900D02*
X1534320D01*
X178006Y94200D02*
X290640D01*
X163038Y33598D02*
X187735Y8900D01*
X172500Y105900D02*
X175198Y108598D01*
X172500Y99705D02*
X178006Y94200D01*
X172500Y99705D02*
Y105900D01*
X113534Y33598D02*
X140757D01*
X1324806Y264100D02*
X1329200D01*
X1328035Y114035D02*
X1329100Y115100D01*
X1323224Y114035D02*
X1328035D01*
X1324306Y264600D02*
X1324806Y264100D01*
X263200Y179400D02*
Y186200D01*
X259700Y189700D02*
X263200Y186200D01*
X1319835Y114035D02*
X1323224D01*
X1318500Y112700D02*
X1319835Y114035D01*
X293205Y114700D02*
X298600D01*
X300900Y112400D01*
X1318500Y106577D02*
Y112700D01*
X1098440Y94200D02*
X1306123D01*
X1582700Y81960D02*
Y388763D01*
X1306123Y94200D02*
X1318500Y106577D01*
X1014240Y91500D02*
X1050860D01*
X959460Y92800D02*
X971560Y80700D01*
X1084840Y80600D02*
X1098440Y94200D01*
X1003440Y80700D02*
X1014240Y91500D01*
X1552600Y51860D02*
X1582700Y81960D01*
X1061760Y80600D02*
X1084840D01*
X1533740Y10300D02*
X1552600Y29160D01*
Y51860D01*
X1050860Y91500D02*
X1061760Y80600D01*
X971560Y80700D02*
X1003440D01*
X270985Y10300D02*
X1533740D01*
X297198Y99498D02*
X300900Y103200D01*
Y112400D01*
X392000Y92800D02*
X649440D01*
X265900Y99498D02*
X297198D01*
X747560Y92800D02*
X959460D01*
X726560Y71800D02*
X747560Y92800D01*
X670440Y71800D02*
X726560D01*
X649440Y92800D02*
X670440Y71800D01*
X311360Y71500D02*
X370700D01*
X290060Y92800D02*
X311360Y71500D01*
X370700D02*
X392000Y92800D01*
X207700Y405200D02*
Y412100D01*
X204800Y415000D02*
X207700Y412100D01*
X206000Y331200D02*
Y336700D01*
X201998Y399498D02*
X207700Y405200D01*
X203000Y339700D02*
X206000Y336700D01*
X199298Y324498D02*
X206000Y331200D01*
X241500Y264700D02*
X243500Y262700D01*
X236906Y264700D02*
X241500D01*
X239298Y249498D02*
X243500Y253700D01*
Y262700D01*
X209600Y249498D02*
X239298D01*
X199706Y415000D02*
X204800D01*
X172100Y399498D02*
X201998D01*
X199406Y339700D02*
X203000D01*
X172100Y324498D02*
X199298D01*
X259700Y92800D02*
X290060D01*
X258400Y174600D02*
X263200Y179400D01*
X257900Y91000D02*
X259700Y92800D01*
X255656Y189700D02*
X259700D01*
X228452Y174600D02*
X258400D01*
X249300Y39700D02*
X252900Y36100D01*
X256788Y24498D02*
X270985Y10300D01*
X249298Y24498D02*
X252900Y28100D01*
X228350Y174498D02*
X228452Y174600D01*
X246318Y39700D02*
X249300D01*
X252900Y28100D02*
Y36100D01*
X219013Y24498D02*
X249298D01*
X1324708Y108900D02*
X1329700D01*
X1324708Y258900D02*
X1329700D01*
X1306703Y92800D02*
X1322501Y108598D01*
X1099020Y92800D02*
X1306703D01*
X1581300Y82540D02*
Y388183D01*
X1014820Y90100D02*
X1050280D01*
X1004020Y79300D02*
X1014820Y90100D01*
X1085420Y79200D02*
X1099020Y92800D01*
X1551200Y52440D02*
X1581300Y82540D01*
X1551200Y29740D02*
Y52440D01*
X1533160Y11700D02*
X1551200Y29740D01*
X1061180Y79200D02*
X1085420D01*
X1050280Y90100D02*
X1061180Y79200D01*
X274135Y11700D02*
X1533160D01*
X958880Y91400D02*
X970980Y79300D01*
X748140Y91400D02*
X958880D01*
X727140Y70400D02*
X748140Y91400D01*
X392580D02*
X648860D01*
X669860Y70400D01*
X970980Y79300D02*
X1004020D01*
X669860Y70400D02*
X727140D01*
X371280Y70100D02*
X392580Y91400D01*
X289480D02*
X310780Y70100D01*
X267700Y91400D02*
X289480D01*
X310780Y70100D02*
X371280D01*
X228350Y179048D02*
X251105D01*
X209600Y254048D02*
X232355D01*
X172100Y404048D02*
X194855D01*
X172100Y329048D02*
X194855D01*
X265900Y104048D02*
X288655D01*
X265700Y89400D02*
X267700Y91400D01*
X256788Y29048D02*
X274135Y11700D01*
X219013Y29048D02*
X241768D01*
X1312400Y253800D02*
Y257997D01*
Y103800D02*
Y107997D01*
X1317100Y91400D02*
X1329500Y103800D01*
X1099600Y91400D02*
X1317100D01*
X1579900Y83120D02*
Y387603D01*
X1015399Y88700D02*
X1049701D01*
X1004599Y77900D02*
X1015399Y88700D01*
X1086000Y77800D02*
X1099600Y91400D01*
X1549800Y53020D02*
X1579900Y83120D01*
X1549800Y30320D02*
Y53020D01*
X1532580Y13100D02*
X1549800Y30320D01*
X1060600Y77800D02*
X1086000D01*
X1049701Y88700D02*
X1060600Y77800D01*
X277285Y13100D02*
X1532580D01*
X958300Y90000D02*
X970400Y77900D01*
X748720Y90000D02*
X958300D01*
X727719Y69000D02*
X748720Y90000D01*
X648280D02*
X669280Y69000D01*
X393160Y90000D02*
X648280D01*
X288900D02*
X310200Y68700D01*
X970400Y77900D02*
X1004599D01*
X669280Y69000D02*
X727719D01*
X371860Y68700D02*
X393160Y90000D01*
X274000D02*
X288900D01*
X310200Y68700D02*
X371860D01*
X228350Y183598D02*
X243845D01*
X209600Y258598D02*
X225095D01*
X172100Y408598D02*
X187594D01*
X172100Y333598D02*
X187594D01*
X271600Y87600D02*
X274000Y90000D01*
X265900Y108598D02*
X281395D01*
X256788Y33598D02*
X277285Y13100D01*
X219013Y33598D02*
X234507D01*
X1399706Y265000D02*
X1404700D01*
X1403335Y114035D02*
X1403400Y114100D01*
X1398224Y114035D02*
X1403335D01*
X1399306Y264600D02*
X1399706Y265000D01*
X1394835Y114035D02*
X1398224D01*
X1393500Y112700D02*
X1394835Y114035D01*
X368205Y114700D02*
X372200D01*
X1548400Y53600D02*
X1578500Y83700D01*
Y387023D01*
X1548400Y30900D02*
Y53600D01*
X1427300Y14500D02*
X1532000D01*
X1412300Y29500D02*
X1427300Y14500D01*
X1532000D02*
X1548400Y30900D01*
X350600Y14500D02*
X1427300D01*
X1393500Y102900D02*
Y112700D01*
Y102900D02*
X1397400Y99000D01*
X374400Y106000D02*
Y112500D01*
X372200Y114700D02*
X374400Y112500D01*
X367898Y99498D02*
X374400Y106000D01*
X375095Y29895D02*
Y37005D01*
X372600Y39500D02*
X375095Y37005D01*
X369400Y24200D02*
X375095Y29895D01*
X368406Y39500D02*
X372600D01*
X368205Y39700D02*
X368406Y39500D01*
X282700Y405200D02*
Y412100D01*
X279800Y415000D02*
X282700Y412100D01*
X280300Y329900D02*
Y336800D01*
X277400Y339700D02*
X280300Y336800D01*
X276998Y399498D02*
X282700Y405200D01*
X274706Y415000D02*
X279800D01*
X274898Y324498D02*
X280300Y329900D01*
X317900Y254100D02*
Y262900D01*
X316100Y264700D02*
X317900Y262900D01*
X313298Y249498D02*
X317900Y254100D01*
X311906Y264700D02*
X316100D01*
X247100Y399498D02*
X276998D01*
X274406Y339700D02*
X277400D01*
X247100Y324498D02*
X274898D01*
X340900Y99498D02*
X367898D01*
X336800Y178500D02*
Y187300D01*
X334400Y189700D02*
X336800Y187300D01*
X340900Y24200D02*
X369400D01*
X340900D02*
X350600Y14500D01*
X330656Y189700D02*
X334400D01*
X284600Y249498D02*
X313298D01*
X332798Y174498D02*
X336800Y178500D01*
X303350Y174498D02*
X332798D01*
X1411500Y109200D02*
X1411800Y108900D01*
X1405800Y109200D02*
X1411500D01*
X1399708Y258900D02*
X1404700D01*
X1400008Y109200D02*
X1405800D01*
X1426100Y19700D02*
X1531000D01*
X1411400Y34400D02*
X1426100Y19700D01*
X1399708Y108900D02*
X1400008Y109200D01*
X247100Y404048D02*
X269855D01*
X284600Y254048D02*
X307355D01*
X247100Y329048D02*
X269855D01*
X340900Y104048D02*
X363655D01*
X340900Y28950D02*
X363558D01*
X303350Y179048D02*
X326105D01*
X1387400Y253800D02*
Y257997D01*
X1428252Y22148D02*
X1527648D01*
X1411400Y39000D02*
X1428252Y22148D01*
X1387400Y103800D02*
Y107997D01*
X356297Y33500D02*
X356395Y33598D01*
X284600Y258598D02*
X300095D01*
X247100Y408598D02*
X262595D01*
X247100Y333598D02*
X262595D01*
X340900Y108598D02*
X356395D01*
X340900Y33500D02*
X356297D01*
X303350Y183598D02*
X318845D01*
X438656Y104048D02*
X443205Y108598D01*
X438358Y28750D02*
X443205Y33598D01*
X344855Y329048D02*
X349406Y333598D01*
X344855Y404048D02*
X349406Y408598D01*
X382355Y254048D02*
X386906Y258598D01*
X401105Y179048D02*
X405655Y183598D01*
X1462400Y107997D02*
X1462700Y107697D01*
X1169855Y329048D02*
X1174405Y333598D01*
X1169855Y179048D02*
X1174405Y183598D01*
X1169855Y29048D02*
X1174405Y33598D01*
X522980Y29048D02*
X527530Y33598D01*
X419855Y404048D02*
X424405Y408598D01*
X419855Y329048D02*
X424405Y333598D01*
X457355Y254048D02*
X461905Y258598D01*
X513656Y104048D02*
X518205Y108598D01*
X476105Y179048D02*
X480655Y183598D01*
X1389939Y405868D02*
X1396608Y399200D01*
X1555850D02*
X1556000Y399350D01*
X1474708Y258900D02*
X1479700D01*
X1474708Y108900D02*
X1479700D01*
X1522200Y27600D02*
Y30800D01*
X1519000Y34000D02*
X1522200Y30800D01*
X1491529Y34000D02*
X1519000D01*
X1479700Y108900D02*
X1479800Y108800D01*
Y97300D02*
Y108800D01*
X359600Y254048D02*
X382355D01*
X322100Y404048D02*
X344855D01*
X322100Y329048D02*
X344855D01*
X415900Y104048D02*
X438656D01*
X415900Y28750D02*
X438358D01*
X378350Y179048D02*
X401105D01*
X1462400Y253800D02*
Y257997D01*
X1517800Y31300D02*
X1519400Y29700D01*
X1494529Y31300D02*
X1517800D01*
X1462700Y98200D02*
Y107697D01*
X322100Y408598D02*
X337595D01*
X359600Y258598D02*
X375095D01*
X322100Y333598D02*
X337595D01*
X415900Y108598D02*
X431394D01*
X431097Y33300D02*
X431394Y33598D01*
X415900Y33300D02*
X431097D01*
X378350Y183598D02*
X393845D01*
X1147100Y333598D02*
X1162595D01*
X1147100Y183598D02*
X1162595D01*
X1147100Y33598D02*
X1162595D01*
X434600Y258598D02*
X450095D01*
X397100Y408598D02*
X412595D01*
X397100Y333598D02*
X412595D01*
X490900Y108598D02*
X506394D01*
X500225Y33598D02*
X515720D01*
X453350Y183598D02*
X468845D01*
X1147100Y329048D02*
X1169855D01*
X1147100Y179048D02*
X1169855D01*
X1147100Y29048D02*
X1169855D01*
X1140152D02*
X1147100D01*
X1140100Y29100D02*
X1140152Y29048D01*
X397100Y404048D02*
X419855D01*
X434600Y254048D02*
X457355D01*
X397100Y329048D02*
X419855D01*
X490900Y104048D02*
X513656D01*
X500225Y29048D02*
X522980D01*
X453350Y179048D02*
X476105D01*
X1380739Y405868D02*
X1392064Y394544D01*
X1182600Y329300D02*
Y337300D01*
X1180200Y339700D02*
X1182600Y337300D01*
X1181600Y179500D02*
Y188500D01*
X1180400Y189700D02*
X1181600Y188500D01*
X1177798Y324498D02*
X1182600Y329300D01*
X1174405Y189700D02*
X1180400D01*
X1176598Y174498D02*
X1181600Y179500D01*
X1174405Y339700D02*
X1180200D01*
X1147100Y324498D02*
X1177798D01*
X1147100Y174498D02*
X1176598D01*
X1178900Y39700D02*
X1181200Y37400D01*
Y30300D02*
Y37400D01*
X1174405Y39700D02*
X1178900D01*
X1175398Y24498D02*
X1181200Y30300D01*
X1147100Y24498D02*
X1175398D01*
X1136902D02*
X1147100D01*
X527530Y39700D02*
X531200D01*
X524800Y103000D02*
Y111500D01*
X531200Y39700D02*
X533200Y37700D01*
X521298Y99498D02*
X524800Y103000D01*
X521600Y114700D02*
X524800Y111500D01*
X1136700Y24700D02*
X1136902Y24498D01*
X528597Y24498D02*
X533200Y29100D01*
Y37700D01*
X432700Y405200D02*
Y412100D01*
X429800Y415000D02*
X432700Y412100D01*
X431200Y331100D02*
Y336000D01*
X427500Y339700D02*
X431200Y336000D01*
X426998Y399498D02*
X432700Y405200D01*
X424706Y415000D02*
X429800D01*
X424598Y324498D02*
X431200Y331100D01*
X424405Y339700D02*
X427500D01*
X465300Y264700D02*
X468400Y261600D01*
X461905Y264700D02*
X465300D01*
X463998Y249498D02*
X468400Y253900D01*
Y261600D01*
X434600Y249498D02*
X463998D01*
X397100Y399498D02*
X426998D01*
X397100Y324498D02*
X424598D01*
X518205Y114700D02*
X521600D01*
X490900Y99498D02*
X521298D01*
X487300Y181300D02*
Y187100D01*
X484700Y189700D02*
X487300Y187100D01*
X500225Y24498D02*
X528597D01*
X480498Y174498D02*
X487300Y181300D01*
X480655Y189700D02*
X484700D01*
X453350Y174498D02*
X480498D01*
X1125900Y384700D02*
X1333150D01*
X1352428Y403978D01*
X1349278Y404789D02*
Y433334D01*
X1331990Y387500D02*
X1349278Y404789D01*
X1124740Y387500D02*
X1331990D01*
X1347704Y405194D02*
Y433334D01*
X1331410Y388900D02*
X1347704Y405194D01*
X1124160Y388900D02*
X1331410D01*
X1346129Y405599D02*
Y433334D01*
X1330830Y390300D02*
X1346129Y405599D01*
X1123580Y390300D02*
X1330830D01*
X1344554Y406004D02*
Y433334D01*
X1330250Y391700D02*
X1344554Y406004D01*
X1123001Y391700D02*
X1330250D01*
X1125320Y386100D02*
X1332570D01*
X1350853Y404384D01*
X874590Y463290D02*
X1314492D01*
X1315072Y462709D01*
X1302960Y461890D02*
X1307168Y457682D01*
X941090Y461890D02*
X1302960D01*
X1302380Y460490D02*
X1310380Y452490D01*
X942190Y460490D02*
X1302380D01*
X1301800Y459090D02*
X1313262Y447627D01*
X945390Y459090D02*
X1301800D01*
X1302750Y464700D02*
X1305786Y467736D01*
X871100Y464700D02*
X1302750D01*
X1301750Y466100D02*
X1308413Y472764D01*
X870520Y466100D02*
X1301750D01*
X1301050Y467500D02*
X1319016Y485467D01*
X803800Y467500D02*
X1301050D01*
X1300449Y468900D02*
X1319349Y487800D01*
X801500Y468900D02*
X1300449D01*
X1299870Y470300D02*
X1318770Y489200D01*
X800920Y470300D02*
X1299870D01*
X1317610Y492000D02*
X1338970D01*
X1298710Y473100D02*
X1317610Y492000D01*
X731077Y473100D02*
X1298710D01*
X1317030Y493400D02*
X1342209D01*
X1298130Y474500D02*
X1317030Y493400D01*
X730497Y474500D02*
X1298130D01*
X1316450Y494800D02*
X1345447D01*
X1297550Y475900D02*
X1316450Y494800D01*
X662200Y475900D02*
X1297550D01*
X1315870Y496200D02*
X1348686D01*
X1296970Y477300D02*
X1315870Y496200D01*
X660277Y477300D02*
X1296970D01*
X1315290Y497600D02*
X1351924D01*
X1296390Y478700D02*
X1315290Y497600D01*
X659697Y478700D02*
X1296390D01*
X1314710Y499000D02*
X1355163D01*
X1295810Y480100D02*
X1314710Y499000D01*
X591400Y480100D02*
X1295810D01*
X1314130Y500400D02*
X1358401D01*
X1295230Y481500D02*
X1314130Y500400D01*
X589477Y481500D02*
X1295230D01*
X1313551Y501800D02*
X1361639D01*
X1294651Y482900D02*
X1313551Y501800D01*
X588897Y482900D02*
X1294651D01*
X1312971Y503200D02*
X1364878D01*
X1294071Y484300D02*
X1312971Y503200D01*
X520600Y484300D02*
X1294071D01*
X1312391Y504600D02*
X1368217D01*
X1293491Y485700D02*
X1312391Y504600D01*
X518677Y485700D02*
X1293491D01*
X1311811Y506000D02*
X1373496D01*
X1292911Y487100D02*
X1311811Y506000D01*
X518097Y487100D02*
X1292911D01*
X1299290Y471700D02*
X1318190Y490600D01*
X733000Y471700D02*
X1299290D01*
X559500Y453503D02*
X588897Y482900D01*
X492900Y456600D02*
X520600Y484300D01*
X488700Y455723D02*
X518677Y485700D01*
X484500Y453503D02*
X518097Y487100D01*
X1305786Y467736D02*
X1315072D01*
X1313262Y447627D02*
X1315072D01*
X1360063Y412600D02*
Y417300D01*
X1358727Y418636D02*
X1360063Y417300D01*
X1358727Y418636D02*
Y433334D01*
X1360302Y421239D02*
X1371539Y410002D01*
X1360302Y421239D02*
Y433334D01*
X1446350Y441000D02*
X1447850Y442500D01*
X1446350Y437300D02*
Y441000D01*
X1443050Y440194D02*
X1446955Y444100D01*
X1443050Y435800D02*
Y440194D01*
X1361877Y424265D02*
Y433334D01*
Y424265D02*
X1376139Y410002D01*
X1363452Y427290D02*
X1380739Y410002D01*
X1363452Y427290D02*
Y433334D01*
X1357152Y398997D02*
Y433334D01*
Y398997D02*
X1360999Y395150D01*
X1338044Y437251D02*
X1342212D01*
X1328943Y428150D02*
X1338044Y437251D01*
X1328943Y426985D02*
Y428150D01*
X1342029Y435494D02*
X1342212Y435676D01*
X1342029Y426990D02*
Y435494D01*
X1335850Y438800D02*
X1342185D01*
X1324050Y427000D02*
X1335850Y438800D01*
X1318891Y427000D02*
X1324050D01*
X1332334Y437573D02*
X1336737Y441976D01*
X1319206Y437573D02*
X1332334D01*
X1336737Y441976D02*
X1342212D01*
X1355578Y394872D02*
X1357950Y392500D01*
X1355578Y394872D02*
Y433334D01*
X1350853Y404384D02*
Y433334D01*
X1352428Y403978D02*
Y433334D01*
X1552269Y486100D02*
X1553557D01*
X1526557D02*
X1527860D01*
X1373496Y506000D02*
X1401211Y478285D01*
X1368217Y504600D02*
X1387350Y485467D01*
X1364878Y503200D02*
X1382611Y485467D01*
X1361639Y501800D02*
X1377973Y485467D01*
X1358401Y500400D02*
X1373334Y485467D01*
X1355163Y499000D02*
X1368696Y485467D01*
X1351924Y497600D02*
X1364057Y485467D01*
X1348686Y496200D02*
X1359419Y485467D01*
X1345447Y494800D02*
X1354780Y485467D01*
X1342209Y493400D02*
X1350142Y485467D01*
X1338970Y492000D02*
X1345503Y485467D01*
X1335732Y490600D02*
X1340865Y485467D01*
X1318190Y490600D02*
X1335732D01*
X1332493Y489200D02*
X1336226Y485467D01*
X1318770Y489200D02*
X1332493D01*
X1329255Y487800D02*
X1331588Y485467D01*
X1319349Y487800D02*
X1329255D01*
X1319016Y485467D02*
X1326950D01*
Y481333D02*
X1344554Y463729D01*
Y460066D02*
Y463729D01*
X1331588Y481333D02*
X1346129Y466792D01*
Y460066D02*
Y466792D01*
X1336226Y481333D02*
X1347704Y469856D01*
Y460066D02*
Y469856D01*
X1340865Y481333D02*
X1349278Y472920D01*
Y460066D02*
Y472920D01*
X1345503Y481333D02*
X1350853Y475983D01*
Y460066D02*
Y475983D01*
X1350142Y481333D02*
X1354003Y477472D01*
Y460066D02*
Y477472D01*
X1354780Y481333D02*
X1355578Y480536D01*
Y460066D02*
Y480536D01*
X1357152Y479067D02*
X1359419Y481333D01*
X1357152Y460066D02*
Y479067D01*
X1358727Y476003D02*
X1364057Y481333D01*
X1358727Y460066D02*
Y476003D01*
X1360302Y472939D02*
X1368696Y481333D01*
X1360302Y460066D02*
Y472939D01*
X1361877Y469876D02*
X1373334Y481333D01*
X1361877Y460066D02*
Y469876D01*
X1363452Y466812D02*
X1377973Y481333D01*
X1363452Y460066D02*
Y466812D01*
X1365026Y463749D02*
X1382611Y481333D01*
X1365026Y460066D02*
Y463749D01*
X1387350Y480815D02*
Y481333D01*
X1366601Y460066D02*
X1387350Y480815D01*
X1431849Y448200D02*
X1434050Y446000D01*
X1545970Y476217D02*
Y480100D01*
X1534159Y476810D02*
Y480100D01*
X1342185Y438800D02*
X1342212Y438826D01*
X1321486Y445966D02*
X1323794Y448275D01*
X1322886Y445386D02*
X1324199Y446700D01*
X1322886Y445354D02*
Y445386D01*
X1321480Y443948D02*
X1322886Y445354D01*
X1321447Y443948D02*
X1321480D01*
X1315072Y437573D02*
X1321447Y443948D01*
X1321486Y445934D02*
Y445966D01*
X1320900Y445348D02*
X1321486Y445934D01*
X1320867Y445348D02*
X1320900D01*
X1320019Y444500D02*
X1320867Y445348D01*
X1312150Y444500D02*
X1320019D01*
X1324199Y446700D02*
X1342212D01*
X1323794Y448275D02*
X1342212D01*
X1305449Y437800D02*
X1312150Y444500D01*
X1544986Y483284D02*
Y485722D01*
Y483284D02*
X1545970Y482300D01*
X1534159Y480100D02*
Y482342D01*
X1307168Y457682D02*
X1315072D01*
X1310380Y452490D02*
X1314907D01*
X1308413Y472764D02*
X1315072D01*
X1535017Y483200D02*
Y484670D01*
X1534159Y482342D02*
X1535017Y483200D01*
Y484670D02*
X1535143Y484796D01*
Y484878D01*
X1544986Y485722D02*
Y486100D01*
X1305449Y427600D02*
Y437800D01*
X1342212Y446700D02*
X1355578D01*
X1545970Y480100D02*
Y482300D01*
X1553557Y486100D02*
X1557065Y482592D01*
X1523049D02*
X1526557Y486100D01*
X1349278Y440401D02*
X1355578Y446700D01*
X1342212Y440401D02*
X1349278D01*
X1355578Y446700D02*
X1358727Y443550D01*
X1368944D01*
X1352428Y449850D02*
X1355578Y446700D01*
X1352428Y449850D02*
Y460066D01*
X1314907Y452490D02*
X1315072Y452655D01*
X1365026Y430315D02*
X1385339Y410002D01*
X1365026Y430315D02*
Y433334D01*
X1366608D02*
X1389939Y410002D01*
X1366601Y433334D02*
X1366608D01*
X1305449Y427600D02*
X1305550Y427500D01*
X1319180Y432500D02*
X1323349D01*
X1376517Y457724D02*
X1397078Y478285D01*
X1368944Y457724D02*
X1376517D01*
X1379834Y456149D02*
X1397078Y473392D01*
X1368944Y456149D02*
X1379834D01*
X1383152Y454574D02*
X1397078Y468500D01*
X1368944Y454574D02*
X1383152D01*
X1386469Y452999D02*
X1397078Y463608D01*
X1368944Y452999D02*
X1386469D01*
X1389787Y451424D02*
X1397078Y458715D01*
X1368944Y451424D02*
X1389787D01*
X1393104Y449850D02*
X1397078Y453823D01*
X1368944Y449850D02*
X1393104D01*
X1396422Y448275D02*
X1397078Y448931D01*
X1368944Y448275D02*
X1396422D01*
X1394416Y446700D02*
X1397078Y444038D01*
X1368944Y446700D02*
X1394416D01*
X1391099Y445125D02*
X1397078Y439146D01*
X1368944Y445125D02*
X1391099D01*
X1389356Y441976D02*
X1397078Y434254D01*
X1368944Y441976D02*
X1389356D01*
X1386038Y440401D02*
X1397078Y429362D01*
X1368944Y440401D02*
X1386038D01*
X1382721Y438826D02*
X1397078Y424469D01*
X1368944Y438826D02*
X1382721D01*
X1376086Y435676D02*
X1397078Y414685D01*
X1368944Y435676D02*
X1376086D01*
X1379403Y437251D02*
X1397078Y419577D01*
X1368944Y437251D02*
X1379403D01*
X1333350Y442750D02*
X1333399D01*
X1334200Y443550D01*
X1342212D01*
X1328850Y444326D02*
X1329275D01*
X1330075Y445125D01*
X1342212D01*
X1319206Y447627D02*
X1321428Y449850D01*
X1342212D01*
X1319206Y452655D02*
X1320436Y451424D01*
X1342212D01*
X1334628Y457682D02*
X1339311Y452999D01*
X1342212D01*
X1319206Y457682D02*
X1334628D01*
X1319206Y462709D02*
X1331581D01*
X1339716Y454574D01*
X1342212D01*
X1319206Y467736D02*
X1328533D01*
X1340121Y456149D01*
X1342212D01*
X1319206Y472764D02*
X1325486D01*
X1340526Y457724D01*
X1342212D01*
X1354003Y392647D02*
X1354150Y392500D01*
X1354003Y392647D02*
Y433334D01*
X1109900Y368700D02*
X1125900Y384700D01*
X1109320Y370100D02*
X1125320Y386100D01*
X1108740Y371500D02*
X1124740Y387500D01*
X1108160Y372900D02*
X1124160Y388900D01*
X1107580Y374300D02*
X1123580Y390300D01*
X1107001Y375700D02*
X1123001Y391700D01*
X1091680Y370100D02*
X1109320D01*
X1091100Y368700D02*
X1109900D01*
X863700Y457300D02*
X871100Y464700D01*
X867900Y456600D02*
X874590Y463290D01*
X937595Y408598D02*
X941498D01*
X1076105Y254048D02*
X1080655Y258598D01*
X1020208Y404400D02*
X1024405Y408598D01*
X982355Y254048D02*
X986905Y258598D01*
X1094855Y29048D02*
X1099405Y33598D01*
X1047980Y179048D02*
X1052530Y183598D01*
X945802Y408598D02*
X949405D01*
X946240Y405432D02*
X949405Y408598D01*
X944855Y329048D02*
X949405Y333598D01*
X1562900Y217300D02*
X1563100Y217500D01*
Y219300D01*
X1562900Y216300D02*
Y217300D01*
X1558700Y212100D02*
X1562900Y216300D01*
X1558800Y216200D02*
Y217000D01*
X1557100Y214500D02*
X1558800Y216200D01*
X1082427Y395400D02*
X1085400D01*
X1079927Y397900D02*
X1082427Y395400D01*
X1085400D02*
X1087000Y397000D01*
X1424600Y333500D02*
X1427100Y331000D01*
X1414300Y333500D02*
X1424600D01*
X570800Y317900D02*
X992760D01*
X567300Y314400D02*
X570800Y317900D01*
X1319855Y329048D02*
X1324405Y333598D01*
X1319855Y179048D02*
X1324405Y183598D01*
X663656Y104048D02*
X668205Y108598D01*
X663656Y29048D02*
X668205Y33598D01*
X626105Y179048D02*
X630655Y183598D01*
X569855Y404048D02*
X574405Y408598D01*
X569855Y329048D02*
X574405Y333598D01*
X547100Y404048D02*
X569855D01*
X607355Y254048D02*
X611905Y258598D01*
X1394855Y329048D02*
X1399405Y333598D01*
X1394855Y179048D02*
X1399405Y183598D01*
X1357355Y29048D02*
X1361905Y33598D01*
X794855Y29048D02*
X799405Y33598D01*
X644855Y404048D02*
X649405Y408598D01*
X644855Y329048D02*
X649405Y333598D01*
X701105Y179048D02*
X705655Y183598D01*
X738656Y104048D02*
X743205Y108598D01*
X682355Y254048D02*
X686905Y258598D01*
X1469855Y329048D02*
X1474405Y333598D01*
X1469855Y179048D02*
X1474405Y183598D01*
X1469855Y29048D02*
X1474405Y33598D01*
X813655Y104048D02*
X818206Y108598D01*
X869855Y29048D02*
X874405Y33598D01*
X719855Y404048D02*
X724405Y408598D01*
X719855Y329048D02*
X724405Y333598D01*
X776105Y179048D02*
X780655Y183598D01*
X757355Y254048D02*
X761905Y258598D01*
X1447100Y324498D02*
X1475998D01*
X1544855Y329048D02*
X1549405Y333598D01*
X1545208Y216900D02*
X1549405Y221098D01*
X1544855Y66548D02*
X1549405Y71098D01*
X944855Y29048D02*
X949405Y33598D01*
X794855Y404048D02*
X799405Y408598D01*
X794855Y329048D02*
X799405Y333598D01*
X851105Y179048D02*
X855655Y183598D01*
X888655Y104048D02*
X893206Y108598D01*
X832355Y254048D02*
X836905Y258598D01*
X1527700Y213900D02*
X1528400Y214600D01*
X1537595Y221098D02*
X1541498D01*
X1096008Y405200D02*
X1099405Y408598D01*
X1057355Y329048D02*
X1061905Y333598D01*
X1029506Y104048D02*
X1034056Y108598D01*
X1019855Y29048D02*
X1024405Y33598D01*
X871008Y405200D02*
X874405Y408598D01*
X907355Y254048D02*
X911905Y258598D01*
X926105Y179048D02*
X930655Y183598D01*
X869855Y329048D02*
X874405Y333598D01*
X1244855Y329048D02*
X1249405Y333598D01*
X1244855Y179048D02*
X1249405Y183598D01*
X1244855Y29048D02*
X1249405Y33598D01*
X588656Y104048D02*
X593205Y108598D01*
X588656Y29048D02*
X593205Y33598D01*
X494855Y404048D02*
X499405Y408598D01*
X494855Y329048D02*
X499405Y333598D01*
X551105Y179048D02*
X555655Y183598D01*
X532355Y254048D02*
X536905Y258598D01*
X1477860Y213900D02*
X1527700D01*
X1448060Y243700D02*
X1477860Y213900D01*
X1525500Y25700D02*
Y30727D01*
X1518528Y37700D02*
X1525500Y30727D01*
X1557600Y66800D02*
Y74800D01*
X1552798Y61998D02*
X1557600Y66800D01*
X1522100Y61998D02*
X1552798D01*
X1512800Y234300D02*
X1564600D01*
X1546800Y232900D02*
X1561000D01*
X1569200Y224700D01*
X1487700Y37700D02*
X1518528D01*
X1087000Y397000D02*
Y399350D01*
X1475998Y24498D02*
X1481500Y30000D01*
Y37300D01*
X944200Y410200D02*
X945802Y408598D01*
X944200Y410200D02*
Y417620D01*
X945780Y419200D01*
X942800Y418200D02*
X945200Y420600D01*
X942800Y409900D02*
Y418200D01*
X941498Y408598D02*
X942800Y409900D01*
X1474605Y264900D02*
X1479800D01*
X1474306Y264600D02*
X1474605Y264900D01*
X1487600Y37800D02*
X1487700Y37700D01*
X1469935Y114035D02*
X1473224D01*
X1468500Y112600D02*
X1469935Y114035D01*
X1468500Y104300D02*
Y112600D01*
Y96800D02*
Y104300D01*
X1468500Y96800D02*
X1468500Y96800D01*
X1468500Y96800D02*
X1468500Y96800D01*
X640900Y33598D02*
X656394D01*
X640900Y29048D02*
X663656D01*
X668205Y39700D02*
X671875D01*
X673875Y37700D01*
Y29100D02*
Y37700D01*
X669273Y24498D02*
X673875Y29100D01*
X640900Y24498D02*
X669273D01*
X565900Y29048D02*
X588656D01*
X565900Y33598D02*
X581394D01*
X593205Y39700D02*
X596875D01*
X598875Y37700D01*
Y29100D02*
Y37700D01*
X594273Y24498D02*
X598875Y29100D01*
X565900Y24498D02*
X594273D01*
X443205Y39700D02*
X446800D01*
X449400Y37100D01*
Y29300D02*
Y37100D01*
X444100Y24000D02*
X449400Y29300D01*
X415900Y24000D02*
X444100D01*
X1552850Y401750D02*
X1553000Y401900D01*
X1526100Y333598D02*
X1537595D01*
X1526100Y329048D02*
X1544855D01*
X1526100Y324500D02*
X1552795D01*
X1552798Y324498D01*
X921768Y405432D02*
X946240D01*
X966800Y403000D02*
X1028500D01*
X957700Y412100D02*
X966800Y403000D01*
X1028500D02*
X1031400Y405900D01*
X971920Y404400D02*
X1020208D01*
X957120Y419200D02*
X971920Y404400D01*
X1516400Y219500D02*
X1535997D01*
X1528400Y214600D02*
X1528500Y214500D01*
X1557100D01*
X1477680Y212100D02*
X1558700D01*
X1477100Y210700D02*
X1562600D01*
X1523100Y216900D02*
X1545208D01*
X1535997Y219500D02*
X1537595Y221098D01*
X1083100Y399300D02*
X1083200Y399200D01*
X844000Y399300D02*
X1083100D01*
X1072100Y401700D02*
X1103900D01*
X18800Y414700D02*
X37595D01*
X13500Y409400D02*
X18800Y414700D01*
X13500Y398820D02*
Y409400D01*
X942900Y456600D02*
X945390Y459090D01*
X938700Y457000D02*
X942190Y460490D01*
X934500Y455300D02*
X941090Y461890D01*
X859500Y455080D02*
X870520Y466100D01*
X792900Y456600D02*
X803800Y467500D01*
X788700Y456100D02*
X801500Y468900D01*
X784500Y453880D02*
X800920Y470300D01*
X717900Y456600D02*
X733000Y471700D01*
X713700Y455723D02*
X731077Y473100D01*
X709500Y453503D02*
X730497Y474500D01*
X642900Y456600D02*
X662200Y475900D01*
X638700Y455723D02*
X660277Y477300D01*
X634500Y453503D02*
X659697Y478700D01*
X567900Y456600D02*
X591400Y480100D01*
X563700Y455723D02*
X589477Y481500D01*
X484500Y451200D02*
Y453503D01*
X563700Y453900D02*
Y455723D01*
X559500Y451200D02*
Y453503D01*
X488700Y453900D02*
Y455723D01*
X1222100Y329048D02*
X1244855D01*
X1219700Y314900D02*
X1225800Y321000D01*
X1119180Y314900D02*
X1219700D01*
X1113080Y308800D02*
X1119180Y314900D01*
X1030180Y316200D02*
X1092620D01*
X1100019Y308800D02*
X1113080D01*
X1222100Y179048D02*
X1244855D01*
X1222100Y29048D02*
X1244855D01*
X1092620Y316200D02*
X1100019Y308800D01*
X1006820Y307800D02*
X1021780D01*
X993872Y320748D02*
X1006820Y307800D01*
X1021780D02*
X1030180Y316200D01*
X472100Y404048D02*
X494855D01*
X472100Y329048D02*
X494855D01*
X469552Y320748D02*
X993872D01*
X469148Y329048D02*
X472100D01*
X467300Y327200D02*
X469148Y329048D01*
X467300Y323000D02*
Y327200D01*
Y323000D02*
X469552Y320748D01*
X528350Y179048D02*
X551105D01*
X565900Y104048D02*
X588656D01*
X509600Y254048D02*
X532355D01*
X1254100Y339700D02*
X1256500Y337300D01*
X1249405Y339700D02*
X1254100D01*
X1250998Y324498D02*
X1256500Y330000D01*
Y337300D01*
X1222100Y324498D02*
X1250998D01*
X1213902Y316300D02*
X1222100Y324498D01*
X1029600Y317600D02*
X1093199D01*
X1100599Y310200D01*
X994399Y322200D02*
X1007399Y309200D01*
X923126Y322200D02*
X994399D01*
X923073Y322148D02*
X923126Y322200D01*
X1118600Y316300D02*
X1213902D01*
X1112500Y310200D02*
X1118600Y316300D01*
X1100599Y310200D02*
X1112500D01*
X1021200Y309200D02*
X1029600Y317600D01*
X1007399Y309200D02*
X1021200D01*
X1254100Y189700D02*
X1256500Y187300D01*
X1249405Y189700D02*
X1254100D01*
X1250998Y174498D02*
X1256500Y180000D01*
Y187300D01*
X1222100Y174498D02*
X1250998D01*
X1256500Y30000D02*
Y37300D01*
X1254100Y39700D02*
X1256500Y37300D01*
X1250998Y24498D02*
X1256500Y30000D01*
X1249405Y39700D02*
X1254100D01*
X1222100Y24498D02*
X1250998D01*
X596500Y114700D02*
X599200Y112000D01*
Y104400D02*
Y112000D01*
X594298Y99498D02*
X599200Y104400D01*
X593205Y114700D02*
X596500D01*
X565900Y99498D02*
X594298D01*
X504800Y415000D02*
X507700Y412100D01*
X499706Y415000D02*
X504800D01*
X501998Y399498D02*
X507700Y405200D01*
Y412100D01*
X472100Y399498D02*
X501998D01*
X505300Y329500D02*
Y336800D01*
X502400Y339700D02*
X505300Y336800D01*
X502648Y322148D02*
X923073D01*
X500298Y324498D02*
X505300Y329500D01*
X499405Y339700D02*
X502400D01*
X500298Y324498D02*
X502648Y322148D01*
X472100Y324498D02*
X500298D01*
X555655Y189700D02*
X560000D01*
X562200Y179800D02*
Y187500D01*
X560000Y189700D02*
X562200Y187500D01*
X543100Y256100D02*
Y261800D01*
X540200Y264700D02*
X543100Y261800D01*
X536498Y249498D02*
X543100Y256100D01*
X556898Y174498D02*
X562200Y179800D01*
X528350Y174498D02*
X556898D01*
X536905Y264700D02*
X540200D01*
X509600Y249498D02*
X536498D01*
X1297100Y333598D02*
X1312595D01*
X1275602Y312100D02*
X1297100Y333598D01*
X1120340Y312100D02*
X1275602D01*
X1098860Y306000D02*
X1114240D01*
X1031340Y313400D02*
X1091460D01*
X1098860Y306000D01*
X1114240D02*
X1120340Y312100D01*
X1022940Y305000D02*
X1031340Y313400D01*
X1297100Y183598D02*
X1312595D01*
X1005660Y305000D02*
X1022940D01*
X992760Y317900D02*
X1005660Y305000D01*
X640900Y108598D02*
X656394D01*
X547100Y408598D02*
X562595D01*
X547100Y333598D02*
X562595D01*
X584600Y258598D02*
X600095D01*
X603350Y183598D02*
X618845D01*
X1297100Y329048D02*
X1319855D01*
X1278752Y310700D02*
X1297100Y329048D01*
X1120920Y310700D02*
X1278752D01*
X1114820Y304600D02*
X1120920Y310700D01*
X1098280Y304600D02*
X1114820D01*
X1031919Y312000D02*
X1090880D01*
X1098280Y304600D01*
X1023520Y303600D02*
X1031919Y312000D01*
X992180Y316500D02*
X1005080Y303600D01*
X1023520D01*
X1297100Y179048D02*
X1319855D01*
X640900Y104048D02*
X663656D01*
X547100Y329048D02*
X569855D01*
X584600Y254048D02*
X607355D01*
X574023Y316500D02*
X992180D01*
X603350Y179048D02*
X626105D01*
X567523Y310000D02*
X574023Y316500D01*
X567200Y310000D02*
X567523D01*
X1331500Y330000D02*
Y337300D01*
X1329100Y339700D02*
X1331500Y337300D01*
X1325998Y324498D02*
X1331500Y330000D01*
X1324405Y339700D02*
X1329100D01*
X1297100Y324498D02*
X1325998D01*
X1281902Y309300D02*
X1297100Y324498D01*
X1090300Y310600D02*
X1097700Y303200D01*
X991600Y315100D02*
X1004500Y302200D01*
X1121499Y309300D02*
X1281902D01*
X1115399Y303200D02*
X1121499Y309300D01*
X1097700Y303200D02*
X1115399D01*
X1032499Y310600D02*
X1090300D01*
X1024099Y302200D02*
X1032499Y310600D01*
X1004500Y302200D02*
X1024099D01*
X1329100Y189700D02*
X1331500Y187300D01*
X1324405Y189700D02*
X1329100D01*
X1325998Y174498D02*
X1331500Y180000D01*
Y187300D01*
X1297100Y174498D02*
X1325998D01*
X676000Y104900D02*
Y111900D01*
X673200Y114700D02*
X676000Y111900D01*
X668205Y114700D02*
X673200D01*
X670598Y99498D02*
X676000Y104900D01*
X634600Y189700D02*
X636700Y187600D01*
X630655Y189700D02*
X634600D01*
X636700Y181000D02*
Y187600D01*
X630198Y174498D02*
X636700Y181000D01*
X640900Y99498D02*
X670598D01*
X579800Y415000D02*
X582700Y412100D01*
X574706Y415000D02*
X579800D01*
X576998Y399498D02*
X582700Y405200D01*
Y412100D01*
X547100Y399498D02*
X576998D01*
X581600Y330900D02*
Y336900D01*
X578800Y339700D02*
X581600Y336900D01*
X575198Y324498D02*
X581600Y330900D01*
X574405Y339700D02*
X578800D01*
X547100Y324498D02*
X575198D01*
X618000Y255100D02*
Y262100D01*
X615400Y264700D02*
X618000Y262100D01*
X612398Y249498D02*
X618000Y255100D01*
X576700Y315100D02*
X991600D01*
X611905Y264700D02*
X615400D01*
X603350Y174498D02*
X630198D01*
X584600Y249498D02*
X612398D01*
X568400Y306800D02*
X576700Y315100D01*
X564700Y306800D02*
X568400D01*
X638700Y453900D02*
Y455723D01*
X634500Y451200D02*
Y453503D01*
X713700Y453900D02*
Y455723D01*
X709500Y451200D02*
Y453503D01*
X784500Y451200D02*
Y453880D01*
X788700Y453900D02*
Y456100D01*
X1372100Y333598D02*
X1387595D01*
X1372100Y183598D02*
X1387595D01*
X1358302Y169800D02*
X1372100Y183598D01*
X1105600Y169800D02*
X1358302D01*
X1334600Y33598D02*
X1350095D01*
X1066200Y151200D02*
X1087000D01*
X1046800Y170600D02*
X1066200Y151200D01*
X1087000D02*
X1105600Y169800D01*
X1012700Y170600D02*
X1046800D01*
X993100Y151000D02*
X1012700Y170600D01*
X950700Y171700D02*
X971400Y151000D01*
X993100D01*
X772100Y33598D02*
X787595D01*
X622100Y408598D02*
X637595D01*
X659600Y258598D02*
X675095D01*
X622100Y333598D02*
X637595D01*
X690248Y171700D02*
X950700D01*
X715900Y108598D02*
X731394D01*
X690174Y171774D02*
X690248Y171700D01*
X678350Y183598D02*
X693845D01*
X1571600Y241300D02*
Y249300D01*
X1564600Y234300D02*
X1571600Y241300D01*
X1561302Y221098D02*
X1563100Y219300D01*
X1549405Y221098D02*
X1561302D01*
X1512000Y233500D02*
X1512800Y234300D01*
X1522100Y66548D02*
X1544855D01*
X1447480Y242300D02*
X1477680Y212100D01*
X922100Y29048D02*
X944855D01*
X772100Y404048D02*
X794855D01*
X772100Y329048D02*
X794855D01*
X807400Y242300D02*
X1447480D01*
X828350Y179048D02*
X851105D01*
X865900Y104048D02*
X888655D01*
X806848Y254048D02*
X809600D01*
X803800Y251000D02*
X806848Y254048D01*
X809600D02*
X832355D01*
X803800Y245900D02*
Y251000D01*
Y245900D02*
X807400Y242300D01*
X1543500Y229600D02*
X1546800Y232900D01*
X1541498Y221098D02*
X1543500Y223100D01*
Y229600D01*
X1569200Y217300D02*
Y224700D01*
X1562600Y210700D02*
X1569200Y217300D01*
X1522100Y71098D02*
X1537595D01*
X1446900Y240900D02*
X1477100Y210700D01*
X922100Y33598D02*
X937595D01*
X772100Y408598D02*
X787595D01*
X809418Y258598D02*
X809600D01*
X825095D01*
X772100Y333598D02*
X787595D01*
X806820Y240900D02*
X1446900D01*
X865900Y108598D02*
X881394D01*
X802400Y251580D02*
X809418Y258598D01*
X828350Y183598D02*
X843845D01*
X802400Y245320D02*
Y251580D01*
Y245320D02*
X806820Y240900D01*
X1479100Y339700D02*
X1481500Y337300D01*
X1474405Y339700D02*
X1479100D01*
X1475998Y324498D02*
X1481500Y330000D01*
Y337300D01*
X1479100Y189700D02*
X1481500Y187300D01*
X1474405Y189700D02*
X1479100D01*
X1475998Y174498D02*
X1481500Y180000D01*
Y187300D01*
X1447100Y174498D02*
X1475998D01*
X1435402Y162800D02*
X1447100Y174498D01*
X1015599Y163600D02*
X1043900D01*
X1108499Y162800D02*
X1435402D01*
X1089899Y144200D02*
X1108499Y162800D01*
X1063301Y144200D02*
X1089899D01*
X1043900Y163600D02*
X1063301Y144200D01*
X995999Y144000D02*
X1015599Y163600D01*
X968501Y144000D02*
X995999D01*
X947801Y164700D02*
X968501Y144000D01*
X1479100Y39700D02*
X1481500Y37300D01*
X1474405Y39700D02*
X1479100D01*
X1447100Y24498D02*
X1475998D01*
X824500Y104600D02*
Y111900D01*
X821700Y114700D02*
X824500Y111900D01*
X818206Y114700D02*
X821700D01*
X819398Y99498D02*
X824500Y104600D01*
X878900Y39700D02*
X880500Y38100D01*
X874405Y39700D02*
X878900D01*
X875898Y24498D02*
X880500Y29100D01*
Y38100D01*
X847100Y24498D02*
X875898D01*
X729800Y415000D02*
X732700Y412100D01*
X724706Y415000D02*
X729800D01*
X726998Y399498D02*
X732700Y405200D01*
Y412100D01*
X697100Y399498D02*
X726998D01*
X732100Y331800D02*
Y336500D01*
X728900Y339700D02*
X732100Y336500D01*
X761905Y264700D02*
X766100D01*
X724798Y324498D02*
X732100Y331800D01*
X724405Y339700D02*
X728900D01*
X697100Y324498D02*
X724798D01*
X784100Y189700D02*
X786700Y187100D01*
X780655Y189700D02*
X784100D01*
X781698Y174498D02*
X786700Y179500D01*
Y187100D01*
X753350Y174498D02*
X781698D01*
X780500Y164700D02*
X947801D01*
X773900Y158100D02*
X780500Y164700D01*
X790900Y99498D02*
X819398D01*
X769780Y158100D02*
X773900D01*
X766100Y264700D02*
X768300Y262500D01*
X763298Y249498D02*
X768300Y254500D01*
Y262500D01*
X763340Y164540D02*
X769780Y158100D01*
X734600Y249498D02*
X763298D01*
X1447100Y329048D02*
X1469855D01*
X1447100Y179048D02*
X1469855D01*
X1432252Y164200D02*
X1447100Y179048D01*
X1107920Y164200D02*
X1432252D01*
X1089320Y145600D02*
X1107920Y164200D01*
X1044480Y165000D02*
X1063880Y145600D01*
X1447100Y29048D02*
X1469855D01*
X1063880Y145600D02*
X1089320D01*
X1015020Y165000D02*
X1044480D01*
X995420Y145400D02*
X1015020Y165000D01*
X969080Y145400D02*
X995420D01*
X948380Y166100D02*
X969080Y145400D01*
X847100Y29048D02*
X869855D01*
X697100Y404048D02*
X719855D01*
X697100Y329048D02*
X719855D01*
X773900Y166100D02*
X948380D01*
X753350Y179048D02*
X776105D01*
X770099Y162299D02*
X773900Y166100D01*
X790900Y104048D02*
X813655D01*
X734600Y254048D02*
X757355D01*
X1447100Y333598D02*
X1462595D01*
X1447100Y183598D02*
X1462595D01*
X1429102Y165600D02*
X1447100Y183598D01*
X1107340Y165600D02*
X1429102D01*
X1088740Y147000D02*
X1107340Y165600D01*
X1447100Y33598D02*
X1462595D01*
X1045060Y166400D02*
X1064460Y147000D01*
X1014440Y166400D02*
X1045060D01*
X1064460Y147000D02*
X1088740D01*
X969660Y146800D02*
X994840D01*
X948960Y167500D02*
X969660Y146800D01*
X994840D02*
X1014440Y166400D01*
X847100Y33598D02*
X862595D01*
X697100Y408598D02*
X712595D01*
X734600Y258598D02*
X750095D01*
X697100Y333598D02*
X712595D01*
X771300Y167500D02*
X948960D01*
X790900Y108598D02*
X806394D01*
X753350Y183598D02*
X768845D01*
X770300Y166500D02*
X771300Y167500D01*
X1404100Y339700D02*
X1406500Y337300D01*
X1399405Y339700D02*
X1404100D01*
X1400998Y324498D02*
X1406500Y330000D01*
Y337300D01*
X1404100Y189700D02*
X1406500Y187300D01*
X1399405Y189700D02*
X1404100D01*
X1400998Y174498D02*
X1406500Y180000D01*
Y187300D01*
X1372100Y324498D02*
X1400998D01*
X1372100Y174498D02*
X1400998D01*
X1364602Y167000D02*
X1372100Y174498D01*
X1106760Y167000D02*
X1364602D01*
X1013860Y167800D02*
X1045640D01*
X1088160Y148400D02*
X1106760Y167000D01*
X1366600Y39700D02*
X1369000Y37300D01*
X1361905Y39700D02*
X1366600D01*
X1363498Y24498D02*
X1369000Y30000D01*
Y37300D01*
X1334600Y24498D02*
X1363498D01*
X1065040Y148400D02*
X1088160D01*
X1045640Y167800D02*
X1065040Y148400D01*
X994260Y148200D02*
X1013860Y167800D01*
X970240Y148200D02*
X994260D01*
X949540Y168900D02*
X970240Y148200D01*
X749900Y106100D02*
Y112000D01*
X803500Y39700D02*
X805200Y38000D01*
X799405Y39700D02*
X803500D01*
X799398Y24498D02*
X805200Y30300D01*
Y38000D01*
X772100Y24498D02*
X799398D01*
X654800Y415000D02*
X657700Y412100D01*
X649706Y415000D02*
X654800D01*
X651998Y399498D02*
X657700Y405200D01*
Y412100D01*
X622100Y399498D02*
X651998D01*
X655400Y329400D02*
Y337400D01*
X653100Y339700D02*
X655400Y337400D01*
X686905Y264700D02*
X690300D01*
X649405Y339700D02*
X653100D01*
X650498Y324498D02*
X655400Y329400D01*
X622100Y324498D02*
X650498D01*
X708600Y189700D02*
X711900Y186400D01*
X705655Y189700D02*
X708600D01*
X705898Y174498D02*
X711900Y180500D01*
Y186400D01*
X678350Y174498D02*
X705898D01*
X698400Y168900D02*
X949540D01*
X743205Y114700D02*
X747200D01*
X743298Y99498D02*
X749900Y106100D01*
X747200Y114700D02*
X749900Y112000D01*
X715900Y99498D02*
X743298D01*
X693000Y254600D02*
Y262000D01*
X690300Y264700D02*
X693000Y262000D01*
X687898Y249498D02*
X693000Y254600D01*
X659600Y249498D02*
X687898D01*
X694200Y164700D02*
X698400Y168900D01*
X688148Y164700D02*
X694200D01*
X678350Y174498D02*
X688148Y164700D01*
X1372100Y329048D02*
X1394855D01*
X1372100Y179048D02*
X1394855D01*
X1013280Y169200D02*
X1046220D01*
X1361452Y168400D02*
X1372100Y179048D01*
X1106180Y168400D02*
X1361452D01*
X1334600Y29048D02*
X1357355D01*
X1065620Y149800D02*
X1087580D01*
X1046220Y169200D02*
X1065620Y149800D01*
X1087580D02*
X1106180Y168400D01*
X970820Y149600D02*
X993680D01*
X950120Y170300D02*
X970820Y149600D01*
X993680D02*
X1013280Y169200D01*
X622100Y404048D02*
X644855D01*
X659600Y254048D02*
X682355D01*
X622100Y329048D02*
X644855D01*
X693200Y170300D02*
X950120D01*
X772100Y29048D02*
X794855D01*
X715900Y104048D02*
X738656D01*
X690200Y167300D02*
X693200Y170300D01*
X678350Y179048D02*
X701105D01*
X934500Y451200D02*
Y455300D01*
X859500Y451200D02*
Y455080D01*
X863700Y453900D02*
Y457300D01*
X938700Y453900D02*
Y457000D01*
X492100Y319300D02*
X993340D01*
X1006240Y306400D02*
X1022360D01*
X993340Y319300D02*
X1006240Y306400D01*
X1092040Y314800D02*
X1099440Y307400D01*
X1022360Y306400D02*
X1030760Y314800D01*
X1092040D01*
X1099440Y307400D02*
X1113660D01*
X1119760Y313500D02*
X1222900D01*
X1113660Y307400D02*
X1119760Y313500D01*
X1555200Y77200D02*
X1557600Y74800D01*
X1549405Y77200D02*
X1555200D01*
X1549905Y226700D02*
X1558800D01*
X1549405Y227200D02*
X1549905Y226700D01*
X878200Y400700D02*
X882700Y405200D01*
X848200Y400700D02*
X878200D01*
X847200Y401700D02*
X848200Y400700D01*
X843420Y397900D02*
X1079927D01*
X841600Y399720D02*
X843420Y397900D01*
X843000Y400300D02*
X844000Y399300D01*
X20020Y392300D02*
X962299D01*
X23080Y390900D02*
X961720D01*
X23660Y389500D02*
X961140D01*
X24240Y388100D02*
X960560D01*
X24820Y386700D02*
X959980D01*
X25400Y385300D02*
X959400D01*
X1077399Y392300D02*
X1093999Y375700D01*
X1033900Y392300D02*
X1077399D01*
X1076820Y390900D02*
X1093419Y374300D01*
X1034480Y390900D02*
X1076820D01*
X1076240Y389500D02*
X1092840Y372900D01*
X1035060Y389500D02*
X1076240D01*
X1075660Y388100D02*
X1092260Y371500D01*
X1035640Y388100D02*
X1075660D01*
X1075080Y386700D02*
X1091680Y370100D01*
X1036220Y386700D02*
X1075080D01*
X1074500Y385300D02*
X1091100Y368700D01*
X1036799Y385300D02*
X1074500D01*
X1093999Y375700D02*
X1107001D01*
X1093419Y374300D02*
X1107580D01*
X1092840Y372900D02*
X1108160D01*
X1092260Y371500D02*
X1108740D01*
X13500Y398820D02*
X20020Y392300D01*
X18800Y378700D02*
X25400Y385300D01*
X23620Y385500D02*
X24820Y386700D01*
X23040Y386900D02*
X24240Y388100D01*
X22460Y388300D02*
X23660Y389500D01*
X21880Y389700D02*
X23080Y390900D01*
X975100Y369600D02*
X1021099D01*
X975680Y371000D02*
X1020520D01*
X976260Y372400D02*
X1019940D01*
X976840Y373800D02*
X1019360D01*
X977419Y375200D02*
X1018780D01*
X1021099Y369600D02*
X1036799Y385300D01*
X1020520Y371000D02*
X1036220Y386700D01*
X1019940Y372400D02*
X1035640Y388100D01*
X1019360Y373800D02*
X1035060Y389500D01*
X1018780Y375200D02*
X1034480Y390900D01*
X1018200Y376600D02*
X1033900Y392300D01*
X977999Y376600D02*
X1018200D01*
X962299Y392300D02*
X977999Y376600D01*
X961720Y390900D02*
X977419Y375200D01*
X961140Y389500D02*
X976840Y373800D01*
X960560Y388100D02*
X976260Y372400D01*
X959980Y386700D02*
X975680Y371000D01*
X959400Y385300D02*
X975100Y369600D01*
X1071100Y400700D02*
X1072100Y401700D01*
X878200Y400700D02*
X1071100D01*
X21863Y389700D02*
X21880D01*
X22443Y388300D02*
X22460D01*
X23023Y386900D02*
X23040D01*
X23603Y385500D02*
X23620D01*
X14500Y380357D02*
X22443Y388300D01*
X15900Y379777D02*
X23023Y386900D01*
X17300Y379197D02*
X23603Y385500D01*
X921200Y406000D02*
X921768Y405432D01*
X925605Y408500D02*
X937497D01*
X937595Y408598D01*
X918150Y402850D02*
X955350D01*
X957700Y405200D01*
X917800Y403200D02*
X918150Y402850D01*
X12800Y375800D02*
X12800Y62500D01*
X35600Y39700D01*
X14500Y167900D02*
Y380357D01*
Y167900D02*
X67700Y114700D01*
X12800Y380637D02*
X21863Y389700D01*
X12800Y375800D02*
Y380637D01*
X15900Y228700D02*
Y379777D01*
X17300Y291100D02*
Y379197D01*
X18800Y351100D02*
Y378700D01*
X15900Y228700D02*
X55200Y189400D01*
X1107700Y405500D02*
Y412100D01*
X1103900Y401700D02*
X1107700Y405500D01*
X1064602Y408598D02*
X1072100D01*
X1064500Y408700D02*
X1064602Y408598D01*
X841600Y399720D02*
Y403080D01*
X847118Y408598D01*
X847200D01*
X843000Y400300D02*
Y402500D01*
X845700Y405200D01*
X847200D01*
X1072100D02*
X1096008D01*
X1104800Y415000D02*
X1107700Y412100D01*
X1099706Y415000D02*
X1104800D01*
X1072100Y408598D02*
X1087595D01*
X17300Y291100D02*
X43700Y264700D01*
X18800Y351100D02*
X30200Y339700D01*
X37595D01*
X847200Y408598D02*
X862595D01*
X957700Y405200D02*
Y412100D01*
X843995Y243700D02*
X1448060D01*
X843900Y255200D02*
Y261700D01*
X855655Y189700D02*
X860100D01*
X862500Y187300D01*
X957300Y29400D02*
Y36600D01*
X954200Y39700D02*
X957300Y36600D01*
X952398Y24498D02*
X957300Y29400D01*
X949405Y39700D02*
X954200D01*
X922100Y24498D02*
X952398D01*
X862500Y179500D02*
Y187300D01*
X897200Y114700D02*
X899400Y112500D01*
X857498Y174498D02*
X862500Y179500D01*
X899400Y103100D02*
Y112500D01*
X893206Y114700D02*
X897200D01*
X895798Y99498D02*
X899400Y103100D01*
X865900Y99498D02*
X895798D01*
X804800Y415000D02*
X807700Y412100D01*
X801998Y399498D02*
X807700Y405200D01*
Y412100D01*
X803500Y339700D02*
X805500Y337700D01*
X799706Y415000D02*
X804800D01*
X772100Y399498D02*
X801998D01*
X799405Y339700D02*
X803500D01*
X840900Y264700D02*
X843900Y261700D01*
X836905Y264700D02*
X840900D01*
X838198Y249498D02*
X843900Y255200D01*
X809600Y249498D02*
X838198D01*
X828350Y174498D02*
X857498D01*
X838198Y249498D02*
X843995Y243700D01*
X805500Y328300D02*
Y337700D01*
X801698Y324498D02*
X805500Y328300D01*
X772100Y324498D02*
X801698D01*
X1222900Y313500D02*
X1230300Y320900D01*
X492052Y319348D02*
X492100Y319300D01*
X468972Y319348D02*
X492052D01*
X465900Y322420D02*
X468972Y319348D01*
X465900Y322420D02*
Y327780D01*
X471718Y333598D01*
X472100D01*
X847200Y405200D02*
X871008D01*
X1031400Y405900D02*
Y411900D01*
X1028600Y414700D02*
X1031400Y411900D01*
X1024405Y414700D02*
X1028600D01*
X945780Y419200D02*
X957120D01*
X969702Y408598D02*
X1012595D01*
X957700Y420600D02*
X969702Y408598D01*
X945200Y420600D02*
X957700D01*
X959600Y254048D02*
X982355D01*
X997500Y254100D02*
X997552Y254048D01*
X997600Y258700D02*
X997702Y258598D01*
X903350Y179048D02*
X926105D01*
X903350Y183598D02*
X918845D01*
X1072100Y33598D02*
X1087595D01*
X1103700Y39700D02*
X1106100Y37300D01*
Y30200D02*
Y37300D01*
X1100398Y24498D02*
X1106100Y30200D01*
X1099405Y39700D02*
X1103700D01*
X1072100Y24498D02*
X1100398D01*
X1072100Y29048D02*
X1094855D01*
X1006750Y104048D02*
X1029506D01*
X1006750Y99498D02*
X1034598D01*
X1006750Y108598D02*
X1022244D01*
X1205893Y396500D02*
X1261700D01*
X1549405Y339700D02*
X1555200D01*
X1557600Y337300D01*
X1552798Y324498D02*
X1557600Y329300D01*
Y337300D01*
X1362700Y274900D02*
X1367700Y269900D01*
X949706Y415000D02*
X954800D01*
X957700Y412100D01*
X874706Y415000D02*
X879800D01*
X882700Y412100D01*
Y405200D02*
Y412100D01*
X472100Y408598D02*
X487595D01*
X322100Y399498D02*
X351998D01*
X357700Y405200D01*
X349706Y415000D02*
X354800D01*
X357700Y412100D01*
Y405200D02*
Y412100D01*
X35600Y39700D02*
X47007D01*
X67700Y114700D02*
X84508D01*
X65420Y189400D02*
X65719Y189700D01*
X55200Y189400D02*
X65420D01*
X43700Y264700D02*
X56344D01*
X1222100Y33598D02*
X1237595D01*
X1222100Y183598D02*
X1237595D01*
X1222100Y333598D02*
X1237595D01*
X1025225Y174498D02*
X1055998D01*
X1060200Y178700D01*
Y186600D01*
X1057100Y189700D02*
X1060200Y186600D01*
X1052530Y189700D02*
X1057100D01*
X1025225Y179048D02*
X1047980D01*
X1025225Y183598D02*
X1040720D01*
X988798Y249498D02*
X1082398D01*
X1087900Y255000D01*
Y262300D01*
X1085500Y264700D02*
X1087900Y262300D01*
X1080655Y264700D02*
X1085500D01*
X997552Y254048D02*
X1076105D01*
X997702Y258598D02*
X1068845D01*
X1034600Y324498D02*
X1063098D01*
X1068200Y329600D01*
Y337900D01*
X1066400Y339700D02*
X1068200Y337900D01*
X1061905Y339700D02*
X1066400D01*
X1034600Y329048D02*
X1057355D01*
X1034600Y333598D02*
X1050095D01*
X922100Y324498D02*
X949398D01*
X955900Y331000D01*
Y338000D01*
X954200Y339700D02*
X955900Y338000D01*
X949405Y339700D02*
X954200D01*
X922100Y329048D02*
X944855D01*
X922100Y333598D02*
X937595D01*
X959600Y249498D02*
X988798D01*
X993400Y254100D01*
Y263300D01*
X992000Y264700D02*
X993400Y263300D01*
X986905Y264700D02*
X992000D01*
X959600Y258598D02*
X975095D01*
X903350Y174498D02*
X933098D01*
X938000Y179400D01*
Y187100D01*
X935400Y189700D02*
X938000Y187100D01*
X930655Y189700D02*
X935400D01*
X1034598Y99498D02*
X1040400Y105300D01*
Y112500D01*
X1038200Y114700D02*
X1040400Y112500D01*
X1034056Y114700D02*
X1038200D01*
X997100Y24498D02*
X1025698D01*
X1030800Y29600D01*
Y37700D01*
X1028800Y39700D02*
X1030800Y37700D01*
X1024405Y39700D02*
X1028800D01*
X997100Y29048D02*
X1019855D01*
X997100Y33598D02*
X1012595D01*
X884600Y249498D02*
X912898D01*
X918000Y254600D01*
Y262600D01*
X915900Y264700D02*
X918000Y262600D01*
X911905Y264700D02*
X915900D01*
X884600Y254048D02*
X907355D01*
X884600Y258598D02*
X900095D01*
X847100Y324498D02*
X875598D01*
X880500Y329400D01*
Y337300D01*
X878100Y339700D02*
X880500Y337300D01*
X874405Y339700D02*
X878100D01*
X847100Y329048D02*
X869855D01*
X847100Y333598D02*
X862595D01*
X565900Y108598D02*
X581394D01*
X528350Y183598D02*
X543845D01*
X509600Y258598D02*
X525095D01*
X472100Y333598D02*
X487595D01*
X415900Y99498D02*
X445498D01*
X450000Y104000D01*
Y111900D01*
X447200Y114700D02*
X450000Y111900D01*
X443205Y114700D02*
X447200D01*
X378350Y174498D02*
X406898D01*
X412000Y179600D01*
Y186600D01*
X408900Y189700D02*
X412000Y186600D01*
X405655Y189700D02*
X408900D01*
X359600Y249498D02*
X387898D01*
X394400Y256000D01*
Y261700D01*
X391400Y264700D02*
X394400Y261700D01*
X386906Y264700D02*
X391400D01*
X322100Y324498D02*
X350198D01*
X355900Y330200D01*
Y336900D01*
X353100Y339700D02*
X355900Y336900D01*
X349406Y339700D02*
X353100D01*
D58*
X225413Y66200D02*
X778500D01*
X1379100Y366700D02*
X1454100D01*
X1378497Y366696D02*
X1379100Y366700D01*
X1303500Y366200D02*
X1378497Y366696D01*
X1041000Y366200D02*
X1153500D01*
X1559300Y134500D02*
Y203500D01*
X1558400Y133600D02*
X1559300Y134500D01*
X1491000Y141200D02*
X1528500Y103700D01*
X1453500Y141200D02*
X1491000D01*
X1046700Y264100D02*
X1068044D01*
X1068145Y264000D01*
X65719Y189700D02*
X71820Y195800D01*
X1162595Y264700D02*
X1167795Y269900D01*
X1050095Y339700D02*
X1054895Y344500D01*
X1162595Y189700D02*
X1167795Y194900D01*
X37595Y339700D02*
X43395Y345500D01*
X1549700Y292100D02*
X1556400D01*
X1528500Y270900D02*
X1549700Y292100D01*
X1528500Y253700D02*
Y270900D01*
Y253700D02*
X1529100Y254300D01*
X1509665Y226535D02*
X1536929D01*
X1496600Y239600D02*
X1509665Y226535D01*
X1232094Y120200D02*
X1307094D01*
X1523065Y76535D02*
X1538776D01*
X1522800Y76800D02*
X1523065Y76535D01*
X1162595Y114700D02*
X1168095Y120200D01*
X1162595Y39700D02*
X1168295Y45400D01*
X1491400D02*
X1522800Y76800D01*
X650494Y45600D02*
X781695D01*
X650494D02*
X656394Y39700D01*
X575494Y45600D02*
X650494D01*
X575494D02*
X581394Y39700D01*
X509819Y45600D02*
X575494D01*
X425494D02*
X509819D01*
X425494D02*
X431394Y39700D01*
X350495Y45600D02*
X425494D01*
X350495D02*
X356395Y39700D01*
X228607Y45600D02*
X350495D01*
X1528500Y103700D02*
X1558400Y133600D01*
X1503800Y207300D02*
X1553286D01*
X1491600Y195100D02*
X1503800Y207300D01*
X1491200Y45200D02*
X1491400Y45400D01*
X1457094Y45200D02*
X1491200D01*
X1479800Y120200D02*
X1522800Y77200D01*
X1496600Y239600D02*
Y259800D01*
X1486500Y269900D02*
X1496600Y259800D01*
X1491000Y291200D02*
X1528500Y253700D01*
X1453500Y291200D02*
X1491000D01*
X1463800Y195100D02*
X1491600D01*
X1456000Y202900D02*
X1463800Y195100D01*
X1456000Y202900D02*
Y213700D01*
X1453500Y216200D02*
X1456000Y213700D01*
X1013150Y141200D02*
X1153500D01*
X872300D02*
X1013150D01*
X1228500Y366200D02*
X1303500D01*
X1232094Y345200D02*
X1307094D01*
X1153500Y366200D02*
X1228500D01*
X1157094Y345200D02*
X1232094D01*
X1081495Y420800D02*
X1091400D01*
X1156495D01*
X928500Y366200D02*
X1041000D01*
X1137600Y196600D02*
X1144500Y189700D01*
X1162595D01*
X1457395Y269900D02*
X1486500D01*
X1344394Y45400D02*
X1491400D01*
X1457094Y45200D02*
X1462595Y39700D01*
X1427000Y120200D02*
X1457094D01*
X1382094D02*
X1427000D01*
X1341000Y66200D02*
X1453500D01*
X1078500D02*
X1153500D01*
X1003500D02*
X1078500D01*
X1006695Y45600D02*
X1081695D01*
X1136300Y264700D02*
X1162595D01*
X1120200Y280800D02*
X1136300Y264700D01*
X1103700Y344500D02*
X1108100Y340100D01*
X1054895Y344500D02*
X1103700D01*
X1111200Y345200D02*
X1157094D01*
X1109400Y347000D02*
X1111200Y345200D01*
X856695Y420600D02*
X931695D01*
X856695D02*
X862595Y414700D01*
X931695Y420600D02*
X937595Y414700D01*
X1168295Y45400D02*
X1231894D01*
X1081695Y45600D02*
X1087595Y39700D01*
X993500Y195800D02*
X999300Y201600D01*
X912745Y195800D02*
X993500D01*
X837745D02*
X912745D01*
X985900Y120700D02*
X1016245D01*
X875395D02*
X985900D01*
X1040520Y189900D02*
X1040720Y189700D01*
X970300Y189900D02*
X1040520D01*
X1016245Y120700D02*
X1022244Y114700D01*
X1168095Y120200D02*
X1232094D01*
X1167795Y194900D02*
X1232395D01*
X1167795Y269900D02*
X1232395D01*
X1344394Y45400D02*
X1350095Y39700D01*
X1231894Y45400D02*
X1344394D01*
X1231894D02*
X1237595Y39700D01*
X1457094Y120200D02*
X1479800D01*
X1382094D02*
X1387595Y114700D01*
X1307094Y120200D02*
X1382094D01*
X1457094D02*
X1462595Y114700D01*
X1307094Y120200D02*
X1312595Y114700D01*
X1232094Y120200D02*
X1237595Y114700D01*
X1382395Y269900D02*
X1457395D01*
Y194900D02*
X1462595Y189700D01*
X1382395Y194900D02*
X1457395D01*
X1382395D02*
X1387595Y189700D01*
X1307395Y194900D02*
X1382395D01*
X1307395D02*
X1312595Y189700D01*
X1232395Y194900D02*
X1307395D01*
X1232395D02*
X1237595Y189700D01*
X1457395Y269900D02*
X1462595Y264700D01*
X1367700Y269900D02*
X1382395D01*
X1307395D02*
X1367700D01*
X1382395D02*
X1387595Y264700D01*
X1307395Y269900D02*
X1312595Y264700D01*
X1232395Y269900D02*
X1307395D01*
X1232395D02*
X1237595Y264700D01*
X1532094Y345200D02*
X1537595Y339700D01*
X1457094Y345200D02*
X1532094D01*
X1457094D02*
X1462595Y339700D01*
X1382094Y345200D02*
X1457094D01*
X1367700D02*
X1382094D01*
X1307094D02*
X1367700D01*
X1382094D02*
X1387595Y339700D01*
X1307094Y345200D02*
X1312595Y339700D01*
X1232094Y345200D02*
X1237595Y339700D01*
X1157094Y345200D02*
X1162595Y339700D01*
X1231495Y420800D02*
X1237595Y414700D01*
X1156495Y420800D02*
X1231495D01*
X1156495D02*
X1162595Y414700D01*
X1081495Y420800D02*
X1087595Y414700D01*
X1018694Y420800D02*
X1081495D01*
X1012595Y414700D02*
X1018694Y420800D01*
X1153500Y441200D02*
X1228500D01*
X1006695Y45600D02*
X1012595Y39700D01*
X856695Y45600D02*
X931695D01*
X781695D02*
X856695D01*
X931695D02*
X1006695D01*
X931695D02*
X937595Y39700D01*
X856695Y45600D02*
X862595Y39700D01*
X228607Y45600D02*
X234507Y39700D01*
X134857Y45600D02*
X228607D01*
X52907D02*
X134857D01*
X47007Y39700D02*
X52907Y45600D01*
X134857D02*
X140757Y39700D01*
X781695Y45600D02*
X787595Y39700D01*
X509819Y45600D02*
X515720Y39700D01*
X556695Y420600D02*
X631695D01*
X706695D01*
X556695D02*
X562595Y414700D01*
X781695Y420600D02*
X856695D01*
X706695D02*
X781695D01*
X787595Y414700D01*
X631695Y420600D02*
X637595Y414700D01*
X706695Y420600D02*
X712595Y414700D01*
X406695Y420600D02*
X481695D01*
X406695D02*
X412595Y414700D01*
X331695Y420600D02*
X406695D01*
X481695D02*
X556695D01*
X481695D02*
X487595Y414700D01*
X106694Y420600D02*
X181694D01*
X256695D01*
X43494D02*
X106694D01*
X331695D02*
X337595Y414700D01*
X256695Y420600D02*
X331695D01*
X256695D02*
X262595Y414700D01*
X106694Y420600D02*
X112594Y414700D01*
X181694Y420600D02*
X187594Y414700D01*
X37595D02*
X43494Y420600D01*
X75414Y141200D02*
X197300D01*
X62644Y271000D02*
X143795D01*
X56344Y264700D02*
X62644Y271000D01*
X875395Y120700D02*
X881394Y114700D01*
X800395Y120700D02*
X875395D01*
X800395D02*
X806394Y114700D01*
X725394Y120700D02*
X800395D01*
X725394D02*
X731394Y114700D01*
X650394Y120700D02*
X725394D01*
X650394D02*
X656394Y114700D01*
X575394Y120700D02*
X650394D01*
X575394D02*
X581394Y114700D01*
X500394Y120700D02*
X575394D01*
X500394D02*
X506394Y114700D01*
X425394Y120700D02*
X500394D01*
X425394D02*
X431394Y114700D01*
X350395Y120700D02*
X425394D01*
X350395D02*
X356395Y114700D01*
X275395Y120700D02*
X350395D01*
X275395D02*
X281395Y114700D01*
X200395Y120700D02*
X275395D01*
X200395D02*
X206395Y114700D01*
X90508Y120700D02*
X200395D01*
X84508Y114700D02*
X90508Y120700D01*
X912745Y195800D02*
X918845Y189700D01*
X837745Y195800D02*
X843845Y189700D01*
X762745Y195800D02*
X837745D01*
X762745D02*
X768845Y189700D01*
X687745Y195800D02*
X762745D01*
X687745D02*
X693845Y189700D01*
X612745Y195800D02*
X687745D01*
X612745D02*
X618845Y189700D01*
X537745Y195800D02*
X612745D01*
X537745D02*
X543845Y189700D01*
X462745Y195800D02*
X537745D01*
X462745D02*
X468845Y189700D01*
X387744Y195800D02*
X462745D01*
X387744D02*
X393845Y189700D01*
X312744Y195800D02*
X387744D01*
X312744D02*
X318845Y189700D01*
X237744Y195800D02*
X312744D01*
X237744D02*
X243845Y189700D01*
X162744Y195800D02*
X237744D01*
X162744D02*
X168844Y189700D01*
X71820Y195800D02*
X162744D01*
X968795Y271000D02*
X975095Y264700D01*
X893795Y271000D02*
X968795D01*
X893795D02*
X900095Y264700D01*
X818795Y271000D02*
X893795D01*
X818795D02*
X825095Y264700D01*
X743794Y271000D02*
X818795D01*
X743794D02*
X750095Y264700D01*
X668794Y271000D02*
X743794D01*
X668794D02*
X675095Y264700D01*
X593794Y271000D02*
X668794D01*
X593794D02*
X600095Y264700D01*
X518794Y271000D02*
X593794D01*
X518794D02*
X525095Y264700D01*
X443794Y271000D02*
X518794D01*
X443794D02*
X450095Y264700D01*
X368794Y271000D02*
X443794D01*
X368794D02*
X375095Y264700D01*
X293794Y271000D02*
X368794D01*
X293794D02*
X300095Y264700D01*
X218794Y271000D02*
X293794D01*
X218794D02*
X225095Y264700D01*
X143795Y271000D02*
X218794D01*
X143795D02*
X150094Y264700D01*
X931794Y345500D02*
X937595Y339700D01*
X856794Y345500D02*
X931794D01*
X856794D02*
X862595Y339700D01*
X781795Y345500D02*
X856794D01*
X781795D02*
X787595Y339700D01*
X706795Y345500D02*
X781795D01*
X706795D02*
X712595Y339700D01*
X631795Y345500D02*
X706795D01*
X631795D02*
X637595Y339700D01*
X556795Y345500D02*
X631795D01*
X556795D02*
X562595Y339700D01*
X481795Y345500D02*
X556795D01*
X481795D02*
X487595Y339700D01*
X406795Y345500D02*
X481795D01*
X406795D02*
X412595Y339700D01*
X331795Y345500D02*
X406795D01*
X331795D02*
X337595Y339700D01*
X256795Y345500D02*
X331795D01*
X256795D02*
X262595Y339700D01*
X181795Y345500D02*
X256795D01*
X181795D02*
X187594Y339700D01*
X106795Y345500D02*
X181795D01*
X106795D02*
X112594Y339700D01*
X43395Y345500D02*
X106795D01*
X1228500Y66200D02*
X1341000D01*
X1153500D02*
X1228500D01*
X928500D02*
X1003500D01*
X853500D02*
X928500D01*
X778500D02*
X853500D01*
X131663D02*
X225413D01*
X37913D02*
X131663D01*
X1378500Y141200D02*
X1453500D01*
X1303500D02*
X1378500D01*
X1228500D02*
X1303500D01*
X1153500D02*
X1228500D01*
X797300D02*
X872300D01*
X722300D02*
X797300D01*
X647300D02*
X722300D01*
X572300D02*
X647300D01*
X497300D02*
X572300D01*
X422300D02*
X497300D01*
X347300D02*
X422300D01*
X272300D02*
X347300D01*
X197300D02*
X272300D01*
X1378500Y216200D02*
X1453500D01*
X1303500D02*
X1378500D01*
X1228500D02*
X1303500D01*
X1153500D02*
X1228500D01*
X1031625D02*
X1153500D01*
X909750D02*
X1031625D01*
X834750D02*
X909750D01*
X759750D02*
X834750D01*
X684750D02*
X759750D01*
X609750D02*
X684750D01*
X534750D02*
X609750D01*
X459750D02*
X534750D01*
X384750D02*
X459750D01*
X309750D02*
X384750D01*
X234750D02*
X309750D01*
X159750D02*
X234750D01*
X56625D02*
X159750D01*
X1378500Y291200D02*
X1453500D01*
X1303500D02*
X1378500D01*
X1228500D02*
X1303500D01*
X1153500D02*
X1228500D01*
X1059750D02*
X1153500D01*
X966000D02*
X1059750D01*
X891000D02*
X966000D01*
X816000D02*
X891000D01*
X741000D02*
X816000D01*
X666000D02*
X741000D01*
X591000D02*
X666000D01*
X516000D02*
X591000D01*
X441000D02*
X516000D01*
X366000D02*
X441000D01*
X291000D02*
X366000D01*
X216000D02*
X291000D01*
X141000D02*
X216000D01*
X47250D02*
X141000D01*
X1454100Y366700D02*
X1528500Y366200D01*
X853500D02*
X928500D01*
X778500D02*
X853500D01*
X703500D02*
X778500D01*
X628500D02*
X703500D01*
X553500D02*
X628500D01*
X478500D02*
X553500D01*
X403500D02*
X478500D01*
X328500D02*
X403500D01*
X253500D02*
X328500D01*
X178500D02*
X253500D01*
X103500D02*
X178500D01*
X28500D02*
X103500D01*
X1078500Y441200D02*
X1153500D01*
X1003500D02*
X1078500D01*
X928500D02*
X1003500D01*
X853500D02*
X928500D01*
X778500D02*
X853500D01*
X703500D02*
X778500D01*
X628500D02*
X703500D01*
X553500D02*
X628500D01*
X478500D02*
X553500D01*
X403500D02*
X478500D01*
X328500D02*
X403500D01*
X253500D02*
X328500D01*
X178500D02*
X253500D01*
X103500D02*
X178500D01*
X28500D02*
X103500D01*
D59*
X1435050Y470300D02*
X1435550Y470800D01*
X1437850Y494653D02*
X1446897Y503700D01*
X1437850Y469282D02*
Y494653D01*
X1502847Y503700D02*
X1507100Y499447D01*
Y473629D02*
Y499447D01*
X1503800Y506000D02*
X1509400Y500400D01*
Y474582D02*
Y500400D01*
Y474582D02*
X1511582Y472400D01*
X1518050Y468065D02*
Y468464D01*
X1512664Y468065D02*
X1518050D01*
X1507100Y473629D02*
X1512664Y468065D01*
X1446897Y503700D02*
X1502847D01*
X1445944Y506000D02*
X1503800D01*
X1435550Y495606D02*
X1445944Y506000D01*
X1435550Y470800D02*
Y495606D01*
X1511582Y472400D02*
X1517917D01*
X1434968Y466400D02*
X1437850Y469282D01*
X1434850Y466400D02*
X1434968D01*
D60*
X1456850Y494800D02*
D03*
X1451850D02*
D03*
X1410750D02*
D03*
X1415749D02*
D03*
X1420749D02*
D03*
X1425749D02*
D03*
X1430750D02*
D03*
D61*
X1517813Y503698D02*
D03*
X1562301D02*
D03*
D62*
X1523049Y482592D02*
D03*
X1557065D02*
D03*
D63*
X1066000Y376200D02*
D03*
X1041000Y366200D02*
D03*
X1341000Y66200D02*
D03*
X1366000Y76200D02*
D03*
X1013150Y141200D02*
D03*
X1038150Y151200D02*
D03*
X531625Y76200D02*
D03*
X506625Y66200D02*
D03*
X1528500Y253700D02*
D03*
X1553500Y263700D02*
D03*
X1528500Y103700D02*
D03*
X1553500Y113700D02*
D03*
X1056625Y226200D02*
D03*
X1031625Y216200D02*
D03*
X100414Y151200D02*
D03*
X75414Y141200D02*
D03*
X81625Y226200D02*
D03*
X56625Y216200D02*
D03*
X72250Y301200D02*
D03*
X47250Y291200D02*
D03*
X1084750Y301200D02*
D03*
X1059750Y291200D02*
D03*
X37913Y66200D02*
D03*
X62913Y76200D02*
D03*
X156663D02*
D03*
X131663Y66200D02*
D03*
X225413D02*
D03*
X250413Y76200D02*
D03*
X53500Y451200D02*
D03*
X28500Y441200D02*
D03*
X128500Y451200D02*
D03*
X103500Y441200D02*
D03*
X203500Y451200D02*
D03*
X178500Y441200D02*
D03*
X278500Y451200D02*
D03*
X253500Y441200D02*
D03*
X353500Y451200D02*
D03*
X328500Y441200D02*
D03*
X428500Y451200D02*
D03*
X403500Y441200D02*
D03*
X503500Y451200D02*
D03*
X478500Y441200D02*
D03*
X578500Y451200D02*
D03*
X553500Y441200D02*
D03*
X653500Y451200D02*
D03*
X628500Y441200D02*
D03*
X728500Y451200D02*
D03*
X703500Y441200D02*
D03*
X803500Y451200D02*
D03*
X778500Y441200D02*
D03*
X878500Y451200D02*
D03*
X853500Y441200D02*
D03*
X953500Y451200D02*
D03*
X928500Y441200D02*
D03*
X1028500Y451200D02*
D03*
X1003500Y441200D02*
D03*
X1103500Y451200D02*
D03*
X1078500Y441200D02*
D03*
X1178500Y451200D02*
D03*
X1153500Y441200D02*
D03*
X1253500Y451200D02*
D03*
X1228500Y441200D02*
D03*
X53500Y376200D02*
D03*
X28500Y366200D02*
D03*
X128500Y376200D02*
D03*
X103500Y366200D02*
D03*
X203500Y376200D02*
D03*
X178500Y366200D02*
D03*
X278500Y376200D02*
D03*
X253500Y366200D02*
D03*
X353500Y376200D02*
D03*
X328500Y366200D02*
D03*
X428500Y376200D02*
D03*
X403500Y366200D02*
D03*
X503500Y376200D02*
D03*
X478500Y366200D02*
D03*
X578500Y376200D02*
D03*
X553500Y366200D02*
D03*
X653500Y376200D02*
D03*
X628500Y366200D02*
D03*
X728500Y376200D02*
D03*
X703500Y366200D02*
D03*
X803500Y376200D02*
D03*
X778500Y366200D02*
D03*
X878500Y376200D02*
D03*
X853500Y366200D02*
D03*
X953500Y376200D02*
D03*
X928500Y366200D02*
D03*
X1178500Y376200D02*
D03*
X1153500Y366200D02*
D03*
X1253500Y376200D02*
D03*
X1228500Y366200D02*
D03*
X1328500Y376200D02*
D03*
X1303500Y366200D02*
D03*
X1403500Y376200D02*
D03*
X1378500Y366200D02*
D03*
X1478500Y376200D02*
D03*
X1453500Y366200D02*
D03*
X1553500Y376200D02*
D03*
X1528500Y366200D02*
D03*
X166000Y301200D02*
D03*
X141000Y291200D02*
D03*
X241000Y301200D02*
D03*
X216000Y291200D02*
D03*
X316000Y301200D02*
D03*
X291000Y291200D02*
D03*
X391000Y301200D02*
D03*
X366000Y291200D02*
D03*
X466000Y301200D02*
D03*
X441000Y291200D02*
D03*
X541000Y301200D02*
D03*
X516000Y291200D02*
D03*
X616000Y301200D02*
D03*
X591000Y291200D02*
D03*
X691000Y301200D02*
D03*
X666000Y291200D02*
D03*
X766000Y301200D02*
D03*
X741000Y291200D02*
D03*
X841000Y301200D02*
D03*
X816000Y291200D02*
D03*
X916000Y301200D02*
D03*
X891000Y291200D02*
D03*
X991000Y301200D02*
D03*
X966000Y291200D02*
D03*
X1178500Y301200D02*
D03*
X1153500Y291200D02*
D03*
X1253500Y301200D02*
D03*
X1228500Y291200D02*
D03*
X1328500Y301200D02*
D03*
X1303500Y291200D02*
D03*
X1403500Y301200D02*
D03*
X1378500Y291200D02*
D03*
X1478500Y301200D02*
D03*
X1453500Y291200D02*
D03*
X184750Y226200D02*
D03*
X159750Y216200D02*
D03*
X259750Y226200D02*
D03*
X234750Y216200D02*
D03*
X484750Y226200D02*
D03*
X459750Y216200D02*
D03*
X559750Y226200D02*
D03*
X534750Y216200D02*
D03*
X634750Y226200D02*
D03*
X609750Y216200D02*
D03*
X709750Y226200D02*
D03*
X684750Y216200D02*
D03*
X784750Y226200D02*
D03*
X759750Y216200D02*
D03*
X859750Y226200D02*
D03*
X834750Y216200D02*
D03*
X934750Y226200D02*
D03*
X909750Y216200D02*
D03*
X1178500Y226200D02*
D03*
X1153500Y216200D02*
D03*
X1253500Y226200D02*
D03*
X1228500Y216200D02*
D03*
X1328500Y226200D02*
D03*
X1303500Y216200D02*
D03*
X1403500Y226200D02*
D03*
X1378500Y216200D02*
D03*
X1478500Y226200D02*
D03*
X1453500Y216200D02*
D03*
X334750Y226200D02*
D03*
X309750Y216200D02*
D03*
X409750Y226200D02*
D03*
X384750Y216200D02*
D03*
X222300Y151200D02*
D03*
X197300Y141200D02*
D03*
X297300Y151200D02*
D03*
X272300Y141200D02*
D03*
X372300Y151200D02*
D03*
X347300Y141200D02*
D03*
X447300Y151200D02*
D03*
X422300Y141200D02*
D03*
X522300Y151200D02*
D03*
X497300Y141200D02*
D03*
X597300Y151200D02*
D03*
X572300Y141200D02*
D03*
X672300Y151200D02*
D03*
X647300Y141200D02*
D03*
X747300Y151200D02*
D03*
X722300Y141200D02*
D03*
X822300Y151200D02*
D03*
X797300Y141200D02*
D03*
X897300Y151200D02*
D03*
X872300Y141200D02*
D03*
X1178500Y151200D02*
D03*
X1153500Y141200D02*
D03*
X1253500Y151200D02*
D03*
X1228500Y141200D02*
D03*
X1328500Y151200D02*
D03*
X1303500Y141200D02*
D03*
X1403500Y151200D02*
D03*
X1378500Y141200D02*
D03*
X1478500Y151200D02*
D03*
X1453500Y141200D02*
D03*
X803500Y76200D02*
D03*
X778500Y66200D02*
D03*
X953500Y76200D02*
D03*
X928500Y66200D02*
D03*
X1028500Y76200D02*
D03*
X1003500Y66200D02*
D03*
X1103500Y76200D02*
D03*
X1078500Y66200D02*
D03*
X1178500Y76200D02*
D03*
X1153500Y66200D02*
D03*
X1253500Y76200D02*
D03*
X1228500Y66200D02*
D03*
X1478500Y76200D02*
D03*
X1453500Y66200D02*
D03*
X878500Y76200D02*
D03*
X853500Y66200D02*
D03*
D64*
X1563200Y429300D02*
D03*
X1519500Y427463D02*
D03*
X1527500Y429300D02*
D03*
X1538751Y434400D02*
D03*
X1511850Y426000D02*
D03*
X1506700Y449700D02*
D03*
X1471549Y482600D02*
D03*
X1529400Y454314D02*
D03*
X1518300Y444700D02*
D03*
X1457450Y461900D02*
D03*
X1606300Y396200D02*
D03*
X1590452Y396971D02*
D03*
X1598600Y396495D02*
D03*
X1579323Y408100D02*
D03*
X1539100Y386500D02*
D03*
X1351300Y387100D02*
D03*
X1135289Y408598D02*
D03*
X1113000D02*
D03*
X1147100Y401700D02*
D03*
X1178500Y264035D02*
D03*
X1178700Y114300D02*
D03*
X22100Y399498D02*
D03*
X40850Y249800D02*
D03*
X22100Y324498D02*
D03*
X69014Y99498D02*
D03*
X69288Y24498D02*
D03*
X50225Y174498D02*
D03*
X31513Y24498D02*
D03*
X1113000Y405200D02*
D03*
X1179700Y258900D02*
D03*
Y108900D02*
D03*
X40850Y254048D02*
D03*
X22100Y404048D02*
D03*
Y329048D02*
D03*
X69014Y104048D02*
D03*
X69288Y29048D02*
D03*
X50225Y179048D02*
D03*
X31513Y29048D02*
D03*
X1147100Y408598D02*
D03*
X1135289Y401700D02*
D03*
X1113000D02*
D03*
X1162400Y253800D02*
D03*
Y103800D02*
D03*
X40850Y258598D02*
D03*
X22100Y408598D02*
D03*
Y333598D02*
D03*
X69014Y108598D02*
D03*
X69288Y33598D02*
D03*
X50225Y183598D02*
D03*
X31513Y33598D02*
D03*
X1253400Y264600D02*
D03*
X1222100Y399498D02*
D03*
X1254100Y114000D02*
D03*
X97100Y399498D02*
D03*
X122871Y249100D02*
D03*
X97100Y324200D02*
D03*
X179171Y99498D02*
D03*
X141621Y174498D02*
D03*
X163038Y24498D02*
D03*
X113534D02*
D03*
X1254700Y258900D02*
D03*
X1222100Y404048D02*
D03*
X1254700Y108900D02*
D03*
X141621Y179048D02*
D03*
X97100Y404048D02*
D03*
X122871Y254000D02*
D03*
X97100Y328750D02*
D03*
X179171Y104048D02*
D03*
X163038Y29048D02*
D03*
X113534D02*
D03*
X1222100Y408598D02*
D03*
X1237400Y253800D02*
D03*
X1258200Y107500D02*
D03*
X1237400Y103800D02*
D03*
X122871Y258700D02*
D03*
X141621Y183598D02*
D03*
X97100Y408598D02*
D03*
Y333300D02*
D03*
X179171Y108598D02*
D03*
X163038Y33598D02*
D03*
X113534D02*
D03*
X1329200Y264100D02*
D03*
X1329100Y115100D02*
D03*
X265900Y99498D02*
D03*
X209600Y249498D02*
D03*
X171100Y399498D02*
D03*
X172100Y324498D02*
D03*
X257900Y91000D02*
D03*
X256788Y24498D02*
D03*
X228350Y174498D02*
D03*
X219013Y24498D02*
D03*
X1329700Y258900D02*
D03*
Y108900D02*
D03*
X209600Y254048D02*
D03*
X171100Y404048D02*
D03*
X172100Y329048D02*
D03*
X265900Y104048D02*
D03*
X265700Y89400D02*
D03*
X256788Y29048D02*
D03*
X228350Y179048D02*
D03*
X219013Y29048D02*
D03*
X1312400Y253800D02*
D03*
X1329500Y103800D02*
D03*
X1312400D02*
D03*
X209600Y258598D02*
D03*
X171100Y408598D02*
D03*
X172100Y333598D02*
D03*
X265900Y108598D02*
D03*
X271600Y87600D02*
D03*
X256788Y33598D02*
D03*
X228350Y183598D02*
D03*
X219013Y33598D02*
D03*
X1404700Y265000D02*
D03*
X1403400Y114100D02*
D03*
X1411400Y29500D02*
D03*
X1397400Y99000D02*
D03*
X247100Y399498D02*
D03*
Y324498D02*
D03*
X340900Y99498D02*
D03*
Y24200D02*
D03*
X284600Y249498D02*
D03*
X303350Y174498D02*
D03*
X1545621Y406521D02*
D03*
X1404700Y258900D02*
D03*
X1411800Y108900D02*
D03*
X1531000Y19700D02*
D03*
X1405800Y109200D02*
D03*
X1411400Y34400D02*
D03*
X284600Y254048D02*
D03*
X247100Y404048D02*
D03*
Y329048D02*
D03*
X340900Y104048D02*
D03*
Y28950D02*
D03*
X303350Y179048D02*
D03*
X1549454Y404126D02*
D03*
X1387400Y253800D02*
D03*
X1528100Y22200D02*
D03*
X1387400Y103800D02*
D03*
X1411400Y39000D02*
D03*
X284600Y258598D02*
D03*
X247100Y408598D02*
D03*
Y333598D02*
D03*
X340900Y108598D02*
D03*
Y33500D02*
D03*
X303350Y183598D02*
D03*
X1557118Y399335D02*
D03*
X1479700Y258900D02*
D03*
X1522300Y27200D02*
D03*
X1491529Y34000D02*
D03*
X1479700Y108900D02*
D03*
X1479800Y97300D02*
D03*
X359600Y254048D02*
D03*
X322100Y404048D02*
D03*
Y329048D02*
D03*
X415900Y104048D02*
D03*
Y28750D02*
D03*
X378350Y179048D02*
D03*
X1560950Y396939D02*
D03*
X1462400Y253800D02*
D03*
X1494529Y31300D02*
D03*
X1519400Y29700D02*
D03*
X1462700Y98200D02*
D03*
X359600Y258598D02*
D03*
X322100Y408598D02*
D03*
Y333598D02*
D03*
X415900Y33300D02*
D03*
X378350Y183598D02*
D03*
X415900Y108598D02*
D03*
X1572447Y389753D02*
D03*
X1147100Y333598D02*
D03*
Y183598D02*
D03*
Y33598D02*
D03*
X434600Y258598D02*
D03*
X397100Y408598D02*
D03*
Y333598D02*
D03*
X500225Y33598D02*
D03*
X453350Y183598D02*
D03*
X490900Y108598D02*
D03*
X1568615Y392148D02*
D03*
X1147100Y329048D02*
D03*
Y179048D02*
D03*
Y29048D02*
D03*
X1140100Y29100D02*
D03*
X434600Y254048D02*
D03*
X397100Y404048D02*
D03*
Y329048D02*
D03*
X490900Y104048D02*
D03*
X500225Y29048D02*
D03*
X453350Y179048D02*
D03*
X1564782Y394544D02*
D03*
X1147100Y324498D02*
D03*
Y174498D02*
D03*
Y24498D02*
D03*
X1136700Y24700D02*
D03*
X397100Y399498D02*
D03*
Y324498D02*
D03*
X490900Y99498D02*
D03*
X500225Y24498D02*
D03*
X434600Y249498D02*
D03*
X453350Y174498D02*
D03*
X1517917Y468464D02*
D03*
X1461950Y478037D02*
D03*
X1447950Y481100D02*
D03*
X1367650Y407300D02*
D03*
X1328943Y396600D02*
D03*
X1335250Y417800D02*
D03*
X1360999Y395150D02*
D03*
X1458210Y466911D02*
D03*
X1443050Y435800D02*
D03*
X1446350Y437300D02*
D03*
X1547850Y475525D02*
D03*
X1505050Y509100D02*
D03*
X1415499Y476237D02*
D03*
X1466050Y486100D02*
D03*
X1460250Y448800D02*
D03*
X1453203Y480400D02*
D03*
X1461891Y456053D02*
D03*
X1442650Y469800D02*
D03*
X1435050Y470300D02*
D03*
X1467650Y473100D02*
D03*
X1543950Y464400D02*
D03*
X1410050Y476000D02*
D03*
X1517917Y472400D02*
D03*
Y476200D02*
D03*
X1425749Y472300D02*
D03*
X1355578Y446700D02*
D03*
X1391850Y477700D02*
D03*
X1373450Y461600D02*
D03*
X1431849Y448200D02*
D03*
X1448716Y439933D02*
D03*
X1451583Y437967D02*
D03*
X1454449Y436000D02*
D03*
X1305550Y427500D02*
D03*
X1323349Y432500D02*
D03*
X1333350Y442750D02*
D03*
X1328850Y444326D02*
D03*
X1357950Y392500D02*
D03*
X1354150D02*
D03*
X1046700Y264100D02*
D03*
X1562900Y217300D02*
D03*
X1558800Y217000D02*
D03*
X1427100Y331000D02*
D03*
X1414300Y333500D02*
D03*
X567300Y314400D02*
D03*
X1559300Y203500D02*
D03*
X1525200Y24700D02*
D03*
X1556400Y292100D02*
D03*
X1479800Y264900D02*
D03*
X1487600Y37800D02*
D03*
X1468500Y104300D02*
D03*
Y96800D02*
D03*
X640900Y24498D02*
D03*
Y29048D02*
D03*
Y33598D02*
D03*
X565900Y24498D02*
D03*
Y29048D02*
D03*
Y33598D02*
D03*
X415900Y24000D02*
D03*
X1526100Y324500D02*
D03*
Y329048D02*
D03*
X1553286Y207300D02*
D03*
X1516400Y219500D02*
D03*
X1528500Y214500D02*
D03*
X1526100Y333598D02*
D03*
X1523100Y216900D02*
D03*
X1553286Y401730D02*
D03*
X1083200Y399200D02*
D03*
X1225800Y321000D02*
D03*
X1222100Y329048D02*
D03*
Y179048D02*
D03*
Y29048D02*
D03*
X488700Y453900D02*
D03*
X472100Y404048D02*
D03*
Y329048D02*
D03*
X565900Y104048D02*
D03*
X509600Y254048D02*
D03*
X528350Y179048D02*
D03*
X1222100Y324498D02*
D03*
Y174498D02*
D03*
Y24498D02*
D03*
X492900Y456600D02*
D03*
X472100Y399498D02*
D03*
Y324498D02*
D03*
X565900Y99498D02*
D03*
X509600Y249498D02*
D03*
X528350Y174498D02*
D03*
X1297100Y333598D02*
D03*
Y183598D02*
D03*
X640900Y108598D02*
D03*
X559500Y451200D02*
D03*
X547100Y408598D02*
D03*
Y333598D02*
D03*
X603350Y183598D02*
D03*
X584600Y258598D02*
D03*
X1297100Y329048D02*
D03*
Y179048D02*
D03*
X640900Y104048D02*
D03*
X563700Y453900D02*
D03*
X547100Y404100D02*
D03*
X584600Y254048D02*
D03*
X603350Y179048D02*
D03*
X567200Y310000D02*
D03*
X547100Y329048D02*
D03*
X1297100Y324498D02*
D03*
Y174498D02*
D03*
X640900Y99498D02*
D03*
X567900Y456600D02*
D03*
X547100Y399498D02*
D03*
X603350Y174498D02*
D03*
X564700Y306800D02*
D03*
X547100Y324498D02*
D03*
X584600Y249498D02*
D03*
X1372100Y333598D02*
D03*
Y183598D02*
D03*
X1334600Y33598D02*
D03*
X634500Y451200D02*
D03*
X622100Y408598D02*
D03*
Y333598D02*
D03*
X715900Y108598D02*
D03*
X772100Y33598D02*
D03*
X659600Y258598D02*
D03*
X690174Y171774D02*
D03*
X678350Y183598D02*
D03*
X1571600Y249300D02*
D03*
X1512000Y233500D02*
D03*
X1522100Y66548D02*
D03*
X922100Y29048D02*
D03*
X788700Y453900D02*
D03*
X772100Y404048D02*
D03*
Y329048D02*
D03*
X865900Y104048D02*
D03*
X809600Y254048D02*
D03*
X828350Y179048D02*
D03*
X1522100Y71098D02*
D03*
X922100Y33598D02*
D03*
X784500Y451200D02*
D03*
X772100Y408598D02*
D03*
Y333598D02*
D03*
X865900Y108598D02*
D03*
X809600Y258598D02*
D03*
X828350Y183598D02*
D03*
X1447100Y324600D02*
D03*
Y174498D02*
D03*
Y24498D02*
D03*
X847100D02*
D03*
X717900Y456600D02*
D03*
X697100Y399498D02*
D03*
Y324498D02*
D03*
X790900Y99498D02*
D03*
X734600Y249498D02*
D03*
X763340Y164540D02*
D03*
X753350Y174498D02*
D03*
X1447100Y329048D02*
D03*
Y179048D02*
D03*
Y29048D02*
D03*
X847100D02*
D03*
X713700Y453900D02*
D03*
X697100Y404048D02*
D03*
Y329048D02*
D03*
X790900Y104048D02*
D03*
X734600Y254048D02*
D03*
X753350Y179048D02*
D03*
X770099Y162299D02*
D03*
X1447100Y333598D02*
D03*
Y183598D02*
D03*
Y33598D02*
D03*
X847100D02*
D03*
X709500Y451200D02*
D03*
X697100Y408598D02*
D03*
Y333598D02*
D03*
X770300Y166500D02*
D03*
X790900Y108598D02*
D03*
X734600Y258598D02*
D03*
X753350Y183598D02*
D03*
X1372100Y324498D02*
D03*
Y174498D02*
D03*
X1334600Y24498D02*
D03*
X772100D02*
D03*
X642900Y456600D02*
D03*
X622100Y399498D02*
D03*
Y324498D02*
D03*
X715900Y99498D02*
D03*
X659600Y249498D02*
D03*
X678350Y174498D02*
D03*
X1372100Y329048D02*
D03*
Y179048D02*
D03*
X1334600Y29048D02*
D03*
X638700Y453900D02*
D03*
X622100Y404048D02*
D03*
Y329048D02*
D03*
X715900Y104048D02*
D03*
X772100Y29048D02*
D03*
X659600Y254048D02*
D03*
X690200Y167300D02*
D03*
X678350Y179048D02*
D03*
X1522100Y61998D02*
D03*
X1558800Y226700D02*
D03*
X921200Y406000D02*
D03*
X925605Y408500D02*
D03*
X917800Y403200D02*
D03*
X1087000Y399350D02*
D03*
X1064500Y408700D02*
D03*
X1091400Y420800D02*
D03*
X1072100Y405200D02*
D03*
Y408598D02*
D03*
Y401700D02*
D03*
X847200D02*
D03*
X922100Y24498D02*
D03*
X865900Y99498D02*
D03*
X792900Y456600D02*
D03*
X772100Y399498D02*
D03*
X809600Y249498D02*
D03*
X828350Y174498D02*
D03*
X772100Y324498D02*
D03*
X1136300Y264700D02*
D03*
X1137600Y196600D02*
D03*
X1230300Y320900D02*
D03*
X1427000Y120200D02*
D03*
X1120200Y280800D02*
D03*
X1108100Y340100D02*
D03*
X1109400Y347000D02*
D03*
X847200Y405200D02*
D03*
X982355Y254048D02*
D03*
X959600D02*
D03*
X997500Y254100D02*
D03*
X997600Y258700D02*
D03*
X903350Y179048D02*
D03*
Y183598D02*
D03*
X1072100Y33598D02*
D03*
Y24498D02*
D03*
Y29048D02*
D03*
X1006750Y104048D02*
D03*
Y99498D02*
D03*
Y108598D02*
D03*
X1261700Y396500D02*
D03*
X1205893D02*
D03*
X999300Y201600D02*
D03*
X970300Y189900D02*
D03*
X985900Y120700D02*
D03*
X1362700Y274900D02*
D03*
X1357100Y355800D02*
D03*
X322100Y399498D02*
D03*
X472100Y408598D02*
D03*
X847200D02*
D03*
X484500Y451200D02*
D03*
X867900Y456600D02*
D03*
X863700Y453900D02*
D03*
X859500Y451200D02*
D03*
X934500D02*
D03*
X938700Y453900D02*
D03*
X942900Y456600D02*
D03*
X1222100Y333598D02*
D03*
Y183598D02*
D03*
Y33598D02*
D03*
X1034600Y333598D02*
D03*
Y329048D02*
D03*
Y324498D02*
D03*
X959600Y258598D02*
D03*
Y249498D02*
D03*
X1025225Y183598D02*
D03*
Y179048D02*
D03*
Y174498D02*
D03*
X997100Y33598D02*
D03*
Y29048D02*
D03*
Y24498D02*
D03*
X903350Y174498D02*
D03*
X884600Y258598D02*
D03*
Y254048D02*
D03*
Y249498D02*
D03*
X922100Y333598D02*
D03*
Y329048D02*
D03*
Y324498D02*
D03*
X847100Y333598D02*
D03*
Y329048D02*
D03*
Y324498D02*
D03*
X472100Y333598D02*
D03*
X509600Y258598D02*
D03*
X528350Y183598D02*
D03*
X565900Y108598D02*
D03*
X415900Y99498D02*
D03*
X378350Y174498D02*
D03*
X359600Y249498D02*
D03*
X322100Y324498D02*
D03*
D65*
X1538117Y477600D02*
D03*
X1542033Y476800D02*
D03*
X1542117Y483100D02*
D03*
X1537417Y483284D02*
D03*
D66*
X1434850Y466400D02*
D03*
X1427450Y467941D02*
D03*
M02*
