G04*
G04 #@! TF.GenerationSoftware,Altium Limited,Altium Designer,18.1.7 (191)*
G04*
G04 Layer_Color=8421504*
%FSLAX25Y25*%
%MOIN*%
G70*
G01*
G75*
%ADD15R,0.07087X0.14961*%
%ADD16R,0.03150X0.11417*%
%ADD17R,0.02559X0.02559*%
%ADD18R,0.06693X0.03150*%
%ADD19R,0.05906X0.03937*%
%ADD20R,0.01181X0.02756*%
%ADD21R,0.03937X0.02000*%
%ADD22R,0.01181X0.02000*%
%ADD23R,0.02559X0.02559*%
%ADD24R,0.04921X0.10630*%
%ADD25R,0.03937X0.07874*%
%ADD26R,0.02756X0.02913*%
%ADD27O,0.02913X0.00787*%
%ADD28O,0.00787X0.02913*%
%ADD29R,0.20669X0.20669*%
%ADD30R,0.05906X0.03150*%
D15*
X1476900Y440837D02*
D03*
X1526900D02*
D03*
D16*
X1487136Y459341D02*
D03*
X1493042D02*
D03*
X1498947D02*
D03*
X1504853D02*
D03*
X1510758D02*
D03*
X1516664D02*
D03*
D17*
X1477017Y478633D02*
D03*
Y482767D02*
D03*
X1477050Y491720D02*
D03*
Y487586D02*
D03*
X1514517Y486067D02*
D03*
Y481933D02*
D03*
X1543950Y472267D02*
D03*
Y468133D02*
D03*
X1462000Y467437D02*
D03*
Y471571D02*
D03*
X1389939Y405868D02*
D03*
Y410002D02*
D03*
X1385339Y405868D02*
D03*
Y410002D02*
D03*
X1380739Y405868D02*
D03*
Y410002D02*
D03*
X1376139Y405868D02*
D03*
Y410002D02*
D03*
X1371539Y405868D02*
D03*
Y410002D02*
D03*
X1387350Y485467D02*
D03*
Y481333D02*
D03*
X1382611Y485467D02*
D03*
Y481333D02*
D03*
X1377973Y485467D02*
D03*
Y481333D02*
D03*
X1373334Y485467D02*
D03*
Y481333D02*
D03*
X1368696Y485467D02*
D03*
Y481333D02*
D03*
X1364057Y485467D02*
D03*
Y481333D02*
D03*
X1359419Y485467D02*
D03*
Y481333D02*
D03*
X1354780Y485467D02*
D03*
Y481333D02*
D03*
X1350142Y485467D02*
D03*
Y481333D02*
D03*
X1345503Y485467D02*
D03*
Y481333D02*
D03*
X1340865Y485467D02*
D03*
Y481333D02*
D03*
X1336226Y485467D02*
D03*
Y481333D02*
D03*
X1331588Y485467D02*
D03*
Y481333D02*
D03*
X1326950Y485467D02*
D03*
Y481333D02*
D03*
D18*
X1451750Y453207D02*
D03*
Y466593D02*
D03*
X1451719Y485011D02*
D03*
Y471626D02*
D03*
D19*
X1554850Y454469D02*
D03*
Y463131D02*
D03*
D20*
X1551875Y480100D02*
D03*
X1549907D02*
D03*
X1547939D02*
D03*
X1545970D02*
D03*
X1544001D02*
D03*
X1542033D02*
D03*
X1538096D02*
D03*
X1536127D02*
D03*
X1534159D02*
D03*
X1532191D02*
D03*
X1530222D02*
D03*
X1528253D02*
D03*
D21*
X1527860Y485722D02*
D03*
X1552269D02*
D03*
D22*
X1531206D02*
D03*
X1533175D02*
D03*
X1535143D02*
D03*
X1537112D02*
D03*
X1539080D02*
D03*
X1541049D02*
D03*
X1543017D02*
D03*
X1544986D02*
D03*
X1546954D02*
D03*
X1548923D02*
D03*
D23*
X1464462Y448100D02*
D03*
X1468596D02*
D03*
X1464462Y443360D02*
D03*
X1468596D02*
D03*
X1464462Y438620D02*
D03*
X1468596D02*
D03*
X1464462Y433880D02*
D03*
X1468596D02*
D03*
X1464462Y429140D02*
D03*
X1468596D02*
D03*
X1464462Y424400D02*
D03*
X1468596D02*
D03*
X1314757Y427000D02*
D03*
X1318891D02*
D03*
X1319206Y437573D02*
D03*
X1315072D02*
D03*
X1397078Y414685D02*
D03*
X1401211D02*
D03*
X1397078Y419577D02*
D03*
X1401211D02*
D03*
X1397078Y424469D02*
D03*
X1401211D02*
D03*
X1397078Y429362D02*
D03*
X1401211D02*
D03*
X1397078Y434254D02*
D03*
X1401211D02*
D03*
X1397078Y439146D02*
D03*
X1401211D02*
D03*
X1397078Y444038D02*
D03*
X1401211D02*
D03*
X1397078Y448931D02*
D03*
X1401211D02*
D03*
X1397078Y453823D02*
D03*
X1401211D02*
D03*
X1315072Y447627D02*
D03*
X1319206D02*
D03*
X1397078Y458715D02*
D03*
X1401211D02*
D03*
X1315072Y452655D02*
D03*
X1319206D02*
D03*
X1397078Y463608D02*
D03*
X1401211D02*
D03*
X1315072Y457682D02*
D03*
X1319206D02*
D03*
X1397078Y468500D02*
D03*
X1401211D02*
D03*
X1315072Y462709D02*
D03*
X1319206D02*
D03*
X1397078Y473392D02*
D03*
X1401211D02*
D03*
X1315072Y467736D02*
D03*
X1319206D02*
D03*
X1397078Y478285D02*
D03*
X1401211D02*
D03*
X1315072Y472764D02*
D03*
X1319206D02*
D03*
D24*
X1584054Y408746D02*
D03*
X1612598D02*
D03*
D25*
X1590452Y405400D02*
D03*
X1598326D02*
D03*
X1606200D02*
D03*
D26*
X1360063Y407263D02*
D03*
X1364236D02*
D03*
X1360063Y412600D02*
D03*
X1364236D02*
D03*
X1342029Y426990D02*
D03*
X1337856D02*
D03*
X1342029Y421964D02*
D03*
X1337856D02*
D03*
X1328943Y421959D02*
D03*
X1333117D02*
D03*
X1328943Y426985D02*
D03*
X1333117D02*
D03*
X1319029Y432349D02*
D03*
X1314856D02*
D03*
D27*
X1342212Y457724D02*
D03*
Y456149D02*
D03*
Y454574D02*
D03*
Y452999D02*
D03*
Y451424D02*
D03*
Y449850D02*
D03*
Y448275D02*
D03*
Y446700D02*
D03*
Y445125D02*
D03*
Y443550D02*
D03*
Y441976D02*
D03*
Y440401D02*
D03*
Y438826D02*
D03*
Y437251D02*
D03*
Y435676D02*
D03*
X1368944D02*
D03*
Y437251D02*
D03*
Y438826D02*
D03*
Y440401D02*
D03*
Y441976D02*
D03*
Y443550D02*
D03*
Y445125D02*
D03*
Y446700D02*
D03*
Y448275D02*
D03*
Y449850D02*
D03*
Y451424D02*
D03*
Y452999D02*
D03*
Y454574D02*
D03*
Y456149D02*
D03*
Y457724D02*
D03*
D28*
X1344554Y433334D02*
D03*
X1346129D02*
D03*
X1347704D02*
D03*
X1349278D02*
D03*
X1350853D02*
D03*
X1352428D02*
D03*
X1354003D02*
D03*
X1355578D02*
D03*
X1357152D02*
D03*
X1358727D02*
D03*
X1360302D02*
D03*
X1361877D02*
D03*
X1363452D02*
D03*
X1365026D02*
D03*
X1366601D02*
D03*
Y460066D02*
D03*
X1365026D02*
D03*
X1363452D02*
D03*
X1361877D02*
D03*
X1360302D02*
D03*
X1358727D02*
D03*
X1357152D02*
D03*
X1355578D02*
D03*
X1354003D02*
D03*
X1352428D02*
D03*
X1350853D02*
D03*
X1349278D02*
D03*
X1347704D02*
D03*
X1346129D02*
D03*
X1344554D02*
D03*
D29*
X1355578Y446700D02*
D03*
D30*
X1060724Y334310D02*
D03*
X1051276D02*
D03*
X1060724Y339035D02*
D03*
X1051276D02*
D03*
X1351276Y39035D02*
D03*
X1360724D02*
D03*
X1351276Y34310D02*
D03*
X1360724D02*
D03*
X1023425Y114035D02*
D03*
X1032874D02*
D03*
X1023425Y109310D02*
D03*
X1032874D02*
D03*
X357576Y39011D02*
D03*
X367024D02*
D03*
X357576Y34287D02*
D03*
X367024D02*
D03*
X442024D02*
D03*
X432576D02*
D03*
X442024Y39011D02*
D03*
X432576D02*
D03*
X582576D02*
D03*
X592024D02*
D03*
X582576Y34287D02*
D03*
X592024D02*
D03*
X667024D02*
D03*
X657576D02*
D03*
X667024Y39011D02*
D03*
X657576D02*
D03*
X516901Y39035D02*
D03*
X526349D02*
D03*
X516901Y34310D02*
D03*
X526349D02*
D03*
X1538776Y226535D02*
D03*
X1548224D02*
D03*
X1538776Y221810D02*
D03*
X1548224D02*
D03*
X1538776Y76535D02*
D03*
X1548224D02*
D03*
X1538776Y71810D02*
D03*
X1548224D02*
D03*
X1051349Y184310D02*
D03*
X1041901D02*
D03*
X1051349Y189035D02*
D03*
X1041901D02*
D03*
X95138Y109310D02*
D03*
X85689D02*
D03*
X95138Y114035D02*
D03*
X85689D02*
D03*
X76349Y184310D02*
D03*
X66900D02*
D03*
X76349Y189035D02*
D03*
X66900D02*
D03*
X66974Y259310D02*
D03*
X57525D02*
D03*
X66974Y264035D02*
D03*
X57525D02*
D03*
X1079474Y259310D02*
D03*
X1070026D02*
D03*
X1079474Y264035D02*
D03*
X1070026D02*
D03*
X57637Y34310D02*
D03*
X48188D02*
D03*
X57637Y39035D02*
D03*
X48188D02*
D03*
X141938D02*
D03*
X151387D02*
D03*
X141938Y34310D02*
D03*
X151387D02*
D03*
X245137D02*
D03*
X235688D02*
D03*
X245137Y39035D02*
D03*
X235688D02*
D03*
X48224Y409310D02*
D03*
X38776D02*
D03*
X48224Y414035D02*
D03*
X38776D02*
D03*
X123224Y409310D02*
D03*
X113776D02*
D03*
X123224Y414035D02*
D03*
X113776D02*
D03*
X198224Y409310D02*
D03*
X188776D02*
D03*
X198224Y414035D02*
D03*
X188776D02*
D03*
X273224Y409310D02*
D03*
X263776D02*
D03*
X273224Y414035D02*
D03*
X263776D02*
D03*
X348224Y409310D02*
D03*
X338776D02*
D03*
X348224Y414035D02*
D03*
X338776D02*
D03*
X423224Y409310D02*
D03*
X413776D02*
D03*
X423224Y414035D02*
D03*
X413776D02*
D03*
X498224Y409310D02*
D03*
X488776D02*
D03*
X498224Y414035D02*
D03*
X488776D02*
D03*
X573224Y409310D02*
D03*
X563776D02*
D03*
X573224Y414035D02*
D03*
X563776D02*
D03*
X648224Y409310D02*
D03*
X638776D02*
D03*
X648224Y414035D02*
D03*
X638776D02*
D03*
X723224Y409310D02*
D03*
X713776D02*
D03*
X723224Y414035D02*
D03*
X713776D02*
D03*
X798224Y409310D02*
D03*
X788776D02*
D03*
X798224Y414035D02*
D03*
X788776D02*
D03*
X873224Y409310D02*
D03*
X863776D02*
D03*
X873224Y414035D02*
D03*
X863776D02*
D03*
X948224Y409310D02*
D03*
X938776D02*
D03*
X948224Y414035D02*
D03*
X938776D02*
D03*
X1023224Y409310D02*
D03*
X1013776D02*
D03*
X1023224Y414035D02*
D03*
X1013776D02*
D03*
X1098224Y409310D02*
D03*
X1088776D02*
D03*
X1098224Y414035D02*
D03*
X1088776D02*
D03*
X1173224Y409310D02*
D03*
X1163776D02*
D03*
X1173224Y414035D02*
D03*
X1163776D02*
D03*
X1248224Y409310D02*
D03*
X1238776D02*
D03*
X1248224Y414035D02*
D03*
X1238776D02*
D03*
X48224Y334310D02*
D03*
X38776D02*
D03*
X48224Y339035D02*
D03*
X38776D02*
D03*
X123224Y334310D02*
D03*
X113776D02*
D03*
X123224Y339035D02*
D03*
X113776D02*
D03*
X198224Y334310D02*
D03*
X188776D02*
D03*
X198224Y339035D02*
D03*
X188776D02*
D03*
X273224Y334310D02*
D03*
X263776D02*
D03*
X273224Y339035D02*
D03*
X263776D02*
D03*
X348224Y334310D02*
D03*
X338776D02*
D03*
X348224Y339035D02*
D03*
X338776D02*
D03*
X423224Y334310D02*
D03*
X413776D02*
D03*
X423224Y339035D02*
D03*
X413776D02*
D03*
X498224Y334310D02*
D03*
X488776D02*
D03*
X498224Y339035D02*
D03*
X488776D02*
D03*
X573224Y334310D02*
D03*
X563776D02*
D03*
X573224Y339035D02*
D03*
X563776D02*
D03*
X648224Y334310D02*
D03*
X638776D02*
D03*
X648224Y339035D02*
D03*
X638776D02*
D03*
X723224Y334310D02*
D03*
X713776D02*
D03*
X723224Y339035D02*
D03*
X713776D02*
D03*
X798224Y334310D02*
D03*
X788776D02*
D03*
X798224Y339035D02*
D03*
X788776D02*
D03*
X873224Y334310D02*
D03*
X863776D02*
D03*
X873224Y339035D02*
D03*
X863776D02*
D03*
X948224Y334310D02*
D03*
X938776D02*
D03*
X948224Y339035D02*
D03*
X938776D02*
D03*
X1173224Y334310D02*
D03*
X1163776D02*
D03*
X1173224Y339035D02*
D03*
X1163776D02*
D03*
X1248224Y334310D02*
D03*
X1238776D02*
D03*
X1248224Y339035D02*
D03*
X1238776D02*
D03*
X1323224Y334310D02*
D03*
X1313776D02*
D03*
X1323224Y339035D02*
D03*
X1313776D02*
D03*
X1398224Y334310D02*
D03*
X1388776D02*
D03*
X1398224Y339035D02*
D03*
X1388776D02*
D03*
X1473224Y334310D02*
D03*
X1463776D02*
D03*
X1473224Y339035D02*
D03*
X1463776D02*
D03*
X1548224Y334310D02*
D03*
X1538776D02*
D03*
X1548224Y339035D02*
D03*
X1538776D02*
D03*
X160724Y259310D02*
D03*
X151276D02*
D03*
X160724Y264035D02*
D03*
X151276D02*
D03*
X235724Y259310D02*
D03*
X226276D02*
D03*
X235724Y264035D02*
D03*
X226276D02*
D03*
X310724Y259310D02*
D03*
X301276D02*
D03*
X310724Y264035D02*
D03*
X301276D02*
D03*
X385724Y259310D02*
D03*
X376276D02*
D03*
X385724Y264035D02*
D03*
X376276D02*
D03*
X460724Y259310D02*
D03*
X451276D02*
D03*
X460724Y264035D02*
D03*
X451276D02*
D03*
X535724Y259310D02*
D03*
X526276D02*
D03*
X535724Y264035D02*
D03*
X526276D02*
D03*
X610724Y259310D02*
D03*
X601276D02*
D03*
X610724Y264035D02*
D03*
X601276D02*
D03*
X685724Y259310D02*
D03*
X676276D02*
D03*
X685724Y264035D02*
D03*
X676276D02*
D03*
X760724Y259310D02*
D03*
X751276D02*
D03*
X760724Y264035D02*
D03*
X751276D02*
D03*
X835724Y259310D02*
D03*
X826276D02*
D03*
X835724Y264035D02*
D03*
X826276D02*
D03*
X910724Y259310D02*
D03*
X901276D02*
D03*
X910724Y264035D02*
D03*
X901276D02*
D03*
X985724Y259310D02*
D03*
X976276D02*
D03*
X985724Y264035D02*
D03*
X976276D02*
D03*
X1173224Y259310D02*
D03*
X1163776D02*
D03*
X1173224Y264035D02*
D03*
X1163776D02*
D03*
X1248224Y259310D02*
D03*
X1238776D02*
D03*
X1248224Y264035D02*
D03*
X1238776D02*
D03*
X1323224Y259310D02*
D03*
X1313776D02*
D03*
X1323224Y264035D02*
D03*
X1313776D02*
D03*
X1398224Y259310D02*
D03*
X1388776D02*
D03*
X1398224Y264035D02*
D03*
X1388776D02*
D03*
X1473224Y259310D02*
D03*
X1463776D02*
D03*
X1473224Y264035D02*
D03*
X1463776D02*
D03*
X179474Y184310D02*
D03*
X170026D02*
D03*
X179474Y189035D02*
D03*
X170026D02*
D03*
X254474Y184310D02*
D03*
X245026D02*
D03*
X254474Y189035D02*
D03*
X245026D02*
D03*
X479474Y184310D02*
D03*
X470026D02*
D03*
X479474Y189035D02*
D03*
X470026D02*
D03*
X554474Y184310D02*
D03*
X545026D02*
D03*
X554474Y189035D02*
D03*
X545026D02*
D03*
X629474Y184310D02*
D03*
X620026D02*
D03*
X629474Y189035D02*
D03*
X620026D02*
D03*
X704474Y184310D02*
D03*
X695026D02*
D03*
X704474Y189035D02*
D03*
X695026D02*
D03*
X779474Y184310D02*
D03*
X770026D02*
D03*
X779474Y189035D02*
D03*
X770026D02*
D03*
X854474Y184310D02*
D03*
X845026D02*
D03*
X854474Y189035D02*
D03*
X845026D02*
D03*
X929474Y184310D02*
D03*
X920026D02*
D03*
X929474Y189035D02*
D03*
X920026D02*
D03*
X1173224Y184310D02*
D03*
X1163776D02*
D03*
X1173224Y189035D02*
D03*
X1163776D02*
D03*
X1248224Y184310D02*
D03*
X1238776D02*
D03*
X1248224Y189035D02*
D03*
X1238776D02*
D03*
X1323224Y184310D02*
D03*
X1313776D02*
D03*
X1323224Y189035D02*
D03*
X1313776D02*
D03*
X1398224Y184310D02*
D03*
X1388776D02*
D03*
X1398224Y189035D02*
D03*
X1388776D02*
D03*
X1473224Y184310D02*
D03*
X1463776D02*
D03*
X1473224Y189035D02*
D03*
X1463776D02*
D03*
X329474Y184310D02*
D03*
X320026D02*
D03*
X329474Y189035D02*
D03*
X320026D02*
D03*
X404474Y184310D02*
D03*
X395026D02*
D03*
X404474Y189035D02*
D03*
X395026D02*
D03*
X217024Y109310D02*
D03*
X207576D02*
D03*
X217024Y114035D02*
D03*
X207576D02*
D03*
X292024Y109310D02*
D03*
X282576D02*
D03*
X292024Y114035D02*
D03*
X282576D02*
D03*
X367024Y109310D02*
D03*
X357576D02*
D03*
X367024Y114035D02*
D03*
X357576D02*
D03*
X442024Y109310D02*
D03*
X432576D02*
D03*
X442024Y114035D02*
D03*
X432576D02*
D03*
X517024Y109310D02*
D03*
X507576D02*
D03*
X517024Y114035D02*
D03*
X507576D02*
D03*
X592024Y109310D02*
D03*
X582576D02*
D03*
X592024Y114035D02*
D03*
X582576D02*
D03*
X667024Y109310D02*
D03*
X657576D02*
D03*
X667024Y114035D02*
D03*
X657576D02*
D03*
X742024Y109310D02*
D03*
X732576D02*
D03*
X742024Y114035D02*
D03*
X732576D02*
D03*
X817024Y109310D02*
D03*
X807576D02*
D03*
X817024Y114035D02*
D03*
X807576D02*
D03*
X892024Y109310D02*
D03*
X882576D02*
D03*
X892024Y114035D02*
D03*
X882576D02*
D03*
X1173224Y109310D02*
D03*
X1163776D02*
D03*
X1173224Y114035D02*
D03*
X1163776D02*
D03*
X1248224Y109310D02*
D03*
X1238776D02*
D03*
X1248224Y114035D02*
D03*
X1238776D02*
D03*
X1323224Y109310D02*
D03*
X1313776D02*
D03*
X1323224Y114035D02*
D03*
X1313776D02*
D03*
X1398224Y109310D02*
D03*
X1388776D02*
D03*
X1398224Y114035D02*
D03*
X1388776D02*
D03*
X1473224Y109310D02*
D03*
X1463776D02*
D03*
X1473224Y114035D02*
D03*
X1463776D02*
D03*
X798224Y34310D02*
D03*
X788776D02*
D03*
X798224Y39035D02*
D03*
X788776D02*
D03*
X948224Y34310D02*
D03*
X938776D02*
D03*
X948224Y39035D02*
D03*
X938776D02*
D03*
X1023224Y34310D02*
D03*
X1013776D02*
D03*
X1023224Y39035D02*
D03*
X1013776D02*
D03*
X1098224Y34310D02*
D03*
X1088776D02*
D03*
X1098224Y39035D02*
D03*
X1088776D02*
D03*
X1173224Y34310D02*
D03*
X1163776D02*
D03*
X1173224Y39035D02*
D03*
X1163776D02*
D03*
X1248224Y34310D02*
D03*
X1238776D02*
D03*
X1248224Y39035D02*
D03*
X1238776D02*
D03*
X1473224Y34310D02*
D03*
X1463776D02*
D03*
X1473224Y39035D02*
D03*
X1463776D02*
D03*
X873224Y34310D02*
D03*
X863776D02*
D03*
X873224Y39035D02*
D03*
X863776D02*
D03*
M02*
