G04*
G04 #@! TF.GenerationSoftware,Altium Limited,Altium Designer,18.1.7 (191)*
G04*
G04 Layer_Color=16711935*
%FSLAX25Y25*%
%MOIN*%
G70*
G01*
G75*
%ADD10C,0.00500*%
G36*
X1595626Y416511D02*
D01*
D02*
G37*
D10*
X1558246Y480592D02*
G03*
X1558246Y480592I-1181J0D01*
G01*
Y484592D02*
G03*
X1558246Y484592I-1181J0D01*
G01*
X1524230D02*
G03*
X1524230Y484592I-1181J0D01*
G01*
Y480592D02*
G03*
X1524230Y480592I-1181J0D01*
G01*
X1563482Y506692D02*
G03*
X1563482Y506692I-1181J0D01*
G01*
Y500792D02*
G03*
X1563482Y500792I-1181J0D01*
G01*
X1518994D02*
G03*
X1518994Y500792I-1181J0D01*
G01*
Y506692D02*
G03*
X1518994Y506692I-1181J0D01*
G01*
X1521750Y490624D02*
G03*
X1521750Y488261I0J-1181D01*
G01*
X1558364D02*
G03*
X1558364Y490624I0J1181D01*
G01*
X1612020Y417617D02*
G03*
X1612020Y417617I-894J0D01*
G01*
X1604726Y418511D02*
G03*
X1604726Y416722I0J-894D01*
G01*
X1591926Y416717D02*
G03*
X1591926Y418505I0J894D01*
G01*
X1585526Y418511D02*
G03*
X1585526Y416722I0J-894D01*
G01*
X1586420Y417617D02*
G03*
X1586420Y417617I-894J0D01*
G01*
X1592820D02*
G03*
X1592820Y417617I-894J0D01*
G01*
X1611126Y416722D02*
G03*
X1611126Y418511I0J894D01*
G01*
X1605620Y417617D02*
G03*
X1605620Y417617I-894J0D01*
G01*
X33603Y490300D02*
G03*
X33603Y490300I-12303J0D01*
G01*
X26903Y14300D02*
G03*
X26903Y14300I-12303J0D01*
G01*
X1589203Y15600D02*
G03*
X1589203Y15600I-12303J0D01*
G01*
X1306803Y413100D02*
G03*
X1306803Y413100I-12303J0D01*
G01*
X1110850Y323700D02*
G03*
X1110850Y323700I-7850J0D01*
G01*
X1109000Y383700D02*
G03*
X1109000Y383700I-6000J0D01*
G01*
X1016850Y323700D02*
G03*
X1016850Y323700I-7850J0D01*
G01*
X1015000Y383700D02*
G03*
X1015000Y383700I-6000J0D01*
G01*
X1063850Y356200D02*
G03*
X1063850Y356200I-7850J0D01*
G01*
X1363850Y56200D02*
G03*
X1363850Y56200I-7850J0D01*
G01*
X1315000Y83700D02*
G03*
X1315000Y83700I-6000J0D01*
G01*
X1316850Y23700D02*
G03*
X1316850Y23700I-7850J0D01*
G01*
X1409000Y83700D02*
G03*
X1409000Y83700I-6000J0D01*
G01*
X1410850Y23700D02*
G03*
X1410850Y23700I-7850J0D01*
G01*
X1083000Y98700D02*
G03*
X1083000Y98700I-7850J0D01*
G01*
X1081150Y158700D02*
G03*
X1081150Y158700I-6000J0D01*
G01*
X989000Y98700D02*
G03*
X989000Y98700I-7850J0D01*
G01*
X987150Y158700D02*
G03*
X987150Y158700I-6000J0D01*
G01*
X1036000Y131200D02*
G03*
X1036000Y131200I-7850J0D01*
G01*
X726326Y23700D02*
G03*
X726326Y23700I-7850J0D01*
G01*
X724475Y83700D02*
G03*
X724475Y83700I-6000J0D01*
G01*
X332625Y23700D02*
G03*
X332625Y23700I-7850J0D01*
G01*
X330775Y83700D02*
G03*
X330775Y83700I-6000J0D01*
G01*
X529475Y56200D02*
G03*
X529475Y56200I-7850J0D01*
G01*
X1518850Y196700D02*
G03*
X1518850Y196700I-7850J0D01*
G01*
X1577000D02*
G03*
X1577000Y196700I-6000J0D01*
G01*
X1518850Y290700D02*
G03*
X1518850Y290700I-7850J0D01*
G01*
X1577000D02*
G03*
X1577000Y290700I-6000J0D01*
G01*
X1551350Y243700D02*
G03*
X1551350Y243700I-7850J0D01*
G01*
X1518850Y46700D02*
G03*
X1518850Y46700I-7850J0D01*
G01*
X1577000D02*
G03*
X1577000Y46700I-6000J0D01*
G01*
X1518850Y140700D02*
G03*
X1518850Y140700I-7850J0D01*
G01*
X1577000D02*
G03*
X1577000Y140700I-6000J0D01*
G01*
X1551350Y93700D02*
G03*
X1551350Y93700I-7850J0D01*
G01*
X1101475Y173700D02*
G03*
X1101475Y173700I-7850J0D01*
G01*
X1007475D02*
G03*
X1007475Y173700I-7850J0D01*
G01*
X1099625Y233700D02*
G03*
X1099625Y233700I-6000J0D01*
G01*
X1005625D02*
G03*
X1005625Y233700I-6000J0D01*
G01*
X1054475Y206200D02*
G03*
X1054475Y206200I-7850J0D01*
G01*
X145264Y98700D02*
G03*
X145264Y98700I-7850J0D01*
G01*
X51264D02*
G03*
X51264Y98700I-7850J0D01*
G01*
X143414Y158700D02*
G03*
X143414Y158700I-6000J0D01*
G01*
X49414D02*
G03*
X49414Y158700I-6000J0D01*
G01*
X98264Y131200D02*
G03*
X98264Y131200I-7850J0D01*
G01*
X79475Y206200D02*
G03*
X79475Y206200I-7850J0D01*
G01*
X70100Y281200D02*
G03*
X70100Y281200I-7850J0D01*
G01*
X1082600D02*
G03*
X1082600Y281200I-7850J0D01*
G01*
X60763Y56200D02*
G03*
X60763Y56200I-7850J0D01*
G01*
X154513D02*
G03*
X154513Y56200I-7850J0D01*
G01*
X248263D02*
G03*
X248263Y56200I-7850J0D01*
G01*
X51350Y431200D02*
G03*
X51350Y431200I-7850J0D01*
G01*
X126350D02*
G03*
X126350Y431200I-7850J0D01*
G01*
X201350D02*
G03*
X201350Y431200I-7850J0D01*
G01*
X276350D02*
G03*
X276350Y431200I-7850J0D01*
G01*
X351350D02*
G03*
X351350Y431200I-7850J0D01*
G01*
X426350D02*
G03*
X426350Y431200I-7850J0D01*
G01*
X501350D02*
G03*
X501350Y431200I-7850J0D01*
G01*
X576350D02*
G03*
X576350Y431200I-7850J0D01*
G01*
X651350D02*
G03*
X651350Y431200I-7850J0D01*
G01*
X726350D02*
G03*
X726350Y431200I-7850J0D01*
G01*
X801350D02*
G03*
X801350Y431200I-7850J0D01*
G01*
X876350D02*
G03*
X876350Y431200I-7850J0D01*
G01*
X951350D02*
G03*
X951350Y431200I-7850J0D01*
G01*
X1026350D02*
G03*
X1026350Y431200I-7850J0D01*
G01*
X1101350D02*
G03*
X1101350Y431200I-7850J0D01*
G01*
X1176350D02*
G03*
X1176350Y431200I-7850J0D01*
G01*
X1251350D02*
G03*
X1251350Y431200I-7850J0D01*
G01*
X51350Y356200D02*
G03*
X51350Y356200I-7850J0D01*
G01*
X126350D02*
G03*
X126350Y356200I-7850J0D01*
G01*
X201350D02*
G03*
X201350Y356200I-7850J0D01*
G01*
X276350D02*
G03*
X276350Y356200I-7850J0D01*
G01*
X351350D02*
G03*
X351350Y356200I-7850J0D01*
G01*
X426350D02*
G03*
X426350Y356200I-7850J0D01*
G01*
X501350D02*
G03*
X501350Y356200I-7850J0D01*
G01*
X576350D02*
G03*
X576350Y356200I-7850J0D01*
G01*
X651350D02*
G03*
X651350Y356200I-7850J0D01*
G01*
X726350D02*
G03*
X726350Y356200I-7850J0D01*
G01*
X801350D02*
G03*
X801350Y356200I-7850J0D01*
G01*
X876350D02*
G03*
X876350Y356200I-7850J0D01*
G01*
X951350D02*
G03*
X951350Y356200I-7850J0D01*
G01*
X1176350D02*
G03*
X1176350Y356200I-7850J0D01*
G01*
X1251350D02*
G03*
X1251350Y356200I-7850J0D01*
G01*
X1326350D02*
G03*
X1326350Y356200I-7850J0D01*
G01*
X1401350D02*
G03*
X1401350Y356200I-7850J0D01*
G01*
X1476350D02*
G03*
X1476350Y356200I-7850J0D01*
G01*
X1551350D02*
G03*
X1551350Y356200I-7850J0D01*
G01*
X163850Y281200D02*
G03*
X163850Y281200I-7850J0D01*
G01*
X238850D02*
G03*
X238850Y281200I-7850J0D01*
G01*
X313850D02*
G03*
X313850Y281200I-7850J0D01*
G01*
X388850D02*
G03*
X388850Y281200I-7850J0D01*
G01*
X463850D02*
G03*
X463850Y281200I-7850J0D01*
G01*
X538850D02*
G03*
X538850Y281200I-7850J0D01*
G01*
X613850D02*
G03*
X613850Y281200I-7850J0D01*
G01*
X688850D02*
G03*
X688850Y281200I-7850J0D01*
G01*
X763850D02*
G03*
X763850Y281200I-7850J0D01*
G01*
X838850D02*
G03*
X838850Y281200I-7850J0D01*
G01*
X913850D02*
G03*
X913850Y281200I-7850J0D01*
G01*
X988850D02*
G03*
X988850Y281200I-7850J0D01*
G01*
X1176350D02*
G03*
X1176350Y281200I-7850J0D01*
G01*
X1251350D02*
G03*
X1251350Y281200I-7850J0D01*
G01*
X1326350D02*
G03*
X1326350Y281200I-7850J0D01*
G01*
X1401350D02*
G03*
X1401350Y281200I-7850J0D01*
G01*
X1476350D02*
G03*
X1476350Y281200I-7850J0D01*
G01*
X182600Y206200D02*
G03*
X182600Y206200I-7850J0D01*
G01*
X257600D02*
G03*
X257600Y206200I-7850J0D01*
G01*
X482600D02*
G03*
X482600Y206200I-7850J0D01*
G01*
X557600D02*
G03*
X557600Y206200I-7850J0D01*
G01*
X632600D02*
G03*
X632600Y206200I-7850J0D01*
G01*
X707600D02*
G03*
X707600Y206200I-7850J0D01*
G01*
X782600D02*
G03*
X782600Y206200I-7850J0D01*
G01*
X857600D02*
G03*
X857600Y206200I-7850J0D01*
G01*
X932600D02*
G03*
X932600Y206200I-7850J0D01*
G01*
X1176350D02*
G03*
X1176350Y206200I-7850J0D01*
G01*
X1251350D02*
G03*
X1251350Y206200I-7850J0D01*
G01*
X1326350D02*
G03*
X1326350Y206200I-7850J0D01*
G01*
X1401350D02*
G03*
X1401350Y206200I-7850J0D01*
G01*
X1476350D02*
G03*
X1476350Y206200I-7850J0D01*
G01*
X332600D02*
G03*
X332600Y206200I-7850J0D01*
G01*
X407600D02*
G03*
X407600Y206200I-7850J0D01*
G01*
X220150Y131200D02*
G03*
X220150Y131200I-7850J0D01*
G01*
X295150D02*
G03*
X295150Y131200I-7850J0D01*
G01*
X370150D02*
G03*
X370150Y131200I-7850J0D01*
G01*
X445150D02*
G03*
X445150Y131200I-7850J0D01*
G01*
X520150D02*
G03*
X520150Y131200I-7850J0D01*
G01*
X595150D02*
G03*
X595150Y131200I-7850J0D01*
G01*
X670150D02*
G03*
X670150Y131200I-7850J0D01*
G01*
X745150D02*
G03*
X745150Y131200I-7850J0D01*
G01*
X820150D02*
G03*
X820150Y131200I-7850J0D01*
G01*
X895150D02*
G03*
X895150Y131200I-7850J0D01*
G01*
X1176350D02*
G03*
X1176350Y131200I-7850J0D01*
G01*
X1251350D02*
G03*
X1251350Y131200I-7850J0D01*
G01*
X1326350D02*
G03*
X1326350Y131200I-7850J0D01*
G01*
X1401350D02*
G03*
X1401350Y131200I-7850J0D01*
G01*
X1476350D02*
G03*
X1476350Y131200I-7850J0D01*
G01*
X801350Y56200D02*
G03*
X801350Y56200I-7850J0D01*
G01*
X951350D02*
G03*
X951350Y56200I-7850J0D01*
G01*
X1026350D02*
G03*
X1026350Y56200I-7850J0D01*
G01*
X1101350D02*
G03*
X1101350Y56200I-7850J0D01*
G01*
X1176350D02*
G03*
X1176350Y56200I-7850J0D01*
G01*
X1251350D02*
G03*
X1251350Y56200I-7850J0D01*
G01*
X1476350D02*
G03*
X1476350Y56200I-7850J0D01*
G01*
X876350D02*
G03*
X876350Y56200I-7850J0D01*
G01*
X1558364Y488261D02*
G03*
X1558364Y490624I0J1181D01*
G01*
X1521750D02*
G03*
X1521750Y488261I0J-1181D01*
G01*
X1558364Y490624D02*
Y492986D01*
X1521750Y490624D02*
Y492986D01*
X1558364D02*
Y511092D01*
X1521750Y492986D02*
Y511092D01*
Y488261D02*
X1558364D01*
X1563482Y500792D02*
Y506692D01*
X1561120Y500792D02*
Y506692D01*
X1516632Y500792D02*
Y506692D01*
X1518994Y500792D02*
Y506692D01*
X1558246Y480592D02*
Y484592D01*
X1555883Y480592D02*
Y484592D01*
X1521868Y480592D02*
Y484592D01*
X1524230Y480592D02*
Y484592D01*
X1585526Y418511D02*
X1591926D01*
X1585526Y416711D02*
X1591926D01*
X1604726D02*
X1611126D01*
X1604726Y418511D02*
X1611126D01*
X1568668Y421800D02*
Y511900D01*
Y421800D02*
X1616422D01*
X-0Y0D02*
X1592800D01*
X1592800Y392700D02*
X1592800Y0D01*
X1592800Y392700D02*
X1616422D01*
Y421800D01*
X1521750Y490624D02*
Y511900D01*
X1558364Y490624D02*
Y511900D01*
X1521750Y488261D02*
X1558364D01*
X1521750Y511092D02*
Y511900D01*
X-0D02*
X1521750D01*
X1558364Y511092D02*
Y511900D01*
X1568668D01*
X-0D02*
X0Y0D01*
M02*
