M48
;Layer_Color=9474304
;FILE_FORMAT=2:5
INCH,LZ
;TYPE=PLATED
T1F00S00C0.01000
T2F00S00C0.01300
T3F00S00C0.01500
T4F00S00C0.02362
T6F00S00C0.11811
T7F00S00C0.12000
T8F00S00C0.15700
;TYPE=NON_PLATED
T10F00S00C0.24606
%
T01
X1542033Y04768
X1538117Y04776
X1537417Y0483284
X1542117Y04831
T02
X04159Y0024
X12541Y0114
X13291Y01151
X13295Y01038
X14034Y01141
X15164Y02195
X15231Y02169
X15285Y02145
X1553286Y02073
X15593Y02035
X1512Y02335
X12534Y02646
X11785Y0264035
X1113Y0408598
X1087Y039935
X10832Y03992
X10645Y04087
X130555Y04275
X1323349Y04325
X133525Y04178
X1328943Y03966
X13513Y03871
X1360999Y039515
X136765Y04073
X144305Y04358
X144635Y04373
X1448716Y0439933
X1451583Y0437967
X1454449Y0436
X14271Y0331
X14143Y03335
X15391Y03865
X1545621Y0406521
X1549454Y0404126
X1553286Y040173
X1557118Y0399335
X156095Y0396939
X1564782Y0394544
X1568615Y0392148
X1572447Y0389753
X1590452Y0396971
X15986Y0396495
X16063Y03962
X1579323Y04081
X15632Y04293
X1538751Y04344
X15275Y04293
X15195Y0427463
X151185Y0426
X15564Y02921
X154395Y04644
X154785Y0475525
X1517917Y04762
Y04724
Y0468464
X15183Y04447
X15067Y04497
X15294Y0454314
X150505Y05091
X1471549Y04826
X146605Y04861
X146765Y04731
X146195Y0478037
X1453203Y04804
X144795Y04811
X144265Y04698
X145821Y0466911
X145745Y04619
X1461891Y0456053
X146025Y04488
X1431849Y04482
X1425749Y04723
X1415499Y0476237
X141005Y0476
X139185Y04777
X137345Y04616
X1355578Y04467
T03
X0031513Y0024498
Y0029048
Y0033598
X0069288
Y0029048
Y0024498
X0113534
Y0029048
Y0033598
X0163038
Y0029048
Y0024498
X0179171Y0099498
Y0104048
Y0108598
X0069014
Y0104048
Y0099498
X02659
Y0104048
Y0108598
X02657Y00894
X02716Y00876
X02579Y0091
X0256788Y0033598
Y0029048
Y0024498
X0219013
Y0029048
Y0033598
X03409Y00335
Y002895
Y00242
Y0099498
Y0104048
Y0108598
X04159
Y0104048
Y0099498
Y00333
Y002875
X0500225Y0029048
Y0033598
Y0024498
X04909Y0099498
Y0104048
Y0108598
X05659
Y0104048
Y0099498
Y0033598
Y0029048
Y0024498
X06409
Y0029048
Y0033598
Y0099498
Y0104048
Y0108598
X07159
Y0104048
Y0099498
X07909
Y0104048
Y0108598
X07721Y0033598
Y0029048
Y0024498
X08471
Y0029048
Y0033598
X09221
Y0029048
Y0024498
X08659Y0099498
Y0104048
Y0108598
X09859Y01207
X100675Y0108598
Y0104048
Y0099498
X09971Y0033598
Y0029048
Y0024498
X10721
Y0029048
Y0033598
X11401Y00291
X11471Y0029048
Y0033598
Y0024498
X11367Y00247
X12221Y0024498
Y0029048
Y0033598
X12374Y01038
X12547Y01089
X12582Y01075
X11797Y01089
X11787Y01143
X11624Y01038
X13124
X13297Y01089
X13874Y01038
X13974Y0099
X14058Y01092
X14118Y01089
X1427Y01202
X14627Y00982
X14471Y0033598
Y0029048
Y0024498
X14114Y00295
Y00344
Y0039
X13346Y0033598
Y0029048
Y0024498
X14876Y00378
X1491529Y0034
X1494529Y00313
X15194Y00297
X15223Y00272
X15252Y00247
X15281Y00222
X1531Y00197
X15221Y0061998
Y0066548
Y0071098
X14798Y00973
X14797Y01089
X14685Y01043
Y00968
X14797Y02589
X14798Y02649
X15716Y02493
X15588Y02267
Y0217
X15629Y02173
X14624Y02538
X14047Y02589
X14047Y0265
X13874Y02538
X13627Y02749
X13292Y02641
X13297Y02589
X13124Y02538
X13721Y0183598
Y0179048
Y0174498
X14471
Y0179048
Y0183598
X12971
Y0179048
Y0174498
X12221
Y0179048
Y0183598
X12374Y02538
X12547Y02589
X11797
X11624Y02538
X11363Y02647
X11202Y02808
X10467Y02641
X09976Y02587
X09975Y02541
X09993Y02016
X1025225Y0183598
Y0179048
Y0174498
X11471
Y0179048
Y0183598
X11376Y01966
X09703Y01899
X09596Y0249498
Y0254048
Y0258598
X0982355Y0254048
X08846
Y0258598
Y0249498
X090335Y0183598
Y0179048
Y0174498
X082835
Y0179048
Y0183598
X075335
Y0179048
Y0174498
X076334Y016454
X07703Y01665
X0770099Y0162299
X06902Y01673
X0690174Y0171774
X07346Y0249498
Y0254048
Y0258598
X08096
Y0254048
Y0249498
X06596
Y0254048
Y0258598
X05846
Y0254048
Y0249498
X060335Y0183598
Y0179048
Y0174498
X052835
Y0179048
Y0183598
X067835
Y0179048
Y0174498
X045335
Y0179048
Y0183598
X037835
Y0179048
Y0174498
X04346Y0249498
Y0254048
Y0258598
X05096
Y0254048
Y0249498
X03596
Y0254048
Y0258598
X02846
Y0254048
Y0249498
X030335Y0183598
Y0179048
Y0174498
X022835
Y0179048
Y0183598
X02096Y0249498
Y0254048
Y0258598
X0122871Y02587
Y0254
Y02491
X0141621Y0183598
Y0179048
Y0174498
X0050225
Y0179048
Y0183598
X004085Y02498
Y0254048
Y0258598
X00221Y0324498
Y0329048
Y0333598
Y0399498
Y0404048
Y0408598
X00971
Y0404048
Y0399498
Y03333
Y032875
Y03242
X01721Y0324498
Y0329048
Y0333598
X01711Y0399498
Y0404048
Y0408598
X02471
Y0404048
Y0399498
Y0333598
Y0329048
Y0324498
X03221
Y0329048
Y0333598
Y0399498
Y0404048
Y0408598
X03971
Y0404048
Y0399498
Y0333598
Y0329048
Y0324498
X04721
Y0329048
Y0333598
Y0399498
Y0404048
Y0408598
X05471
Y04041
Y0399498
Y0333598
Y0329048
Y0324498
X05673Y03144
X05672Y031
X05647Y03068
X06221Y0324498
Y0329048
Y0333598
Y0399498
Y0404048
Y0408598
X06971
Y0404048
Y0399498
Y0333598
Y0329048
Y0324498
X07721
Y0329048
Y0333598
Y0399498
Y0404048
Y0408598
X08472
Y04052
Y04017
X08471Y0333598
Y0329048
Y0324498
X09221
Y0329048
Y0333598
X09212Y0406
X09178Y04032
X0925605Y04085
X10721Y0408598
Y04052
Y04017
X10914Y04208
X1113Y04052
Y04017
X1135289
Y0408598
X11471
Y04017
Y0333598
Y0329048
Y0324498
X11081Y03401
X11094Y0347
X10346Y0333598
Y0329048
Y0324498
X12221
Y0329048
Y0333598
X12258Y0321
X12303Y03209
X12971Y0324498
Y0329048
Y0333598
X12617Y03965
X12221Y0399498
Y0404048
Y0408598
X1205893Y03965
X135415Y03925
X135795
X13571Y03558
X13721Y0333598
Y0329048
Y0324498
X14471Y03246
Y0329048
Y0333598
X133335Y044275
X15261Y0333598
Y0329048
Y03245
X143485Y04664
X143505Y04703
X142745Y0467941
X132885Y0444326
X09429Y04566
X09387Y04539
X09345Y04512
X08679Y04566
X08637Y04539
X08595Y04512
X07929Y04566
X07887Y04539
X07845Y04512
X07179Y04566
X07137Y04539
X07095Y04512
X06429Y04566
X06387Y04539
X06345Y04512
X05679Y04566
X05637Y04539
X05595Y04512
X04929Y04566
X04887Y04539
X04845Y04512
T04
X141075Y04948
X1415749
X1420749
X1425749
X143075
X145185
X145685
T06
X0037913Y00662
X0062913Y00762
X0131663Y00662
X0156663Y00762
X0225413Y00662
X0250413Y00762
X0506625Y00662
X0531625Y00762
X07785Y00662
X08035Y00762
X08535Y00662
X08785Y00762
X09285Y00662
X09535Y00762
X10035Y00662
X10285Y00762
X10785Y00662
X11035Y00762
X11535Y00662
X11785Y00762
X12285Y00662
X12535Y00762
X1341Y00662
X1366Y00762
X14535Y00662
X14785Y00762
X15285Y01037
X15535Y01137
X14785Y01512
Y02262
X15285Y02537
X15535Y02637
X14535Y02162
X14035Y02262
X13785Y02162
X13285Y02262
Y01512
X13785Y01412
X14035Y01512
X14535Y01412
X13035
X12535Y01512
X12285Y01412
X11785Y01512
X11535Y01412
Y02162
X11785Y02262
X12285Y02162
X12535Y02262
X13035Y02162
X1056625Y02262
X1031625Y02162
X103815Y01512
X101315Y01412
X08973Y01512
X08723Y01412
X085975Y02262
X090975Y02162
X093475Y02262
X083475Y02162
X078475Y02262
X075975Y02162
X070975Y02262
X068475Y02162
X07223Y01412
X07473Y01512
X07973Y01412
X08223Y01512
X06723
X06473Y01412
X05973Y01512
X05723Y01412
X055975Y02262
X053475Y02162
X060975
X063475Y02262
X048475
X045975Y02162
X040975Y02262
X038475Y02162
X03723Y01512
X04223Y01412
X04473Y01512
X04973Y01412
X05223Y01512
X03473Y01412
X02973Y01512
X02723Y01412
X02223Y01512
X023475Y02162
X025975Y02262
X030975Y02162
X033475Y02262
X018475
X015975Y02162
X0081625Y02262
X0075414Y01412
X0100414Y01512
X01973Y01412
X0056625Y02162
X004725Y02912
X00535Y03762
X00285Y03662
Y04412
X01035
X01785
Y03662
X02035Y03762
X01285
X01035Y03662
X007225Y03012
X0141Y02912
X0166Y03012
X0216Y02912
X0241Y03012
X0291Y02912
X0316Y03012
X0366Y02912
X03535Y03762
X03285Y03662
X02785Y03762
X02535Y03662
Y04412
X03285
X04035
X04785
Y03662
X05035Y03762
X04285
X04035Y03662
X0391Y03012
X0441Y02912
X0466Y03012
X0516Y02912
X0541Y03012
X0591Y02912
X0616Y03012
X0666Y02912
X06535Y03762
X06285Y03662
X05785Y03762
X05535Y03662
Y04412
X06285
X07035
X07785
Y03662
X08035Y03762
X07285
X07035Y03662
X0691Y03012
X0741Y02912
X0766Y03012
X0816Y02912
X0841Y03012
X0891Y02912
X0916Y03012
X0966Y02912
X0991Y03012
X09535Y03762
X09285Y03662
X08785Y03762
X08535Y03662
Y04412
X09285
X10035
X10785
X1066Y03762
X1041Y03662
X105975Y02912
X108475Y03012
X11535Y02912
X11785Y03012
X12285Y02912
X12535Y03012
X13035Y02912
Y03662
X12535Y03762
X12285Y03662
X11785Y03762
X11535Y03662
Y04412
X12285
X13285Y03762
X13785Y03662
X14035Y03762
X14535Y03662
Y02912
X14035Y03012
X13785Y02912
X13285Y03012
X14785
Y03762
X15285Y03662
X15535Y03762
X12535Y04512
X11785
X11035
X10285
X09535
X08785
X08035
X07285
X06535
X05785
X05035
X04285
X03535
X02785
X02035
X01285
X00535
T07
X0324775Y00837
X0718475
X1309Y00837
X1403
X1571Y00467
Y01407
Y01967
X1093625Y02337
X107515Y01587
X0999625Y02337
X098115Y01587
X0137414
X0043414
X1009Y03837
X1103
X1571Y02907
T08
X0052913Y00562
X0043414Y00987
X0137414
X0146663Y00562
X0240413
X0324775Y00237
X0521625Y00562
X0718475Y00237
X07935Y00562
X08685
X09435
X098115Y00987
X10185Y00562
X10935
X107515Y00987
X11685Y00562
X12435
X1309Y00237
X1356Y00562
X1403Y00237
X14685Y00562
X1511Y00467
X15435Y00937
X1511Y01407
X14685Y01312
Y02062
X1511Y01967
X15435Y02437
X14685Y02812
X13935
X13185
Y02062
X13935
Y01312
X13185
X12435
Y02062
Y02812
X11685
Y02062
Y01312
X1093625Y01737
X1046625Y02062
X0999625Y01737
X102815Y01312
X107475Y02812
X0981
X0906
X092475Y02062
X084975
X08873Y01312
X08123
X07373
X077475Y02062
X069975
X0756Y02812
X0831
X0681
X0606
X0531
X054975Y02062
X062475
X05873Y01312
X06623
X05123
X04373
X047475Y02062
X039975
X0381Y02812
X0456
X0306
X0231
X024975Y02062
X032475
X02873Y01312
X03623
X02123
X017475Y02062
X0156Y02812
X006225
X0071625Y02062
X0090414Y01312
X00435Y03562
Y04312
X01185
X01935
Y03562
X01185
X02685
Y04312
X03435
Y03562
X04185
Y04312
X04935
Y03562
X05685
Y04312
X06435
Y03562
X07185
Y04312
X07935
Y03562
X08685
Y04312
X09435
Y03562
X1009Y03237
X1056Y03562
X1103Y03237
X10935Y04312
X10185
X11685
X12435
Y03562
X11685
X13185
X13935
X14685
X15435
X1511Y02907
T10
X00146Y00143
X15769Y00156
X12945Y04131
X00213Y04903
M30
