G04*
G04 #@! TF.GenerationSoftware,Altium Limited,Altium Designer,18.1.7 (191)*
G04*
G04 Layer_Physical_Order=2*
G04 Layer_Color=16711680*
%FSLAX25Y25*%
%MOIN*%
G70*
G01*
G75*
%ADD12C,0.01000*%
%ADD14C,0.00600*%
%ADD17R,0.02559X0.02559*%
%ADD23R,0.02559X0.02559*%
%ADD26R,0.02756X0.02913*%
%ADD55C,0.02000*%
%ADD56C,0.02500*%
%ADD57C,0.00800*%
%ADD58C,0.03000*%
%ADD59C,0.01500*%
%ADD60C,0.03937*%
%ADD61O,0.04331X0.10236*%
%ADD62O,0.04331X0.08268*%
%ADD63C,0.13780*%
%ADD64C,0.02700*%
%ADD65C,0.02000*%
%ADD66C,0.03000*%
%ADD67R,0.02913X0.02756*%
%ADD68R,0.03937X0.02756*%
%ADD69R,0.02362X0.02756*%
%ADD70R,0.01181X0.04724*%
%ADD71R,0.04724X0.01181*%
%ADD72R,0.04724X0.01181*%
%ADD73R,0.05906X0.21654*%
%ADD74R,0.07677X0.12598*%
%ADD75R,0.07677X0.03543*%
%ADD76R,0.10039X0.09843*%
%ADD77R,0.04724X0.03543*%
%ADD78R,0.03543X0.04724*%
G36*
X1567391Y424299D02*
X1566005Y423725D01*
X1564831Y424899D01*
Y428232D01*
X1565037Y428539D01*
X1565188Y429300D01*
X1565037Y430061D01*
X1564606Y430706D01*
X1563961Y431137D01*
X1563200Y431288D01*
X1562439Y431137D01*
X1561794Y430706D01*
X1561363Y430061D01*
X1561212Y429300D01*
X1561363Y428539D01*
X1561569Y428232D01*
Y424223D01*
X1561693Y423599D01*
X1562047Y423069D01*
X1572670Y412446D01*
X1573199Y412093D01*
X1573823Y411969D01*
X1588224D01*
X1604391Y395802D01*
X1604455Y395478D01*
X1604462Y395438D01*
X1603635Y393978D01*
X1593052D01*
X1592466Y393861D01*
X1591970Y393530D01*
X1591638Y393034D01*
X1591522Y392448D01*
Y389444D01*
X1590022Y388823D01*
X1571602Y407242D01*
X1571271Y407463D01*
X1570881Y407541D01*
X1547285D01*
X1547027Y407927D01*
X1546382Y408358D01*
X1545621Y408510D01*
X1545150Y408416D01*
X1544126Y408961D01*
X1543649Y409353D01*
Y436700D01*
X1543459Y437159D01*
X1543000Y437349D01*
X1534900D01*
X1534441Y437159D01*
X1534251Y436700D01*
Y385109D01*
X1509031D01*
X1496819Y397321D01*
X1496488Y397542D01*
X1496098Y397620D01*
X1477851D01*
X1454427Y421043D01*
X1455049Y422543D01*
X1457623D01*
Y422143D01*
X1459501D01*
Y424600D01*
X1460001D01*
Y425100D01*
X1462379D01*
Y427057D01*
X1461320D01*
X1460004Y427500D01*
Y431776D01*
X1461504Y432397D01*
X1483668Y410233D01*
X1483668Y410233D01*
X1484032Y409990D01*
X1484461Y409904D01*
X1486963D01*
X1488143Y409132D01*
Y407254D01*
X1493057D01*
Y407910D01*
X1493689Y409138D01*
X1494551Y409146D01*
X1497452Y409146D01*
X1498952Y409146D01*
X1501586D01*
Y409394D01*
X1509226D01*
X1509850Y409518D01*
X1510379Y409872D01*
X1525121Y424613D01*
X1527898Y427391D01*
X1528261Y427463D01*
X1528906Y427894D01*
X1529337Y428539D01*
X1529488Y429300D01*
X1529337Y430061D01*
X1528906Y430706D01*
X1528261Y431137D01*
X1527500Y431288D01*
X1527347Y431258D01*
X1526037Y432086D01*
X1525846Y432344D01*
Y432580D01*
X1522087Y432580D01*
X1519867Y432580D01*
X1519833Y432586D01*
X1515379D01*
X1515346Y432580D01*
X1513500Y432580D01*
X1512000Y432580D01*
X1509366D01*
Y428821D01*
X1509614D01*
Y426604D01*
X1509702Y426160D01*
X1506064Y422522D01*
X1501186D01*
Y422770D01*
X1497427Y422770D01*
X1495659Y422770D01*
X1495173Y422866D01*
X1495057Y422843D01*
X1493557Y423681D01*
Y424662D01*
X1491100D01*
X1488643D01*
Y422784D01*
X1487463Y422012D01*
X1477324D01*
X1469218Y430118D01*
X1469790Y431512D01*
X1471003Y431372D01*
Y430921D01*
X1474762Y430921D01*
X1476262Y430921D01*
X1478896D01*
Y433975D01*
X1479217Y435342D01*
X1479217Y436047D01*
Y437298D01*
X1476839D01*
Y438298D01*
X1479217D01*
Y440143D01*
Y442100D01*
X1476839D01*
Y442600D01*
X1476339D01*
Y445057D01*
X1475874D01*
X1474459Y445133D01*
X1474406Y446534D01*
Y447013D01*
X1471950D01*
Y448013D01*
X1474406D01*
Y449891D01*
X1474006D01*
Y453067D01*
X1474663D01*
Y455524D01*
X1475663D01*
Y453067D01*
X1477541D01*
Y453467D01*
X1480846D01*
X1480983Y453300D01*
Y428800D01*
X1481049Y428468D01*
X1481237Y428187D01*
X1481518Y427999D01*
X1481850Y427933D01*
X1487306D01*
X1488643Y427540D01*
Y425662D01*
X1491100D01*
X1493557D01*
Y427540D01*
X1494894Y427933D01*
X1503750D01*
X1504081Y427999D01*
X1504362Y428187D01*
X1504550Y428468D01*
X1504616Y428800D01*
Y487544D01*
X1504550Y487876D01*
X1504362Y488157D01*
X1504081Y488345D01*
X1503750Y488411D01*
X1481850D01*
X1481518Y488345D01*
X1481237Y488157D01*
X1481049Y487876D01*
X1480983Y487544D01*
Y464705D01*
X1480851Y464544D01*
X1477541D01*
Y464944D01*
X1475663D01*
Y462487D01*
X1475163D01*
Y461987D01*
X1472785D01*
Y461050D01*
X1469650D01*
Y462736D01*
Y466911D01*
X1469703Y466922D01*
X1470034Y467143D01*
X1472171Y469279D01*
X1472392Y469610D01*
X1472440Y469854D01*
X1473572Y470743D01*
X1475450D01*
Y473200D01*
X1475950D01*
Y473700D01*
X1478327D01*
Y475657D01*
X1478327D01*
Y476243D01*
X1478327D01*
Y478200D01*
X1475950D01*
Y478700D01*
X1475450D01*
Y481157D01*
X1474663D01*
X1474553Y481215D01*
X1473537Y482600D01*
X1473386Y483361D01*
X1472955Y484006D01*
X1472310Y484437D01*
X1471549Y484588D01*
X1470788Y484437D01*
X1470143Y484006D01*
X1469712Y483361D01*
X1469623Y482911D01*
X1465348Y478636D01*
X1465240Y478635D01*
X1464415Y478931D01*
X1463914Y479324D01*
Y483257D01*
X1460141D01*
Y483657D01*
X1459052D01*
X1458304Y485157D01*
X1458789Y485800D01*
X1464121D01*
X1464213Y485339D01*
X1464644Y484694D01*
X1465289Y484263D01*
X1466050Y484112D01*
X1466810Y484263D01*
X1467455Y484694D01*
X1467886Y485339D01*
X1468038Y486100D01*
X1467886Y486861D01*
X1467455Y487506D01*
X1466810Y487937D01*
X1466050Y488088D01*
X1465289Y487937D01*
X1464837Y487635D01*
X1458132D01*
X1457561Y488617D01*
X1457476Y489100D01*
X1457570Y489195D01*
X1457792Y489526D01*
X1457869Y489916D01*
Y492442D01*
X1458145Y492556D01*
X1458681Y492968D01*
X1459093Y493505D01*
X1459352Y494130D01*
X1459440Y494800D01*
X1459352Y495471D01*
X1459093Y496095D01*
X1458681Y496632D01*
X1458145Y497044D01*
X1457520Y497302D01*
X1456850Y497391D01*
X1456179Y497302D01*
X1455554Y497044D01*
X1455300Y496848D01*
X1454953Y496632D01*
X1453746D01*
X1453399Y496848D01*
X1453145Y497044D01*
X1452520Y497302D01*
X1451850Y497391D01*
X1451179Y497302D01*
X1450554Y497044D01*
X1450018Y496632D01*
X1449606Y496095D01*
X1449492Y495820D01*
X1444650D01*
X1444259Y495742D01*
X1443929Y495521D01*
X1440529Y492121D01*
X1440308Y491790D01*
X1440230Y491400D01*
Y487823D01*
X1440308Y487433D01*
X1440529Y487102D01*
X1441793Y485838D01*
Y483521D01*
X1442653D01*
Y482112D01*
X1441153Y481491D01*
X1433622Y489021D01*
X1433292Y489242D01*
X1432902Y489320D01*
X1305600D01*
X1305600Y510622D01*
X1501951D01*
X1502126Y510517D01*
X1503066Y509122D01*
X1503061Y509100D01*
X1503213Y508339D01*
X1503644Y507694D01*
X1504078Y507404D01*
X1511911Y499571D01*
Y462754D01*
X1512055Y462032D01*
X1512270Y461709D01*
X1511902Y460728D01*
X1511514Y460249D01*
X1508061D01*
Y456476D01*
X1507661D01*
Y454598D01*
X1512575D01*
Y455359D01*
X1513857Y455884D01*
Y455884D01*
X1522735D01*
Y456369D01*
X1524713D01*
X1527632Y453450D01*
X1527994Y452908D01*
X1528639Y452477D01*
X1529400Y452326D01*
X1530161Y452477D01*
X1530806Y452908D01*
X1531237Y453553D01*
X1531388Y454314D01*
X1531237Y455075D01*
X1530806Y455720D01*
X1530479Y455938D01*
X1526828Y459589D01*
X1526216Y459998D01*
X1525494Y460141D01*
X1522735D01*
Y460627D01*
X1518592D01*
X1515683Y463535D01*
Y465807D01*
X1517157Y466627D01*
X1517917Y466475D01*
X1518678Y466627D01*
X1519323Y467058D01*
X1519343Y467087D01*
X1521041D01*
Y463658D01*
X1521146Y463132D01*
X1521444Y462685D01*
X1521891Y462387D01*
X1522417Y462282D01*
X1525417D01*
X1525944Y462387D01*
X1526391Y462685D01*
X1526689Y463132D01*
X1526794Y463658D01*
Y467087D01*
X1536843D01*
X1537370Y467192D01*
X1537817Y467490D01*
X1540230Y469904D01*
X1542043D01*
Y470720D01*
X1542486Y471017D01*
X1543986Y470216D01*
Y469504D01*
X1546454D01*
Y471882D01*
X1546954D01*
Y472382D01*
X1549923D01*
Y474260D01*
X1549923Y474260D01*
X1549838Y475525D01*
X1549686Y476286D01*
X1549481Y476593D01*
Y478172D01*
X1549523D01*
Y482128D01*
X1545961D01*
Y478172D01*
X1546218D01*
Y476593D01*
X1546013Y476286D01*
X1545861Y475525D01*
X1545322Y474946D01*
X1544528Y475061D01*
X1544391Y475215D01*
X1543635Y476652D01*
X1543664Y476800D01*
X1543540Y477424D01*
X1543187Y477953D01*
X1542657Y478307D01*
X1542615Y478316D01*
X1542360Y479896D01*
X1543091Y480627D01*
X1543091Y480627D01*
X1543389Y481073D01*
X1543494Y481600D01*
Y482280D01*
X1543624Y482476D01*
X1543749Y483100D01*
X1543624Y483724D01*
X1543271Y484254D01*
X1542742Y484607D01*
X1542117Y484731D01*
X1541493Y484607D01*
X1540964Y484254D01*
X1540714Y483880D01*
X1540078Y483834D01*
X1539146Y484027D01*
X1538751Y484618D01*
X1538139Y485027D01*
X1537417Y485171D01*
X1536695Y485027D01*
X1536084Y484618D01*
X1529552Y478086D01*
X1518430D01*
X1517917Y478188D01*
X1517157Y478037D01*
X1515683Y478857D01*
Y500352D01*
X1515540Y501074D01*
X1515131Y501686D01*
X1507695Y509122D01*
X1508316Y510622D01*
X1520472D01*
Y491511D01*
X1520152Y491297D01*
X1519895Y491040D01*
X1519564Y490544D01*
X1519425Y490209D01*
X1519308Y489624D01*
Y489261D01*
X1519425Y488676D01*
X1519564Y488341D01*
X1519895Y487845D01*
X1520152Y487588D01*
X1520648Y487257D01*
X1520983Y487118D01*
X1521203Y487074D01*
X1521418Y487009D01*
X1521600Y486991D01*
X1521675Y486998D01*
X1521750Y486984D01*
X1558364D01*
X1558438Y486998D01*
X1558514Y486991D01*
X1558695Y487009D01*
X1558910Y487074D01*
X1559130Y487118D01*
X1559465Y487257D01*
X1559962Y487588D01*
X1560218Y487845D01*
X1560550Y488341D01*
X1560688Y488676D01*
X1560732Y488896D01*
X1560797Y489111D01*
X1560815Y489292D01*
X1560800Y489442D01*
X1560815Y489593D01*
X1560797Y489774D01*
X1560732Y489989D01*
X1560688Y490209D01*
X1560550Y490544D01*
X1560218Y491040D01*
X1559962Y491297D01*
X1559642Y491511D01*
Y510622D01*
X1567391D01*
Y424299D01*
D02*
G37*
G36*
X1427498Y479953D02*
X1428095Y478700D01*
Y474794D01*
X1426595Y474080D01*
X1426510Y474137D01*
X1425749Y474288D01*
X1424989Y474137D01*
X1424344Y473706D01*
X1423913Y473061D01*
X1423761Y472300D01*
X1423913Y471539D01*
X1424344Y470894D01*
X1424180Y469597D01*
X1423648Y469054D01*
X1421663D01*
X1418299Y472419D01*
X1417968Y472640D01*
X1417578Y472717D01*
X1417006D01*
Y473676D01*
X1412893D01*
X1411936Y474779D01*
Y475487D01*
X1412038Y476000D01*
X1411886Y476761D01*
X1411455Y477406D01*
X1410810Y477837D01*
X1410050Y477988D01*
X1409289Y477837D01*
X1408644Y477406D01*
X1408213Y476761D01*
X1408061Y476000D01*
X1408163Y475487D01*
Y473665D01*
X1407793D01*
Y469891D01*
X1407393D01*
Y468013D01*
X1409849D01*
Y467513D01*
X1410349D01*
Y465135D01*
X1410997D01*
X1412306Y465135D01*
Y465135D01*
X1412493Y465146D01*
Y465146D01*
X1414450D01*
Y467524D01*
X1415450D01*
Y465146D01*
X1416898D01*
X1418050Y464305D01*
X1418449Y462970D01*
Y458983D01*
X1405808D01*
X1385896Y478895D01*
X1386470Y480280D01*
X1427279D01*
X1427498Y479953D01*
D02*
G37*
G36*
X1457345Y472376D02*
X1458435D01*
Y472776D01*
X1460004D01*
Y472776D01*
X1461355Y472415D01*
Y460791D01*
X1434398Y433835D01*
X1434345Y433755D01*
X1432845Y433824D01*
X1432153Y435038D01*
X1432082Y435210D01*
X1456894Y460022D01*
X1457450Y459912D01*
X1458210Y460063D01*
X1458855Y460494D01*
X1459286Y461139D01*
X1459438Y461900D01*
X1459286Y462661D01*
X1458855Y463306D01*
X1458210Y463737D01*
X1457450Y463888D01*
X1456689Y463737D01*
X1456044Y463306D01*
X1455613Y462661D01*
X1455427Y462564D01*
X1453927Y463470D01*
Y471958D01*
X1455254Y472376D01*
Y472376D01*
X1456345D01*
Y475738D01*
X1457345D01*
Y472376D01*
D02*
G37*
G36*
X1404550Y437557D02*
X1404881Y437336D01*
X1405272Y437258D01*
X1418449D01*
Y437146D01*
X1421254D01*
X1421828Y435760D01*
X1418441Y432373D01*
X1350918D01*
X1335071Y448221D01*
X1334740Y448442D01*
X1334350Y448520D01*
X1327349D01*
X1326959Y448442D01*
X1326628Y448221D01*
X1322628Y444221D01*
X1322408Y443890D01*
X1322330Y443500D01*
Y434164D01*
X1321944Y433906D01*
X1321513Y433261D01*
X1321361Y432500D01*
X1321513Y431739D01*
X1321944Y431094D01*
X1322589Y430663D01*
X1323349Y430512D01*
X1324110Y430663D01*
X1324755Y431094D01*
X1325186Y431739D01*
X1325338Y432500D01*
X1325186Y433261D01*
X1324755Y433906D01*
X1324369Y434164D01*
Y443078D01*
X1325406Y444115D01*
X1327007Y443594D01*
X1327013Y443565D01*
X1327444Y442920D01*
X1328089Y442489D01*
X1328850Y442337D01*
X1328972Y442362D01*
X1341775Y429559D01*
X1341201Y428173D01*
X1307404D01*
X1307386Y428261D01*
X1306955Y428906D01*
X1306310Y429337D01*
X1305600Y429478D01*
X1305600Y464880D01*
X1377227D01*
X1404550Y437557D01*
D02*
G37*
G36*
X1436140Y415533D02*
X1420827Y400220D01*
X1305600D01*
Y406518D01*
X1306032Y407224D01*
X1306810Y409100D01*
X1307284Y411075D01*
X1307443Y413100D01*
X1307284Y415125D01*
X1306810Y417100D01*
X1306032Y418976D01*
X1305600Y419682D01*
X1305600Y425522D01*
X1306310Y425663D01*
X1306955Y426094D01*
X1306982Y426134D01*
X1414257D01*
X1415393Y425257D01*
Y421498D01*
X1415393D01*
Y421123D01*
X1415393D01*
Y417364D01*
X1419152D01*
Y417612D01*
X1421377D01*
Y416935D01*
X1425490D01*
Y420709D01*
X1425891D01*
Y422587D01*
X1423434D01*
Y423587D01*
X1425891D01*
Y423919D01*
X1427390Y424850D01*
X1427493Y424800D01*
Y424600D01*
X1429950D01*
Y423600D01*
X1427493D01*
Y421722D01*
X1427893D01*
Y417949D01*
X1432006D01*
Y418933D01*
X1432267Y418985D01*
X1432597Y419206D01*
X1433906Y420514D01*
X1434127Y420845D01*
X1434205Y421236D01*
Y427500D01*
X1436140D01*
Y415533D01*
D02*
G37*
G36*
X1543000Y385109D02*
X1534900D01*
Y436700D01*
X1543000D01*
Y385109D01*
D02*
G37*
%LPC*%
G36*
X1430750Y497391D02*
X1430079Y497302D01*
X1429454Y497044D01*
X1429200Y496848D01*
X1428853Y496632D01*
X1427646D01*
X1427299Y496848D01*
X1427045Y497044D01*
X1426420Y497302D01*
X1425749Y497391D01*
X1425079Y497302D01*
X1424454Y497044D01*
X1424200Y496848D01*
X1423853Y496632D01*
X1422646D01*
X1422299Y496848D01*
X1422045Y497044D01*
X1421420Y497302D01*
X1420749Y497391D01*
X1420079Y497302D01*
X1419454Y497044D01*
X1418918Y496632D01*
X1418506Y496095D01*
X1418247Y495471D01*
X1418159Y494800D01*
X1418247Y494130D01*
X1418506Y493505D01*
X1418918Y492968D01*
X1419454Y492556D01*
X1420079Y492298D01*
X1420749Y492209D01*
X1421420Y492298D01*
X1422045Y492556D01*
X1422299Y492752D01*
X1422646Y492968D01*
X1423853D01*
X1424200Y492752D01*
X1424454Y492556D01*
X1425079Y492298D01*
X1425749Y492209D01*
X1426420Y492298D01*
X1427045Y492556D01*
X1427299Y492752D01*
X1427646Y492968D01*
X1428853D01*
X1429200Y492752D01*
X1429454Y492556D01*
X1430079Y492298D01*
X1430750Y492209D01*
X1431420Y492298D01*
X1432045Y492556D01*
X1432581Y492968D01*
X1432993Y493505D01*
X1433252Y494130D01*
X1433340Y494800D01*
X1433252Y495471D01*
X1432993Y496095D01*
X1432581Y496632D01*
X1432045Y497044D01*
X1431420Y497302D01*
X1430750Y497391D01*
D02*
G37*
G36*
X1410750D02*
X1410079Y497302D01*
X1409454Y497044D01*
X1408918Y496632D01*
X1408506Y496095D01*
X1408247Y495471D01*
X1408159Y494800D01*
X1408247Y494130D01*
X1408506Y493505D01*
X1408918Y492968D01*
X1409454Y492556D01*
X1410079Y492298D01*
X1410750Y492209D01*
X1411420Y492298D01*
X1412045Y492556D01*
X1412581Y492968D01*
X1412993Y493505D01*
X1413252Y494130D01*
X1413340Y494800D01*
X1413252Y495471D01*
X1412993Y496095D01*
X1412581Y496632D01*
X1412045Y497044D01*
X1411420Y497302D01*
X1410750Y497391D01*
D02*
G37*
G36*
X1478327Y481157D02*
X1476450D01*
Y479200D01*
X1478327D01*
Y481157D01*
D02*
G37*
G36*
Y472700D02*
X1476450D01*
Y470743D01*
X1478327D01*
Y472700D01*
D02*
G37*
G36*
X1549923Y471382D02*
X1547454D01*
Y469504D01*
X1549923D01*
Y471382D01*
D02*
G37*
G36*
X1474663Y464944D02*
X1472785D01*
Y462987D01*
X1474663D01*
Y464944D01*
D02*
G37*
G36*
X1509618Y453598D02*
X1507661D01*
Y451720D01*
X1509618D01*
Y453598D01*
D02*
G37*
G36*
X1545379Y456499D02*
X1541040D01*
Y449700D01*
X1545379D01*
Y456499D01*
D02*
G37*
G36*
X1540040D02*
X1535701D01*
Y449700D01*
X1540040D01*
Y456499D01*
D02*
G37*
G36*
X1479217Y445057D02*
X1477339D01*
Y443100D01*
X1479217D01*
Y445057D01*
D02*
G37*
G36*
X1545379Y448700D02*
X1541040D01*
Y441901D01*
X1545379D01*
Y448700D01*
D02*
G37*
G36*
X1540040D02*
X1535701D01*
Y441901D01*
X1540040D01*
Y448700D01*
D02*
G37*
G36*
X1509618Y440613D02*
X1507661D01*
Y438735D01*
X1509618D01*
Y440613D01*
D02*
G37*
G36*
X1523135Y439645D02*
X1518796D01*
Y437373D01*
X1523135D01*
Y439645D01*
D02*
G37*
G36*
X1512575Y453598D02*
X1510618D01*
Y451720D01*
X1511242D01*
X1511823Y451720D01*
X1512017Y451457D01*
X1512384Y450220D01*
X1509429Y447265D01*
X1508061D01*
Y443491D01*
X1507661D01*
Y441613D01*
X1510118D01*
Y441113D01*
X1510618D01*
Y438735D01*
X1512575D01*
X1513457Y437601D01*
Y437373D01*
X1517796D01*
Y440145D01*
X1518296D01*
Y440645D01*
X1523135D01*
Y442916D01*
X1521258D01*
X1520959Y443189D01*
X1520232Y444417D01*
X1520288Y444700D01*
X1520186Y445213D01*
Y446828D01*
X1522735D01*
Y451572D01*
X1514013D01*
X1513805Y451593D01*
X1512661Y452061D01*
X1512575Y452210D01*
X1512575Y452885D01*
X1512575Y452885D01*
X1512575Y452908D01*
Y453598D01*
D02*
G37*
G36*
X1462379Y424100D02*
X1460501D01*
Y422143D01*
X1462379D01*
Y424100D01*
D02*
G37*
G36*
X1493057Y406254D02*
X1491100D01*
Y404376D01*
X1493057D01*
Y406254D01*
D02*
G37*
G36*
X1490100D02*
X1488143D01*
Y404376D01*
X1490100D01*
Y406254D01*
D02*
G37*
G36*
X1579323Y410088D02*
X1578562Y409937D01*
X1577917Y409506D01*
X1577486Y408861D01*
X1577335Y408100D01*
X1577486Y407339D01*
X1577917Y406694D01*
X1578562Y406263D01*
X1578925Y406191D01*
X1588543Y396573D01*
X1588615Y396210D01*
X1589046Y395565D01*
X1589691Y395134D01*
X1590452Y394983D01*
X1591213Y395134D01*
X1591858Y395565D01*
X1592289Y396210D01*
X1592440Y396971D01*
X1592289Y397732D01*
X1591858Y398377D01*
X1591213Y398808D01*
X1590850Y398880D01*
X1581232Y408498D01*
X1581160Y408861D01*
X1580729Y409506D01*
X1580084Y409937D01*
X1579323Y410088D01*
D02*
G37*
G36*
X1409350Y467013D02*
X1407393D01*
Y465135D01*
X1409350D01*
Y467013D01*
D02*
G37*
%LPD*%
D12*
X1462476Y474179D02*
X1470898Y482600D01*
X1471549D01*
X1431300Y461900D02*
X1435325Y465925D01*
X1421374Y461900D02*
X1431300D01*
X1484461Y411026D02*
X1495573D01*
X1460550Y434937D02*
X1484461Y411026D01*
X1476859Y420890D02*
X1495173D01*
X1421374Y463869D02*
X1421412D01*
X1462476Y460327D02*
Y474179D01*
X1460550Y440000D02*
X1462823Y442273D01*
X1460550Y434937D02*
Y440000D01*
X1462150Y438977D02*
X1463477Y440305D01*
X1462150Y435600D02*
Y438977D01*
X1471650Y446885D02*
Y447913D01*
X1441097Y471430D02*
X1442688Y469839D01*
X1435191Y433042D02*
X1462476Y460327D01*
X1435191Y430462D02*
Y433042D01*
X1441097Y471430D02*
Y475738D01*
X1436650Y470300D02*
X1437950Y469000D01*
Y463500D02*
Y469000D01*
X1434439Y459990D02*
X1437950Y463500D01*
X1431254Y433704D02*
X1444150Y446599D01*
X1431254Y430462D02*
Y433704D01*
X1442650Y469800D02*
X1442688Y469839D01*
X1435050Y470300D02*
X1436650D01*
X1470975Y446210D02*
X1471650Y446885D01*
X1466687Y446210D02*
X1470975D01*
X1414950Y467524D02*
X1416579Y465895D01*
X1421412D01*
Y459990D02*
X1434439D01*
X1429949Y424100D02*
X1431254Y425405D01*
Y430462D01*
X1462150Y435600D02*
X1476859Y420890D01*
X1421412Y463927D02*
X1426039D01*
X1427350Y465237D01*
Y467841D02*
X1427450Y467941D01*
X1427350Y465237D02*
Y467841D01*
X1463477Y440305D02*
X1466687D01*
X1462823Y442273D02*
X1466687D01*
D14*
X1454876Y475738D02*
Y477995D01*
X1455453Y478571D01*
Y484435D01*
X1457736Y486718D02*
X1465432D01*
X1466050Y486100D01*
X1455453Y484435D02*
X1457736Y486718D01*
D17*
X1417273Y419243D02*
D03*
Y423377D02*
D03*
X1443672Y489534D02*
D03*
Y485400D02*
D03*
X1452334Y489534D02*
D03*
Y485400D02*
D03*
D23*
X1515379Y430700D02*
D03*
X1511246D02*
D03*
X1519833Y430700D02*
D03*
X1523967D02*
D03*
X1495173Y420890D02*
D03*
X1499307D02*
D03*
X1495573Y411026D02*
D03*
X1499707D02*
D03*
X1472883Y432800D02*
D03*
X1477017D02*
D03*
D26*
X1475163Y462487D02*
D03*
X1479336D02*
D03*
X1475163Y455524D02*
D03*
X1479336D02*
D03*
X1472666Y442600D02*
D03*
X1476839D02*
D03*
X1472666Y437798D02*
D03*
X1476839D02*
D03*
X1471776Y473200D02*
D03*
X1475949D02*
D03*
X1471776Y478700D02*
D03*
X1475949D02*
D03*
X1455827Y424600D02*
D03*
X1460001D02*
D03*
X1461936Y481200D02*
D03*
X1457763D02*
D03*
D55*
X1563200Y424223D02*
X1573823Y413600D01*
X1563200Y424223D02*
Y429300D01*
X1523967Y425767D02*
X1527500Y429300D01*
X1523967Y425767D02*
Y430700D01*
X1509226Y411026D02*
X1523967Y425767D01*
X1511246Y426604D02*
Y430700D01*
Y426604D02*
X1511850Y426000D01*
X1499707Y411026D02*
X1509226D01*
X1506740Y420890D02*
X1511850Y426000D01*
X1588900Y413600D02*
X1606300Y396200D01*
X1573823Y413600D02*
X1588900D01*
X1579323Y408100D02*
X1590452Y396971D01*
X1547850Y475525D02*
Y480042D01*
X1547742Y480150D02*
X1547850Y480042D01*
X1499307Y420890D02*
X1506740D01*
X1423028Y419243D02*
X1423104D01*
X1417273D02*
X1423028D01*
X1423104D02*
X1423434Y418913D01*
X1495173Y421235D02*
X1495353Y421055D01*
X1476839Y442600D02*
X1477017Y442423D01*
X1475949Y475700D02*
Y478700D01*
Y473200D02*
Y475700D01*
X1475963Y475687D01*
D56*
X1519833Y427796D02*
Y430700D01*
X1519500Y427463D02*
X1519833Y427796D01*
X1519833Y430700D02*
X1519833Y430700D01*
X1515379Y430700D02*
X1519833D01*
X1529400Y454314D02*
X1529418Y454332D01*
X1525494Y458255D02*
X1529418Y454332D01*
X1518296Y449200D02*
X1518300Y449196D01*
Y444700D02*
Y449196D01*
X1338643Y387100D02*
X1351300D01*
X1338543Y387000D02*
X1338643Y387100D01*
X1328943Y396600D02*
X1338543Y387000D01*
X1505050Y509100D02*
X1513797Y500352D01*
Y462754D02*
Y500352D01*
Y462754D02*
X1518280Y458271D01*
X1461936Y478050D02*
Y481200D01*
Y478050D02*
X1461950Y478037D01*
X1447950Y481100D02*
Y489280D01*
X1448204Y489534D01*
X1518151Y440000D02*
X1518296Y440145D01*
X1514013Y440000D02*
X1518151D01*
X1512900Y441113D02*
X1514013Y440000D01*
X1510118Y441113D02*
X1512900D01*
X1443672Y489534D02*
X1448204D01*
X1452334D01*
X1467650Y473100D02*
X1467750Y473200D01*
X1471776D01*
X1514031Y449200D02*
X1518296D01*
X1510118Y445287D02*
X1514031Y449200D01*
X1518296Y458255D02*
X1525494D01*
X1518280Y458271D02*
X1518296Y458255D01*
X1510118Y458271D02*
X1518280D01*
X1410050Y471887D02*
Y476000D01*
X1409849Y471687D02*
X1410050Y471887D01*
X1479336Y455524D02*
X1490450D01*
X1491650Y454324D01*
Y442479D02*
Y454324D01*
Y463687D02*
Y475532D01*
X1490450Y462487D02*
X1491650Y463687D01*
X1479336Y462487D02*
X1490450D01*
X1472666Y437798D02*
Y442600D01*
X1530333Y476200D02*
X1537417Y483284D01*
X1517917Y476200D02*
X1530333D01*
X1471776Y473200D02*
Y478700D01*
X1414939Y471687D02*
X1414950Y471698D01*
X1409849Y471687D02*
X1414939D01*
D57*
X1457962Y461300D02*
X1458150Y461488D01*
X1456729Y461300D02*
X1457962D01*
X1421374Y467805D02*
X1421422Y467853D01*
X1454963Y424600D02*
Y430376D01*
X1457450Y461900D02*
X1457738D01*
X1458150Y461488D01*
X1452908Y459458D02*
Y475738D01*
X1420603Y427153D02*
X1452908Y459458D01*
X1372730Y395150D02*
X1404200Y363680D01*
X1360999Y395150D02*
X1372730D01*
X1373400Y392500D02*
X1402800Y363100D01*
X1357950Y392500D02*
X1373400D01*
X1356900Y356000D02*
Y389750D01*
X1354150Y392500D02*
X1356900Y389750D01*
X1441097Y421053D02*
X1473950Y388200D01*
X1443065Y421064D02*
X1474529Y389600D01*
X1445034Y421075D02*
X1475109Y391000D01*
X1447002Y421087D02*
X1475689Y392400D01*
X1448971Y421098D02*
X1476269Y393800D01*
X1450939Y421110D02*
X1476849Y395200D01*
X1492619Y388200D02*
X1499284Y381536D01*
X1473950Y388200D02*
X1492619D01*
X1493199Y389600D02*
X1500683Y382115D01*
X1474529Y389600D02*
X1493199D01*
X1493779Y391000D02*
X1502083Y382695D01*
X1475109Y391000D02*
X1493779D01*
X1494359Y392400D02*
X1503483Y383275D01*
X1475689Y392400D02*
X1494359D01*
X1494938Y393800D02*
X1504883Y383855D01*
X1476269Y393800D02*
X1494938D01*
X1495518Y395200D02*
X1506283Y384435D01*
X1476849Y395200D02*
X1495518D01*
X1496098Y396600D02*
X1508609Y384090D01*
X1477429Y396600D02*
X1496098D01*
X1452908Y421121D02*
X1477429Y396600D01*
X1499284Y325126D02*
Y381536D01*
X1500683Y382097D02*
Y382115D01*
X1502083Y382677D02*
Y382695D01*
X1503483Y383257D02*
Y383275D01*
X1504883Y383837D02*
Y383855D01*
X1506283Y384417D02*
Y384435D01*
X1500683Y382097D02*
X1513736Y369044D01*
X1502083Y382677D02*
X1509560Y375200D01*
X1503483Y383257D02*
X1510140Y376600D01*
X1504883Y383837D02*
X1510720Y378000D01*
X1506283Y384417D02*
X1511300Y379400D01*
X1513736Y366200D02*
Y369044D01*
X1510720Y378000D02*
X1538360D01*
X1510140Y376600D02*
X1537780D01*
X1509560Y375200D02*
X1537200D01*
X1511300Y379400D02*
X1538940D01*
X1508609Y384090D02*
X1573410D01*
X1424600Y400050D02*
X1439128Y414579D01*
X1424600Y325443D02*
Y400050D01*
X1421249Y399200D02*
X1437160Y415110D01*
X1290100Y399200D02*
X1421249D01*
X1432902Y488300D02*
X1443065Y478136D01*
X103200Y488300D02*
X1432902D01*
X178832Y486900D02*
X1431370D01*
X1439128Y479141D01*
X252300Y485500D02*
X1430790D01*
X1437160Y479130D01*
X1430210Y484100D02*
X1435191Y479119D01*
X327600Y484100D02*
X1430210D01*
X1429630Y482700D02*
X1433223Y479107D01*
X399800Y482700D02*
X1429630D01*
X475500Y481300D02*
X1429050D01*
X1431254Y479096D01*
X1383448Y479900D02*
X1405385Y457963D01*
X548200Y479900D02*
X1383448D01*
X1382868Y478500D02*
X1405374Y455995D01*
X619800Y478500D02*
X1382868D01*
X695300Y477100D02*
X1382289D01*
X1405363Y454026D01*
X770600Y475700D02*
X1381709D01*
X1405351Y452058D01*
X845200Y474300D02*
X1381129D01*
X1405340Y450089D01*
X1380549Y472900D02*
X1405328Y448120D01*
X917000Y472900D02*
X1380549D01*
X994200Y471500D02*
X1379969D01*
X1405317Y446152D01*
X1068800Y470100D02*
X1379389D01*
X1405306Y444183D01*
X1378809Y468700D02*
X1405294Y442215D01*
X1144700Y468700D02*
X1378809D01*
X1378229Y467300D02*
X1405283Y440246D01*
X1222900Y467300D02*
X1378229D01*
X1253200Y465900D02*
X1377649D01*
X1405272Y438278D01*
X1139902Y408598D02*
X1147500Y401000D01*
X77500Y344440D02*
X117200Y304740D01*
X118600Y258200D02*
X122836Y253964D01*
X78900Y346800D02*
X118600Y307100D01*
X217138Y91498D02*
X257900D01*
X172252Y329200D02*
X193100Y308352D01*
X172802Y332895D02*
Y334300D01*
X268500Y85100D02*
X271300Y87900D01*
X228552Y183800D02*
X250400Y161952D01*
X1411800Y109300D02*
X1414600Y106500D01*
X1509650Y4150D02*
X1589000Y83500D01*
X1179500Y265035D02*
Y283600D01*
X1177800Y322100D02*
Y359440D01*
X1157340Y379900D02*
X1177800Y359440D01*
X1164900Y298200D02*
X1179500Y283600D01*
X1164900Y309200D02*
X1177800Y322100D01*
X1135289Y408598D02*
X1139902D01*
X1109100Y404698D02*
X1113000Y408598D01*
X1109100Y395077D02*
Y404698D01*
X1164900Y298200D02*
Y309200D01*
X1124277Y379900D02*
X1157340D01*
X1109100Y395077D02*
X1124277Y379900D01*
X1178500Y264035D02*
X1179500Y265035D01*
X1177935Y264600D02*
X1178500Y264035D01*
X1178300Y175400D02*
Y210100D01*
X1165000Y162100D02*
X1178300Y175400D01*
X1157200Y231200D02*
X1178300Y210100D01*
X1178700Y114300D02*
Y134800D01*
X1165000Y148500D02*
X1178700Y134800D01*
X1165520Y264600D02*
X1177935D01*
X1157200Y256280D02*
X1165520Y264600D01*
X1157200Y231200D02*
Y256280D01*
X1165000Y148500D02*
Y162100D01*
X2300Y379698D02*
X22100Y399498D01*
X2300Y344200D02*
X22002Y324498D01*
X2300Y344200D02*
Y379698D01*
X22100Y268550D02*
X40850Y249800D01*
Y234197D02*
Y249800D01*
X22002Y324498D02*
X22100D01*
Y268550D02*
Y324498D01*
X50414Y118186D02*
X68051Y100549D01*
X69014Y91974D02*
Y99498D01*
X65140Y88100D02*
X69014Y91974D01*
X31513Y24498D02*
X69288D01*
X50225Y174498D02*
X50414Y174309D01*
X30113Y194610D02*
Y223460D01*
X50414Y118186D02*
Y174309D01*
X30113Y194610D02*
X50225Y174498D01*
X30113Y223460D02*
X40850Y234197D01*
X24520Y88100D02*
X65140D01*
X13500Y77080D02*
X24520Y88100D01*
X13500Y42510D02*
X31513Y24498D01*
X13500Y42510D02*
Y77080D01*
X1157920Y381300D02*
X1179200Y360020D01*
X1181000Y260200D02*
Y284080D01*
X1179200Y321520D02*
Y360020D01*
X1179700Y258900D02*
X1181000Y260200D01*
X1166300Y298780D02*
X1181000Y284080D01*
X1166300Y308620D02*
X1179200Y321520D01*
X1110500Y402700D02*
X1113000Y405200D01*
X1124900Y381300D02*
X1157920D01*
X1110500Y395700D02*
Y402700D01*
X1166300Y298780D02*
Y308620D01*
X1110500Y395700D02*
X1124900Y381300D01*
X1179700Y174820D02*
Y210680D01*
X1181500Y110700D02*
Y133980D01*
X1166400Y161520D02*
X1179700Y174820D01*
X1161800Y258900D02*
X1179700D01*
X1166400Y149080D02*
X1181500Y133980D01*
X1179700Y108900D02*
X1181500Y110700D01*
X1158600Y255700D02*
X1161800Y258900D01*
X1158600Y231780D02*
X1179700Y210680D01*
X1158600Y231780D02*
Y255700D01*
X1166400Y149080D02*
Y161520D01*
X24450Y270448D02*
X40850Y254048D01*
X43725Y251173D01*
X22100Y404048D02*
X24600Y401548D01*
Y397500D02*
Y401548D01*
X3700Y376600D02*
X24600Y397500D01*
X22100Y327821D02*
X24450Y325471D01*
X22100Y327821D02*
Y329048D01*
X24450Y270448D02*
Y325471D01*
X3700Y347448D02*
X22100Y329048D01*
X3700Y347448D02*
Y376600D01*
X72000Y92980D02*
Y101061D01*
X69014Y104048D02*
X72000Y101061D01*
X52700Y120361D02*
X69014Y104048D01*
X65720Y86700D02*
X72000Y92980D01*
X31513Y29048D02*
X69288D01*
X25100Y86700D02*
X65720D01*
X43725Y235092D02*
Y251173D01*
X50225Y179048D02*
X52700Y176573D01*
X31513Y222880D02*
X43725Y235092D01*
X31513Y197760D02*
Y222880D01*
Y197760D02*
X50225Y179048D01*
X52700Y120361D02*
Y176573D01*
X14900Y76500D02*
X25100Y86700D01*
X14900Y45660D02*
Y76500D01*
Y45660D02*
X31513Y29048D01*
X1180600Y320940D02*
Y361480D01*
X1159380Y382700D02*
X1180600Y361480D01*
X1167700Y308040D02*
X1180600Y320940D01*
X1167700Y299360D02*
Y308040D01*
X1125480Y382700D02*
X1159380D01*
X1134200Y412600D02*
X1143098D01*
X1131800Y410200D02*
X1134200Y412600D01*
X1143098D02*
X1147100Y408598D01*
X1131800Y405189D02*
X1135289Y401700D01*
X1131800Y405189D02*
Y410200D01*
X1112790Y401490D02*
X1113000Y401700D01*
X1112790Y395390D02*
Y401490D01*
Y395390D02*
X1125480Y382700D01*
X1179900Y253800D02*
X1182500Y256400D01*
Y284560D01*
X1181100Y174240D02*
Y211260D01*
X1167700Y299360D02*
X1182500Y284560D01*
X1160000Y232360D02*
X1181100Y211260D01*
X1167800Y160940D02*
X1181100Y174240D01*
X1183200Y107500D02*
Y134260D01*
X1167800Y149660D02*
X1183200Y134260D01*
X1179500Y103800D02*
X1183200Y107500D01*
X1162400Y253800D02*
X1179900D01*
X1160000Y251400D02*
X1162400Y253800D01*
X1167800Y149660D02*
Y160940D01*
X1162400Y103800D02*
X1179500D01*
X1160000Y232360D02*
Y251400D01*
X5100Y374100D02*
X26100Y395100D01*
X40850Y258598D02*
X46600Y252848D01*
Y235987D02*
Y252848D01*
X26000Y273448D02*
X40850Y258598D01*
X26100Y395100D02*
Y404598D01*
X22100Y408598D02*
X26100Y404598D01*
X22100Y333598D02*
X26000Y329698D01*
Y273448D02*
Y329698D01*
X5100Y350598D02*
X22100Y333598D01*
X5100Y350598D02*
Y374100D01*
X74300Y93300D02*
Y103311D01*
X69014Y108598D02*
X74300Y103311D01*
X54100Y123511D02*
X69014Y108598D01*
X66200Y85200D02*
X74300Y93300D01*
X25800Y85200D02*
X66200D01*
X31513Y33598D02*
X69288D01*
X54100Y123511D02*
Y179723D01*
X50225Y183598D02*
X54100Y179723D01*
X32913Y222300D02*
X46600Y235987D01*
X32913Y200910D02*
Y222300D01*
Y200910D02*
X50225Y183598D01*
X16300Y75700D02*
X25800Y85200D01*
X16300Y48810D02*
Y75700D01*
Y48810D02*
X31513Y33598D01*
X1255600Y266800D02*
Y282000D01*
X1253400Y264600D02*
X1255600Y266800D01*
X1242400Y295200D02*
X1255600Y282000D01*
X1225800Y387400D02*
X1253300Y359900D01*
X1240520Y264600D02*
X1253400D01*
X1253300Y319200D02*
Y359900D01*
X1242400Y308300D02*
X1253300Y319200D01*
X1242400Y295200D02*
Y308300D01*
X1225800Y387400D02*
Y395798D01*
X1222100Y399498D02*
X1225800Y395798D01*
X1253000Y175100D02*
Y210600D01*
X1240000Y148400D02*
Y162100D01*
X1232200Y256280D02*
X1240520Y264600D01*
X1232200Y231400D02*
Y256280D01*
X1240000Y162100D02*
X1253000Y175100D01*
X1232200Y231400D02*
X1253000Y210600D01*
X1254100Y114000D02*
Y134300D01*
X1240000Y148400D02*
X1254100Y134300D01*
X135800Y181545D02*
Y236171D01*
X122871Y249100D02*
X135800Y236171D01*
X97100Y391200D02*
Y399498D01*
X77500Y371600D02*
X97100Y391200D01*
X77500Y344440D02*
Y371600D01*
X117200Y254771D02*
X122871Y249100D01*
X117200Y254771D02*
Y304740D01*
X141621Y174498D02*
X164300Y151819D01*
Y114369D02*
X179171Y99498D01*
X164300Y114369D02*
Y151819D01*
X179171Y92331D02*
Y99498D01*
X175140Y88300D02*
X179171Y92331D01*
X120840Y88300D02*
X175140D01*
X141621Y174498D02*
Y175724D01*
X135800Y181545D02*
X141621Y175724D01*
X105300Y72760D02*
X120840Y88300D01*
X105300Y32732D02*
Y72760D01*
X113534Y24498D02*
X163038D01*
X105300Y32732D02*
X113534Y24498D01*
X1227200Y387980D02*
X1254700Y360480D01*
X1257000Y261200D02*
Y282580D01*
X1254700Y318620D02*
Y360480D01*
Y258900D02*
X1257000Y261200D01*
X1243800Y295780D02*
X1257000Y282580D01*
X1243800Y307720D02*
X1254700Y318620D01*
X1243800Y295780D02*
Y307720D01*
X1227200Y387980D02*
Y398948D01*
X1222100Y404048D02*
X1227200Y398948D01*
X1236800Y258900D02*
X1254700D01*
X1241400Y161520D02*
X1254400Y174520D01*
Y211180D01*
X1233600Y255700D02*
X1236800Y258900D01*
X1233600Y231980D02*
Y255700D01*
Y231980D02*
X1254400Y211180D01*
X1254700Y108900D02*
X1256700Y110900D01*
Y133680D01*
X1241400Y148980D02*
X1256700Y133680D01*
X1241400Y148980D02*
Y161520D01*
X122871Y254000D02*
X137200Y239671D01*
X141621Y179048D02*
X165700Y154969D01*
X137200Y183469D02*
X141621Y179048D01*
X137200Y183469D02*
Y239671D01*
X99800Y391780D02*
Y401348D01*
X97100Y404048D02*
X99800Y401348D01*
X97100Y404048D02*
X97952D01*
X78900Y370880D02*
X99800Y391780D01*
X118600Y258200D02*
Y307100D01*
X78900Y346800D02*
Y370880D01*
X179171Y104048D02*
X181986Y101233D01*
X165700Y117519D02*
X179171Y104048D01*
X181986Y93165D02*
Y101233D01*
X175720Y86900D02*
X181986Y93165D01*
X165700Y117519D02*
Y154969D01*
X121420Y86900D02*
X175720D01*
X106700Y72180D02*
X121420Y86900D01*
X106700Y35882D02*
Y72180D01*
Y35882D02*
X113534Y29048D01*
X163038D01*
X1228600Y388560D02*
X1256100Y361060D01*
X1245200Y307140D02*
X1256100Y318040D01*
Y361060D01*
X1254300Y253800D02*
X1258500Y258000D01*
Y283060D01*
X1245200Y296360D02*
X1258500Y283060D01*
X1235000Y232560D02*
X1255800Y211760D01*
X1242800Y160940D02*
X1255800Y173940D01*
X1228600Y388560D02*
Y402098D01*
X1245200Y296360D02*
Y307140D01*
X1222100Y408598D02*
X1228600Y402098D01*
X1237400Y253800D02*
X1254300D01*
X1255800Y173940D02*
Y211760D01*
X1235000Y251400D02*
X1237400Y253800D01*
X1235000Y232560D02*
Y251400D01*
X1258200Y107500D02*
Y134160D01*
X1254500Y103800D02*
X1258200Y107500D01*
X1242800Y149560D02*
X1258200Y134160D01*
X1242800Y149560D02*
Y160940D01*
X1237400Y103800D02*
X1254500D01*
X138600Y186619D02*
Y242971D01*
X120000Y261571D02*
X122871Y258700D01*
X138600Y242971D01*
X167100Y120669D02*
Y158119D01*
X138600Y186619D02*
X141621Y183598D01*
X167100Y158119D01*
X101500Y391500D02*
Y404198D01*
X97100Y408598D02*
X101500Y404198D01*
X80300Y370300D02*
X101500Y391500D01*
X80300Y350100D02*
Y370300D01*
X120000Y261571D02*
Y310400D01*
X80300Y350100D02*
X97100Y333300D01*
X120000Y310400D01*
X184800Y94000D02*
Y102969D01*
X179171Y108598D02*
X184800Y102969D01*
X176300Y85500D02*
X184800Y94000D01*
X167100Y120669D02*
X179171Y108598D01*
X122000Y85500D02*
X176300D01*
X108100Y71600D02*
X122000Y85500D01*
X108100Y39032D02*
Y71600D01*
X113534Y33598D02*
X163038D01*
X108100Y39032D02*
X113534Y33598D01*
X1329100Y115100D02*
Y134100D01*
X1315020Y264100D02*
X1329200D01*
X1307200Y231300D02*
X1328000Y210500D01*
X1315000Y148200D02*
X1329100Y134100D01*
X1315000Y162100D02*
X1328000Y175100D01*
Y210500D01*
X1307200Y256280D02*
X1315020Y264100D01*
X1307200Y231300D02*
Y256280D01*
X1315000Y148200D02*
Y162100D01*
X265900Y94600D02*
Y99498D01*
X262300Y91000D02*
X265900Y94600D01*
X191700Y268624D02*
X209600Y250724D01*
Y249498D02*
Y250724D01*
X171100Y390360D02*
Y399498D01*
X154300Y373560D02*
X171100Y390360D01*
X154300Y342298D02*
Y373560D01*
X191700Y268624D02*
Y304898D01*
X154300Y342298D02*
X172100Y324498D01*
X191700Y304898D01*
X247600Y117798D02*
X265900Y99498D01*
X257900Y91000D02*
X262300D01*
X219013Y24498D02*
X256788D01*
X247600Y117798D02*
Y155248D01*
X228350Y174498D02*
X247600Y155248D01*
X209600Y193248D02*
X228350Y174498D01*
X209600Y193248D02*
Y249498D01*
X199900Y74260D02*
X217138Y91498D01*
X199900Y43610D02*
X219013Y24498D01*
X199900Y43610D02*
Y74260D01*
X1329700Y108900D02*
X1331700Y110900D01*
Y133480D01*
X1316400Y148780D02*
X1331700Y133480D01*
X1311800Y258900D02*
X1329700D01*
X1329400Y174520D02*
Y211080D01*
X1308600Y255700D02*
X1311800Y258900D01*
X1308600Y231880D02*
Y255700D01*
Y231880D02*
X1329400Y211080D01*
X1316400Y148780D02*
Y161520D01*
X1329400Y174520D01*
X269200Y92900D02*
Y100748D01*
X193100Y270548D02*
X209600Y254048D01*
X212300Y195098D02*
Y251348D01*
X209600Y254048D02*
X212300Y251348D01*
X171100Y404048D02*
X173700Y401448D01*
Y390980D02*
Y401448D01*
X155700Y372980D02*
X173700Y390980D01*
X155700Y345448D02*
Y372980D01*
X193100Y270548D02*
Y308352D01*
X172100Y329048D02*
X172252Y329200D01*
X155700Y345448D02*
X172100Y329048D01*
X265900Y104048D02*
X269200Y100748D01*
X249000Y120948D02*
X265900Y104048D01*
X265700Y89400D02*
X269200Y92900D01*
X263500Y87200D02*
X265700Y89400D01*
X214820Y87200D02*
X263500D01*
X219013Y29048D02*
X256788D01*
X228350Y179048D02*
X249000Y158398D01*
Y120948D02*
Y158398D01*
X212300Y195098D02*
X228350Y179048D01*
X201300Y73680D02*
X214820Y87200D01*
X201300Y46760D02*
X219013Y29048D01*
X201300Y46760D02*
Y73680D01*
X1333200Y107500D02*
Y133960D01*
X1330800Y173940D02*
Y211660D01*
X1329500Y103800D02*
X1333200Y107500D01*
X1317800Y160940D02*
X1330800Y173940D01*
X1310000Y232460D02*
X1330800Y211660D01*
X1317800Y149360D02*
X1333200Y133960D01*
X1317800Y149360D02*
Y160940D01*
X1310000Y251400D02*
X1312400Y253800D01*
X1310000Y232460D02*
Y251400D01*
X1312400Y103800D02*
X1329500D01*
X194500Y273698D02*
X209600Y258598D01*
X194500Y273698D02*
Y311198D01*
X172802Y332895D02*
X194500Y311198D01*
X228350Y183598D02*
X228552Y183800D01*
X213700Y198248D02*
Y254498D01*
X209600Y258598D02*
X213700Y254498D01*
X171100Y408598D02*
X175700Y403998D01*
Y391000D02*
Y403998D01*
X157100Y372400D02*
X175700Y391000D01*
X157100Y348598D02*
Y372400D01*
X172100Y333598D02*
X172802Y334300D01*
X157100Y348598D02*
X172100Y333598D01*
X271600Y87600D02*
Y102898D01*
X265900Y108598D02*
X271600Y102898D01*
X250400Y124098D02*
X265900Y108598D01*
X214700Y85100D02*
X268500D01*
X219013Y33598D02*
X256788D01*
X250400Y124098D02*
Y161952D01*
X213700Y198248D02*
X228350Y183598D01*
X202700Y73100D02*
X214700Y85100D01*
X202700Y49910D02*
Y73100D01*
Y49910D02*
X219013Y33598D01*
X1390920Y265000D02*
X1404700D01*
X1403400Y114100D02*
Y134900D01*
X1390000Y148300D02*
X1403400Y134900D01*
X1382200Y231100D02*
X1403100Y210200D01*
Y175200D02*
Y210200D01*
X1382200Y256280D02*
X1390920Y265000D01*
X1382200Y231100D02*
Y256280D01*
X1390000Y162100D02*
X1403100Y175200D01*
X1390000Y148300D02*
Y162100D01*
X1411600Y46200D02*
Y94200D01*
X1408000Y42600D02*
X1411600Y46200D01*
X1406800Y99000D02*
X1411600Y94200D01*
X1408000Y32900D02*
Y42600D01*
Y32900D02*
X1411400Y29500D01*
X1397400Y99000D02*
X1406800D01*
X266500Y267598D02*
X284600Y249498D01*
X247100Y392160D02*
Y399498D01*
X228800Y373860D02*
X247100Y392160D01*
X228800Y342798D02*
Y373860D01*
Y342798D02*
X247100Y324498D01*
X266500Y267598D02*
Y305098D01*
X247100Y324498D02*
X266500Y305098D01*
X340900Y99498D02*
X345002D01*
X348100Y96400D01*
X322300Y118098D02*
X340900Y99498D01*
X348100Y91860D02*
Y96400D01*
X331700Y75460D02*
X348100Y91860D01*
X331700Y33400D02*
X340900Y24200D01*
X285600Y192248D02*
Y248498D01*
Y192248D02*
X303350Y174498D01*
X284600Y249498D02*
X285600Y248498D01*
X322300Y118098D02*
Y155548D01*
X331700Y33400D02*
Y75460D01*
X303350Y174498D02*
X322300Y155548D01*
X1545621Y406521D02*
X1570881D01*
X1590400Y387003D01*
X1405800Y109200D02*
Y134480D01*
X1391400Y148880D02*
X1405800Y134480D01*
X1388100Y258900D02*
X1404700D01*
X1383600Y254400D02*
X1388100Y258900D01*
X1383600Y231680D02*
Y254400D01*
X1391400Y161520D02*
X1404500Y174620D01*
Y210780D01*
X1383600Y231680D02*
X1404500Y210780D01*
X1391400Y148880D02*
Y161520D01*
X1590400Y79100D02*
Y387003D01*
X1414600Y37600D02*
Y106500D01*
X1531000Y19700D02*
X1590400Y79100D01*
X1411400Y34400D02*
X1414600Y37600D01*
X1514050Y2750D02*
X1531000Y19700D01*
X367100Y2750D02*
X1514050D01*
X1411800Y108900D02*
Y109300D01*
X347152Y104048D02*
X349500Y101700D01*
Y91280D02*
Y101700D01*
X267900Y271974D02*
X284600Y255274D01*
Y254048D02*
Y255274D01*
Y254048D02*
X286900Y251748D01*
X248352Y404048D02*
X249600Y402800D01*
X247100Y404048D02*
X248352D01*
X249600Y392680D02*
Y402800D01*
X230200Y373280D02*
X249600Y392680D01*
X230200Y345948D02*
Y373280D01*
X247100Y329048D02*
X267900Y308248D01*
Y271974D02*
Y308248D01*
X230200Y345948D02*
X247100Y329048D01*
X340900Y104048D02*
X347152D01*
X323700Y121248D02*
X340900Y104048D01*
X333100Y74880D02*
X349500Y91280D01*
X340900Y28950D02*
X367100Y2750D01*
X333100Y36750D02*
Y74880D01*
Y36750D02*
X340900Y28950D01*
X287000Y195398D02*
Y249078D01*
X286950Y249128D02*
X287000Y249078D01*
Y195398D02*
X303350Y179048D01*
X286900Y250521D02*
X286950Y250471D01*
X286900Y250521D02*
Y251748D01*
X286950Y249128D02*
Y250471D01*
X323700Y121248D02*
Y158698D01*
X303350Y179048D02*
X323700Y158698D01*
X1549454Y404126D02*
X1549499Y404080D01*
X1571342D02*
X1589000Y386423D01*
X1549499Y404080D02*
X1571342D01*
X1392800Y160940D02*
X1405900Y174040D01*
X1392800Y149460D02*
X1408200Y134060D01*
X1385000Y251400D02*
X1387400Y253800D01*
X1405900Y174040D02*
Y211360D01*
X1392800Y149460D02*
Y160940D01*
X1385000Y232260D02*
Y251400D01*
Y232260D02*
X1405900Y211360D01*
X1589000Y83500D02*
Y386423D01*
X1413000Y39700D02*
Y101100D01*
X1408200Y105900D02*
X1413000Y101100D01*
X1412300Y39000D02*
X1413000Y39700D01*
X370250Y4150D02*
X1509650D01*
X1406100Y103800D02*
X1408200Y105900D01*
Y134060D01*
X1387400Y103800D02*
X1406100D01*
X269300Y273898D02*
Y311398D01*
Y273898D02*
X284600Y258598D01*
X247100Y333598D02*
X269300Y311398D01*
X288400Y198548D02*
Y254798D01*
X284600Y258598D02*
X288400Y254798D01*
X247100Y408598D02*
X251800Y403898D01*
Y392900D02*
Y403898D01*
X231600Y372700D02*
X251800Y392900D01*
X231600Y349098D02*
Y372700D01*
Y349098D02*
X247100Y333598D01*
X341302Y109000D02*
X346700D01*
X340900Y108598D02*
X341302Y109000D01*
X346700D02*
X350900Y104800D01*
Y90700D02*
Y104800D01*
X340900Y33500D02*
X370250Y4150D01*
X334500Y74300D02*
X350900Y90700D01*
X303350Y183598D02*
X325100Y161848D01*
X288400Y198548D02*
X303350Y183598D01*
X334500Y39900D02*
Y74300D01*
Y39900D02*
X340900Y33500D01*
X325100Y124398D02*
Y161848D01*
Y124398D02*
X340900Y108598D01*
X1556000Y399350D02*
X1572113D01*
X1501550Y6950D02*
X1586200Y91600D01*
X1559800Y397000D02*
X1560950D01*
X322102Y333600D02*
X344400Y311302D01*
X322102Y408600D02*
X327200Y403502D01*
X1147202Y333700D02*
X1152000Y328902D01*
X397302Y408800D02*
X403400Y402702D01*
X1572113Y399350D02*
X1586200Y385263D01*
X1479700Y108900D02*
Y135480D01*
X1461800Y258900D02*
X1479700D01*
X1466400Y148780D02*
X1479700Y135480D01*
X1458600Y255700D02*
X1461800Y258900D01*
X1466400Y161520D02*
X1479500Y174620D01*
Y210880D01*
X1466400Y148780D02*
Y161520D01*
X1458600Y231780D02*
Y255700D01*
Y231780D02*
X1479500Y210880D01*
X1586200Y91600D02*
Y385263D01*
X1491529Y34000D02*
Y39129D01*
X1482100Y48557D02*
Y60160D01*
X1469900Y72360D02*
X1482100Y60160D01*
Y48557D02*
X1491529Y39129D01*
X1469900Y87400D02*
X1479800Y97300D01*
X1469900Y72360D02*
Y87400D01*
X343000Y270648D02*
X359600Y254048D01*
X364500Y245400D02*
Y249148D01*
X359600Y254048D02*
X364500Y249148D01*
X322100Y404048D02*
X324800Y401348D01*
Y393480D02*
Y401348D01*
X305200Y373880D02*
X324800Y393480D01*
X305200Y345948D02*
Y373880D01*
X322100Y329048D02*
X343000Y308148D01*
Y270648D02*
Y308148D01*
X305200Y345948D02*
X322100Y329048D01*
X427700Y53818D02*
Y92248D01*
Y53818D02*
X427800Y53718D01*
X399500Y120448D02*
X415900Y104048D01*
X427700Y92248D01*
X415900Y28750D02*
X437700Y6950D01*
X1501550D01*
X412500Y38418D02*
X427800Y53718D01*
X361100Y242000D02*
X364500Y245400D01*
X361100Y196198D02*
Y242000D01*
X361200Y196198D02*
X378350Y179048D01*
X412500Y32150D02*
Y38418D01*
X399500Y120448D02*
Y157898D01*
X412500Y32150D02*
X415900Y28750D01*
X378350Y179048D02*
X399500Y157898D01*
X1560950Y396939D02*
X1572544D01*
X1584800Y384683D01*
X1467800Y160940D02*
X1480900Y174040D01*
Y211460D01*
X1467800Y149360D02*
X1483200Y133960D01*
X1460000Y232360D02*
X1480900Y211460D01*
X1467800Y149360D02*
Y160940D01*
X1460000Y251400D02*
X1462400Y253800D01*
X1460000Y232360D02*
Y251400D01*
X1519400Y29700D02*
X1584800Y95100D01*
Y384683D01*
X1479300Y38600D02*
X1486600Y31300D01*
X1483200Y104500D02*
Y133960D01*
X1498050Y8350D02*
X1519400Y29700D01*
X1486600Y31300D02*
X1494529D01*
X440850Y8350D02*
X1498050D01*
X1479200Y100500D02*
X1483200Y104500D01*
X1465000Y100500D02*
X1479200D01*
X1462700Y98200D02*
X1465000Y100500D01*
X1462700Y75600D02*
X1479300Y59000D01*
X1462700Y75600D02*
Y98200D01*
X1479300Y38600D02*
Y59000D01*
X344400Y273798D02*
Y311302D01*
Y273798D02*
X359600Y258598D01*
X367100Y244600D02*
Y251098D01*
X359600Y258598D02*
X367100Y251098D01*
X322100Y408598D02*
X322102Y408600D01*
X327200Y393900D02*
Y403502D01*
X306600Y373300D02*
X327200Y393900D01*
X322100Y333598D02*
X322102Y333600D01*
X306600Y349098D02*
Y373300D01*
Y349098D02*
X322100Y333598D01*
X415900Y108598D02*
X429200Y95298D01*
Y46600D02*
Y95298D01*
X415900Y33300D02*
X429200Y46600D01*
X415900Y33300D02*
X440850Y8350D01*
X362500Y240000D02*
X367100Y244600D01*
X362500Y199448D02*
Y240000D01*
Y199448D02*
X378350Y183598D01*
X400900Y123598D02*
X415900Y108598D01*
X400900Y123598D02*
Y161048D01*
X378350Y183598D02*
X400900Y161048D01*
X1572447Y389753D02*
X1580600Y381600D01*
X1147100Y333598D02*
X1147202Y333700D01*
X1152000Y321459D02*
Y328902D01*
X1128141Y297600D02*
X1152000Y321459D01*
X1146102Y183598D02*
X1147100D01*
X1128000Y201700D02*
X1146102Y183598D01*
X1128000Y297600D02*
X1128141D01*
X1128000Y201700D02*
Y297600D01*
X1580600Y98620D02*
Y381600D01*
X1151700Y170600D02*
Y178998D01*
X1494530Y12550D02*
X1580600Y98620D01*
X1147100Y183598D02*
X1151700Y178998D01*
X1130600Y149500D02*
X1151700Y170600D01*
X1168147Y12550D02*
X1494530D01*
X1147100Y33598D02*
X1168147Y12550D01*
X1130600Y50098D02*
X1147100Y33598D01*
X1130600Y50098D02*
Y149500D01*
X1142800Y29298D02*
X1147100Y33598D01*
X528168Y33598D02*
X549216Y12550D01*
X1134790D02*
X1142800Y20560D01*
Y29298D01*
X549216Y12550D02*
X1134790D01*
X418800Y274398D02*
X434600Y258598D01*
X418800Y274398D02*
Y311898D01*
X397100Y333598D02*
X418800Y311898D01*
X444300Y231200D02*
Y248898D01*
X437500Y224400D02*
X444300Y231200D01*
X434600Y258598D02*
X444300Y248898D01*
X397100Y408598D02*
X397302Y408800D01*
X403400Y396300D02*
Y402702D01*
X381100Y349598D02*
X397100Y333598D01*
X381100Y374000D02*
X403400Y396300D01*
X381100Y349598D02*
Y374000D01*
X495402Y108598D02*
X501700Y102300D01*
Y90200D02*
Y102300D01*
X490900Y108598D02*
X495402D01*
X500225Y33598D02*
X528168D01*
X483300Y71800D02*
X501700Y90200D01*
X483300Y50523D02*
X500225Y33598D01*
X453350Y183598D02*
X475000Y161948D01*
X437500Y199448D02*
Y224400D01*
Y199448D02*
X453350Y183598D01*
X475000Y124498D02*
Y161948D01*
X483300Y50523D02*
Y71800D01*
X475000Y124498D02*
X490900Y108598D01*
X1568615Y392148D02*
X1568660Y392103D01*
X1573420D02*
X1582000Y383523D01*
X1568660Y392103D02*
X1573420D01*
X1147100Y329048D02*
X1149800Y326348D01*
Y321238D02*
Y326348D01*
X1127561Y299000D02*
X1149800Y321238D01*
X1127420Y299000D02*
X1127561D01*
X1126600Y298180D02*
X1127420Y299000D01*
X1126600Y199548D02*
Y298180D01*
Y199548D02*
X1147100Y179048D01*
X1582000Y98040D02*
Y383523D01*
X1495110Y11150D02*
X1582000Y98040D01*
X1149800Y170680D02*
Y176348D01*
X1147100Y179048D02*
X1149800Y176348D01*
X1129200Y150080D02*
X1149800Y170680D01*
X1164997Y11150D02*
X1495110D01*
X1147100Y29048D02*
X1164997Y11150D01*
X1129200Y40000D02*
X1140100Y29100D01*
X1129200Y40000D02*
Y150080D01*
X1144200Y26148D02*
X1147100Y29048D01*
X1144200Y19980D02*
Y26148D01*
X548636Y11150D02*
X1135370D01*
X530738Y29048D02*
X548636Y11150D01*
X1135370D02*
X1144200Y19980D01*
X417500Y271148D02*
X434600Y254048D01*
X442900Y231780D02*
Y245748D01*
X434600Y254048D02*
X442900Y245748D01*
X397100Y404048D02*
X401009Y400139D01*
Y395889D02*
Y400139D01*
X379700Y374580D02*
X401009Y395889D01*
X379700Y346448D02*
Y374580D01*
Y346448D02*
X397100Y329048D01*
X417400Y273818D02*
X417500Y273718D01*
X417400Y273818D02*
Y308748D01*
X417500Y271148D02*
Y273718D01*
X397100Y329048D02*
X417400Y308748D01*
X491017Y103931D02*
X496069D01*
X500300Y99700D01*
X490900Y104048D02*
X491017Y103931D01*
X500225Y29048D02*
X530738D01*
X500300Y90780D02*
Y99700D01*
X481900Y72380D02*
X500300Y90780D01*
X481900Y47373D02*
X500225Y29048D01*
X436100Y224980D02*
X442900Y231780D01*
X436100Y196298D02*
Y224980D01*
Y196298D02*
X453350Y179048D01*
X473600Y121348D02*
X490900Y104048D01*
X473600Y121348D02*
Y158798D01*
X481900Y47373D02*
Y72380D01*
X453350Y179048D02*
X473600Y158798D01*
X1564782Y394544D02*
X1572959D01*
X1583400Y384103D01*
X1147100Y320518D02*
Y324498D01*
X1126982Y300400D02*
X1147100Y320518D01*
X1125200Y298760D02*
X1126840Y300400D01*
X1147100Y174498D02*
Y175724D01*
X1126840Y300400D02*
X1126982D01*
X1125200Y197624D02*
Y298760D01*
Y197624D02*
X1147100Y175724D01*
X1583400Y97460D02*
Y384103D01*
X1495690Y9750D02*
X1583400Y97460D01*
X1127800Y150660D02*
X1147100Y169960D01*
Y174498D01*
Y20900D02*
Y24498D01*
X1135950Y9750D02*
X1495690D01*
X1135950D02*
X1147100Y20900D01*
X1127800Y33600D02*
Y150660D01*
Y33600D02*
X1136700Y24700D01*
X548056Y9750D02*
X1135950D01*
X533308Y24498D02*
X548056Y9750D01*
X416100Y267998D02*
X434600Y249498D01*
X397100Y393960D02*
Y399498D01*
X378300Y375160D02*
X397100Y393960D01*
X378300Y343298D02*
Y375160D01*
Y343298D02*
X397100Y324498D01*
X416000Y273238D02*
Y305598D01*
X416100Y267998D02*
Y273138D01*
X416000Y273238D02*
X416100Y273138D01*
X397100Y324498D02*
X416000Y305598D01*
X496102Y99498D02*
X498900Y96700D01*
X472200Y118198D02*
X490900Y99498D01*
X500225Y24498D02*
X533308D01*
X498900Y91360D02*
Y96700D01*
X480500Y72960D02*
X498900Y91360D01*
X490900Y99498D02*
X496102D01*
X480500Y44223D02*
X500225Y24498D01*
X434700Y225560D02*
X441500Y232360D01*
Y242598D01*
X434700Y193148D02*
X453350Y174498D01*
X434600Y249498D02*
X441500Y242598D01*
X434700Y193148D02*
Y225560D01*
X480500Y44223D02*
Y72960D01*
X472200Y118198D02*
Y155648D01*
X453350Y174498D02*
X472200Y155648D01*
X1553000Y401900D02*
X1553286D01*
X1459651Y475738D02*
X1461950Y478037D01*
X1458813Y475738D02*
X1459651D01*
X1452908Y421121D02*
Y430462D01*
X1450939Y421110D02*
Y430462D01*
X1448971Y421098D02*
Y430462D01*
X1447002Y421087D02*
Y430462D01*
X1445034Y421075D02*
Y430462D01*
X1443065Y421064D02*
Y430462D01*
X1441097Y421053D02*
Y430462D01*
X1447002Y475738D02*
Y478147D01*
X1443672Y481477D02*
X1447002Y478147D01*
X1448971Y478148D02*
X1450750Y479927D01*
X1448971Y475738D02*
Y478148D01*
X1450939Y478136D02*
X1453203Y480400D01*
X1450939Y475738D02*
Y478136D01*
X1443672Y481477D02*
Y485400D01*
X1457850Y446400D02*
X1460250Y448800D01*
X1457850Y435900D02*
Y446400D01*
X1454876Y432927D02*
X1457850Y435900D01*
X1456845Y475738D02*
Y481200D01*
X1459136Y424600D02*
Y425613D01*
X1443065Y430462D02*
Y435784D01*
X1443050Y435800D02*
X1443065Y435784D01*
X1447002Y430462D02*
Y436647D01*
X1446350Y437300D02*
X1447002Y436647D01*
X1448971Y430462D02*
Y439679D01*
X1448716Y439933D02*
X1448971Y439679D01*
X1571712Y401730D02*
X1587600Y385843D01*
X1464289Y444242D02*
X1466687D01*
X1460250Y448281D02*
X1464289Y444242D01*
X1460250Y448281D02*
Y448800D01*
X1452908Y434458D02*
X1454449Y436000D01*
X1452908Y430462D02*
Y434458D01*
X1450750Y483816D02*
X1452334Y485400D01*
X1450750Y479927D02*
Y483816D01*
X1456850Y489916D02*
Y494800D01*
X1452334Y485400D02*
X1456850Y489916D01*
X1448971Y457501D02*
Y475738D01*
X1447002Y457513D02*
Y475738D01*
X1461891Y456053D02*
X1466687D01*
X1429286Y433856D02*
X1456729Y461300D01*
X1431849Y446376D02*
Y448200D01*
X1421412Y438336D02*
X1423810D01*
X1431849Y446376D01*
X1445034Y457524D02*
Y475738D01*
X1418863Y431354D02*
X1445034Y457524D01*
X1441250Y487823D02*
X1443672Y485400D01*
X1441250Y487823D02*
Y491400D01*
X1443065Y475738D02*
Y478136D01*
X1431254Y475738D02*
Y479096D01*
X1433223Y475738D02*
Y479107D01*
X1435191Y475738D02*
Y479119D01*
X1437160Y475738D02*
Y479130D01*
X1439128Y475738D02*
Y479141D01*
X1444650Y494800D02*
X1451850D01*
X1441250Y491400D02*
X1444650Y494800D01*
X1450939Y437323D02*
X1451583Y437967D01*
X1450939Y430462D02*
Y437323D01*
X1437160Y415110D02*
Y430462D01*
X1439128Y414579D02*
Y430462D01*
X1553286Y401730D02*
X1571712D01*
X1419443Y429953D02*
X1447002Y457513D01*
X1420023Y428553D02*
X1448971Y457501D01*
X1429286Y430462D02*
Y433856D01*
X1469897Y456053D02*
X1471950Y454000D01*
Y452700D02*
Y454000D01*
X1466687Y456053D02*
X1469897D01*
X1451850Y494800D02*
X1452929D01*
X1423028Y419243D02*
X1423358Y418913D01*
X1420603Y421668D02*
X1423028Y419243D01*
X1423358Y418913D02*
X1423434D01*
X1417273Y423377D02*
Y423823D01*
X1420603Y421668D02*
Y425174D01*
X1425892Y430462D01*
X1466687Y457981D02*
X1476955D01*
X1479336Y455524D02*
Y455600D01*
X1476955Y457981D02*
X1479336Y455600D01*
X1466687Y457981D02*
Y458021D01*
Y460030D02*
X1476955D01*
X1479336Y462411D02*
Y462487D01*
X1476955Y460030D02*
X1479336Y462411D01*
X1466687Y459990D02*
Y460030D01*
X1469450Y432800D02*
X1472883D01*
X1471024Y444242D02*
X1472666Y442600D01*
X1466687Y444242D02*
X1471024D01*
X1425892Y430462D02*
X1429286D01*
X1417273Y423823D02*
X1420603Y427153D01*
X1471450Y472873D02*
X1471776Y473200D01*
X1471450Y470000D02*
Y472873D01*
X1469313Y467864D02*
X1471450Y470000D01*
X1466687Y467864D02*
X1469313D01*
X1425749Y472300D02*
X1426250Y471800D01*
X1466687Y435562D02*
X1469450Y432800D01*
X1466687Y435562D02*
Y438336D01*
X1305896Y427153D02*
X1420603D01*
X1344223Y428553D02*
X1420023D01*
X1350496Y431354D02*
X1418863D01*
X1346146Y429953D02*
X1419443D01*
X1414950Y471698D02*
X1417578D01*
X1421412Y467864D01*
X1454876Y430462D02*
Y432927D01*
X1456845Y427905D02*
X1459136Y425613D01*
X1456845Y427905D02*
Y430462D01*
X1305550Y427500D02*
X1305896Y427153D01*
X1328850Y443927D02*
X1344223Y428553D01*
X1333350Y442750D02*
X1346146Y429953D01*
X1334350Y447500D02*
X1350496Y431354D01*
X1426250Y471800D02*
X1428450D01*
X1429286Y472636D01*
Y475738D01*
X1454876Y430462D02*
X1454963Y430376D01*
X1323349Y443500D02*
X1327349Y447500D01*
X1323349Y432500D02*
Y443500D01*
X1327349Y447500D02*
X1334350D01*
X1405272Y438278D02*
X1421374D01*
X1328850Y443927D02*
Y444326D01*
X1405385Y457963D02*
X1421374D01*
X1405374Y455995D02*
X1421374D01*
X1405363Y454026D02*
X1421374D01*
X1405351Y452058D02*
X1421374D01*
X1405340Y450089D02*
X1421374D01*
X1405328Y448120D02*
X1421374D01*
X1405317Y446152D02*
X1421374D01*
X1405306Y444183D02*
X1421374D01*
X1405294Y442215D02*
X1421374D01*
X1405283Y440246D02*
X1421374D01*
X1433185Y421236D02*
Y430404D01*
X1431876Y419927D02*
X1433185Y421236D01*
X1429949Y419927D02*
X1431876D01*
X1076800Y395900D02*
Y403898D01*
X1064990Y384090D02*
X1076800Y395900D01*
X1032190Y384090D02*
X1064990D01*
X925702Y391902D02*
Y408598D01*
X906800Y373000D02*
X925702Y391902D01*
X905300Y421352D02*
X921200Y405452D01*
Y389380D02*
Y405452D01*
X905400Y373580D02*
X921200Y389380D01*
X906700Y427405D02*
X925605Y408500D01*
X906700Y427405D02*
Y446900D01*
X905300Y421352D02*
Y447480D01*
X903900Y417698D02*
X918398Y403200D01*
X917800Y387960D02*
Y403200D01*
X904000Y374160D02*
X917800Y387960D01*
X1562900Y217300D02*
X1563900D01*
X1571600Y225000D01*
X1538940Y379400D02*
X1557600Y360740D01*
Y346000D02*
Y360740D01*
X1556200Y345420D02*
Y360160D01*
X1538360Y378000D02*
X1556200Y360160D01*
X1554800Y344840D02*
Y359580D01*
X1537780Y376600D02*
X1554800Y359580D01*
X1553400Y344260D02*
Y359000D01*
X1537200Y375200D02*
X1553400Y359000D01*
X1573410Y384090D02*
X1577400Y380100D01*
X1426800Y120200D02*
Y331000D01*
X1404200Y343600D02*
X1414300Y333500D01*
X1404200Y343600D02*
Y363680D01*
X1419529Y320372D02*
X1424600Y325443D01*
Y250486D02*
Y325443D01*
X1419600Y245486D02*
X1424600Y250486D01*
Y175443D02*
Y250486D01*
Y100443D02*
Y175443D01*
X1419529Y95372D02*
X1424600Y100443D01*
X1419529Y170372D02*
X1424600Y175443D01*
X1402800Y343720D02*
Y363100D01*
X1355700Y296620D02*
X1402800Y343720D01*
X1350100Y250943D02*
Y314800D01*
X1344529Y320372D02*
X1350100Y314800D01*
X1338500Y326400D02*
X1344529Y320372D01*
X1338500Y326400D02*
Y350800D01*
X1290100Y399200D02*
X1338500Y350800D01*
X1297402Y333900D02*
X1302600Y328702D01*
X569800Y273398D02*
Y311900D01*
X567300Y314400D02*
X569800Y311900D01*
X566698Y314400D02*
X567300D01*
X566498Y314200D02*
X566698Y314400D01*
X547100Y333598D02*
X566498Y314200D01*
X547100Y408598D02*
X551900Y403798D01*
Y393100D02*
Y403798D01*
X531800Y373000D02*
X551900Y393100D01*
X530300Y420848D02*
X547100Y404048D01*
Y404100D02*
X549700Y401500D01*
Y392880D02*
Y401500D01*
X530400Y373580D02*
X549700Y392880D01*
X547100Y392260D02*
Y399498D01*
X529000Y374160D02*
X547100Y392260D01*
X530400Y345748D02*
Y373580D01*
X529000Y342598D02*
Y374160D01*
X531800Y348898D02*
Y373000D01*
X1372402Y333900D02*
X1377200Y329102D01*
X1372302Y183800D02*
X1378500Y177602D01*
X626800Y393000D02*
Y403898D01*
X606800Y373000D02*
X626800Y393000D01*
X622100Y408598D02*
X626800Y403898D01*
X678350Y179048D02*
X696600Y160798D01*
X622100Y404048D02*
X624750Y401398D01*
Y392930D02*
Y401398D01*
X605400Y373580D02*
X624750Y392930D01*
X605300Y420848D02*
X622100Y404048D01*
Y392260D02*
Y399498D01*
X604000Y374160D02*
X622100Y392260D01*
X1447402Y333900D02*
X1453400Y327902D01*
X1447302Y183800D02*
X1452610Y178492D01*
X753350Y183598D02*
X770374Y166574D01*
X702400Y393600D02*
Y403298D01*
X681800Y373000D02*
X702400Y393600D01*
X697100Y404100D02*
X699900Y401300D01*
Y393080D02*
Y401300D01*
X680400Y373580D02*
X699900Y393080D01*
X697100Y392260D02*
Y399498D01*
X679000Y374160D02*
X697100Y392260D01*
Y408598D02*
X702400Y403298D01*
X772100Y404100D02*
X775200Y401000D01*
X790300Y273348D02*
Y310848D01*
X772100Y329048D02*
X790300Y310848D01*
X787500Y251186D02*
Y307118D01*
X775418Y319200D02*
X787500Y307118D01*
X756043Y319200D02*
X775418D01*
X788900Y270198D02*
Y307698D01*
X772100Y324498D02*
X788900Y307698D01*
X772100Y408598D02*
X777400Y403298D01*
Y393600D02*
Y403298D01*
X756800Y373000D02*
X777400Y393600D01*
X775200Y393380D02*
Y401000D01*
X755400Y373580D02*
X775200Y393380D01*
X772100Y392260D02*
Y399498D01*
X754000Y374160D02*
X772100Y392260D01*
X847200Y408598D02*
X852200Y403598D01*
Y393400D02*
Y403598D01*
X831800Y373000D02*
X852200Y393400D01*
X850100Y393280D02*
Y402300D01*
X830400Y373580D02*
X850100Y393280D01*
X847200Y392360D02*
Y400218D01*
X829000Y374160D02*
X847200Y392360D01*
X830400Y345748D02*
Y373580D01*
X829000Y342598D02*
Y374160D01*
X847100Y404100D02*
X848200Y405200D01*
Y404200D02*
Y405200D01*
Y404200D02*
X850100Y402300D01*
X847200Y400218D02*
X847941Y400959D01*
X828900Y420000D02*
X847200Y401700D01*
X828900Y420000D02*
Y448160D01*
X830300Y422100D02*
X847200Y405200D01*
X830300Y422100D02*
Y447580D01*
X1072100Y405200D02*
X1075200Y402100D01*
Y398800D02*
Y402100D01*
X1061890Y385490D02*
X1075200Y398800D01*
X1072100Y408598D02*
X1076800Y403898D01*
X1222402Y333900D02*
X1230400Y325902D01*
X1222302Y183800D02*
X1228100Y178002D01*
X472302Y333800D02*
X494100Y312002D01*
X1230400Y321000D02*
Y325902D01*
X1225800Y321000D02*
Y325348D01*
X1222100Y329048D02*
X1225800Y325348D01*
X1302600Y318200D02*
Y328702D01*
X1281900Y297500D02*
X1302600Y318200D01*
X1297100Y329048D02*
X1300300Y325848D01*
Y317880D02*
Y325848D01*
X1280500Y298080D02*
X1300300Y317880D01*
X1372100Y329048D02*
X1375000Y326148D01*
Y319880D02*
Y326148D01*
X1352900Y297780D02*
X1375000Y319880D01*
X1377200Y320100D02*
Y329102D01*
X1354300Y297200D02*
X1377200Y320100D01*
X1453400Y319000D02*
Y327902D01*
X1431900Y297500D02*
X1453400Y319000D01*
X1450800Y318380D02*
Y325348D01*
X1447100Y329048D02*
X1450800Y325348D01*
X1430500Y298080D02*
X1450800Y318380D01*
X1452610Y168210D02*
Y178492D01*
X1432500Y148100D02*
X1452610Y168210D01*
X1447100Y179048D02*
X1450200Y175948D01*
Y167780D02*
Y175948D01*
X1431100Y148680D02*
X1450200Y167780D01*
X1222100Y179048D02*
X1225400Y175748D01*
Y167980D02*
Y175748D01*
X1205500Y148080D02*
X1225400Y167980D01*
X1228100Y168700D02*
Y178002D01*
X1206900Y147500D02*
X1228100Y168700D01*
X1378500Y169100D02*
Y177602D01*
X1356900Y147500D02*
X1378500Y169100D01*
X1372100Y179048D02*
X1375800Y175348D01*
Y168380D02*
Y175348D01*
X1355500Y148080D02*
X1375800Y168380D01*
X1562600Y136100D02*
X1579200Y119500D01*
X1562600Y136100D02*
Y203020D01*
X1559300Y203500D02*
Y203840D01*
X1553286Y207300D02*
X1560780D01*
X1577800Y222340D02*
Y269860D01*
X1559300Y203840D02*
X1577800Y222340D01*
X1560780Y207300D02*
X1576400Y222920D01*
Y269280D01*
X1552714Y290986D02*
X1575000Y268700D01*
X1552714Y290986D02*
Y303400D01*
X1575000Y223500D02*
Y268700D01*
X1579200Y219620D02*
Y270440D01*
X1562600Y287040D02*
X1579200Y270440D01*
X1562600Y287040D02*
Y300700D01*
X1561200Y286460D02*
X1577800Y269860D01*
X1561200Y286460D02*
Y301280D01*
X1559800Y285880D02*
X1576400Y269280D01*
X1559800Y285880D02*
Y301860D01*
X1562600Y203020D02*
X1579200Y219620D01*
X1576000Y316080D02*
Y327600D01*
X1574600Y316660D02*
Y327020D01*
X1573200Y317240D02*
Y326440D01*
X1554800Y344840D02*
X1573200Y326440D01*
X1569529Y320372D02*
Y328132D01*
X1553400Y344260D02*
X1569529Y328132D01*
X1557600Y346000D02*
X1576000Y327600D01*
X1505350Y5550D02*
X1587600Y87800D01*
X410200Y29900D02*
X434550Y5550D01*
X1505350D01*
X1587600Y87800D02*
Y385843D01*
X1493950Y13950D02*
X1579200Y99200D01*
Y119500D01*
X1474450Y13950D02*
X1493950D01*
X1564400Y212900D02*
X1575000Y223500D01*
X1577400Y315500D02*
Y380100D01*
X1556400Y300440D02*
X1573200Y317240D01*
X1559800Y301860D02*
X1574600Y316660D01*
X1561200Y301280D02*
X1576000Y316080D01*
X1562600Y300700D02*
X1577400Y315500D01*
X1556400Y292100D02*
Y300440D01*
X1457200Y256280D02*
X1465820Y264900D01*
X1479800D01*
X1480700Y44700D02*
X1487600Y37800D01*
X1480700Y44700D02*
Y59580D01*
X1468500Y104300D02*
Y114600D01*
X1478200Y124300D01*
X1468500Y96800D02*
X1468500Y96800D01*
X1468500Y71780D02*
Y96800D01*
X640900Y99498D02*
X649700Y90698D01*
Y61760D02*
Y90698D01*
X635600Y47660D02*
X649700Y61760D01*
X635600Y29798D02*
Y47660D01*
Y29798D02*
X640900Y24498D01*
Y104048D02*
X651100Y93848D01*
Y61180D02*
Y93848D01*
X637000Y47080D02*
X651100Y61180D01*
X637000Y32948D02*
Y47080D01*
Y32948D02*
X640900Y29048D01*
Y108598D02*
X652500Y96998D01*
Y60600D02*
Y96998D01*
X640900Y49000D02*
X652500Y60600D01*
X640900Y33598D02*
Y49000D01*
X565900Y99498D02*
X574800Y90598D01*
Y65760D02*
Y90598D01*
X560400Y51360D02*
X574800Y65760D01*
X560400Y29998D02*
Y51360D01*
Y29998D02*
X565900Y24498D01*
X561800Y32400D02*
Y50780D01*
Y32400D02*
X565152Y29048D01*
X565900Y104048D02*
X576200Y93748D01*
Y65180D02*
Y93748D01*
X561800Y50780D02*
X576200Y65180D01*
X577600Y64600D02*
Y96898D01*
X565900Y52900D02*
X577600Y64600D01*
X565900Y108598D02*
X577600Y96898D01*
X565152Y29048D02*
X565900D01*
Y33598D02*
Y52900D01*
X1524900Y323300D02*
X1526100Y324500D01*
X1524900Y277900D02*
Y323300D01*
X1503483Y256483D02*
X1524900Y277900D01*
X1500683Y234916D02*
Y257643D01*
X1522100Y279060D01*
Y329598D01*
X1526100Y333598D01*
X1502083Y243417D02*
Y257063D01*
X1523500Y278480D01*
Y326448D01*
X1526100Y329048D01*
X1503483Y250617D02*
Y256483D01*
X1053500Y37000D02*
Y95372D01*
X1105000Y310500D02*
X1110700Y304800D01*
Y257186D02*
Y304800D01*
X1110114Y197300D02*
X1110700Y197886D01*
X1102900Y249386D02*
X1110700Y257186D01*
Y197886D02*
Y257186D01*
X1110114Y113186D02*
Y197300D01*
Y113186D02*
X1126200Y97100D01*
X1558800Y217000D02*
Y226700D01*
X1554000Y231500D02*
X1558800Y226700D01*
X1522600Y231500D02*
X1554000D01*
X1503483Y250617D02*
X1522600Y231500D01*
X1532700Y212037D02*
Y216000D01*
X1525300Y204637D02*
X1532700Y212037D01*
X1525300Y138000D02*
Y204637D01*
X1516400Y213537D02*
X1525300Y204637D01*
X1516400Y213537D02*
Y219500D01*
X1503483Y116183D02*
X1525300Y138000D01*
X1503483Y89714D02*
Y116183D01*
X1502083Y86564D02*
Y208507D01*
X1500683Y83414D02*
Y209087D01*
X1503483Y89714D02*
X1522100Y71098D01*
X1502083Y86564D02*
X1522100Y66548D01*
X1502083Y208507D02*
X1515427Y221850D01*
X1514847Y223250D02*
X1520850D01*
X1500683Y209087D02*
X1514847Y223250D01*
X1510950Y224650D02*
X1524050D01*
X1520850Y223250D02*
X1528500Y215600D01*
X1516000Y219500D02*
X1516400D01*
X1528500Y214500D02*
Y215600D01*
X1500683Y234916D02*
X1510950Y224650D01*
X1520250Y221850D02*
X1523100Y219000D01*
X1515427Y221850D02*
X1520250D01*
X1499284Y100126D02*
Y175126D01*
Y250126D01*
Y25126D02*
Y100126D01*
X1500683Y83414D02*
X1522100Y61998D01*
X1125500Y449500D02*
X1144700Y468700D01*
X1200400Y444800D02*
X1222900Y467300D01*
X1228500Y441200D02*
X1253200Y465900D01*
X1438736Y49664D02*
X1474450Y13950D01*
X1556200Y345420D02*
X1574600Y327020D01*
X1499284Y250126D02*
Y325126D01*
X1502083Y243417D02*
X1512000Y233500D01*
X1494529Y20372D02*
X1499284Y25126D01*
X1494529Y95372D02*
X1499284Y100126D01*
X1494529Y170372D02*
X1499284Y175126D01*
X1494529Y320372D02*
X1499284Y325126D01*
X1494529Y245372D02*
X1499284Y250126D01*
X1523100Y216900D02*
Y219000D01*
X472102Y324500D02*
X491300Y305302D01*
X1273907Y399200D02*
X1290100D01*
X1270079Y395372D02*
X1273907Y399200D01*
X1478200Y124300D02*
Y135000D01*
X1465000Y148200D02*
X1478200Y135000D01*
X1465000Y148200D02*
Y162100D01*
X1478100Y175200D01*
X1457200Y231200D02*
X1478100Y210300D01*
Y175200D02*
Y210300D01*
X1457200Y231200D02*
Y256280D01*
X1074800Y413000D02*
X1083200Y404600D01*
Y399200D02*
Y404600D01*
X1225800Y318380D02*
Y321000D01*
X1205500Y298080D02*
X1225800Y318380D01*
X1205500Y195648D02*
Y298080D01*
Y195648D02*
X1222100Y179048D01*
X1205500Y45648D02*
X1222100Y29048D01*
X1205500Y45648D02*
Y148080D01*
X461820Y453900D02*
X488700D01*
X472100Y404048D02*
X475100Y401048D01*
Y394780D02*
Y401048D01*
X454900Y374580D02*
X475100Y394780D01*
X455300Y447380D02*
X461820Y453900D01*
X455300Y420848D02*
Y447380D01*
Y420848D02*
X472100Y404048D01*
X454900Y346248D02*
Y374580D01*
Y346248D02*
X472100Y329048D01*
X528350Y179048D02*
X548900Y158498D01*
X565900Y104048D02*
Y105274D01*
X548900Y122274D02*
Y158498D01*
Y122274D02*
X565900Y105274D01*
X509600Y254048D02*
X515500Y248148D01*
X492700Y270948D02*
Y308448D01*
X472100Y329048D02*
X492700Y308448D01*
Y270948D02*
X509600Y254048D01*
X511800Y224380D02*
X515500Y228080D01*
Y248148D01*
X511800Y195598D02*
Y224380D01*
Y195598D02*
X528350Y179048D01*
X1222100Y316660D02*
Y324498D01*
X1204100Y298660D02*
X1222100Y316660D01*
X1204100Y192498D02*
X1222100Y174498D01*
X1204100Y192498D02*
Y298660D01*
Y148660D02*
X1222100Y166660D01*
Y174498D01*
X1204100Y42498D02*
Y148660D01*
Y42498D02*
X1222100Y24498D01*
X462540Y456600D02*
X492900D01*
X472100Y393760D02*
Y399498D01*
X453900Y447960D02*
X462540Y456600D01*
X453900Y417698D02*
Y447960D01*
Y417698D02*
X472100Y399498D01*
Y324498D02*
X472102Y324500D01*
X453500Y375160D02*
X472100Y393760D01*
X453500Y343098D02*
Y375160D01*
Y343098D02*
X472100Y324498D01*
X547500Y117898D02*
Y155348D01*
X528350Y174498D02*
X547500Y155348D01*
Y117898D02*
X565900Y99498D01*
X491300Y267798D02*
Y305302D01*
Y267798D02*
X509600Y249498D01*
X510400Y224960D02*
X514100Y228660D01*
Y244998D01*
X509600Y249498D02*
X514100Y244998D01*
X510400Y192448D02*
Y224960D01*
Y192448D02*
X528350Y174498D01*
X1297100Y333598D02*
X1297402Y333900D01*
X1281900Y198798D02*
Y297500D01*
Y198798D02*
X1297100Y183598D01*
X1297302Y183800D01*
X623000Y126498D02*
Y163948D01*
Y126498D02*
X640900Y108598D01*
X535800Y451200D02*
X559500D01*
X531700Y447100D02*
X535800Y451200D01*
X531700Y423998D02*
Y447100D01*
Y423998D02*
X547100Y408598D01*
X531800Y348898D02*
X547100Y333598D01*
X588600Y198348D02*
Y254598D01*
Y198348D02*
X603350Y183598D01*
X623000Y163948D01*
X584600Y258598D02*
X588600Y254598D01*
X569800Y273398D02*
X584600Y258598D01*
X1280500Y195648D02*
Y298080D01*
Y195648D02*
X1297100Y179048D01*
X621600Y123348D02*
X640900Y104048D01*
X621600Y123348D02*
Y160798D01*
X536520Y453900D02*
X563700D01*
X530300Y447680D02*
X536520Y453900D01*
X530300Y420848D02*
Y447680D01*
X584600Y254048D02*
X587100Y251548D01*
X603350Y179048D02*
X621600Y160798D01*
X587100Y195298D02*
Y251548D01*
Y195298D02*
X603350Y179048D01*
X547100Y329048D02*
X566148Y310000D01*
X530400Y345748D02*
X547100Y329048D01*
X567200Y271448D02*
Y310000D01*
X566148D02*
X567200D01*
Y271448D02*
X584600Y254048D01*
X1297100Y316660D02*
Y324498D01*
X1279100Y298660D02*
X1297100Y316660D01*
X1279100Y192498D02*
Y298660D01*
Y192498D02*
X1297100Y174498D01*
X620200Y120198D02*
Y157680D01*
Y120198D02*
X640900Y99498D01*
X537240Y456600D02*
X567900D01*
X528900Y448260D02*
X537240Y456600D01*
X528900Y417698D02*
Y448260D01*
Y417698D02*
X547100Y399498D01*
X603350Y174498D02*
X603382D01*
X620200Y157680D01*
X584600Y193248D02*
X603350Y174498D01*
X564700Y306800D02*
Y306898D01*
X529000Y342598D02*
X547100Y324498D01*
X564700Y306898D01*
X584600Y193248D02*
Y249498D01*
X564700Y269398D02*
Y306800D01*
Y269398D02*
X584600Y249498D01*
X1372100Y333598D02*
X1372402Y333900D01*
X1372100Y183598D02*
X1372302Y183800D01*
X1354300Y201398D02*
Y297200D01*
Y201398D02*
X1372100Y183598D01*
X1356900Y91400D02*
Y147500D01*
X1347600Y82100D02*
X1356900Y91400D01*
X1330781Y82100D02*
X1347600D01*
X1319700Y48498D02*
X1334600Y33598D01*
X1319700Y71019D02*
X1330781Y82100D01*
X1319700Y48498D02*
Y71019D01*
X610800Y451200D02*
X634500D01*
X641800Y276398D02*
Y313898D01*
Y276398D02*
X659600Y258598D01*
X622100Y333598D02*
X641800Y313898D01*
X606700Y447100D02*
X610800Y451200D01*
X606700Y423998D02*
Y447100D01*
Y423998D02*
X622100Y408598D01*
X606800Y348898D02*
Y373000D01*
Y348898D02*
X622100Y333598D01*
X698000Y126498D02*
Y163948D01*
X690174Y171774D02*
X698000Y163948D01*
Y126498D02*
X715900Y108598D01*
X753200Y52498D02*
X772100Y33598D01*
X753200Y52498D02*
Y71298D01*
X715900Y108598D02*
X753200Y71298D01*
X663600Y198348D02*
Y254598D01*
X659600Y258598D02*
X663600Y254598D01*
Y198348D02*
X678350Y183598D01*
X690174Y171774D01*
X1571600Y225000D02*
Y249300D01*
X903200Y47948D02*
Y87660D01*
Y47948D02*
X922100Y29048D01*
X761420Y453900D02*
X788700D01*
X755300Y447780D02*
X761420Y453900D01*
X755300Y420848D02*
Y447780D01*
Y420848D02*
X772100Y404048D01*
X755400Y345748D02*
Y373580D01*
Y345748D02*
X772100Y329048D01*
X847300Y122648D02*
Y160098D01*
X828350Y179048D02*
X847300Y160098D01*
X865900Y104048D02*
X886812D01*
X903200Y87660D01*
X847300Y122648D02*
X865900Y104048D01*
X809600Y254048D02*
X812100Y251548D01*
X790300Y273348D02*
X809600Y254048D01*
X812100Y195298D02*
X828350Y179048D01*
X812100Y195298D02*
Y251548D01*
X1524050Y224650D02*
X1532700Y216000D01*
X760700Y451200D02*
X784500D01*
X791700Y276498D02*
Y313998D01*
X772100Y333598D02*
X791700Y313998D01*
X756700Y447200D02*
X760700Y451200D01*
X756700Y423998D02*
Y447200D01*
Y423998D02*
X772100Y408598D01*
X756800Y348898D02*
Y373000D01*
Y348898D02*
X772100Y333598D01*
X848700Y125798D02*
X865900Y108598D01*
X848700Y125798D02*
Y163248D01*
X828350Y183598D02*
X848700Y163248D01*
X904600Y51098D02*
Y88240D01*
X884242Y108598D02*
X904600Y88240D01*
Y51098D02*
X922100Y33598D01*
X865900Y108598D02*
X884242D01*
X809600Y258598D02*
X813900Y254298D01*
Y198048D02*
Y254298D01*
X791700Y276498D02*
X809600Y258598D01*
X813900Y198048D02*
X828350Y183598D01*
X1447100Y316660D02*
Y324498D01*
X1429100Y298660D02*
X1447100Y316660D01*
Y166660D02*
Y174498D01*
X1429100Y192498D02*
X1447100Y174498D01*
X1429700Y149260D02*
X1447100Y166660D01*
X1429100Y192498D02*
Y298660D01*
X1429700Y41898D02*
X1447100Y24498D01*
X1429700Y41898D02*
Y149260D01*
X826600Y44998D02*
X847100Y24498D01*
X826600Y44998D02*
Y88480D01*
X815582Y99498D02*
X826600Y88480D01*
X687340Y456600D02*
X717900D01*
X678900Y448160D02*
X687340Y456600D01*
X678900Y417698D02*
Y448160D01*
Y417698D02*
X697100Y399498D01*
X714000Y270098D02*
Y307598D01*
X697100Y324498D02*
X714000Y307598D01*
X679000Y342598D02*
Y374160D01*
Y342598D02*
X697100Y324498D01*
X790900Y99498D02*
X815582D01*
X770600Y119798D02*
X790900Y99498D01*
X763340Y164540D02*
X770600Y157280D01*
Y119798D02*
Y157280D01*
X714000Y270098D02*
X734600Y249498D01*
Y193248D02*
Y249498D01*
X753382Y174498D02*
X763340Y164540D01*
X753350Y174498D02*
X753382D01*
X734600Y193248D02*
X753350Y174498D01*
X1430500Y195648D02*
Y298080D01*
Y195648D02*
X1447100Y179048D01*
X1431100Y45048D02*
Y148680D01*
Y45048D02*
X1447100Y29048D01*
X828000Y48148D02*
X847100Y29048D01*
X828000Y48148D02*
Y89060D01*
X686620Y453900D02*
X713700D01*
X715400Y273248D02*
Y311600D01*
X697952Y329048D02*
X715400Y311600D01*
X680300Y447580D02*
X686620Y453900D01*
X680300Y420848D02*
Y447580D01*
Y420848D02*
X697100Y404048D01*
Y329048D02*
X697952D01*
X680400Y345748D02*
Y373580D01*
Y345748D02*
X697100Y329048D01*
X770099Y162299D02*
X772000Y160398D01*
X790900Y104048D02*
X813012D01*
X828000Y89060D01*
X772000Y122948D02*
X790900Y104048D01*
X772000Y122948D02*
Y160398D01*
X715400Y273248D02*
X734600Y254048D01*
X737200Y251448D01*
X753350Y179048D02*
X770099Y162299D01*
X737200Y195198D02*
Y251448D01*
Y195198D02*
X753350Y179048D01*
X1447100Y333598D02*
X1447402Y333900D01*
X1431900Y198798D02*
Y297500D01*
X1447100Y183598D02*
X1447302Y183800D01*
X1431900Y198798D02*
X1447100Y183598D01*
X1432500Y48198D02*
Y148100D01*
Y48198D02*
X1447100Y33598D01*
X829400Y51298D02*
Y89640D01*
Y51298D02*
X847100Y33598D01*
X685900Y451200D02*
X709500D01*
X716800Y276398D02*
Y313898D01*
X697100Y333598D02*
X716800Y313898D01*
X681700Y447000D02*
X685900Y451200D01*
X681700Y423998D02*
Y447000D01*
Y423998D02*
X697100Y408598D01*
X681800Y348898D02*
Y373000D01*
Y348898D02*
X697100Y333598D01*
X773400Y126098D02*
Y163400D01*
Y126098D02*
X790900Y108598D01*
X770300Y166500D02*
X773400Y163400D01*
X790900Y108598D02*
X810442D01*
X829400Y89640D01*
X734600Y258598D02*
X738600Y254598D01*
Y198348D02*
Y254598D01*
X716800Y276398D02*
X734600Y258598D01*
X738600Y198348D02*
X753350Y183598D01*
X1372100Y318960D02*
Y324498D01*
X1351500Y298360D02*
X1372100Y318960D01*
X1351500Y195098D02*
Y298360D01*
Y195098D02*
X1372100Y174498D01*
X1354100Y148660D02*
X1372100Y166660D01*
Y174498D01*
X1346440Y84900D02*
X1354100Y92560D01*
Y148660D01*
X1329621Y84900D02*
X1346440D01*
X1316900Y72179D02*
X1329621Y84900D01*
X1316800Y52000D02*
X1316900Y52100D01*
Y72179D01*
X1316800Y42298D02*
X1334600Y24498D01*
X1316800Y42298D02*
Y52000D01*
X750400Y46198D02*
X772100Y24498D01*
X750400Y46198D02*
Y64998D01*
X612240Y456600D02*
X642900D01*
X603900Y448260D02*
X612240Y456600D01*
X603900Y417698D02*
Y448260D01*
Y417698D02*
X622100Y399498D01*
X639000Y270098D02*
Y307598D01*
X622100Y324498D02*
X639000Y307598D01*
X604000Y342598D02*
Y374160D01*
Y342598D02*
X622100Y324498D01*
X695200Y120198D02*
X715900Y99498D01*
X750400Y64998D01*
X659600Y193248D02*
Y249498D01*
X639000Y270098D02*
X659600Y249498D01*
Y193248D02*
X678350Y174498D01*
X695200Y120198D02*
Y157680D01*
X678382Y174498D02*
X695200Y157680D01*
X678350Y174498D02*
X678382D01*
X1352900Y198248D02*
Y297780D01*
Y198248D02*
X1372100Y179048D01*
X1347020Y83500D02*
X1355500Y91980D01*
Y148080D01*
X1330201Y83500D02*
X1347020D01*
X1318300Y71599D02*
X1330201Y83500D01*
X1334600Y29048D02*
Y30274D01*
X1318300Y46574D02*
X1334600Y30274D01*
X1318200Y51000D02*
X1318300Y51100D01*
Y71599D01*
Y46574D02*
Y50900D01*
X1318200Y51000D02*
X1318300Y50900D01*
X611520Y453900D02*
X638700D01*
X622100Y329048D02*
X640400Y310748D01*
Y273248D02*
Y310748D01*
X605300Y447680D02*
X611520Y453900D01*
X605300Y420848D02*
Y447680D01*
X605400Y345748D02*
Y373580D01*
Y345748D02*
X622100Y329048D01*
X696600Y123348D02*
X715900Y104048D01*
X751800Y49348D02*
X772100Y29048D01*
X715900Y104048D02*
X751800Y68148D01*
Y49348D02*
Y68148D01*
X662200Y195198D02*
Y251448D01*
Y195198D02*
X678350Y179048D01*
X640400Y273248D02*
X659600Y254048D01*
X662200Y251448D01*
X696600Y123348D02*
Y160798D01*
X1548100Y162814D02*
X1553614Y157300D01*
X1548100Y162814D02*
Y208100D01*
X1552900Y212900D01*
X1564400D01*
X1552714Y303400D02*
Y303557D01*
X1569529Y320372D01*
X1438736Y49664D02*
Y66200D01*
X1468500Y71780D02*
X1480700Y59580D01*
X1355700Y281900D02*
X1362700Y274900D01*
X1355700Y281900D02*
Y296620D01*
X656400Y175993D02*
X663493Y168900D01*
X650779Y170372D02*
X656400Y175993D01*
Y244186D01*
X544200Y101286D02*
Y156668D01*
X538400Y95486D02*
X544200Y101286D01*
X532068Y168800D02*
X544200Y156668D01*
X513393Y168800D02*
X532068D01*
X550300Y124198D02*
Y161648D01*
X528350Y183598D02*
X550300Y161648D01*
X457168Y168700D02*
X470200Y155668D01*
Y102243D02*
Y155668D01*
X463329Y95372D02*
X470200Y102243D01*
X438693Y168700D02*
X457168D01*
X398100Y117298D02*
Y154748D01*
X378350Y174498D02*
X398100Y154748D01*
Y117298D02*
X415900Y99498D01*
X396000Y103043D02*
Y154868D01*
X380496Y170372D02*
X396000Y154868D01*
X388329Y95372D02*
X396000Y103043D01*
X362021Y170372D02*
X380496D01*
X319400Y101443D02*
Y156468D01*
X307268Y168600D02*
X319400Y156468D01*
X288200Y168600D02*
X307268D01*
X245200Y102243D02*
Y155668D01*
X232118Y168750D02*
X245200Y155668D01*
X213843Y168750D02*
X232118D01*
X188300Y251643D02*
Y306318D01*
X178718Y315900D02*
X188300Y306318D01*
X160543Y315900D02*
X178718D01*
X337800Y251186D02*
Y306818D01*
X324246Y320372D02*
X337800Y306818D01*
X306471Y320372D02*
X324246D01*
X341600Y267498D02*
Y304998D01*
X322100Y324498D02*
X341600Y304998D01*
X262800Y251143D02*
Y306818D01*
X249132Y320486D02*
X262800Y306818D01*
X233200Y320486D02*
X249132D01*
X412400Y251486D02*
Y307218D01*
X400918Y318700D02*
X412400Y307218D01*
X381943Y318700D02*
X400918D01*
X494100Y274098D02*
Y312002D01*
X487700Y251043D02*
Y306923D01*
X475822Y318800D02*
X487700Y306923D01*
X458643Y318800D02*
X475822D01*
X562100Y250443D02*
Y307518D01*
X550818Y318800D02*
X562100Y307518D01*
X533043Y318800D02*
X550818D01*
X525500Y326343D02*
X533043Y318800D01*
X637600Y251186D02*
Y307018D01*
X626018Y318600D02*
X637600Y307018D01*
X607243Y318600D02*
X626018D01*
X712600Y250986D02*
Y307018D01*
X700918Y318700D02*
X712600Y307018D01*
X681543Y318700D02*
X700918D01*
X937100Y250443D02*
Y307518D01*
X925918Y318700D02*
X937100Y307518D01*
X906386Y318700D02*
X925918D01*
X938900Y270198D02*
Y307698D01*
X922100Y324498D02*
X938900Y307698D01*
X940300Y273348D02*
Y310848D01*
X922100Y329048D02*
X940300Y310848D01*
X865300Y273348D02*
Y310848D01*
X847100Y329048D02*
X865300Y310848D01*
X862200Y263186D02*
Y307418D01*
X850818Y318800D02*
X862200Y307418D01*
X832643Y318800D02*
X850818D01*
X863900Y270198D02*
Y307698D01*
X847100Y324498D02*
X863900Y307698D01*
X1087000Y399350D02*
Y402780D01*
Y398700D02*
Y399350D01*
X921200Y405452D02*
Y406000D01*
X925605Y408500D02*
X925702Y408598D01*
X917800Y403200D02*
X918398D01*
X1064500Y408700D02*
Y409380D01*
X1069520Y414400D01*
X1075380D01*
X1087000Y402780D01*
X1068500Y408800D02*
X1072100Y405200D01*
X1068500Y408800D02*
Y411400D01*
X1070100Y413000D01*
X1074800D01*
X1031610Y385490D02*
X1061890D01*
X1057290Y386890D02*
X1072100Y401700D01*
X1031030Y386890D02*
X1057290D01*
X1037532Y395372D02*
X1045079D01*
X1015600Y373440D02*
X1037532Y395372D01*
X1204593Y396500D02*
X1205893D01*
X1200400Y400693D02*
X1204593Y396500D01*
X847200Y401182D02*
Y401700D01*
X831700Y423998D02*
X844300Y411398D01*
X844400D02*
X847200Y408598D01*
X844300Y411398D02*
X844400D01*
X303800Y342798D02*
X322100Y324498D01*
X303800Y342798D02*
Y374460D01*
X322100Y392760D02*
Y399498D01*
X303800Y374460D02*
X322100Y392760D01*
X912440Y456600D02*
X942900D01*
X911720Y453900D02*
X938700D01*
X905300Y447480D02*
X911720Y453900D01*
X903900Y448060D02*
X912440Y456600D01*
X903900Y417698D02*
Y448060D01*
X911000Y451200D02*
X934500D01*
X906700Y446900D02*
X911000Y451200D01*
X837340Y456600D02*
X867900D01*
X836620Y453900D02*
X863700D01*
X830300Y447580D02*
X836620Y453900D01*
X828900Y448160D02*
X837340Y456600D01*
X835900Y451200D02*
X859500D01*
X831700Y447000D02*
X835900Y451200D01*
X831700Y423998D02*
Y447000D01*
X762140Y456600D02*
X792900D01*
X753900Y417698D02*
X772100Y399498D01*
X753900Y448360D02*
X762140Y456600D01*
X753900Y417698D02*
Y448360D01*
X461100Y451200D02*
X484500D01*
X456700Y446800D02*
X461100Y451200D01*
X456700Y423998D02*
Y446800D01*
X456300Y374000D02*
X477100Y394800D01*
X456300Y349398D02*
Y374000D01*
Y349398D02*
X472100Y333598D01*
X341600Y267498D02*
X359600Y249498D01*
X415900Y99498D02*
X426300Y89098D01*
Y57800D02*
Y89098D01*
X410200Y41700D02*
X426300Y57800D01*
X76100Y461200D02*
X103200Y488300D01*
X150300Y458368D02*
X178832Y486900D01*
X226200Y459400D02*
X252300Y485500D01*
X300500Y457000D02*
X327600Y484100D01*
X374900Y457800D02*
X399800Y482700D01*
X450800Y456600D02*
X475500Y481300D01*
X525500Y457200D02*
X548200Y479900D01*
X600000Y458700D02*
X619800Y478500D01*
X674700Y456500D02*
X695300Y477100D01*
X749700Y454800D02*
X770600Y475700D01*
X825300Y454400D02*
X845200Y474300D01*
X899600Y455500D02*
X917000Y472900D01*
X975400Y452700D02*
X994200Y471500D01*
X1050500Y451800D02*
X1068800Y470100D01*
X901800Y44798D02*
Y87080D01*
X889382Y99498D02*
X901800Y87080D01*
Y44798D02*
X922100Y24498D01*
X845900Y119498D02*
Y156980D01*
Y119498D02*
X865900Y99498D01*
X889382D01*
X754000Y342598D02*
Y374160D01*
X828382Y174498D02*
X845900Y156980D01*
X828350Y174498D02*
X828382D01*
X809600Y193248D02*
X828350Y174498D01*
X754000Y342598D02*
X772100Y324498D01*
X788900Y270198D02*
X809600Y249498D01*
Y193248D02*
Y249498D01*
X763800Y161400D02*
X769200Y156000D01*
X745593Y161400D02*
X763800D01*
X731200Y175793D02*
X745593Y161400D01*
X1230300Y320900D02*
X1230400Y321000D01*
X1206900Y297500D02*
X1230300Y320900D01*
X1015600Y338300D02*
Y373440D01*
Y338300D02*
X1033528Y320372D01*
X1082029D01*
X1017000Y372860D02*
X1031030Y386890D01*
X1017000Y342098D02*
Y372860D01*
Y342098D02*
X1034600Y324498D01*
X1018400Y372280D02*
X1031610Y385490D01*
X1018400Y345248D02*
Y372280D01*
X1019800Y371700D02*
X1032190Y384090D01*
X1018400Y345248D02*
X1034600Y329048D01*
X1019800Y348398D02*
Y371700D01*
Y348398D02*
X1034600Y333598D01*
X1380986Y20372D02*
X1381300Y20686D01*
X1331300Y20372D02*
X1380986D01*
X1315400Y36272D02*
X1331300Y20372D01*
X1315400Y36272D02*
Y72659D01*
X1338113Y95372D01*
X1344529D01*
X1222100Y333598D02*
X1222402Y333900D01*
X1206900Y198798D02*
Y297500D01*
Y198798D02*
X1222100Y183598D01*
X1222302Y183800D01*
X1206900Y48798D02*
Y147500D01*
Y48798D02*
X1222100Y33598D01*
X982355Y254048D02*
X982408Y254100D01*
X997500D01*
X959702Y258700D02*
X997600D01*
X959600Y258598D02*
X959702Y258700D01*
X959600Y258598D02*
X995000Y223198D01*
X959600Y254048D02*
X993600Y220048D01*
X940300Y273348D02*
X959600Y254048D01*
X1201200Y102186D02*
Y177043D01*
X921800Y139980D02*
Y160598D01*
X903350Y179048D02*
X921800Y160598D01*
X947860Y115900D02*
X999448D01*
X903350Y183598D02*
X923200Y163748D01*
Y140560D02*
Y163748D01*
X887200Y195198D02*
X903350Y179048D01*
X888600Y198348D02*
X903350Y183598D01*
X923200Y140560D02*
X947860Y115900D01*
X921800Y139980D02*
X947280Y114500D01*
X996298D01*
X920400Y139400D02*
Y157448D01*
X903350Y174498D02*
X920400Y157448D01*
X919000Y101043D02*
Y155900D01*
X906300Y168600D02*
X919000Y155900D01*
X888593Y168600D02*
X906300D01*
X920400Y139400D02*
X946700Y113100D01*
X993148D01*
X922100Y333598D02*
X941700Y313998D01*
Y276498D02*
Y313998D01*
Y276498D02*
X959600Y258598D01*
X938900Y270198D02*
X959600Y249498D01*
X906800Y348898D02*
X922100Y333598D01*
X906800Y348898D02*
Y373000D01*
X905400Y345748D02*
X922100Y329048D01*
X905400Y345748D02*
Y373580D01*
X904000Y342598D02*
X922100Y324498D01*
X904000Y342598D02*
Y374160D01*
X959600Y249498D02*
X992200Y216898D01*
Y200740D02*
Y216898D01*
Y200740D02*
X1018443Y174498D01*
X1025225D01*
X993600Y201320D02*
Y220048D01*
Y201320D02*
X1015872Y179048D01*
X1025225D01*
X1013302Y183598D02*
X1025225D01*
X995000Y201900D02*
X1013302Y183598D01*
X995000Y201900D02*
Y223198D01*
X1025225Y183598D02*
X1070062D01*
X1092100Y161560D01*
X1025225Y179048D02*
X1072632D01*
X1025225Y174498D02*
X1075202D01*
X1089300Y160400D01*
X1071420Y87800D02*
X1082780D01*
X1057700Y47998D02*
Y72100D01*
Y47998D02*
X1072100Y33598D01*
X1057700Y72100D02*
X1072000Y86400D01*
X1054900Y41698D02*
X1072100Y24498D01*
X1054900Y73260D02*
X1070840Y89200D01*
X1054900Y41698D02*
Y73260D01*
X1056300Y44848D02*
Y72680D01*
Y44848D02*
X1072100Y29048D01*
X1056300Y72680D02*
X1071420Y87800D01*
X1092100Y95140D02*
Y161560D01*
X1083360Y86400D02*
X1092100Y95140D01*
X1072632Y179048D02*
X1090700Y160980D01*
Y95720D02*
Y160980D01*
X1082780Y87800D02*
X1090700Y95720D01*
X1089300Y96300D02*
Y160400D01*
X1072000Y86400D02*
X1083360D01*
X1082200Y89200D02*
X1089300Y96300D01*
X1070840Y89200D02*
X1082200D01*
X993148Y113100D02*
X1006750Y99498D01*
X996298Y114500D02*
X1006750Y104048D01*
X999448Y115900D02*
X1006750Y108598D01*
Y99498D02*
X1011600Y94648D01*
Y83960D02*
Y94648D01*
X1005640Y78000D02*
X1011600Y83960D01*
X983240Y78000D02*
X1005640D01*
X978400Y73160D02*
X983240Y78000D01*
X978400Y43198D02*
Y73160D01*
Y43198D02*
X997100Y24498D01*
X983820Y76600D02*
X1006220D01*
X1006750Y104048D02*
X1013000Y97798D01*
Y83380D02*
Y97798D01*
X1006220Y76600D02*
X1013000Y83380D01*
X979800Y72580D02*
X983820Y76600D01*
X979800Y46348D02*
Y72580D01*
Y46348D02*
X997100Y29048D01*
X1006750Y108598D02*
X1014400Y100948D01*
Y82800D02*
Y100948D01*
X1006800Y75200D02*
X1014400Y82800D01*
X984400Y75200D02*
X1006800D01*
X981200Y72000D02*
X984400Y75200D01*
X981200Y49498D02*
Y72000D01*
Y49498D02*
X997100Y33598D01*
X1053500Y95372D02*
X1054179D01*
X1053500Y37000D02*
X1070114Y20386D01*
X1118900D01*
X1126200Y27686D02*
Y97100D01*
X1118900Y20386D02*
X1126200Y27686D01*
X974700Y25486D02*
Y82300D01*
X968400Y88600D02*
X974700Y82300D01*
X931443Y88600D02*
X968400D01*
X919000Y101043D02*
X931443Y88600D01*
X956100Y143000D02*
X981800Y117300D01*
X1019200D01*
X956100Y143000D02*
Y175693D01*
X887200Y195198D02*
Y251448D01*
X884600Y254048D02*
X887200Y251448D01*
X888600Y198348D02*
Y254598D01*
X884600Y258598D02*
X888600Y254598D01*
X956100Y175693D02*
Y231443D01*
X937100Y250443D02*
X956100Y231443D01*
X932029Y245372D02*
X937100Y250443D01*
X881300Y175893D02*
Y231486D01*
X862200Y250586D02*
X881300Y231486D01*
Y175893D02*
X888593Y168600D01*
X875779Y170372D02*
X881300Y175893D01*
X913329Y95372D02*
X919000Y101043D01*
X829000Y342598D02*
X847100Y324498D01*
X830400Y345748D02*
X847100Y329048D01*
X831800Y348898D02*
Y373000D01*
Y348898D02*
X847100Y333598D01*
X884600Y193248D02*
Y249498D01*
Y193248D02*
X903350Y174498D01*
X863900Y270198D02*
X884600Y249498D01*
X865300Y273348D02*
X884600Y254048D01*
X866700Y276498D02*
X884600Y258598D01*
X866700Y276498D02*
Y313998D01*
X847100Y333598D02*
X866700Y313998D01*
X843800Y101386D02*
Y157100D01*
Y101386D02*
X844000Y101186D01*
X813293Y168700D02*
X832200D01*
X843800Y157100D01*
X707100Y245486D02*
X712600Y250986D01*
X769200Y101243D02*
Y156000D01*
X844000Y101186D02*
X851286Y93900D01*
X838300Y95486D02*
X844000Y101186D01*
X769200Y101243D02*
X776843Y93600D01*
X806200Y175793D02*
X813293Y168700D01*
X806200Y175793D02*
Y232486D01*
X787500Y251186D02*
X806200Y232486D01*
X781800Y245486D02*
X787500Y251186D01*
X712600Y250986D02*
X731200Y232386D01*
Y175793D02*
Y232386D01*
X631800Y245386D02*
X637600Y251186D01*
X693600Y100686D02*
Y156100D01*
X680800Y168900D02*
X693600Y156100D01*
X663493Y168900D02*
X680800D01*
X975400Y326243D02*
X990343Y311300D01*
X969529Y320372D02*
X975400Y326243D01*
X970600Y395286D02*
X975400Y400086D01*
Y452700D01*
Y326243D02*
Y400086D01*
X899600Y325486D02*
X906386Y318700D01*
X825300Y326143D02*
X832643Y318800D01*
X819529Y320372D02*
X825300Y326143D01*
X749700Y325543D02*
X756043Y319200D01*
X744529Y320372D02*
X749700Y325543D01*
X674700D02*
X681543Y318700D01*
X600000Y325843D02*
X607243Y318600D01*
X594529Y320372D02*
X600000Y325843D01*
X618800Y100586D02*
Y157100D01*
X607300Y168600D02*
X618800Y157100D01*
X588993Y168600D02*
X607300D01*
X1125500Y400793D02*
X1132793Y393500D01*
X1195079Y395372D02*
X1200400Y400693D01*
Y444800D01*
X1132793Y393500D02*
X1189000D01*
X1201200Y381300D01*
X472100Y408598D02*
X477100Y403598D01*
Y394800D02*
Y403598D01*
X581500Y176093D02*
X588993Y168600D01*
X581500Y176093D02*
Y231043D01*
X562100Y250443D02*
X581500Y231043D01*
X557029Y245372D02*
X562100Y250443D01*
X472100Y333598D02*
X472302Y333800D01*
X494100Y274098D02*
X509600Y258598D01*
X506300Y187693D02*
Y232443D01*
X487700Y251043D02*
X506300Y232443D01*
X553300Y26018D02*
Y92186D01*
X544200Y101286D02*
X553300Y92186D01*
X506300Y175893D02*
X513393Y168800D01*
X509600Y258598D02*
X516900Y251298D01*
Y227500D02*
Y251298D01*
X513200Y223800D02*
X516900Y227500D01*
X513200Y198748D02*
Y223800D01*
Y198748D02*
X528350Y183598D01*
X550300Y124198D02*
X565900Y108598D01*
X456700Y423998D02*
X472100Y408598D01*
X519529Y320372D02*
X525500Y326343D01*
X450800Y326643D02*
X458643Y318800D01*
X431400Y175993D02*
Y232486D01*
X412400Y251486D02*
X431400Y232486D01*
Y175993D02*
X438693Y168700D01*
X425779Y170372D02*
X431400Y175993D01*
X337800Y251186D02*
X356400Y232586D01*
Y175993D02*
Y232586D01*
X281600Y175200D02*
Y232343D01*
X262800Y251143D02*
X281600Y232343D01*
X257029Y245372D02*
X262800Y251143D01*
X332100Y245486D02*
X337800Y251186D01*
X374900Y325743D02*
X381943Y318700D01*
X369529Y320372D02*
X374900Y325743D01*
X300500Y326343D02*
X306471Y320372D01*
X359600Y193248D02*
X378350Y174498D01*
X359600Y193248D02*
Y249498D01*
X356400Y175993D02*
X362021Y170372D01*
X350779D02*
X356400Y175993D01*
X410200Y29900D02*
Y41700D01*
X226200Y327486D02*
X233200Y320486D01*
X206500Y176093D02*
Y233443D01*
X188300Y251643D02*
X206500Y233443D01*
X150300Y326143D02*
X160543Y315900D01*
X101472Y95372D02*
X116443D01*
X87200Y81100D02*
X101472Y95372D01*
X87200Y28630D02*
Y81100D01*
X78942Y20372D02*
X87200Y28630D01*
X122300Y101229D02*
Y160418D01*
X105000Y177718D02*
X122300Y160418D01*
X97654Y170372D02*
X105000Y177718D01*
Y239893D01*
X93900Y250993D02*
Y309143D01*
X76100Y326943D02*
X93900Y309143D01*
X69529Y320372D02*
X76100Y326943D01*
X1356900Y356000D02*
X1357100Y355800D01*
X116443Y95372D02*
X122300Y101229D01*
X93900Y250993D02*
X105000Y239893D01*
X88279Y245372D02*
X93900Y250993D01*
X281600Y175200D02*
X288200Y168600D01*
X206500Y176093D02*
X213843Y168750D01*
X238329Y95372D02*
X245200Y102243D01*
X1050500Y400793D02*
Y451800D01*
X1344529Y245372D02*
X1350100Y250943D01*
Y175943D02*
Y250943D01*
X1344529Y95372D02*
X1350100Y100943D01*
X1344529Y170372D02*
X1350100Y175943D01*
Y100943D02*
Y175943D01*
X1269529Y95372D02*
X1274900Y100743D01*
Y175743D01*
Y25686D02*
Y100743D01*
X1269600Y20386D02*
X1274900Y25686D01*
X1269529Y170372D02*
X1274900Y175743D01*
Y250193D01*
X1270079Y245372D02*
X1274900Y250193D01*
Y325193D01*
X1270079Y320372D02*
X1274900Y325193D01*
Y382000D01*
X1261700Y396500D02*
X1274900Y382000D01*
X1194500Y95486D02*
X1201200Y102186D01*
Y26986D02*
Y102186D01*
X1194600Y20386D02*
X1201200Y26986D01*
X1194529Y170372D02*
X1201200Y177043D01*
Y251493D01*
X1195079Y245372D02*
X1201200Y251493D01*
Y326493D01*
X1195079Y320372D02*
X1201200Y326493D01*
Y381300D01*
X1125500Y400793D02*
Y449500D01*
X1120079Y395372D02*
X1125500Y400793D01*
X1045079Y395372D02*
X1050500Y400793D01*
X1050100Y25943D02*
Y86400D01*
X1019200Y117300D02*
X1050100Y86400D01*
X1044529Y20372D02*
X1050100Y25943D01*
X950779Y170372D02*
X956100Y175693D01*
X894800Y395286D02*
X899600Y400086D01*
Y455500D01*
Y325486D02*
Y400086D01*
X894800Y320686D02*
X899600Y325486D01*
X825300Y401143D02*
Y454400D01*
X819529Y395372D02*
X825300Y401143D01*
Y326143D02*
Y401143D01*
X862200Y250586D02*
Y263186D01*
X862193Y263193D02*
X862200Y263186D01*
X857000Y245386D02*
X862200Y250586D01*
X969800Y20586D02*
X974700Y25486D01*
X893000Y93900D02*
X900400Y86500D01*
Y26243D02*
Y86500D01*
X894529Y20372D02*
X900400Y26243D01*
X819500Y93600D02*
X825200Y87900D01*
Y26043D02*
Y87900D01*
X819529Y20372D02*
X825200Y26043D01*
X800779Y170372D02*
X806200Y175793D01*
X749700Y400786D02*
Y454800D01*
Y325543D02*
Y400786D01*
X744200Y395286D02*
X749700Y400786D01*
X674700Y400386D02*
Y456500D01*
Y325543D02*
Y400386D01*
X669800Y395486D02*
X674700Y400386D01*
X669529Y320372D02*
X674700Y325543D01*
X725779Y170372D02*
X731200Y175793D01*
X763329Y95372D02*
X769200Y101243D01*
X688200Y95286D02*
X693600Y100686D01*
X637693Y262893D02*
X656400Y244186D01*
X594529Y395372D02*
X600000Y400843D01*
Y458700D01*
Y325843D02*
Y400843D01*
X525500Y401343D02*
Y457200D01*
X519529Y395372D02*
X525500Y401343D01*
Y326343D02*
Y401343D01*
X575779Y170372D02*
X581500Y176093D01*
X613500Y95286D02*
X618800Y100586D01*
X547654Y20372D02*
X553300Y26018D01*
X506300Y175893D02*
Y187693D01*
X506246Y187747D02*
X506300Y187693D01*
X500779Y170372D02*
X506300Y175893D01*
X482029Y245372D02*
X487700Y251043D01*
X450800Y401643D02*
Y456600D01*
Y326643D02*
Y401643D01*
X444529Y395372D02*
X450800Y401643D01*
X444529Y320372D02*
X450800Y326643D01*
X374900Y400743D02*
Y457800D01*
X369529Y395372D02*
X374900Y400743D01*
Y325743D02*
Y400743D01*
X406900Y245986D02*
X412400Y251486D01*
X294529Y395372D02*
X300500Y401343D01*
Y457000D01*
Y326343D02*
Y401343D01*
X294529Y320372D02*
X300500Y326343D01*
X289672Y95372D02*
X313329D01*
X271600Y77300D02*
X289672Y95372D01*
X271600Y25530D02*
Y77300D01*
X266441Y20372D02*
X271600Y25530D01*
X313329Y95372D02*
X319400Y101443D01*
X276772Y170372D02*
X281600Y175200D01*
X219400Y395286D02*
X226200Y402086D01*
Y459400D01*
Y327486D02*
Y402086D01*
X219200Y320486D02*
X226200Y327486D01*
X150300Y401143D02*
Y458368D01*
X144529Y395372D02*
X150300Y401143D01*
Y326143D02*
Y401143D01*
X144529Y320372D02*
X150300Y326143D01*
X182029Y245372D02*
X188300Y251643D01*
X200779Y170372D02*
X206500Y176093D01*
X201472Y95372D02*
X238329D01*
X178900Y72800D02*
X201472Y95372D01*
X178900Y26686D02*
Y72800D01*
X172700Y20486D02*
X178900Y26686D01*
X76100Y401943D02*
Y461200D01*
X69529Y395372D02*
X76100Y401943D01*
Y326943D02*
Y401943D01*
X275779Y170372D02*
X276772D01*
X1091900Y310500D02*
X1105000D01*
X1082029Y320372D02*
X1091900Y310500D01*
X1006400Y251386D02*
X1018200Y263186D01*
Y306200D01*
X1013100Y311300D02*
X1018200Y306200D01*
X990343Y311300D02*
X1013100D01*
X851286Y93900D02*
X893000D01*
X776843Y93600D02*
X819500D01*
D58*
X1478500Y376200D02*
X1493264D01*
X1513736Y366200D02*
X1528500D01*
X1046700Y264100D02*
X1046800Y264000D01*
X999300Y216500D02*
X1046800Y264000D01*
X1108100Y340100D02*
X1114500Y333700D01*
Y286500D02*
Y333700D01*
Y286500D02*
X1120200Y280800D01*
X1513736Y103700D02*
X1528500D01*
X1530386Y136814D02*
X1549932Y117268D01*
X1513736Y253700D02*
X1528500D01*
X1529486Y287714D02*
Y303400D01*
Y287714D02*
X1553500Y263700D01*
X1494529Y268600D02*
Y299935D01*
X1007200Y274614D02*
Y299764D01*
X1119700Y43614D02*
Y74764D01*
X1005764Y301200D02*
X1007200Y299764D01*
X1006400Y274614D02*
X1007200D01*
X1380764Y76200D02*
X1382100Y74864D01*
Y44450D02*
Y74864D01*
X1118264Y76200D02*
X1119700Y74764D01*
X1118900Y43614D02*
X1119700D01*
X1553500Y376200D02*
X1568264D01*
X1569529Y343600D02*
Y374935D01*
X1568264Y376200D02*
X1569529Y374935D01*
X1553500Y113700D02*
X1568264D01*
X1530386Y136814D02*
Y157300D01*
X1553500Y263700D02*
X1568264D01*
X1493264Y376200D02*
X1494529Y374935D01*
Y343600D02*
Y374935D01*
X1478500Y301200D02*
X1493264D01*
X1494529Y299935D01*
X538400Y118714D02*
Y149864D01*
X537064Y151200D02*
X538400Y149864D01*
X522300Y151200D02*
X537064D01*
X482536Y141200D02*
X497300D01*
X1091400Y365000D02*
Y420800D01*
Y365000D02*
X1109400Y347000D01*
X1080764Y376200D02*
X1082029Y374935D01*
Y343600D02*
Y374935D01*
X999300Y201600D02*
Y216500D01*
X1130500Y258900D02*
X1136300Y264700D01*
X1130500Y203700D02*
Y258900D01*
Y203700D02*
X1137600Y196600D01*
X962600Y144000D02*
Y182400D01*
X970100Y189900D02*
X970300D01*
X962600Y182400D02*
X970100Y189900D01*
X962600Y144000D02*
X985900Y120700D01*
X116443Y118600D02*
Y149935D01*
X13736Y366200D02*
X28500D01*
X222300Y151200D02*
X237064D01*
X238329Y118600D02*
Y149935D01*
X100414Y151200D02*
X115178D01*
X97654Y193600D02*
Y224935D01*
X1494529Y43600D02*
Y74935D01*
X1493264Y76200D02*
X1494529Y74935D01*
X1478500Y76200D02*
X1493264D01*
X1438736Y66200D02*
X1453500D01*
X1494529Y118600D02*
Y149935D01*
X1493264Y151200D02*
X1494529Y149935D01*
X1478500Y151200D02*
X1493264D01*
X1438736Y141200D02*
X1453500D01*
X1494529Y193600D02*
Y224935D01*
X1493264Y226200D02*
X1494529Y224935D01*
X1478500Y226200D02*
X1493264D01*
X1438736Y216200D02*
X1453500D01*
X1438736Y291200D02*
X1453500D01*
X1438736Y366200D02*
X1453500D01*
X1419529Y343600D02*
Y374935D01*
X1418264Y376200D02*
X1419529Y374935D01*
X1403500Y376200D02*
X1418264D01*
X1363736Y366200D02*
X1378500D01*
X1419600Y268714D02*
Y299864D01*
X1418264Y301200D02*
X1419600Y299864D01*
X1403500Y301200D02*
X1418264D01*
X1363736Y291200D02*
X1378500D01*
X1419529Y193600D02*
Y224935D01*
X1418264Y226200D02*
X1419529Y224935D01*
X1403500Y226200D02*
X1418264D01*
X1363736Y216200D02*
X1378500D01*
X1419529Y118600D02*
Y149935D01*
X1418264Y151200D02*
X1419529Y149935D01*
X1403500Y151200D02*
X1418264D01*
X1363736Y141200D02*
X1378500D01*
X1366000Y76200D02*
X1380764D01*
X1326236Y66200D02*
X1341000D01*
X1344529Y118600D02*
Y149935D01*
X1343264Y151200D02*
X1344529Y149935D01*
X1328500Y151200D02*
X1343264D01*
X1288736Y141200D02*
X1303500D01*
X1344529Y193600D02*
Y224935D01*
X1343264Y226200D02*
X1344529Y224935D01*
X1328500Y226200D02*
X1343264D01*
X1288736Y216200D02*
X1303500D01*
X1269529Y193600D02*
Y224935D01*
X1268264Y226200D02*
X1269529Y224935D01*
X1253500Y226200D02*
X1268264D01*
X1213736Y216200D02*
X1228500D01*
X1213736Y141200D02*
X1228500D01*
X1253500Y151200D02*
X1268264D01*
X1269529Y149935D01*
Y118600D02*
Y149935D01*
X1269600Y43614D02*
Y74864D01*
X1268264Y76200D02*
X1269600Y74864D01*
X1253500Y76200D02*
X1268264D01*
X1213736Y66200D02*
X1228500D01*
X1344529Y343600D02*
Y374935D01*
X1343264Y376200D02*
X1344529Y374935D01*
X1328500Y376200D02*
X1343264D01*
X1288736Y366200D02*
X1303500D01*
X1344529Y268600D02*
Y299935D01*
X1343264Y301200D02*
X1344529Y299935D01*
X1328500Y301200D02*
X1343264D01*
X1288736Y291200D02*
X1303500D01*
X1270079Y268600D02*
Y299385D01*
X1268264Y301200D02*
X1270079Y299385D01*
X1253500Y301200D02*
X1268264D01*
X1213736Y291200D02*
X1228500D01*
X1270079Y343600D02*
Y374385D01*
X1268264Y376200D02*
X1270079Y374385D01*
X1253500Y376200D02*
X1268264D01*
X1213736Y366200D02*
X1228500D01*
X1270079Y418600D02*
Y449385D01*
X1268264Y451200D02*
X1270079Y449385D01*
X1253500Y451200D02*
X1268264D01*
X1213736Y441200D02*
X1228500D01*
X1194600Y43614D02*
Y74864D01*
X1193264Y76200D02*
X1194600Y74864D01*
X1178500Y76200D02*
X1193264D01*
X1138736Y66200D02*
X1153500D01*
X1194500Y118714D02*
Y149964D01*
X1193264Y151200D02*
X1194500Y149964D01*
X1178500Y151200D02*
X1193264D01*
X1138736Y141200D02*
X1153500D01*
X1194529Y193600D02*
Y224935D01*
X1193264Y226200D02*
X1194529Y224935D01*
X1178500Y226200D02*
X1193264D01*
X1138736Y216200D02*
X1153500D01*
X1195079Y268600D02*
Y299385D01*
X1193264Y301200D02*
X1195079Y299385D01*
X1178500Y301200D02*
X1193264D01*
X1138736Y291200D02*
X1153500D01*
X1195079Y343600D02*
Y374385D01*
X1193264Y376200D02*
X1195079Y374385D01*
X1178500Y376200D02*
X1193264D01*
X1138736Y366200D02*
X1153500D01*
X1195079Y418600D02*
Y449385D01*
X1193264Y451200D02*
X1195079Y449385D01*
X1178500Y451200D02*
X1193264D01*
X1138736Y441200D02*
X1153500D01*
X1120079Y418600D02*
Y449385D01*
X1118264Y451200D02*
X1120079Y449385D01*
X1103500Y451200D02*
X1118264D01*
X1063736Y441200D02*
X1078500D01*
X1045079Y418600D02*
Y449385D01*
X1043264Y451200D02*
X1045079Y449385D01*
X1028500Y451200D02*
X1043264D01*
X988736Y441200D02*
X1003500D01*
X1066000Y376200D02*
X1080764D01*
X1026236Y366200D02*
X1041000D01*
X1102900Y272614D02*
Y297814D01*
X1099514Y301200D02*
X1102900Y297814D01*
X1084750Y301200D02*
X1099514D01*
X1044986Y291200D02*
X1059750D01*
X1086886Y197300D02*
Y210703D01*
X1071389Y226200D02*
X1086886Y210703D01*
X1056625Y226200D02*
X1071389D01*
X1016861Y216200D02*
X1031625D01*
X1103500Y76200D02*
X1118264D01*
X1063736Y66200D02*
X1078500D01*
X1054179Y118600D02*
Y149935D01*
X1052914Y151200D02*
X1054179Y149935D01*
X1038150Y151200D02*
X1052914D01*
X998386Y141200D02*
X1013150D01*
X1044529Y43600D02*
Y74935D01*
X1043264Y76200D02*
X1044529Y74935D01*
X1028500Y76200D02*
X1043264D01*
X988736Y66200D02*
X1003500D01*
X969800Y43814D02*
Y74664D01*
X968264Y76200D02*
X969800Y74664D01*
X953500Y76200D02*
X968264D01*
X913736Y66200D02*
X928500D01*
X950779Y193600D02*
Y224935D01*
X949514Y226200D02*
X950779Y224935D01*
X934750Y226200D02*
X949514D01*
X894986Y216200D02*
X909750D01*
X991000Y301200D02*
X1005764D01*
X951236Y291200D02*
X966000D01*
X932029Y268600D02*
Y299935D01*
X930764Y301200D02*
X932029Y299935D01*
X916000Y301200D02*
X930764D01*
X876236Y291200D02*
X891000D01*
X969529Y343600D02*
Y374935D01*
X968264Y376200D02*
X969529Y374935D01*
X953500Y376200D02*
X968264D01*
X913736Y366200D02*
X928500D01*
X970600Y418514D02*
Y448864D01*
X968264Y451200D02*
X970600Y448864D01*
X953500Y451200D02*
X968264D01*
X913736Y441200D02*
X928500D01*
X838736D02*
X853500D01*
X878500Y451200D02*
X893264D01*
X894800Y449664D01*
Y418514D02*
Y449664D01*
X838736Y366200D02*
X853500D01*
X878500Y376200D02*
X893264D01*
X894800Y374664D01*
Y343914D02*
Y374664D01*
X801236Y291200D02*
X816000D01*
X841000Y301200D02*
X855764D01*
X857000Y299964D01*
Y268614D02*
Y299964D01*
X819986Y216200D02*
X834750D01*
X859750Y226200D02*
X874514D01*
X875779Y224935D01*
Y193600D02*
Y224935D01*
X913329Y118600D02*
Y149935D01*
X912064Y151200D02*
X913329Y149935D01*
X897300Y151200D02*
X912064D01*
X857536Y141200D02*
X872300D01*
X894529Y43600D02*
Y74935D01*
X893264Y76200D02*
X894529Y74935D01*
X878500Y76200D02*
X893264D01*
X838736Y66200D02*
X853500D01*
X819529Y43600D02*
Y74935D01*
X818264Y76200D02*
X819529Y74935D01*
X803500Y76200D02*
X818264D01*
X763736Y66200D02*
X778500D01*
X838300Y118714D02*
Y149964D01*
X837064Y151200D02*
X838300Y149964D01*
X822300Y151200D02*
X837064D01*
X782536Y141200D02*
X797300D01*
X800779Y193600D02*
Y224935D01*
X799514Y226200D02*
X800779Y224935D01*
X784750Y226200D02*
X799514D01*
X744986Y216200D02*
X759750D01*
X781800Y268714D02*
Y300164D01*
X780764Y301200D02*
X781800Y300164D01*
X766000Y301200D02*
X780764D01*
X726236Y291200D02*
X741000D01*
X819529Y343600D02*
Y374935D01*
X818264Y376200D02*
X819529Y374935D01*
X803500Y376200D02*
X818264D01*
X763736Y366200D02*
X778500D01*
X819529Y418600D02*
Y449935D01*
X818264Y451200D02*
X819529Y449935D01*
X803500Y451200D02*
X818264D01*
X763736Y441200D02*
X778500D01*
X744200Y418514D02*
Y450264D01*
X743264Y451200D02*
X744200Y450264D01*
X728500Y451200D02*
X743264D01*
X688736Y441200D02*
X703500D01*
X669800Y418714D02*
Y449664D01*
X668264Y451200D02*
X669800Y449664D01*
X653500Y451200D02*
X668264D01*
X613736Y441200D02*
X628500D01*
X688736Y366200D02*
X703500D01*
X728500Y376200D02*
X743264D01*
X744529Y374935D01*
Y343600D02*
Y374935D01*
X651236Y291200D02*
X666000D01*
X691000Y301200D02*
X705764D01*
X707100Y299864D01*
Y268714D02*
Y299864D01*
X669529Y343600D02*
Y374935D01*
X668264Y376200D02*
X669529Y374935D01*
X653500Y376200D02*
X668264D01*
X613736Y366200D02*
X628500D01*
X576236Y291200D02*
X591000D01*
X616000Y301200D02*
X630764D01*
X631800Y300164D01*
Y268614D02*
Y300164D01*
X594986Y216200D02*
X609750D01*
X634750Y226200D02*
X649514D01*
X650779Y224935D01*
Y193600D02*
Y224935D01*
X688200Y118514D02*
Y150064D01*
X687064Y151200D02*
X688200Y150064D01*
X672300Y151200D02*
X687064D01*
X632536Y141200D02*
X647300D01*
X669986Y216200D02*
X684750D01*
X709750Y226200D02*
X724514D01*
X725779Y224935D01*
Y193600D02*
Y224935D01*
X763329Y118600D02*
Y149935D01*
X762064Y151200D02*
X763329Y149935D01*
X747300Y151200D02*
X762064D01*
X707536Y141200D02*
X722300D01*
X613500Y118514D02*
Y149764D01*
X612064Y151200D02*
X613500Y149764D01*
X597300Y151200D02*
X612064D01*
X557536Y141200D02*
X572300D01*
X547654Y43600D02*
Y74935D01*
X546389Y76200D02*
X547654Y74935D01*
X531625Y76200D02*
X546389D01*
X491861Y66200D02*
X506625D01*
X575779Y193600D02*
Y224935D01*
X574514Y226200D02*
X575779Y224935D01*
X559750Y226200D02*
X574514D01*
X519986Y216200D02*
X534750D01*
X500779Y193600D02*
Y224935D01*
X499514Y226200D02*
X500779Y224935D01*
X484750Y226200D02*
X499514D01*
X444986Y216200D02*
X459750D01*
X557029Y268600D02*
Y299935D01*
X555764Y301200D02*
X557029Y299935D01*
X541000Y301200D02*
X555764D01*
X501236Y291200D02*
X516000D01*
X482029Y268600D02*
Y299935D01*
X480764Y301200D02*
X482029Y299935D01*
X466000Y301200D02*
X480764D01*
X426236Y291200D02*
X441000D01*
X594529Y343600D02*
Y374935D01*
X593264Y376200D02*
X594529Y374935D01*
X578500Y376200D02*
X593264D01*
X538736Y366200D02*
X553500D01*
X519529Y343600D02*
Y374935D01*
X518264Y376200D02*
X519529Y374935D01*
X463736Y366200D02*
X478500D01*
X503500Y376200D02*
X518264D01*
X594529Y418600D02*
Y449935D01*
X593264Y451200D02*
X594529Y449935D01*
X578500Y451200D02*
X593264D01*
X538736Y441200D02*
X553500D01*
X503500Y451200D02*
X518264D01*
X519529Y418600D02*
Y449935D01*
X518264Y451200D02*
X519529Y449935D01*
X463736Y441200D02*
X478500D01*
X388736D02*
X403500D01*
X428500Y451200D02*
X443264D01*
X444529Y449935D01*
Y418600D02*
Y449935D01*
X388736Y366200D02*
X403500D01*
X428500Y376200D02*
X443264D01*
X444529Y374935D01*
Y343600D02*
Y374935D01*
X425779Y193600D02*
Y224935D01*
X424514Y226200D02*
X425779Y224935D01*
X409750Y226200D02*
X424514D01*
X369986Y216200D02*
X384750D01*
X447300Y151200D02*
X462064D01*
X407536Y141200D02*
X422300D01*
X462064Y151200D02*
X463329Y149935D01*
Y118600D02*
Y149935D01*
X388329Y118600D02*
Y149935D01*
X387064Y151200D02*
X388329Y149935D01*
X372300Y151200D02*
X387064D01*
X332536Y141200D02*
X347300D01*
X350779Y193600D02*
Y224935D01*
X349514Y226200D02*
X350779Y224935D01*
X334750Y226200D02*
X349514D01*
X294986Y216200D02*
X309750D01*
X406900Y269214D02*
Y300064D01*
X405764Y301200D02*
X406900Y300064D01*
X391000Y301200D02*
X405764D01*
X351236Y291200D02*
X366000D01*
X332100Y268714D02*
Y299864D01*
X330764Y301200D02*
X332100Y299864D01*
X316000Y301200D02*
X330764D01*
X276236Y291200D02*
X291000D01*
X369529Y343600D02*
Y374935D01*
X368264Y376200D02*
X369529Y374935D01*
X353500Y376200D02*
X368264D01*
X313736Y366200D02*
X328500D01*
X369529Y418600D02*
Y449935D01*
X368264Y451200D02*
X369529Y449935D01*
X353500Y451200D02*
X368264D01*
X313736Y441200D02*
X328500D01*
X294529Y418600D02*
Y449935D01*
X293264Y451200D02*
X294529Y449935D01*
X278500Y451200D02*
X293264D01*
X238736Y441200D02*
X253500D01*
X219400Y418514D02*
Y450064D01*
X218264Y451200D02*
X219400Y450064D01*
X203500Y451200D02*
X218264D01*
X163736Y441200D02*
X178500D01*
X238736Y366200D02*
X253500D01*
X278500Y376200D02*
X293264D01*
X294529Y374935D01*
Y343600D02*
Y374935D01*
X163736Y366200D02*
X178500D01*
X218264Y376200D02*
X219200Y375264D01*
X203500Y376200D02*
X218264D01*
X219200Y343714D02*
Y375264D01*
X201236Y291200D02*
X216000D01*
X241000Y301200D02*
X255764D01*
X257029Y299935D01*
Y268600D02*
Y299935D01*
X219986Y216200D02*
X234750D01*
X259750Y226200D02*
X274514D01*
X275779Y224935D01*
Y193600D02*
Y224935D01*
X257536Y141200D02*
X272300D01*
X297300Y151200D02*
X312064D01*
X313329Y149935D01*
Y118600D02*
Y149935D01*
X237064Y151200D02*
X238329Y149935D01*
X182536Y141200D02*
X197300D01*
X266441Y43600D02*
Y74935D01*
X265177Y76200D02*
X266441Y74935D01*
X250413Y76200D02*
X265177D01*
X210649Y66200D02*
X225413D01*
X172700Y43714D02*
Y74927D01*
X171427Y76200D02*
X172700Y74927D01*
X156663Y76200D02*
X171427D01*
X116899Y66200D02*
X131663D01*
X78942Y43600D02*
Y74935D01*
X77677Y76200D02*
X78942Y74935D01*
X62913Y76200D02*
X77677D01*
X23149Y66200D02*
X37913D01*
X115178Y151200D02*
X116443Y149935D01*
X60650Y141200D02*
X75414D01*
X200779Y193600D02*
Y224935D01*
X199514Y226200D02*
X200779Y224935D01*
X184750Y226200D02*
X199514D01*
X144986Y216200D02*
X159750D01*
X96389Y226200D02*
X97654Y224935D01*
X81625Y226200D02*
X96389D01*
X41861Y216200D02*
X56625D01*
X182029Y268600D02*
Y299935D01*
X180764Y301200D02*
X182029Y299935D01*
X166000Y301200D02*
X180764D01*
X126236Y291200D02*
X141000D01*
X32486D02*
X47250D01*
X88279Y268600D02*
Y299935D01*
X87014Y301200D02*
X88279Y299935D01*
X72250Y301200D02*
X87014D01*
X144529Y343600D02*
Y374935D01*
X143264Y376200D02*
X144529Y374935D01*
X128500Y376200D02*
X143264D01*
X88736Y366200D02*
X103500D01*
X53500Y376200D02*
X68264D01*
X144529Y418600D02*
Y449935D01*
X143264Y451200D02*
X144529Y449935D01*
X128500Y451200D02*
X143264D01*
X88736Y441200D02*
X103500D01*
X13736D02*
X28500D01*
X53500Y451200D02*
X68264D01*
X69529Y343600D02*
Y374935D01*
X68264Y376200D02*
X69529Y374935D01*
X68264Y451200D02*
X69529Y449935D01*
Y418600D02*
Y449935D01*
D59*
X1536843Y468464D02*
X1540261Y471882D01*
X1527900Y468464D02*
X1536843D01*
X1525417D02*
X1527900D01*
X1525417Y463658D02*
Y468464D01*
X1522417Y463658D02*
X1525417D01*
X1522417D02*
Y468464D01*
X1519417D02*
X1522417D01*
X1517917D02*
X1519417D01*
X1538117Y477600D02*
X1542117Y481600D01*
X1532917Y472400D02*
X1538117Y477600D01*
X1542033Y473654D02*
Y476800D01*
X1517917Y472400D02*
X1532917D01*
X1463071Y485068D02*
X1464636Y483502D01*
X1459323Y485068D02*
X1463071D01*
X1457763Y483507D02*
X1459323Y485068D01*
X1457763Y481200D02*
Y483507D01*
X1540261Y471882D02*
X1542033Y473654D01*
X1542117Y481600D02*
Y483100D01*
D60*
X1456850Y494800D02*
D03*
X1451850D02*
D03*
X1410750D02*
D03*
X1415749D02*
D03*
X1420749D02*
D03*
X1425749D02*
D03*
X1430750D02*
D03*
D61*
X1517813Y503698D02*
D03*
X1562301D02*
D03*
D62*
X1523049Y482592D02*
D03*
X1557065D02*
D03*
D63*
X1066000Y376200D02*
D03*
X1041000Y366200D02*
D03*
X1341000Y66200D02*
D03*
X1366000Y76200D02*
D03*
X1013150Y141200D02*
D03*
X1038150Y151200D02*
D03*
X531625Y76200D02*
D03*
X506625Y66200D02*
D03*
X1528500Y253700D02*
D03*
X1553500Y263700D02*
D03*
X1528500Y103700D02*
D03*
X1553500Y113700D02*
D03*
X1056625Y226200D02*
D03*
X1031625Y216200D02*
D03*
X100414Y151200D02*
D03*
X75414Y141200D02*
D03*
X81625Y226200D02*
D03*
X56625Y216200D02*
D03*
X72250Y301200D02*
D03*
X47250Y291200D02*
D03*
X1084750Y301200D02*
D03*
X1059750Y291200D02*
D03*
X37913Y66200D02*
D03*
X62913Y76200D02*
D03*
X156663D02*
D03*
X131663Y66200D02*
D03*
X225413D02*
D03*
X250413Y76200D02*
D03*
X53500Y451200D02*
D03*
X28500Y441200D02*
D03*
X128500Y451200D02*
D03*
X103500Y441200D02*
D03*
X203500Y451200D02*
D03*
X178500Y441200D02*
D03*
X278500Y451200D02*
D03*
X253500Y441200D02*
D03*
X353500Y451200D02*
D03*
X328500Y441200D02*
D03*
X428500Y451200D02*
D03*
X403500Y441200D02*
D03*
X503500Y451200D02*
D03*
X478500Y441200D02*
D03*
X578500Y451200D02*
D03*
X553500Y441200D02*
D03*
X653500Y451200D02*
D03*
X628500Y441200D02*
D03*
X728500Y451200D02*
D03*
X703500Y441200D02*
D03*
X803500Y451200D02*
D03*
X778500Y441200D02*
D03*
X878500Y451200D02*
D03*
X853500Y441200D02*
D03*
X953500Y451200D02*
D03*
X928500Y441200D02*
D03*
X1028500Y451200D02*
D03*
X1003500Y441200D02*
D03*
X1103500Y451200D02*
D03*
X1078500Y441200D02*
D03*
X1178500Y451200D02*
D03*
X1153500Y441200D02*
D03*
X1253500Y451200D02*
D03*
X1228500Y441200D02*
D03*
X53500Y376200D02*
D03*
X28500Y366200D02*
D03*
X128500Y376200D02*
D03*
X103500Y366200D02*
D03*
X203500Y376200D02*
D03*
X178500Y366200D02*
D03*
X278500Y376200D02*
D03*
X253500Y366200D02*
D03*
X353500Y376200D02*
D03*
X328500Y366200D02*
D03*
X428500Y376200D02*
D03*
X403500Y366200D02*
D03*
X503500Y376200D02*
D03*
X478500Y366200D02*
D03*
X578500Y376200D02*
D03*
X553500Y366200D02*
D03*
X653500Y376200D02*
D03*
X628500Y366200D02*
D03*
X728500Y376200D02*
D03*
X703500Y366200D02*
D03*
X803500Y376200D02*
D03*
X778500Y366200D02*
D03*
X878500Y376200D02*
D03*
X853500Y366200D02*
D03*
X953500Y376200D02*
D03*
X928500Y366200D02*
D03*
X1178500Y376200D02*
D03*
X1153500Y366200D02*
D03*
X1253500Y376200D02*
D03*
X1228500Y366200D02*
D03*
X1328500Y376200D02*
D03*
X1303500Y366200D02*
D03*
X1403500Y376200D02*
D03*
X1378500Y366200D02*
D03*
X1478500Y376200D02*
D03*
X1453500Y366200D02*
D03*
X1553500Y376200D02*
D03*
X1528500Y366200D02*
D03*
X166000Y301200D02*
D03*
X141000Y291200D02*
D03*
X241000Y301200D02*
D03*
X216000Y291200D02*
D03*
X316000Y301200D02*
D03*
X291000Y291200D02*
D03*
X391000Y301200D02*
D03*
X366000Y291200D02*
D03*
X466000Y301200D02*
D03*
X441000Y291200D02*
D03*
X541000Y301200D02*
D03*
X516000Y291200D02*
D03*
X616000Y301200D02*
D03*
X591000Y291200D02*
D03*
X691000Y301200D02*
D03*
X666000Y291200D02*
D03*
X766000Y301200D02*
D03*
X741000Y291200D02*
D03*
X841000Y301200D02*
D03*
X816000Y291200D02*
D03*
X916000Y301200D02*
D03*
X891000Y291200D02*
D03*
X991000Y301200D02*
D03*
X966000Y291200D02*
D03*
X1178500Y301200D02*
D03*
X1153500Y291200D02*
D03*
X1253500Y301200D02*
D03*
X1228500Y291200D02*
D03*
X1328500Y301200D02*
D03*
X1303500Y291200D02*
D03*
X1403500Y301200D02*
D03*
X1378500Y291200D02*
D03*
X1478500Y301200D02*
D03*
X1453500Y291200D02*
D03*
X184750Y226200D02*
D03*
X159750Y216200D02*
D03*
X259750Y226200D02*
D03*
X234750Y216200D02*
D03*
X484750Y226200D02*
D03*
X459750Y216200D02*
D03*
X559750Y226200D02*
D03*
X534750Y216200D02*
D03*
X634750Y226200D02*
D03*
X609750Y216200D02*
D03*
X709750Y226200D02*
D03*
X684750Y216200D02*
D03*
X784750Y226200D02*
D03*
X759750Y216200D02*
D03*
X859750Y226200D02*
D03*
X834750Y216200D02*
D03*
X934750Y226200D02*
D03*
X909750Y216200D02*
D03*
X1178500Y226200D02*
D03*
X1153500Y216200D02*
D03*
X1253500Y226200D02*
D03*
X1228500Y216200D02*
D03*
X1328500Y226200D02*
D03*
X1303500Y216200D02*
D03*
X1403500Y226200D02*
D03*
X1378500Y216200D02*
D03*
X1478500Y226200D02*
D03*
X1453500Y216200D02*
D03*
X334750Y226200D02*
D03*
X309750Y216200D02*
D03*
X409750Y226200D02*
D03*
X384750Y216200D02*
D03*
X222300Y151200D02*
D03*
X197300Y141200D02*
D03*
X297300Y151200D02*
D03*
X272300Y141200D02*
D03*
X372300Y151200D02*
D03*
X347300Y141200D02*
D03*
X447300Y151200D02*
D03*
X422300Y141200D02*
D03*
X522300Y151200D02*
D03*
X497300Y141200D02*
D03*
X597300Y151200D02*
D03*
X572300Y141200D02*
D03*
X672300Y151200D02*
D03*
X647300Y141200D02*
D03*
X747300Y151200D02*
D03*
X722300Y141200D02*
D03*
X822300Y151200D02*
D03*
X797300Y141200D02*
D03*
X897300Y151200D02*
D03*
X872300Y141200D02*
D03*
X1178500Y151200D02*
D03*
X1153500Y141200D02*
D03*
X1253500Y151200D02*
D03*
X1228500Y141200D02*
D03*
X1328500Y151200D02*
D03*
X1303500Y141200D02*
D03*
X1403500Y151200D02*
D03*
X1378500Y141200D02*
D03*
X1478500Y151200D02*
D03*
X1453500Y141200D02*
D03*
X803500Y76200D02*
D03*
X778500Y66200D02*
D03*
X953500Y76200D02*
D03*
X928500Y66200D02*
D03*
X1028500Y76200D02*
D03*
X1003500Y66200D02*
D03*
X1103500Y76200D02*
D03*
X1078500Y66200D02*
D03*
X1178500Y76200D02*
D03*
X1153500Y66200D02*
D03*
X1253500Y76200D02*
D03*
X1228500Y66200D02*
D03*
X1478500Y76200D02*
D03*
X1453500Y66200D02*
D03*
X878500Y76200D02*
D03*
X853500Y66200D02*
D03*
D64*
X1563200Y429300D02*
D03*
X1519500Y427463D02*
D03*
X1527500Y429300D02*
D03*
X1538751Y434400D02*
D03*
X1511850Y426000D02*
D03*
X1506700Y449700D02*
D03*
X1471549Y482600D02*
D03*
X1529400Y454314D02*
D03*
X1518300Y444700D02*
D03*
X1457450Y461900D02*
D03*
X1606300Y396200D02*
D03*
X1590452Y396971D02*
D03*
X1598600Y396495D02*
D03*
X1579323Y408100D02*
D03*
X1539100Y386500D02*
D03*
X1351300Y387100D02*
D03*
X1135289Y408598D02*
D03*
X1113000D02*
D03*
X1147100Y401700D02*
D03*
X1178500Y264035D02*
D03*
X1178700Y114300D02*
D03*
X22100Y399498D02*
D03*
X40850Y249800D02*
D03*
X22100Y324498D02*
D03*
X69014Y99498D02*
D03*
X69288Y24498D02*
D03*
X50225Y174498D02*
D03*
X31513Y24498D02*
D03*
X1113000Y405200D02*
D03*
X1179700Y258900D02*
D03*
Y108900D02*
D03*
X40850Y254048D02*
D03*
X22100Y404048D02*
D03*
Y329048D02*
D03*
X69014Y104048D02*
D03*
X69288Y29048D02*
D03*
X50225Y179048D02*
D03*
X31513Y29048D02*
D03*
X1147100Y408598D02*
D03*
X1135289Y401700D02*
D03*
X1113000D02*
D03*
X1162400Y253800D02*
D03*
Y103800D02*
D03*
X40850Y258598D02*
D03*
X22100Y408598D02*
D03*
Y333598D02*
D03*
X69014Y108598D02*
D03*
X69288Y33598D02*
D03*
X50225Y183598D02*
D03*
X31513Y33598D02*
D03*
X1253400Y264600D02*
D03*
X1222100Y399498D02*
D03*
X1254100Y114000D02*
D03*
X97100Y399498D02*
D03*
X122871Y249100D02*
D03*
X97100Y324200D02*
D03*
X179171Y99498D02*
D03*
X141621Y174498D02*
D03*
X163038Y24498D02*
D03*
X113534D02*
D03*
X1254700Y258900D02*
D03*
X1222100Y404048D02*
D03*
X1254700Y108900D02*
D03*
X141621Y179048D02*
D03*
X97100Y404048D02*
D03*
X122871Y254000D02*
D03*
X97100Y328750D02*
D03*
X179171Y104048D02*
D03*
X163038Y29048D02*
D03*
X113534D02*
D03*
X1222100Y408598D02*
D03*
X1237400Y253800D02*
D03*
X1258200Y107500D02*
D03*
X1237400Y103800D02*
D03*
X122871Y258700D02*
D03*
X141621Y183598D02*
D03*
X97100Y408598D02*
D03*
Y333300D02*
D03*
X179171Y108598D02*
D03*
X163038Y33598D02*
D03*
X113534D02*
D03*
X1329200Y264100D02*
D03*
X1329100Y115100D02*
D03*
X265900Y99498D02*
D03*
X209600Y249498D02*
D03*
X171100Y399498D02*
D03*
X172100Y324498D02*
D03*
X257900Y91000D02*
D03*
X256788Y24498D02*
D03*
X228350Y174498D02*
D03*
X219013Y24498D02*
D03*
X1329700Y258900D02*
D03*
Y108900D02*
D03*
X209600Y254048D02*
D03*
X171100Y404048D02*
D03*
X172100Y329048D02*
D03*
X265900Y104048D02*
D03*
X265700Y89400D02*
D03*
X256788Y29048D02*
D03*
X228350Y179048D02*
D03*
X219013Y29048D02*
D03*
X1312400Y253800D02*
D03*
X1329500Y103800D02*
D03*
X1312400D02*
D03*
X209600Y258598D02*
D03*
X171100Y408598D02*
D03*
X172100Y333598D02*
D03*
X265900Y108598D02*
D03*
X271600Y87600D02*
D03*
X256788Y33598D02*
D03*
X228350Y183598D02*
D03*
X219013Y33598D02*
D03*
X1404700Y265000D02*
D03*
X1403400Y114100D02*
D03*
X1411400Y29500D02*
D03*
X1397400Y99000D02*
D03*
X247100Y399498D02*
D03*
Y324498D02*
D03*
X340900Y99498D02*
D03*
Y24200D02*
D03*
X284600Y249498D02*
D03*
X303350Y174498D02*
D03*
X1545621Y406521D02*
D03*
X1404700Y258900D02*
D03*
X1411800Y108900D02*
D03*
X1531000Y19700D02*
D03*
X1405800Y109200D02*
D03*
X1411400Y34400D02*
D03*
X284600Y254048D02*
D03*
X247100Y404048D02*
D03*
Y329048D02*
D03*
X340900Y104048D02*
D03*
Y28950D02*
D03*
X303350Y179048D02*
D03*
X1549454Y404126D02*
D03*
X1387400Y253800D02*
D03*
X1528100Y22200D02*
D03*
X1387400Y103800D02*
D03*
X1411400Y39000D02*
D03*
X284600Y258598D02*
D03*
X247100Y408598D02*
D03*
Y333598D02*
D03*
X340900Y108598D02*
D03*
Y33500D02*
D03*
X303350Y183598D02*
D03*
X1557118Y399335D02*
D03*
X1479700Y258900D02*
D03*
X1522300Y27200D02*
D03*
X1491529Y34000D02*
D03*
X1479700Y108900D02*
D03*
X1479800Y97300D02*
D03*
X359600Y254048D02*
D03*
X322100Y404048D02*
D03*
Y329048D02*
D03*
X415900Y104048D02*
D03*
Y28750D02*
D03*
X378350Y179048D02*
D03*
X1560950Y396939D02*
D03*
X1462400Y253800D02*
D03*
X1494529Y31300D02*
D03*
X1519400Y29700D02*
D03*
X1462700Y98200D02*
D03*
X359600Y258598D02*
D03*
X322100Y408598D02*
D03*
Y333598D02*
D03*
X415900Y33300D02*
D03*
X378350Y183598D02*
D03*
X415900Y108598D02*
D03*
X1572447Y389753D02*
D03*
X1147100Y333598D02*
D03*
Y183598D02*
D03*
Y33598D02*
D03*
X434600Y258598D02*
D03*
X397100Y408598D02*
D03*
Y333598D02*
D03*
X500225Y33598D02*
D03*
X453350Y183598D02*
D03*
X490900Y108598D02*
D03*
X1568615Y392148D02*
D03*
X1147100Y329048D02*
D03*
Y179048D02*
D03*
Y29048D02*
D03*
X1140100Y29100D02*
D03*
X434600Y254048D02*
D03*
X397100Y404048D02*
D03*
Y329048D02*
D03*
X490900Y104048D02*
D03*
X500225Y29048D02*
D03*
X453350Y179048D02*
D03*
X1564782Y394544D02*
D03*
X1147100Y324498D02*
D03*
Y174498D02*
D03*
Y24498D02*
D03*
X1136700Y24700D02*
D03*
X397100Y399498D02*
D03*
Y324498D02*
D03*
X490900Y99498D02*
D03*
X500225Y24498D02*
D03*
X434600Y249498D02*
D03*
X453350Y174498D02*
D03*
X1517917Y468464D02*
D03*
X1461950Y478037D02*
D03*
X1447950Y481100D02*
D03*
X1367650Y407300D02*
D03*
X1328943Y396600D02*
D03*
X1335250Y417800D02*
D03*
X1360999Y395150D02*
D03*
X1458210Y466911D02*
D03*
X1443050Y435800D02*
D03*
X1446350Y437300D02*
D03*
X1547850Y475525D02*
D03*
X1505050Y509100D02*
D03*
X1415499Y476237D02*
D03*
X1466050Y486100D02*
D03*
X1460250Y448800D02*
D03*
X1453203Y480400D02*
D03*
X1461891Y456053D02*
D03*
X1442650Y469800D02*
D03*
X1435050Y470300D02*
D03*
X1467650Y473100D02*
D03*
X1543950Y464400D02*
D03*
X1410050Y476000D02*
D03*
X1517917Y472400D02*
D03*
Y476200D02*
D03*
X1425749Y472300D02*
D03*
X1355578Y446700D02*
D03*
X1391850Y477700D02*
D03*
X1373450Y461600D02*
D03*
X1431849Y448200D02*
D03*
X1448716Y439933D02*
D03*
X1451583Y437967D02*
D03*
X1454449Y436000D02*
D03*
X1305550Y427500D02*
D03*
X1323349Y432500D02*
D03*
X1333350Y442750D02*
D03*
X1328850Y444326D02*
D03*
X1357950Y392500D02*
D03*
X1354150D02*
D03*
X1046700Y264100D02*
D03*
X1562900Y217300D02*
D03*
X1558800Y217000D02*
D03*
X1427100Y331000D02*
D03*
X1414300Y333500D02*
D03*
X567300Y314400D02*
D03*
X1559300Y203500D02*
D03*
X1525200Y24700D02*
D03*
X1556400Y292100D02*
D03*
X1479800Y264900D02*
D03*
X1487600Y37800D02*
D03*
X1468500Y104300D02*
D03*
Y96800D02*
D03*
X640900Y24498D02*
D03*
Y29048D02*
D03*
Y33598D02*
D03*
X565900Y24498D02*
D03*
Y29048D02*
D03*
Y33598D02*
D03*
X415900Y24000D02*
D03*
X1526100Y324500D02*
D03*
Y329048D02*
D03*
X1553286Y207300D02*
D03*
X1516400Y219500D02*
D03*
X1528500Y214500D02*
D03*
X1526100Y333598D02*
D03*
X1523100Y216900D02*
D03*
X1553286Y401730D02*
D03*
X1083200Y399200D02*
D03*
X1225800Y321000D02*
D03*
X1222100Y329048D02*
D03*
Y179048D02*
D03*
Y29048D02*
D03*
X488700Y453900D02*
D03*
X472100Y404048D02*
D03*
Y329048D02*
D03*
X565900Y104048D02*
D03*
X509600Y254048D02*
D03*
X528350Y179048D02*
D03*
X1222100Y324498D02*
D03*
Y174498D02*
D03*
Y24498D02*
D03*
X492900Y456600D02*
D03*
X472100Y399498D02*
D03*
Y324498D02*
D03*
X565900Y99498D02*
D03*
X509600Y249498D02*
D03*
X528350Y174498D02*
D03*
X1297100Y333598D02*
D03*
Y183598D02*
D03*
X640900Y108598D02*
D03*
X559500Y451200D02*
D03*
X547100Y408598D02*
D03*
Y333598D02*
D03*
X603350Y183598D02*
D03*
X584600Y258598D02*
D03*
X1297100Y329048D02*
D03*
Y179048D02*
D03*
X640900Y104048D02*
D03*
X563700Y453900D02*
D03*
X547100Y404100D02*
D03*
X584600Y254048D02*
D03*
X603350Y179048D02*
D03*
X567200Y310000D02*
D03*
X547100Y329048D02*
D03*
X1297100Y324498D02*
D03*
Y174498D02*
D03*
X640900Y99498D02*
D03*
X567900Y456600D02*
D03*
X547100Y399498D02*
D03*
X603350Y174498D02*
D03*
X564700Y306800D02*
D03*
X547100Y324498D02*
D03*
X584600Y249498D02*
D03*
X1372100Y333598D02*
D03*
Y183598D02*
D03*
X1334600Y33598D02*
D03*
X634500Y451200D02*
D03*
X622100Y408598D02*
D03*
Y333598D02*
D03*
X715900Y108598D02*
D03*
X772100Y33598D02*
D03*
X659600Y258598D02*
D03*
X690174Y171774D02*
D03*
X678350Y183598D02*
D03*
X1571600Y249300D02*
D03*
X1512000Y233500D02*
D03*
X1522100Y66548D02*
D03*
X922100Y29048D02*
D03*
X788700Y453900D02*
D03*
X772100Y404048D02*
D03*
Y329048D02*
D03*
X865900Y104048D02*
D03*
X809600Y254048D02*
D03*
X828350Y179048D02*
D03*
X1522100Y71098D02*
D03*
X922100Y33598D02*
D03*
X784500Y451200D02*
D03*
X772100Y408598D02*
D03*
Y333598D02*
D03*
X865900Y108598D02*
D03*
X809600Y258598D02*
D03*
X828350Y183598D02*
D03*
X1447100Y324600D02*
D03*
Y174498D02*
D03*
Y24498D02*
D03*
X847100D02*
D03*
X717900Y456600D02*
D03*
X697100Y399498D02*
D03*
Y324498D02*
D03*
X790900Y99498D02*
D03*
X734600Y249498D02*
D03*
X763340Y164540D02*
D03*
X753350Y174498D02*
D03*
X1447100Y329048D02*
D03*
Y179048D02*
D03*
Y29048D02*
D03*
X847100D02*
D03*
X713700Y453900D02*
D03*
X697100Y404048D02*
D03*
Y329048D02*
D03*
X790900Y104048D02*
D03*
X734600Y254048D02*
D03*
X753350Y179048D02*
D03*
X770099Y162299D02*
D03*
X1447100Y333598D02*
D03*
Y183598D02*
D03*
Y33598D02*
D03*
X847100D02*
D03*
X709500Y451200D02*
D03*
X697100Y408598D02*
D03*
Y333598D02*
D03*
X770300Y166500D02*
D03*
X790900Y108598D02*
D03*
X734600Y258598D02*
D03*
X753350Y183598D02*
D03*
X1372100Y324498D02*
D03*
Y174498D02*
D03*
X1334600Y24498D02*
D03*
X772100D02*
D03*
X642900Y456600D02*
D03*
X622100Y399498D02*
D03*
Y324498D02*
D03*
X715900Y99498D02*
D03*
X659600Y249498D02*
D03*
X678350Y174498D02*
D03*
X1372100Y329048D02*
D03*
Y179048D02*
D03*
X1334600Y29048D02*
D03*
X638700Y453900D02*
D03*
X622100Y404048D02*
D03*
Y329048D02*
D03*
X715900Y104048D02*
D03*
X772100Y29048D02*
D03*
X659600Y254048D02*
D03*
X690200Y167300D02*
D03*
X678350Y179048D02*
D03*
X1522100Y61998D02*
D03*
X1558800Y226700D02*
D03*
X921200Y406000D02*
D03*
X925605Y408500D02*
D03*
X917800Y403200D02*
D03*
X1087000Y399350D02*
D03*
X1064500Y408700D02*
D03*
X1091400Y420800D02*
D03*
X1072100Y405200D02*
D03*
Y408598D02*
D03*
Y401700D02*
D03*
X847200D02*
D03*
X922100Y24498D02*
D03*
X865900Y99498D02*
D03*
X792900Y456600D02*
D03*
X772100Y399498D02*
D03*
X809600Y249498D02*
D03*
X828350Y174498D02*
D03*
X772100Y324498D02*
D03*
X1136300Y264700D02*
D03*
X1137600Y196600D02*
D03*
X1230300Y320900D02*
D03*
X1427000Y120200D02*
D03*
X1120200Y280800D02*
D03*
X1108100Y340100D02*
D03*
X1109400Y347000D02*
D03*
X847200Y405200D02*
D03*
X982355Y254048D02*
D03*
X959600D02*
D03*
X997500Y254100D02*
D03*
X997600Y258700D02*
D03*
X903350Y179048D02*
D03*
Y183598D02*
D03*
X1072100Y33598D02*
D03*
Y24498D02*
D03*
Y29048D02*
D03*
X1006750Y104048D02*
D03*
Y99498D02*
D03*
Y108598D02*
D03*
X1261700Y396500D02*
D03*
X1205893D02*
D03*
X999300Y201600D02*
D03*
X970300Y189900D02*
D03*
X985900Y120700D02*
D03*
X1362700Y274900D02*
D03*
X1357100Y355800D02*
D03*
X322100Y399498D02*
D03*
X472100Y408598D02*
D03*
X847200D02*
D03*
X484500Y451200D02*
D03*
X867900Y456600D02*
D03*
X863700Y453900D02*
D03*
X859500Y451200D02*
D03*
X934500D02*
D03*
X938700Y453900D02*
D03*
X942900Y456600D02*
D03*
X1222100Y333598D02*
D03*
Y183598D02*
D03*
Y33598D02*
D03*
X1034600Y333598D02*
D03*
Y329048D02*
D03*
Y324498D02*
D03*
X959600Y258598D02*
D03*
Y249498D02*
D03*
X1025225Y183598D02*
D03*
Y179048D02*
D03*
Y174498D02*
D03*
X997100Y33598D02*
D03*
Y29048D02*
D03*
Y24498D02*
D03*
X903350Y174498D02*
D03*
X884600Y258598D02*
D03*
Y254048D02*
D03*
Y249498D02*
D03*
X922100Y333598D02*
D03*
Y329048D02*
D03*
Y324498D02*
D03*
X847100Y333598D02*
D03*
Y329048D02*
D03*
Y324498D02*
D03*
X472100Y333598D02*
D03*
X509600Y258598D02*
D03*
X528350Y183598D02*
D03*
X565900Y108598D02*
D03*
X415900Y99498D02*
D03*
X378350Y174498D02*
D03*
X359600Y249498D02*
D03*
X322100Y324498D02*
D03*
D65*
X1538117Y477600D02*
D03*
X1542033Y476800D02*
D03*
X1542117Y483100D02*
D03*
X1537417Y483284D02*
D03*
D66*
X1434850Y466400D02*
D03*
X1427450Y467941D02*
D03*
D67*
X1491100Y420989D02*
D03*
Y425162D02*
D03*
X1490600Y410927D02*
D03*
Y406754D02*
D03*
X1510118Y458271D02*
D03*
Y454098D02*
D03*
Y445287D02*
D03*
Y441113D02*
D03*
X1429949Y419927D02*
D03*
Y424100D02*
D03*
X1471950Y451687D02*
D03*
Y447513D02*
D03*
X1409849Y471687D02*
D03*
Y467513D02*
D03*
X1423434Y418913D02*
D03*
Y423087D02*
D03*
X1414950Y471698D02*
D03*
Y467524D02*
D03*
D68*
X1546954Y471882D02*
D03*
D69*
X1540261D02*
D03*
Y480150D02*
D03*
X1547742D02*
D03*
D70*
X1458813Y475738D02*
D03*
X1456845D02*
D03*
X1454876D02*
D03*
X1452908D02*
D03*
X1450939D02*
D03*
X1448971D02*
D03*
X1447002D02*
D03*
X1445034D02*
D03*
X1443065D02*
D03*
X1441097D02*
D03*
X1439128D02*
D03*
X1437160D02*
D03*
X1435191D02*
D03*
X1433223D02*
D03*
X1431254D02*
D03*
X1429286D02*
D03*
Y430462D02*
D03*
X1431254D02*
D03*
X1433223D02*
D03*
X1435191D02*
D03*
X1437160D02*
D03*
X1439128D02*
D03*
X1441097D02*
D03*
X1443065D02*
D03*
X1445034D02*
D03*
X1447002D02*
D03*
X1448971D02*
D03*
X1450939D02*
D03*
X1452908D02*
D03*
X1454876D02*
D03*
X1456845D02*
D03*
X1458813D02*
D03*
D71*
X1421412Y467864D02*
D03*
Y465895D02*
D03*
Y463927D02*
D03*
Y461958D02*
D03*
Y459990D02*
D03*
Y458021D02*
D03*
Y456053D02*
D03*
Y454084D02*
D03*
Y452116D02*
D03*
Y450147D02*
D03*
Y448179D02*
D03*
Y446210D02*
D03*
Y444242D02*
D03*
Y442273D02*
D03*
Y440305D02*
D03*
Y438336D02*
D03*
D72*
X1466687D02*
D03*
Y440305D02*
D03*
Y442273D02*
D03*
Y444242D02*
D03*
Y446210D02*
D03*
Y448179D02*
D03*
Y450147D02*
D03*
Y452116D02*
D03*
Y467864D02*
D03*
Y465895D02*
D03*
Y463927D02*
D03*
Y461958D02*
D03*
Y459990D02*
D03*
Y458021D02*
D03*
Y456053D02*
D03*
Y454084D02*
D03*
D73*
X1491650Y475532D02*
D03*
Y442068D02*
D03*
D74*
X1540540Y449200D02*
D03*
D75*
X1518296Y458255D02*
D03*
Y449200D02*
D03*
Y440145D02*
D03*
D76*
X1026236Y366200D02*
D03*
X1080764Y376200D02*
D03*
X1380764Y76200D02*
D03*
X1326236Y66200D02*
D03*
X1052914Y151200D02*
D03*
X998386Y141200D02*
D03*
X491861Y66200D02*
D03*
X546389Y76200D02*
D03*
X1568264Y263700D02*
D03*
X1513736Y253700D02*
D03*
X1568264Y113700D02*
D03*
X1513736Y103700D02*
D03*
X1016861Y216200D02*
D03*
X1071389Y226200D02*
D03*
X60650Y141200D02*
D03*
X115178Y151200D02*
D03*
X41861Y216200D02*
D03*
X96389Y226200D02*
D03*
X32486Y291200D02*
D03*
X87014Y301200D02*
D03*
X1044986Y291200D02*
D03*
X1099514Y301200D02*
D03*
X77677Y76200D02*
D03*
X23149Y66200D02*
D03*
X116899D02*
D03*
X171427Y76200D02*
D03*
X265177D02*
D03*
X210649Y66200D02*
D03*
X13736Y441200D02*
D03*
X68264Y451200D02*
D03*
X88736Y441200D02*
D03*
X143264Y451200D02*
D03*
X163736Y441200D02*
D03*
X218264Y451200D02*
D03*
X238736Y441200D02*
D03*
X293264Y451200D02*
D03*
X313736Y441200D02*
D03*
X368264Y451200D02*
D03*
X388736Y441200D02*
D03*
X443264Y451200D02*
D03*
X463736Y441200D02*
D03*
X518264Y451200D02*
D03*
X538736Y441200D02*
D03*
X593264Y451200D02*
D03*
X613736Y441200D02*
D03*
X668264Y451200D02*
D03*
X688736Y441200D02*
D03*
X743264Y451200D02*
D03*
X763736Y441200D02*
D03*
X818264Y451200D02*
D03*
X838736Y441200D02*
D03*
X893264Y451200D02*
D03*
X913736Y441200D02*
D03*
X968264Y451200D02*
D03*
X988736Y441200D02*
D03*
X1043264Y451200D02*
D03*
X1063736Y441200D02*
D03*
X1118264Y451200D02*
D03*
X1138736Y441200D02*
D03*
X1193264Y451200D02*
D03*
X1213736Y441200D02*
D03*
X1268264Y451200D02*
D03*
X13736Y366200D02*
D03*
X68264Y376200D02*
D03*
X88736Y366200D02*
D03*
X143264Y376200D02*
D03*
X163736Y366200D02*
D03*
X218264Y376200D02*
D03*
X238736Y366200D02*
D03*
X293264Y376200D02*
D03*
X313736Y366200D02*
D03*
X368264Y376200D02*
D03*
X388736Y366200D02*
D03*
X443264Y376200D02*
D03*
X463736Y366200D02*
D03*
X518264Y376200D02*
D03*
X538736Y366200D02*
D03*
X593264Y376200D02*
D03*
X613736Y366200D02*
D03*
X668264Y376200D02*
D03*
X688736Y366200D02*
D03*
X743264Y376200D02*
D03*
X763736Y366200D02*
D03*
X818264Y376200D02*
D03*
X838736Y366200D02*
D03*
X893264Y376200D02*
D03*
X913736Y366200D02*
D03*
X968264Y376200D02*
D03*
X1138736Y366200D02*
D03*
X1193264Y376200D02*
D03*
X1213736Y366200D02*
D03*
X1268264Y376200D02*
D03*
X1288736Y366200D02*
D03*
X1343264Y376200D02*
D03*
X1363736Y366200D02*
D03*
X1418264Y376200D02*
D03*
X1438736Y366200D02*
D03*
X1493264Y376200D02*
D03*
X1513736Y366200D02*
D03*
X1568264Y376200D02*
D03*
X126236Y291200D02*
D03*
X180764Y301200D02*
D03*
X201236Y291200D02*
D03*
X255764Y301200D02*
D03*
X276236Y291200D02*
D03*
X330764Y301200D02*
D03*
X351236Y291200D02*
D03*
X405764Y301200D02*
D03*
X426236Y291200D02*
D03*
X480764Y301200D02*
D03*
X501236Y291200D02*
D03*
X555764Y301200D02*
D03*
X576236Y291200D02*
D03*
X630764Y301200D02*
D03*
X651236Y291200D02*
D03*
X705764Y301200D02*
D03*
X726236Y291200D02*
D03*
X780764Y301200D02*
D03*
X801236Y291200D02*
D03*
X855764Y301200D02*
D03*
X876236Y291200D02*
D03*
X930764Y301200D02*
D03*
X951236Y291200D02*
D03*
X1005764Y301200D02*
D03*
X1138736Y291200D02*
D03*
X1193264Y301200D02*
D03*
X1213736Y291200D02*
D03*
X1268264Y301200D02*
D03*
X1288736Y291200D02*
D03*
X1343264Y301200D02*
D03*
X1363736Y291200D02*
D03*
X1418264Y301200D02*
D03*
X1438736Y291200D02*
D03*
X1493264Y301200D02*
D03*
X144986Y216200D02*
D03*
X199514Y226200D02*
D03*
X219986Y216200D02*
D03*
X274514Y226200D02*
D03*
X444986Y216200D02*
D03*
X499514Y226200D02*
D03*
X519986Y216200D02*
D03*
X574514Y226200D02*
D03*
X594986Y216200D02*
D03*
X649514Y226200D02*
D03*
X669986Y216200D02*
D03*
X724514Y226200D02*
D03*
X744986Y216200D02*
D03*
X799514Y226200D02*
D03*
X819986Y216200D02*
D03*
X874514Y226200D02*
D03*
X894986Y216200D02*
D03*
X949514Y226200D02*
D03*
X1138736Y216200D02*
D03*
X1193264Y226200D02*
D03*
X1213736Y216200D02*
D03*
X1268264Y226200D02*
D03*
X1288736Y216200D02*
D03*
X1343264Y226200D02*
D03*
X1363736Y216200D02*
D03*
X1418264Y226200D02*
D03*
X1438736Y216200D02*
D03*
X1493264Y226200D02*
D03*
X294986Y216200D02*
D03*
X349514Y226200D02*
D03*
X369986Y216200D02*
D03*
X424514Y226200D02*
D03*
X182536Y141200D02*
D03*
X237064Y151200D02*
D03*
X257536Y141200D02*
D03*
X312064Y151200D02*
D03*
X332536Y141200D02*
D03*
X387064Y151200D02*
D03*
X407536Y141200D02*
D03*
X462064Y151200D02*
D03*
X482536Y141200D02*
D03*
X537064Y151200D02*
D03*
X557536Y141200D02*
D03*
X612064Y151200D02*
D03*
X632536Y141200D02*
D03*
X687064Y151200D02*
D03*
X707536Y141200D02*
D03*
X762064Y151200D02*
D03*
X782536Y141200D02*
D03*
X837064Y151200D02*
D03*
X857536Y141200D02*
D03*
X912064Y151200D02*
D03*
X1138736Y141200D02*
D03*
X1193264Y151200D02*
D03*
X1213736Y141200D02*
D03*
X1268264Y151200D02*
D03*
X1288736Y141200D02*
D03*
X1343264Y151200D02*
D03*
X1363736Y141200D02*
D03*
X1418264Y151200D02*
D03*
X1438736Y141200D02*
D03*
X1493264Y151200D02*
D03*
X763736Y66200D02*
D03*
X818264Y76200D02*
D03*
X913736Y66200D02*
D03*
X968264Y76200D02*
D03*
X988736Y66200D02*
D03*
X1043264Y76200D02*
D03*
X1063736Y66200D02*
D03*
X1118264Y76200D02*
D03*
X1138736Y66200D02*
D03*
X1193264Y76200D02*
D03*
X1213736Y66200D02*
D03*
X1268264Y76200D02*
D03*
X1438736Y66200D02*
D03*
X1493264Y76200D02*
D03*
X838736Y66200D02*
D03*
X893264Y76200D02*
D03*
D77*
X69529Y395372D02*
D03*
Y418600D02*
D03*
X144529D02*
D03*
Y395372D02*
D03*
X219400Y395286D02*
D03*
Y418514D02*
D03*
X294529Y418600D02*
D03*
Y395372D02*
D03*
X369529D02*
D03*
Y418600D02*
D03*
X444529D02*
D03*
Y395372D02*
D03*
X519529D02*
D03*
Y418600D02*
D03*
X594529D02*
D03*
Y395372D02*
D03*
X669800Y395486D02*
D03*
Y418714D02*
D03*
X744200Y418514D02*
D03*
Y395286D02*
D03*
X819529Y395372D02*
D03*
Y418600D02*
D03*
X894800Y418514D02*
D03*
Y395286D02*
D03*
X970600D02*
D03*
Y418514D02*
D03*
X1045079Y418600D02*
D03*
Y395372D02*
D03*
X1120079D02*
D03*
Y418600D02*
D03*
X1195079D02*
D03*
Y395372D02*
D03*
X1270079D02*
D03*
Y418600D02*
D03*
X69529Y343600D02*
D03*
Y320372D02*
D03*
X144529D02*
D03*
Y343600D02*
D03*
X219200Y343714D02*
D03*
Y320486D02*
D03*
X294529Y320372D02*
D03*
Y343600D02*
D03*
X369529D02*
D03*
Y320372D02*
D03*
X444529D02*
D03*
Y343600D02*
D03*
X519529D02*
D03*
Y320372D02*
D03*
X594529D02*
D03*
Y343600D02*
D03*
X669529D02*
D03*
Y320372D02*
D03*
X744529D02*
D03*
Y343600D02*
D03*
X819529D02*
D03*
Y320372D02*
D03*
X894800Y320686D02*
D03*
Y343914D02*
D03*
X969529Y343600D02*
D03*
Y320372D02*
D03*
X1082029D02*
D03*
Y343600D02*
D03*
X1195079D02*
D03*
Y320372D02*
D03*
X1270079D02*
D03*
Y343600D02*
D03*
X1344529D02*
D03*
Y320372D02*
D03*
X1419529D02*
D03*
Y343600D02*
D03*
X1494529D02*
D03*
Y320372D02*
D03*
X1569529D02*
D03*
Y343600D02*
D03*
X88279Y268600D02*
D03*
Y245372D02*
D03*
X182029D02*
D03*
Y268600D02*
D03*
X257029D02*
D03*
Y245372D02*
D03*
X332100Y245486D02*
D03*
Y268714D02*
D03*
X406900Y269214D02*
D03*
Y245986D02*
D03*
X482029Y245372D02*
D03*
Y268600D02*
D03*
X557029D02*
D03*
Y245372D02*
D03*
X631800Y245386D02*
D03*
Y268614D02*
D03*
X707100Y268714D02*
D03*
Y245486D02*
D03*
X781800D02*
D03*
Y268714D02*
D03*
X857000Y268614D02*
D03*
Y245386D02*
D03*
X932029Y245372D02*
D03*
Y268600D02*
D03*
X1006400Y274614D02*
D03*
Y251386D02*
D03*
X1102900Y249386D02*
D03*
Y272614D02*
D03*
X1195079Y268600D02*
D03*
Y245372D02*
D03*
X1270079D02*
D03*
Y268600D02*
D03*
X1344529D02*
D03*
Y245372D02*
D03*
X1419600Y245486D02*
D03*
Y268714D02*
D03*
X1494529Y268600D02*
D03*
Y245372D02*
D03*
X97654Y193600D02*
D03*
Y170372D02*
D03*
X200779D02*
D03*
Y193600D02*
D03*
X275779D02*
D03*
Y170372D02*
D03*
X350779D02*
D03*
Y193600D02*
D03*
X425779D02*
D03*
Y170372D02*
D03*
X500779D02*
D03*
Y193600D02*
D03*
X575779D02*
D03*
Y170372D02*
D03*
X650779D02*
D03*
Y193600D02*
D03*
X725779D02*
D03*
Y170372D02*
D03*
X800779D02*
D03*
Y193600D02*
D03*
X875779D02*
D03*
Y170372D02*
D03*
X950779D02*
D03*
Y193600D02*
D03*
X1194529Y170372D02*
D03*
Y193600D02*
D03*
X1269529D02*
D03*
Y170372D02*
D03*
X1344529D02*
D03*
Y193600D02*
D03*
X1419529D02*
D03*
Y170372D02*
D03*
X1494529D02*
D03*
Y193600D02*
D03*
X116443Y118600D02*
D03*
Y95372D02*
D03*
X238329D02*
D03*
Y118600D02*
D03*
X313329D02*
D03*
Y95372D02*
D03*
X388329D02*
D03*
Y118600D02*
D03*
X463329D02*
D03*
Y95372D02*
D03*
X538400Y95486D02*
D03*
Y118714D02*
D03*
X613500Y118514D02*
D03*
Y95286D02*
D03*
X688200D02*
D03*
Y118514D02*
D03*
X763329Y118600D02*
D03*
Y95372D02*
D03*
X838300Y95486D02*
D03*
Y118714D02*
D03*
X913329Y118600D02*
D03*
Y95372D02*
D03*
X1054179D02*
D03*
Y118600D02*
D03*
X1194500Y118714D02*
D03*
Y95486D02*
D03*
X1269529Y95372D02*
D03*
Y118600D02*
D03*
X1344529D02*
D03*
Y95372D02*
D03*
X1419529D02*
D03*
Y118600D02*
D03*
X1494529D02*
D03*
Y95372D02*
D03*
X78942Y43600D02*
D03*
Y20372D02*
D03*
X172700Y20486D02*
D03*
Y43714D02*
D03*
X266441Y43600D02*
D03*
Y20372D02*
D03*
X547654D02*
D03*
Y43600D02*
D03*
X819529D02*
D03*
Y20372D02*
D03*
X894529D02*
D03*
Y43600D02*
D03*
X969800Y43814D02*
D03*
Y20586D02*
D03*
X1044529Y20372D02*
D03*
Y43600D02*
D03*
X1118900Y43614D02*
D03*
Y20386D02*
D03*
X1194600D02*
D03*
Y43614D02*
D03*
X1269600D02*
D03*
Y20386D02*
D03*
X1381300Y20686D02*
D03*
Y43914D02*
D03*
X1494529Y43600D02*
D03*
Y20372D02*
D03*
D78*
X1552714Y303400D02*
D03*
X1529486D02*
D03*
X1086886Y197300D02*
D03*
X1110114D02*
D03*
X1553614Y157300D02*
D03*
X1530386D02*
D03*
M02*
